%TF.GenerationSoftware,KiCad,Pcbnew,9.0.7*%
%TF.CreationDate,2026-03-29T12:42:13+02:00*%
%TF.ProjectId,RC6502_6821_PIA_IO,52433635-3032-45f3-9638-32315f504941,1*%
%TF.SameCoordinates,Original*%
%TF.FileFunction,Copper,L2,Bot*%
%TF.FilePolarity,Positive*%
%FSLAX46Y46*%
G04 Gerber Fmt 4.6, Leading zero omitted, Abs format (unit mm)*
G04 Created by KiCad (PCBNEW 9.0.7) date 2026-03-29 12:42:13*
%MOMM*%
%LPD*%
G01*
G04 APERTURE LIST*
G04 Aperture macros list*
%AMRoundRect*
0 Rectangle with rounded corners*
0 $1 Rounding radius*
0 $2 $3 $4 $5 $6 $7 $8 $9 X,Y pos of 4 corners*
0 Add a 4 corners polygon primitive as box body*
4,1,4,$2,$3,$4,$5,$6,$7,$8,$9,$2,$3,0*
0 Add four circle primitives for the rounded corners*
1,1,$1+$1,$2,$3*
1,1,$1+$1,$4,$5*
1,1,$1+$1,$6,$7*
1,1,$1+$1,$8,$9*
0 Add four rect primitives between the rounded corners*
20,1,$1+$1,$2,$3,$4,$5,0*
20,1,$1+$1,$4,$5,$6,$7,0*
20,1,$1+$1,$6,$7,$8,$9,0*
20,1,$1+$1,$8,$9,$2,$3,0*%
G04 Aperture macros list end*
%TA.AperFunction,ComponentPad*%
%ADD10C,1.600000*%
%TD*%
%TA.AperFunction,ComponentPad*%
%ADD11RoundRect,0.250000X-0.550000X-0.550000X0.550000X-0.550000X0.550000X0.550000X-0.550000X0.550000X0*%
%TD*%
%TA.AperFunction,ComponentPad*%
%ADD12RoundRect,0.250000X-0.550000X0.550000X-0.550000X-0.550000X0.550000X-0.550000X0.550000X0.550000X0*%
%TD*%
%TA.AperFunction,ComponentPad*%
%ADD13R,1.700000X1.700000*%
%TD*%
%TA.AperFunction,ComponentPad*%
%ADD14C,1.700000*%
%TD*%
%TA.AperFunction,ViaPad*%
%ADD15C,0.600000*%
%TD*%
%TA.AperFunction,Conductor*%
%ADD16C,0.350000*%
%TD*%
%TA.AperFunction,Conductor*%
%ADD17C,0.500000*%
%TD*%
%TA.AperFunction,Conductor*%
%ADD18C,0.300000*%
%TD*%
%TA.AperFunction,Conductor*%
%ADD19C,0.200000*%
%TD*%
G04 APERTURE END LIST*
D10*
%TO.P,C2,1*%
%TO.N,VCC*%
X109350000Y-73200000D03*
%TO.P,C2,2*%
%TO.N,GND*%
X106850000Y-73200000D03*
%TD*%
D11*
%TO.P,U1,1,A0*%
%TO.N,A12*%
X189695000Y-78410000D03*
D10*
%TO.P,U1,2,A1*%
%TO.N,A13*%
X189695000Y-80950000D03*
%TO.P,U1,3,A2*%
%TO.N,A14*%
X189695000Y-83490000D03*
%TO.P,U1,4,E1*%
%TO.N,A10*%
X189695000Y-86030000D03*
%TO.P,U1,5,E2*%
%TO.N,A11*%
X189695000Y-88570000D03*
%TO.P,U1,6,E3*%
%TO.N,A15*%
X189695000Y-91110000D03*
%TO.P,U1,7,O7*%
%TO.N,unconnected-(U1-O7-Pad7)*%
X189695000Y-93650000D03*
%TO.P,U1,8,GND*%
%TO.N,GND*%
X189695000Y-96190000D03*
%TO.P,U1,9,O6*%
%TO.N,unconnected-(U1-O6-Pad9)*%
X197315000Y-96190000D03*
%TO.P,U1,10,O5*%
%TO.N,unconnected-(U1-O5-Pad10)*%
X197315000Y-93650000D03*
%TO.P,U1,11,O4*%
%TO.N,Net-(J4-Pin_10)*%
X197315000Y-91110000D03*
%TO.P,U1,12,O3*%
%TO.N,Net-(J4-Pin_8)*%
X197315000Y-88570000D03*
%TO.P,U1,13,O2*%
%TO.N,Net-(J4-Pin_6)*%
X197315000Y-86030000D03*
%TO.P,U1,14,O1*%
%TO.N,Net-(J4-Pin_4)*%
X197315000Y-83490000D03*
%TO.P,U1,15,O0*%
%TO.N,Net-(J4-Pin_2)*%
X197315000Y-80950000D03*
%TO.P,U1,16,VCC*%
%TO.N,VCC*%
X197315000Y-78410000D03*
%TD*%
D12*
%TO.P,U2,1,VSS*%
%TO.N,GND*%
X157500000Y-76560000D03*
D10*
%TO.P,U2,2,PA0*%
%TO.N,/PA0*%
X154960000Y-76560000D03*
%TO.P,U2,3,PA1*%
%TO.N,/PA1*%
X152420000Y-76560000D03*
%TO.P,U2,4,PA2*%
%TO.N,/PA2*%
X149880000Y-76560000D03*
%TO.P,U2,5,PA3*%
%TO.N,/PA3*%
X147340000Y-76560000D03*
%TO.P,U2,6,PA4*%
%TO.N,/PA4*%
X144800000Y-76560000D03*
%TO.P,U2,7,PA5*%
%TO.N,/PA5*%
X142260000Y-76560000D03*
%TO.P,U2,8,PA6*%
%TO.N,/PA6*%
X139720000Y-76560000D03*
%TO.P,U2,9,PA7*%
%TO.N,/PA7*%
X137180000Y-76560000D03*
%TO.P,U2,10,PB0*%
%TO.N,/PB0*%
X134640000Y-76560000D03*
%TO.P,U2,11,PB1*%
%TO.N,/PB1*%
X132100000Y-76560000D03*
%TO.P,U2,12,PB2*%
%TO.N,/PB2*%
X129560000Y-76560000D03*
%TO.P,U2,13,PB3*%
%TO.N,/PB3*%
X127020000Y-76560000D03*
%TO.P,U2,14,PB4*%
%TO.N,/PB4*%
X124480000Y-76560000D03*
%TO.P,U2,15,PB5*%
%TO.N,/PB5*%
X121940000Y-76560000D03*
%TO.P,U2,16,PB6*%
%TO.N,/PB6*%
X119400000Y-76560000D03*
%TO.P,U2,17,PB7*%
%TO.N,/PB7*%
X116860000Y-76560000D03*
%TO.P,U2,18,CB1*%
%TO.N,/CB1*%
X114320000Y-76560000D03*
%TO.P,U2,19,CB2*%
%TO.N,/CB2*%
X111780000Y-76560000D03*
%TO.P,U2,20,VCC*%
%TO.N,VCC*%
X109240000Y-76560000D03*
%TO.P,U2,21,R/~{W}*%
%TO.N,RW*%
X109240000Y-91800000D03*
%TO.P,U2,22,CS0*%
%TO.N,VCC*%
X111780000Y-91800000D03*
%TO.P,U2,23,~{CS2}*%
%TO.N,Net-(J4-Pin_1)*%
X114320000Y-91800000D03*
%TO.P,U2,24,CS1*%
%TO.N,Net-(U2-CS1)*%
X116860000Y-91800000D03*
%TO.P,U2,25,ENABLE*%
%TO.N,PHI2*%
X119400000Y-91800000D03*
%TO.P,U2,26,D7*%
%TO.N,D7*%
X121940000Y-91800000D03*
%TO.P,U2,27,D6*%
%TO.N,D6*%
X124480000Y-91800000D03*
%TO.P,U2,28,D5*%
%TO.N,D5*%
X127020000Y-91800000D03*
%TO.P,U2,29,D4*%
%TO.N,D4*%
X129560000Y-91800000D03*
%TO.P,U2,30,D3*%
%TO.N,D3*%
X132100000Y-91800000D03*
%TO.P,U2,31,D2*%
%TO.N,D2*%
X134640000Y-91800000D03*
%TO.P,U2,32,D1*%
%TO.N,D1*%
X137180000Y-91800000D03*
%TO.P,U2,33,D0*%
%TO.N,D0*%
X139720000Y-91800000D03*
%TO.P,U2,34,~{RESET}*%
%TO.N,RESET*%
X142260000Y-91800000D03*
%TO.P,U2,35,RS1*%
%TO.N,A1*%
X144800000Y-91800000D03*
%TO.P,U2,36,RS0*%
%TO.N,A0*%
X147340000Y-91800000D03*
%TO.P,U2,37,~{IRQB}*%
%TO.N,unconnected-(U2-~{IRQB}-Pad37)*%
X149880000Y-91800000D03*
%TO.P,U2,38,~{IRQA}*%
%TO.N,unconnected-(U2-~{IRQA}-Pad38)*%
X152420000Y-91800000D03*
%TO.P,U2,39,CA2*%
%TO.N,/CA2*%
X154960000Y-91800000D03*
%TO.P,U2,40,CA1*%
%TO.N,/CA1*%
X157500000Y-91800000D03*
%TD*%
%TO.P,C4,1*%
%TO.N,VCC*%
X196250000Y-72800000D03*
%TO.P,C4,2*%
%TO.N,GND*%
X191250000Y-72800000D03*
%TD*%
D13*
%TO.P,J3,1,Pin_1*%
%TO.N,GND*%
X116500000Y-63500000D03*
D14*
%TO.P,J3,2,Pin_2*%
X116500000Y-60960000D03*
%TO.P,J3,3,Pin_3*%
%TO.N,/CB1*%
X119040000Y-63500000D03*
%TO.P,J3,4,Pin_4*%
%TO.N,/CB2*%
X119040000Y-60960000D03*
%TO.P,J3,5,Pin_5*%
%TO.N,/PB6*%
X121580000Y-63500000D03*
%TO.P,J3,6,Pin_6*%
%TO.N,/PB7*%
X121580000Y-60960000D03*
%TO.P,J3,7,Pin_7*%
%TO.N,/PB4*%
X124120000Y-63500000D03*
%TO.P,J3,8,Pin_8*%
%TO.N,/PB5*%
X124120000Y-60960000D03*
%TO.P,J3,9,Pin_9*%
%TO.N,/PB2*%
X126660000Y-63500000D03*
%TO.P,J3,10,Pin_10*%
%TO.N,/PB3*%
X126660000Y-60960000D03*
%TO.P,J3,11,Pin_11*%
%TO.N,/PB0*%
X129200000Y-63500000D03*
%TO.P,J3,12,Pin_12*%
%TO.N,/PB1*%
X129200000Y-60960000D03*
%TO.P,J3,13,Pin_13*%
%TO.N,VCC*%
X131740000Y-63500000D03*
%TO.P,J3,14,Pin_14*%
X131740000Y-60960000D03*
%TD*%
D11*
%TO.P,C1,1*%
%TO.N,VCC*%
X159817621Y-99617621D03*
D10*
%TO.P,C1,2*%
%TO.N,GND*%
X162317621Y-99617621D03*
%TD*%
D13*
%TO.P,J2,1,Pin_1*%
%TO.N,GND*%
X139820000Y-63500000D03*
D14*
%TO.P,J2,2,Pin_2*%
X139820000Y-60960000D03*
%TO.P,J2,3,Pin_3*%
%TO.N,/CA1*%
X142360000Y-63500000D03*
%TO.P,J2,4,Pin_4*%
%TO.N,/CA2*%
X142360000Y-60960000D03*
%TO.P,J2,5,Pin_5*%
%TO.N,/PA6*%
X144900000Y-63500000D03*
%TO.P,J2,6,Pin_6*%
%TO.N,/PA7*%
X144900000Y-60960000D03*
%TO.P,J2,7,Pin_7*%
%TO.N,/PA4*%
X147440000Y-63500000D03*
%TO.P,J2,8,Pin_8*%
%TO.N,/PA5*%
X147440000Y-60960000D03*
%TO.P,J2,9,Pin_9*%
%TO.N,/PA2*%
X149980000Y-63500000D03*
%TO.P,J2,10,Pin_10*%
%TO.N,/PA3*%
X149980000Y-60960000D03*
%TO.P,J2,11,Pin_11*%
%TO.N,/PA0*%
X152520000Y-63500000D03*
%TO.P,J2,12,Pin_12*%
%TO.N,/PA1*%
X152520000Y-60960000D03*
%TO.P,J2,13,Pin_13*%
%TO.N,VCC*%
X155060000Y-63500000D03*
%TO.P,J2,14,Pin_14*%
X155060000Y-60960000D03*
%TD*%
D10*
%TO.P,C3,1*%
%TO.N,VCC*%
X180000000Y-75300000D03*
%TO.P,C3,2*%
%TO.N,GND*%
X175000000Y-75300000D03*
%TD*%
D11*
%TO.P,U3,1*%
%TO.N,unconnected-(U3-Pad1)*%
X173500000Y-80950000D03*
D10*
%TO.P,U3,2*%
%TO.N,A2*%
X173500000Y-83490000D03*
%TO.P,U3,3*%
%TO.N,A3*%
X173500000Y-86030000D03*
%TO.P,U3,4*%
%TO.N,A4*%
X173500000Y-88570000D03*
%TO.P,U3,5*%
%TO.N,A5*%
X173500000Y-91110000D03*
%TO.P,U3,6*%
%TO.N,unconnected-(U3-Pad6)*%
X173500000Y-93650000D03*
%TO.P,U3,7,Vss*%
%TO.N,GND*%
X173500000Y-96190000D03*
%TO.P,U3,8*%
%TO.N,unconnected-(U3-Pad8)*%
X181120000Y-96190000D03*
%TO.P,U3,9*%
%TO.N,A6*%
X181120000Y-93650000D03*
%TO.P,U3,10*%
%TO.N,A7*%
X181120000Y-91110000D03*
%TO.P,U3,11*%
%TO.N,A8*%
X181120000Y-88570000D03*
%TO.P,U3,12*%
%TO.N,A9*%
X181120000Y-86030000D03*
%TO.P,U3,13*%
%TO.N,Net-(U2-CS1)*%
X181120000Y-83490000D03*
%TO.P,U3,14,Vdd*%
%TO.N,VCC*%
X181120000Y-80950000D03*
%TD*%
D13*
%TO.P,J1,1,Pin_1*%
%TO.N,A15*%
X202770000Y-108500000D03*
D14*
%TO.P,J1,2,Pin_2*%
%TO.N,A14*%
X200230000Y-108500000D03*
%TO.P,J1,3,Pin_3*%
%TO.N,A13*%
X197690000Y-108500000D03*
%TO.P,J1,4,Pin_4*%
%TO.N,A12*%
X195150000Y-108500000D03*
%TO.P,J1,5,Pin_5*%
%TO.N,A11*%
X192610000Y-108500000D03*
%TO.P,J1,6,Pin_6*%
%TO.N,A10*%
X190070000Y-108500000D03*
%TO.P,J1,7,Pin_7*%
%TO.N,A9*%
X187530000Y-108500000D03*
%TO.P,J1,8,Pin_8*%
%TO.N,A8*%
X184990000Y-108500000D03*
%TO.P,J1,9,Pin_9*%
%TO.N,A7*%
X182450000Y-108500000D03*
%TO.P,J1,10,Pin_10*%
%TO.N,A6*%
X179910000Y-108500000D03*
%TO.P,J1,11,Pin_11*%
%TO.N,A5*%
X177370000Y-108500000D03*
%TO.P,J1,12,Pin_12*%
%TO.N,A4*%
X174830000Y-108500000D03*
%TO.P,J1,13,Pin_13*%
%TO.N,A3*%
X172290000Y-108500000D03*
%TO.P,J1,14,Pin_14*%
%TO.N,A2*%
X169750000Y-108500000D03*
%TO.P,J1,15,Pin_15*%
%TO.N,A1*%
X167210000Y-108500000D03*
%TO.P,J1,16,Pin_16*%
%TO.N,A0*%
X164670000Y-108500000D03*
%TO.P,J1,17,Pin_17*%
%TO.N,GND*%
X162130000Y-108500000D03*
%TO.P,J1,18,Pin_18*%
%TO.N,VCC*%
X159590000Y-108500000D03*
%TO.P,J1,19,Pin_19*%
%TO.N,PHI2*%
X157050000Y-108500000D03*
%TO.P,J1,20,Pin_20*%
%TO.N,RESET*%
X154510000Y-108500000D03*
%TO.P,J1,21,Pin_21*%
%TO.N,unconnected-(J1-Pin_21-Pad21)*%
X151970000Y-108500000D03*
%TO.P,J1,22,Pin_22*%
%TO.N,unconnected-(J1-Pin_22-Pad22)*%
X149430000Y-108500000D03*
%TO.P,J1,23,Pin_23*%
%TO.N,unconnected-(J1-Pin_23-Pad23)*%
X146890000Y-108500000D03*
%TO.P,J1,24,Pin_24*%
%TO.N,RW*%
X144350000Y-108500000D03*
%TO.P,J1,25,Pin_25*%
%TO.N,unconnected-(J1-Pin_25-Pad25)*%
X141810000Y-108500000D03*
%TO.P,J1,26,Pin_26*%
%TO.N,unconnected-(J1-Pin_26-Pad26)*%
X139270000Y-108500000D03*
%TO.P,J1,27,Pin_27*%
%TO.N,D0*%
X136730000Y-108500000D03*
%TO.P,J1,28,Pin_28*%
%TO.N,D1*%
X134190000Y-108500000D03*
%TO.P,J1,29,Pin_29*%
%TO.N,D2*%
X131650000Y-108500000D03*
%TO.P,J1,30,Pin_30*%
%TO.N,D3*%
X129110000Y-108500000D03*
%TO.P,J1,31,Pin_31*%
%TO.N,D4*%
X126570000Y-108500000D03*
%TO.P,J1,32,Pin_32*%
%TO.N,D5*%
X124030000Y-108500000D03*
%TO.P,J1,33,Pin_33*%
%TO.N,D6*%
X121490000Y-108500000D03*
%TO.P,J1,34,Pin_34*%
%TO.N,D7*%
X118950000Y-108500000D03*
%TO.P,J1,35,Pin_35*%
%TO.N,unconnected-(J1-Pin_35-Pad35)*%
X116410000Y-108500000D03*
%TO.P,J1,36,Pin_36*%
%TO.N,unconnected-(J1-Pin_36-Pad36)*%
X113870000Y-108500000D03*
%TO.P,J1,37,Pin_37*%
%TO.N,unconnected-(J1-Pin_37-Pad37)*%
X111330000Y-108500000D03*
%TO.P,J1,38,Pin_38*%
%TO.N,unconnected-(J1-Pin_38-Pad38)*%
X108790000Y-108500000D03*
%TO.P,J1,39,Pin_39*%
%TO.N,unconnected-(J1-Pin_39-Pad39)*%
X106250000Y-108500000D03*
%TD*%
D13*
%TO.P,J4,1,Pin_1*%
%TO.N,Net-(J4-Pin_1)*%
X189580000Y-61010000D03*
D14*
%TO.P,J4,2,Pin_2*%
%TO.N,Net-(J4-Pin_2)*%
X189580000Y-63550000D03*
%TO.P,J4,3,Pin_3*%
%TO.N,Net-(J4-Pin_1)*%
X187040000Y-61010000D03*
%TO.P,J4,4,Pin_4*%
%TO.N,Net-(J4-Pin_4)*%
X187040000Y-63550000D03*
%TO.P,J4,5,Pin_5*%
%TO.N,Net-(J4-Pin_1)*%
X184500000Y-61010000D03*
%TO.P,J4,6,Pin_6*%
%TO.N,Net-(J4-Pin_6)*%
X184500000Y-63550000D03*
%TO.P,J4,7,Pin_7*%
%TO.N,Net-(J4-Pin_1)*%
X181960000Y-61010000D03*
%TO.P,J4,8,Pin_8*%
%TO.N,Net-(J4-Pin_8)*%
X181960000Y-63550000D03*
%TO.P,J4,9,Pin_9*%
%TO.N,Net-(J4-Pin_1)*%
X179420000Y-61010000D03*
%TO.P,J4,10,Pin_10*%
%TO.N,Net-(J4-Pin_10)*%
X179420000Y-63550000D03*
%TD*%
D15*
%TO.N,A0*%
X164200000Y-95400000D03*
%TO.N,A1*%
X164800000Y-88700000D03*
%TO.N,Net-(J4-Pin_10)*%
X186500000Y-68050000D03*
%TO.N,Net-(J4-Pin_1)*%
X171000000Y-62300000D03*
X156250000Y-79850000D03*
X165500000Y-68550000D03*
%TO.N,Net-(J4-Pin_4)*%
X198380000Y-66800000D03*
%TO.N,Net-(J4-Pin_8)*%
X184375000Y-74425000D03*
%TD*%
D16*
%TO.N,/PA6*%
X139725000Y-74225000D02*
X139725000Y-76555000D01*
X144900000Y-63500000D02*
X144900000Y-71125000D01*
X143375000Y-72650000D02*
X141300000Y-72650000D01*
X139725000Y-76555000D02*
X139720000Y-76560000D01*
X144900000Y-71125000D02*
X143375000Y-72650000D01*
X141300000Y-72650000D02*
X139725000Y-74225000D01*
D17*
%TO.N,PHI2*%
X119300000Y-97600000D02*
X119300000Y-92060000D01*
X153000000Y-100300000D02*
X122000000Y-100300000D01*
X119300000Y-92060000D02*
X119560000Y-91800000D01*
X157200000Y-104500000D02*
X153000000Y-100300000D01*
X157200000Y-108117621D02*
X157200000Y-104500000D01*
X122000000Y-100300000D02*
X119300000Y-97600000D01*
D16*
%TO.N,/PA4*%
X144800000Y-76560000D02*
X144800000Y-75575000D01*
D18*
X147500000Y-63610000D02*
X147440000Y-63550000D01*
D16*
X147425000Y-63515000D02*
X147440000Y-63500000D01*
X147425000Y-72950000D02*
X147425000Y-63515000D01*
X144800000Y-75575000D02*
X147425000Y-72950000D01*
%TO.N,/PA7*%
X137180000Y-72270000D02*
X138275000Y-71175000D01*
X143675000Y-62185000D02*
X144900000Y-60960000D01*
X143675000Y-70250000D02*
X143675000Y-65000000D01*
D18*
X137200000Y-76540000D02*
X137180000Y-76560000D01*
D16*
X138275000Y-71175000D02*
X142750000Y-71175000D01*
X142750000Y-71175000D02*
X143675000Y-70250000D01*
X137180000Y-76560000D02*
X137180000Y-72270000D01*
X143675000Y-65000000D02*
X143675000Y-62185000D01*
D18*
X145310000Y-61010000D02*
X144900000Y-61010000D01*
D16*
%TO.N,/PA0*%
X154960000Y-76560000D02*
X154960000Y-68435000D01*
X152520000Y-65855000D02*
X152520000Y-63500000D01*
X152450000Y-65925000D02*
X152520000Y-65855000D01*
X154960000Y-68435000D02*
X152450000Y-65925000D01*
D17*
%TO.N,A0*%
X148700000Y-95400000D02*
X164200000Y-95400000D01*
X147340000Y-91800000D02*
X147340000Y-94040000D01*
X147340000Y-94040000D02*
X148700000Y-95400000D01*
%TO.N,Net-(U2-CS1)*%
X181120000Y-83490000D02*
X178490000Y-83490000D01*
X171000000Y-78500000D02*
X171000000Y-83500000D01*
X171500000Y-78000000D02*
X171000000Y-78500000D01*
X167500000Y-87000000D02*
X118500000Y-87000000D01*
X118500000Y-87000000D02*
X117100000Y-88400000D01*
X178490000Y-83490000D02*
X177500000Y-82500000D01*
X177500000Y-80500000D02*
X175000000Y-78000000D01*
X171000000Y-83500000D02*
X167500000Y-87000000D01*
D18*
X181040000Y-83300000D02*
X181120000Y-83220000D01*
D17*
X117100000Y-88400000D02*
X117100000Y-91560000D01*
X177500000Y-82500000D02*
X177500000Y-80500000D01*
X175000000Y-78000000D02*
X171500000Y-78000000D01*
D18*
X116860000Y-91800000D02*
X117100000Y-91560000D01*
%TO.N,/PA2*%
X149880000Y-76560000D02*
X149880000Y-63600000D01*
X149880000Y-63600000D02*
X149980000Y-63500000D01*
D17*
%TO.N,GND*%
X139820000Y-58320000D02*
X138800000Y-57300000D01*
X170240000Y-76560000D02*
X171500000Y-75300000D01*
X162280000Y-108117621D02*
X162280000Y-108800000D01*
X175000000Y-75300000D02*
X178000000Y-78300000D01*
X182500000Y-68800000D02*
X186500000Y-72800000D01*
X189700000Y-99100000D02*
X189700000Y-96195000D01*
X189700000Y-96195000D02*
X189695000Y-96190000D01*
X175500000Y-68800000D02*
X182500000Y-68800000D01*
X138300000Y-57300000D02*
X117500000Y-57300000D01*
X173000000Y-57300000D02*
X175000000Y-59300000D01*
X116500000Y-58300000D02*
X116500000Y-61010000D01*
X162317621Y-108762379D02*
X162317621Y-99617621D01*
X172000000Y-99617621D02*
X172182379Y-99617621D01*
X162280000Y-108800000D02*
X162317621Y-108762379D01*
X138800000Y-57300000D02*
X138300000Y-57300000D01*
X157500000Y-76560000D02*
X170240000Y-76560000D01*
X162317621Y-99617621D02*
X172000000Y-99617621D01*
X171500000Y-75300000D02*
X175000000Y-75300000D01*
X178000000Y-78300000D02*
X184100000Y-78300000D01*
X184500000Y-78700000D02*
X184500000Y-94700000D01*
X116500000Y-61010000D02*
X116460000Y-61050000D01*
X184100000Y-78300000D02*
X184500000Y-78700000D01*
X173000000Y-57300000D02*
X138800000Y-57300000D01*
X175000000Y-68300000D02*
X175500000Y-68800000D01*
X173500000Y-98300000D02*
X173500000Y-95920000D01*
X108000000Y-65000000D02*
X115050000Y-65000000D01*
X184500000Y-94700000D02*
X189300000Y-99500000D01*
X172182379Y-99617621D02*
X173500000Y-98300000D01*
X116460000Y-63590000D02*
X116460000Y-61050000D01*
X175000000Y-75300000D02*
X175000000Y-69300000D01*
X175000000Y-59300000D02*
X175000000Y-68300000D01*
D19*
X162317621Y-99617621D02*
X162182379Y-99617621D01*
X162182379Y-99617621D02*
X162000000Y-99800000D01*
D17*
X106850000Y-73200000D02*
X106850000Y-66150000D01*
X139820000Y-63550000D02*
X139820000Y-58320000D01*
X117500000Y-57300000D02*
X116500000Y-58300000D01*
X189182379Y-99617621D02*
X189300000Y-99500000D01*
X175000000Y-69300000D02*
X175500000Y-68800000D01*
X186500000Y-72800000D02*
X191500000Y-72800000D01*
X106850000Y-66150000D02*
X108000000Y-65000000D01*
X189300000Y-99500000D02*
X189700000Y-99100000D01*
X172000000Y-99617621D02*
X189182379Y-99617621D01*
X116450000Y-63600000D02*
X116460000Y-63590000D01*
X115050000Y-65000000D02*
X116500000Y-63550000D01*
D16*
%TO.N,/PB0*%
X134640000Y-76560000D02*
X134640000Y-71665000D01*
X129250000Y-66275000D02*
X129250000Y-63550000D01*
X134640000Y-71665000D02*
X129250000Y-66275000D01*
D18*
X129250000Y-63550000D02*
X129200000Y-63500000D01*
D16*
%TO.N,/PB2*%
X126660000Y-70785000D02*
X129500000Y-73625000D01*
X129500000Y-73625000D02*
X129500000Y-76500000D01*
X126660000Y-63500000D02*
X126660000Y-70785000D01*
X129500000Y-76500000D02*
X129560000Y-76560000D01*
D17*
%TO.N,RW*%
X109500000Y-94800000D02*
X109500000Y-91900000D01*
X109500000Y-91900000D02*
X109400000Y-91800000D01*
X144500000Y-105800000D02*
X141600000Y-102900000D01*
X117600000Y-102900000D02*
X109500000Y-94800000D01*
X141600000Y-102900000D02*
X117600000Y-102900000D01*
X144500000Y-108117621D02*
X144500000Y-105800000D01*
D18*
%TO.N,/PB5*%
X121940000Y-66335000D02*
X122850000Y-65425000D01*
X121940000Y-76560000D02*
X121940000Y-66335000D01*
X122850000Y-62230000D02*
X124120000Y-60960000D01*
X122850000Y-65425000D02*
X122850000Y-62230000D01*
D17*
%TO.N,A1*%
X164800000Y-88700000D02*
X145600000Y-88700000D01*
X145600000Y-88700000D02*
X144800000Y-89500000D01*
X144800000Y-89500000D02*
X144800000Y-91800000D01*
D16*
%TO.N,/CB2*%
X111750000Y-71375000D02*
X111750000Y-76530000D01*
X117750000Y-62250000D02*
X117750000Y-65375000D01*
X119040000Y-60960000D02*
X117750000Y-62250000D01*
X111750000Y-76530000D02*
X111780000Y-76560000D01*
X117750000Y-65375000D02*
X111750000Y-71375000D01*
%TO.N,/PB7*%
X121115000Y-60960000D02*
X121580000Y-60960000D01*
X120300000Y-61775000D02*
X121115000Y-60960000D01*
X116860000Y-76560000D02*
X116860000Y-72340000D01*
X116860000Y-72340000D02*
X120300000Y-68900000D01*
X120300000Y-68900000D02*
X120300000Y-61775000D01*
D17*
%TO.N,Net-(J4-Pin_10)*%
X186500000Y-68050000D02*
X184500000Y-68050000D01*
X182500000Y-66050000D02*
X180250000Y-66050000D01*
X184500000Y-68050000D02*
X182500000Y-66050000D01*
D18*
X179500000Y-63420000D02*
X179420000Y-63340000D01*
D17*
X179500000Y-65300000D02*
X179500000Y-63420000D01*
X180250000Y-66050000D02*
X179500000Y-65300000D01*
D18*
%TO.N,A12*%
X189695000Y-78410000D02*
X189890000Y-78410000D01*
X189695000Y-77855000D02*
X189750000Y-77800000D01*
X189890000Y-78410000D02*
X189900000Y-78400000D01*
X189695000Y-78410000D02*
X189695000Y-77855000D01*
D17*
%TO.N,A14*%
X188060000Y-92400000D02*
X187400000Y-91740000D01*
X191480000Y-92400000D02*
X188520000Y-92400000D01*
X200380000Y-108280000D02*
X197900000Y-105800000D01*
X194000000Y-94430000D02*
X191970000Y-92400000D01*
X196200000Y-105800000D02*
X194000000Y-103600000D01*
X191970000Y-92400000D02*
X191480000Y-92400000D01*
D18*
X200380000Y-108800000D02*
X200380000Y-108280000D01*
D17*
X197900000Y-105800000D02*
X196200000Y-105800000D01*
D18*
X189685000Y-83500000D02*
X189695000Y-83490000D01*
D17*
X188520000Y-92400000D02*
X188060000Y-92400000D01*
X194000000Y-103600000D02*
X194000000Y-94430000D01*
X187400000Y-91740000D02*
X187400000Y-84300000D01*
X188200000Y-83500000D02*
X189685000Y-83500000D01*
X187400000Y-84300000D02*
X188200000Y-83500000D01*
%TO.N,A13*%
X194700000Y-106800000D02*
X191800000Y-103900000D01*
X191800000Y-95680000D02*
X191040000Y-94920000D01*
X186100000Y-82200000D02*
X187200000Y-81100000D01*
X197840000Y-107340000D02*
X197300000Y-106800000D01*
X187200000Y-81100000D02*
X189545000Y-81100000D01*
X191040000Y-94920000D02*
X187920000Y-94920000D01*
X191800000Y-103900000D02*
X191800000Y-95680000D01*
D18*
X189545000Y-81100000D02*
X189695000Y-80950000D01*
D17*
X187920000Y-94920000D02*
X186100000Y-93100000D01*
X197300000Y-106800000D02*
X194700000Y-106800000D01*
X197840000Y-108800000D02*
X197840000Y-107340000D01*
X186100000Y-93100000D02*
X186100000Y-82200000D01*
%TO.N,A15*%
X200200000Y-106500000D02*
X195300000Y-101600000D01*
X202000000Y-106500000D02*
X200200000Y-106500000D01*
X195300000Y-92800000D02*
X193610000Y-91110000D01*
X195300000Y-101600000D02*
X195300000Y-92800000D01*
X202770000Y-108500000D02*
X202770000Y-107270000D01*
X202770000Y-107270000D02*
X202000000Y-106500000D01*
X193610000Y-91110000D02*
X189695000Y-91110000D01*
D18*
X202920000Y-108117621D02*
X202900000Y-108097621D01*
D17*
%TO.N,Net-(J4-Pin_1)*%
X114320000Y-86230000D02*
X116250000Y-84300000D01*
X171000000Y-66550000D02*
X171000000Y-62300000D01*
X156250000Y-83300000D02*
X156250000Y-79850000D01*
X114320000Y-91800000D02*
X114320000Y-86230000D01*
X169000000Y-68550000D02*
X165500000Y-68550000D01*
X155250000Y-84300000D02*
X156250000Y-83300000D01*
X169000000Y-68550000D02*
X171000000Y-66550000D01*
X116250000Y-84300000D02*
X155250000Y-84300000D01*
D18*
X165500000Y-68550000D02*
X165450000Y-68550000D01*
D17*
%TO.N,Net-(J4-Pin_2)*%
X199250000Y-65300000D02*
X191540000Y-65300000D01*
X198850000Y-80950000D02*
X200250000Y-79550000D01*
X200250000Y-66300000D02*
X199250000Y-65300000D01*
X200250000Y-79550000D02*
X200250000Y-66300000D01*
X197315000Y-80950000D02*
X198850000Y-80950000D01*
D18*
X197315000Y-80950000D02*
X197315000Y-80985000D01*
D17*
X189580000Y-63340000D02*
X191540000Y-65300000D01*
%TO.N,Net-(J4-Pin_4)*%
X198380000Y-66800000D02*
X190290000Y-66800000D01*
X190290000Y-66800000D02*
X187040000Y-63550000D01*
%TO.N,Net-(J4-Pin_8)*%
X191860000Y-84910000D02*
X191860000Y-76910000D01*
X191860000Y-76910000D02*
X190500000Y-75550000D01*
X185500000Y-75550000D02*
X184375000Y-74425000D01*
D18*
X184375000Y-74425000D02*
X184250000Y-74300000D01*
D17*
X195520000Y-88570000D02*
X191860000Y-84910000D01*
X190500000Y-75550000D02*
X185500000Y-75550000D01*
X197315000Y-88570000D02*
X195520000Y-88570000D01*
%TO.N,Net-(J4-Pin_6)*%
X195730000Y-86030000D02*
X193980000Y-84280000D01*
X197315000Y-86030000D02*
X195730000Y-86030000D01*
X191500000Y-68550000D02*
X189710000Y-68550000D01*
X189710000Y-68550000D02*
X184500000Y-63340000D01*
X193980000Y-71030000D02*
X191500000Y-68550000D01*
X193980000Y-84280000D02*
X193980000Y-71030000D01*
%TD*%
%TA.AperFunction,NonConductor*%
G36*
X118400000Y-101950000D02*
G01*
X117801362Y-101950000D01*
X117771921Y-101941355D01*
X117761017Y-101938983D01*
X118400000Y-101300000D01*
X118400000Y-101950000D01*
G37*
%TD.AperFunction*%
%TA.AperFunction,NonConductor*%
G36*
X118400000Y-97850000D02*
G01*
X118400000Y-98000000D01*
X118050000Y-97650000D01*
X118050000Y-97516487D01*
X118060664Y-97510664D01*
X118400000Y-97850000D01*
G37*
%TD.AperFunction*%
%TA.AperFunction,NonConductor*%
G36*
X121400000Y-101000000D02*
G01*
X121704134Y-101000000D01*
X121734309Y-101003728D01*
X121743161Y-101005948D01*
X121781088Y-101021659D01*
X121897241Y-101044763D01*
X121919073Y-101049105D01*
X121926081Y-101050500D01*
X121926082Y-101050500D01*
X121926083Y-101050500D01*
X122073918Y-101050500D01*
X152637770Y-101050500D01*
X152704809Y-101070185D01*
X152725451Y-101086819D01*
X156263681Y-104625049D01*
X156297166Y-104686372D01*
X156300000Y-104712730D01*
X156300000Y-106848638D01*
X156291355Y-106878078D01*
X156284832Y-106908065D01*
X156281077Y-106913080D01*
X156280315Y-106915677D01*
X156263681Y-106936319D01*
X156236319Y-106963681D01*
X156174996Y-106997166D01*
X156148638Y-107000000D01*
X145924000Y-107000000D01*
X145856961Y-106980315D01*
X145811206Y-106927511D01*
X145800000Y-106876000D01*
X145800000Y-105700000D01*
X142350000Y-102250000D01*
X142014776Y-102250000D01*
X141961381Y-102236625D01*
X141961124Y-102237247D01*
X141956933Y-102235511D01*
X141956322Y-102235358D01*
X141955490Y-102234913D01*
X141818917Y-102178343D01*
X141818907Y-102178340D01*
X141673920Y-102149500D01*
X141673918Y-102149500D01*
X118524000Y-102149500D01*
X118456961Y-102129815D01*
X118411206Y-102077011D01*
X118400000Y-102025500D01*
X118400000Y-101950000D01*
X118400000Y-98000000D01*
X121400000Y-101000000D01*
G37*
%TD.AperFunction*%
%TA.AperFunction,NonConductor*%
G36*
X111677648Y-93100500D02*
G01*
X111882352Y-93100500D01*
X111885509Y-93100000D01*
X114206419Y-93100000D01*
X114216142Y-93100382D01*
X114217642Y-93100500D01*
X114217648Y-93100500D01*
X114422358Y-93100500D01*
X114423858Y-93100382D01*
X114433581Y-93100000D01*
X116754491Y-93100000D01*
X116757648Y-93100500D01*
X116962352Y-93100500D01*
X116965509Y-93100000D01*
X118276000Y-93100000D01*
X118343039Y-93119685D01*
X118388794Y-93172489D01*
X118400000Y-93224000D01*
X118400000Y-97850000D01*
X118050000Y-97500000D01*
X118050000Y-97650000D01*
X118400000Y-98000000D01*
X118400000Y-101300000D01*
X117761658Y-101938341D01*
X117734323Y-101930315D01*
X117713681Y-101913681D01*
X110436319Y-94636319D01*
X110402834Y-94574996D01*
X110400000Y-94548638D01*
X110400000Y-93224000D01*
X110419685Y-93156961D01*
X110472489Y-93111206D01*
X110524000Y-93100000D01*
X111674491Y-93100000D01*
X111677648Y-93100500D01*
G37*
%TD.AperFunction*%
%TA.AperFunction,Conductor*%
%TO.N,GND*%
G36*
X161664075Y-108692993D02*
G01*
X161729901Y-108807007D01*
X161822993Y-108900099D01*
X161937007Y-108965925D01*
X162000591Y-108982962D01*
X161430373Y-109553181D01*
X161369050Y-109586666D01*
X161342692Y-109589500D01*
X160568336Y-109589500D01*
X160501297Y-109569815D01*
X160455542Y-109517011D01*
X160445598Y-109447853D01*
X160474623Y-109384297D01*
X160480655Y-109377819D01*
X160543828Y-109314646D01*
X160659524Y-109155405D01*
X160693679Y-109088370D01*
X160741652Y-109037575D01*
X160809473Y-109020779D01*
X160875608Y-109043316D01*
X160914648Y-109088370D01*
X160975370Y-109207542D01*
X160975373Y-109207547D01*
X161014728Y-109261716D01*
X161647037Y-108629408D01*
X161664075Y-108692993D01*
G37*
%TD.AperFunction*%
%TA.AperFunction,Conductor*%
G36*
X163245270Y-109261717D02*
G01*
X163245270Y-109261716D01*
X163284622Y-109207554D01*
X163345350Y-109088370D01*
X163393324Y-109037574D01*
X163461145Y-109020779D01*
X163527280Y-109043316D01*
X163566320Y-109088370D01*
X163600476Y-109155405D01*
X163716172Y-109314646D01*
X163716174Y-109314648D01*
X163779345Y-109377819D01*
X163812830Y-109439142D01*
X163807846Y-109508834D01*
X163765974Y-109564767D01*
X163700510Y-109589184D01*
X163691664Y-109589500D01*
X162917308Y-109589500D01*
X162850269Y-109569815D01*
X162829627Y-109553181D01*
X162259408Y-108982962D01*
X162322993Y-108965925D01*
X162437007Y-108900099D01*
X162530099Y-108807007D01*
X162595925Y-108692993D01*
X162612962Y-108629409D01*
X163245270Y-109261717D01*
G37*
%TD.AperFunction*%
%TA.AperFunction,Conductor*%
G36*
X140935270Y-61721717D02*
G01*
X140935270Y-61721716D01*
X140974622Y-61667554D01*
X141035350Y-61548370D01*
X141083324Y-61497574D01*
X141151145Y-61480779D01*
X141217280Y-61503316D01*
X141256320Y-61548370D01*
X141290476Y-61615405D01*
X141406172Y-61774646D01*
X141545354Y-61913828D01*
X141704595Y-62029524D01*
X141802724Y-62079523D01*
X141881213Y-62119515D01*
X141932009Y-62167489D01*
X141948804Y-62235310D01*
X141926267Y-62301445D01*
X141881213Y-62340485D01*
X141704594Y-62430476D01*
X141675501Y-62451614D01*
X141545354Y-62546172D01*
X141545352Y-62546174D01*
X141545351Y-62546174D01*
X141406171Y-62685354D01*
X141394317Y-62701671D01*
X141338987Y-62744336D01*
X141269373Y-62750314D01*
X141207579Y-62717707D01*
X141173222Y-62656868D01*
X141170000Y-62628784D01*
X141170000Y-62602172D01*
X141169999Y-62602155D01*
X141163598Y-62542627D01*
X141163596Y-62542620D01*
X141113354Y-62407913D01*
X141113350Y-62407906D01*
X141027190Y-62292812D01*
X141027187Y-62292809D01*
X140912093Y-62206649D01*
X140912086Y-62206645D01*
X140777380Y-62156403D01*
X140777373Y-62156401D01*
X140694555Y-62147497D01*
X140694884Y-62144431D01*
X140677875Y-62145330D01*
X140618803Y-62112356D01*
X139949408Y-61442962D01*
X140012993Y-61425925D01*
X140127007Y-61360099D01*
X140220099Y-61267007D01*
X140285925Y-61152993D01*
X140302962Y-61089408D01*
X140935270Y-61721717D01*
G37*
%TD.AperFunction*%
%TA.AperFunction,Conductor*%
G36*
X203967539Y-55110185D02*
G01*
X204013294Y-55162989D01*
X204024500Y-55214500D01*
X204024500Y-107204262D01*
X204004815Y-107271301D01*
X203952011Y-107317056D01*
X203882853Y-107327000D01*
X203844205Y-107314747D01*
X203837532Y-107311347D01*
X203776582Y-107280291D01*
X203745301Y-107264352D01*
X203651524Y-107249500D01*
X203651519Y-107249500D01*
X203530930Y-107249500D01*
X203463891Y-107229815D01*
X203418136Y-107177011D01*
X203409313Y-107149691D01*
X203395502Y-107080263D01*
X203395501Y-107080256D01*
X203346465Y-106961873D01*
X203346464Y-106961870D01*
X203275277Y-106855331D01*
X203275271Y-106855324D01*
X202414673Y-105994726D01*
X202414669Y-105994723D01*
X202308127Y-105923535D01*
X202189744Y-105874499D01*
X202189738Y-105874497D01*
X202064071Y-105849500D01*
X202064069Y-105849500D01*
X200520808Y-105849500D01*
X200453769Y-105829815D01*
X200433127Y-105813181D01*
X196505204Y-101885258D01*
X199249500Y-101885258D01*
X199249500Y-102114741D01*
X199274446Y-102304215D01*
X199279452Y-102342238D01*
X199279453Y-102342240D01*
X199338842Y-102563887D01*
X199426650Y-102775876D01*
X199426657Y-102775890D01*
X199541392Y-102974617D01*
X199681081Y-103156661D01*
X199681089Y-103156670D01*
X199843330Y-103318911D01*
X199843338Y-103318918D01*
X200025382Y-103458607D01*
X200025385Y-103458608D01*
X200025388Y-103458611D01*
X200224112Y-103573344D01*
X200224117Y-103573346D01*
X200224123Y-103573349D01*
X200256643Y-103586819D01*
X200436113Y-103661158D01*
X200657762Y-103720548D01*
X200885266Y-103750500D01*
X200885273Y-103750500D01*
X201114727Y-103750500D01*
X201114734Y-103750500D01*
X201342238Y-103720548D01*
X201563887Y-103661158D01*
X201775888Y-103573344D01*
X201974612Y-103458611D01*
X202156661Y-103318919D01*
X202156665Y-103318914D01*
X202156670Y-103318911D01*
X202318911Y-103156670D01*
X202318914Y-103156665D01*
X202318919Y-103156661D01*
X202458611Y-102974612D01*
X202573344Y-102775888D01*
X202661158Y-102563887D01*
X202720548Y-102342238D01*
X202750500Y-102114734D01*
X202750500Y-101885266D01*
X202720548Y-101657762D01*
X202661158Y-101436113D01*
X202573344Y-101224112D01*
X202458611Y-101025388D01*
X202458608Y-101025385D01*
X202458607Y-101025382D01*
X202318918Y-100843338D01*
X202318911Y-100843330D01*
X202156670Y-100681089D01*
X202156661Y-100681081D01*
X201974617Y-100541392D01*
X201775890Y-100426657D01*
X201775876Y-100426650D01*
X201563887Y-100338842D01*
X201342238Y-100279452D01*
X201304215Y-100274446D01*
X201114741Y-100249500D01*
X201114734Y-100249500D01*
X200885266Y-100249500D01*
X200885258Y-100249500D01*
X200668715Y-100278009D01*
X200657762Y-100279452D01*
X200627409Y-100287585D01*
X200436112Y-100338842D01*
X200224123Y-100426650D01*
X200224109Y-100426657D01*
X200025382Y-100541392D01*
X199843338Y-100681081D01*
X199681081Y-100843338D01*
X199541392Y-101025382D01*
X199426657Y-101224109D01*
X199426650Y-101224123D01*
X199338842Y-101436112D01*
X199279453Y-101657759D01*
X199279451Y-101657770D01*
X199249500Y-101885258D01*
X196505204Y-101885258D01*
X195986819Y-101366873D01*
X195953334Y-101305550D01*
X195950500Y-101279192D01*
X195950500Y-96658305D01*
X195970185Y-96591266D01*
X196022989Y-96545511D01*
X196092147Y-96535567D01*
X196155703Y-96564592D01*
X196192429Y-96619984D01*
X196198696Y-96639268D01*
X196202454Y-96650836D01*
X196288240Y-96819199D01*
X196399310Y-96972073D01*
X196532927Y-97105690D01*
X196685801Y-97216760D01*
X196765347Y-97257290D01*
X196854163Y-97302545D01*
X196854165Y-97302545D01*
X196854168Y-97302547D01*
X196940364Y-97330554D01*
X197033881Y-97360940D01*
X197220514Y-97390500D01*
X197220519Y-97390500D01*
X197409486Y-97390500D01*
X197596118Y-97360940D01*
X197775832Y-97302547D01*
X197944199Y-97216760D01*
X198097073Y-97105690D01*
X198230690Y-96972073D01*
X198341760Y-96819199D01*
X198427547Y-96650832D01*
X198485940Y-96471118D01*
X198515500Y-96284486D01*
X198515500Y-96095513D01*
X198485940Y-95908881D01*
X198445924Y-95785726D01*
X198427547Y-95729168D01*
X198427545Y-95729165D01*
X198427545Y-95729163D01*
X198369850Y-95615931D01*
X198341760Y-95560801D01*
X198230690Y-95407927D01*
X198097073Y-95274310D01*
X197944199Y-95163240D01*
X197775836Y-95077454D01*
X197701472Y-95053291D01*
X197654195Y-95037930D01*
X197596521Y-94998493D01*
X197569323Y-94934134D01*
X197581238Y-94865288D01*
X197628482Y-94813812D01*
X197654194Y-94802069D01*
X197775832Y-94762547D01*
X197944199Y-94676760D01*
X198097073Y-94565690D01*
X198230690Y-94432073D01*
X198341760Y-94279199D01*
X198427547Y-94110832D01*
X198485940Y-93931118D01*
X198497174Y-93860191D01*
X198515500Y-93744486D01*
X198515500Y-93555513D01*
X198485940Y-93368881D01*
X198445924Y-93245726D01*
X198427547Y-93189168D01*
X198427545Y-93189165D01*
X198427545Y-93189163D01*
X198366546Y-93069446D01*
X198341760Y-93020801D01*
X198230690Y-92867927D01*
X198097073Y-92734310D01*
X197944199Y-92623240D01*
X197927980Y-92614976D01*
X197775836Y-92537454D01*
X197701472Y-92513291D01*
X197654195Y-92497930D01*
X197596521Y-92458493D01*
X197569323Y-92394134D01*
X197581238Y-92325288D01*
X197628482Y-92273812D01*
X197654194Y-92262069D01*
X197775832Y-92222547D01*
X197944199Y-92136760D01*
X198097073Y-92025690D01*
X198230690Y-91892073D01*
X198341760Y-91739199D01*
X198427547Y-91570832D01*
X198485940Y-91391118D01*
X198494169Y-91339163D01*
X198515500Y-91204486D01*
X198515500Y-91015513D01*
X198485940Y-90828881D01*
X198452360Y-90725534D01*
X198427547Y-90649168D01*
X198427545Y-90649165D01*
X198427545Y-90649163D01*
X198343644Y-90484499D01*
X198341760Y-90480801D01*
X198230690Y-90327927D01*
X198097073Y-90194310D01*
X197944199Y-90083240D01*
X197775836Y-89997454D01*
X197701472Y-89973291D01*
X197654195Y-89957930D01*
X197596521Y-89918493D01*
X197569323Y-89854134D01*
X197581238Y-89785288D01*
X197628482Y-89733812D01*
X197654194Y-89722069D01*
X197775832Y-89682547D01*
X197944199Y-89596760D01*
X198097073Y-89485690D01*
X198230690Y-89352073D01*
X198341760Y-89199199D01*
X198427547Y-89030832D01*
X198485940Y-88851118D01*
X198514714Y-88669446D01*
X198515500Y-88664486D01*
X198515500Y-88475513D01*
X198485940Y-88288881D01*
X198427545Y-88109163D01*
X198382290Y-88020347D01*
X198341760Y-87940801D01*
X198230690Y-87787927D01*
X198097073Y-87654310D01*
X197944199Y-87543240D01*
X197944197Y-87543239D01*
X197775836Y-87457454D01*
X197701472Y-87433291D01*
X197654195Y-87417930D01*
X197596521Y-87378493D01*
X197569323Y-87314134D01*
X197581238Y-87245288D01*
X197628482Y-87193812D01*
X197654194Y-87182069D01*
X197775832Y-87142547D01*
X197944199Y-87056760D01*
X198097073Y-86945690D01*
X198230690Y-86812073D01*
X198341760Y-86659199D01*
X198427547Y-86490832D01*
X198485940Y-86311118D01*
X198515500Y-86124486D01*
X198515500Y-85935513D01*
X198485940Y-85748881D01*
X198427545Y-85569163D01*
X198341759Y-85400800D01*
X198230690Y-85247927D01*
X198097073Y-85114310D01*
X197944199Y-85003240D01*
X197886946Y-84974068D01*
X197775836Y-84917454D01*
X197701472Y-84893291D01*
X197654195Y-84877930D01*
X197596521Y-84838493D01*
X197569323Y-84774134D01*
X197581238Y-84705288D01*
X197628482Y-84653812D01*
X197654194Y-84642069D01*
X197775832Y-84602547D01*
X197944199Y-84516760D01*
X198097073Y-84405690D01*
X198230690Y-84272073D01*
X198341760Y-84119199D01*
X198427547Y-83950832D01*
X198485940Y-83771118D01*
X198493476Y-83723538D01*
X198515500Y-83584486D01*
X198515500Y-83395513D01*
X198485940Y-83208881D01*
X198427545Y-83029163D01*
X198341759Y-82860800D01*
X198333549Y-82849500D01*
X198230690Y-82707927D01*
X198097073Y-82574310D01*
X197944199Y-82463240D01*
X197885099Y-82433127D01*
X197775836Y-82377454D01*
X197701472Y-82353291D01*
X197654195Y-82337930D01*
X197596521Y-82298493D01*
X197569323Y-82234134D01*
X197581238Y-82165288D01*
X197628482Y-82113812D01*
X197654194Y-82102069D01*
X197775832Y-82062547D01*
X197944199Y-81976760D01*
X198097073Y-81865690D01*
X198230690Y-81732073D01*
X198289147Y-81651613D01*
X198344478Y-81608949D01*
X198389465Y-81600500D01*
X198914071Y-81600500D01*
X199021153Y-81579199D01*
X199039744Y-81575501D01*
X199158127Y-81526465D01*
X199200751Y-81497985D01*
X199200752Y-81497985D01*
X199248580Y-81466026D01*
X199264669Y-81455277D01*
X200755277Y-79964669D01*
X200826465Y-79858127D01*
X200875501Y-79739744D01*
X200894215Y-79645667D01*
X200900500Y-79614071D01*
X200900500Y-66235928D01*
X200875502Y-66110261D01*
X200875501Y-66110260D01*
X200875501Y-66110256D01*
X200861782Y-66077135D01*
X200830149Y-66000765D01*
X200830147Y-66000762D01*
X200826465Y-65991872D01*
X200826462Y-65991868D01*
X200755278Y-65885332D01*
X200755272Y-65885325D01*
X199664673Y-64794726D01*
X199662614Y-64793350D01*
X199558127Y-64723535D01*
X199548890Y-64719709D01*
X199439744Y-64674499D01*
X199439738Y-64674497D01*
X199314071Y-64649500D01*
X199314069Y-64649500D01*
X191860808Y-64649500D01*
X191793769Y-64629815D01*
X191773127Y-64613181D01*
X190866819Y-63706873D01*
X190833334Y-63645550D01*
X190830500Y-63619192D01*
X190830500Y-63451577D01*
X190799709Y-63257173D01*
X190753925Y-63116267D01*
X190738884Y-63069975D01*
X190738882Y-63069972D01*
X190738882Y-63069970D01*
X190649523Y-62894594D01*
X190533828Y-62735354D01*
X190394646Y-62596172D01*
X190241377Y-62484815D01*
X190198714Y-62429487D01*
X190192735Y-62359873D01*
X190225341Y-62298078D01*
X190286180Y-62263721D01*
X190314264Y-62260499D01*
X190461518Y-62260499D01*
X190555304Y-62245646D01*
X190668342Y-62188050D01*
X190758050Y-62098342D01*
X190815646Y-61985304D01*
X190815646Y-61985302D01*
X190815647Y-61985301D01*
X190826967Y-61913825D01*
X190830500Y-61891519D01*
X190830499Y-60128482D01*
X190815646Y-60034696D01*
X190758050Y-59921658D01*
X190758046Y-59921654D01*
X190758045Y-59921652D01*
X190668347Y-59831954D01*
X190668344Y-59831952D01*
X190668342Y-59831950D01*
X190586580Y-59790290D01*
X190555301Y-59774352D01*
X190461524Y-59759500D01*
X188698482Y-59759500D01*
X188617519Y-59772323D01*
X188604696Y-59774354D01*
X188491658Y-59831950D01*
X188491657Y-59831951D01*
X188491652Y-59831954D01*
X188401954Y-59921652D01*
X188401951Y-59921657D01*
X188344352Y-60034698D01*
X188329500Y-60128475D01*
X188329500Y-60275733D01*
X188309815Y-60342772D01*
X188257011Y-60388527D01*
X188187853Y-60398471D01*
X188124297Y-60369446D01*
X188105182Y-60348619D01*
X188073198Y-60304597D01*
X187993828Y-60195354D01*
X187854646Y-60056172D01*
X187695405Y-59940476D01*
X187520029Y-59851117D01*
X187332826Y-59790290D01*
X187138422Y-59759500D01*
X187138417Y-59759500D01*
X186941583Y-59759500D01*
X186941578Y-59759500D01*
X186747173Y-59790290D01*
X186559970Y-59851117D01*
X186384594Y-59940476D01*
X186313259Y-59992305D01*
X186225354Y-60056172D01*
X186225352Y-60056174D01*
X186225351Y-60056174D01*
X186086174Y-60195351D01*
X186086174Y-60195352D01*
X186086172Y-60195354D01*
X186084045Y-60198282D01*
X185970476Y-60354594D01*
X185880485Y-60531213D01*
X185832511Y-60582009D01*
X185764690Y-60598804D01*
X185698555Y-60576267D01*
X185659515Y-60531213D01*
X185604085Y-60422425D01*
X185569524Y-60354595D01*
X185453828Y-60195354D01*
X185314646Y-60056172D01*
X185155405Y-59940476D01*
X184980029Y-59851117D01*
X184792826Y-59790290D01*
X184598422Y-59759500D01*
X184598417Y-59759500D01*
X184401583Y-59759500D01*
X184401578Y-59759500D01*
X184207173Y-59790290D01*
X184019970Y-59851117D01*
X183844594Y-59940476D01*
X183773259Y-59992305D01*
X183685354Y-60056172D01*
X183685352Y-60056174D01*
X183685351Y-60056174D01*
X183546174Y-60195351D01*
X183546174Y-60195352D01*
X183546172Y-60195354D01*
X183544045Y-60198282D01*
X183430476Y-60354594D01*
X183340485Y-60531213D01*
X183292511Y-60582009D01*
X183224690Y-60598804D01*
X183158555Y-60576267D01*
X183119515Y-60531213D01*
X183064085Y-60422425D01*
X183029524Y-60354595D01*
X182913828Y-60195354D01*
X182774646Y-60056172D01*
X182615405Y-59940476D01*
X182440029Y-59851117D01*
X182252826Y-59790290D01*
X182058422Y-59759500D01*
X182058417Y-59759500D01*
X181861583Y-59759500D01*
X181861578Y-59759500D01*
X181667173Y-59790290D01*
X181479970Y-59851117D01*
X181304594Y-59940476D01*
X181233259Y-59992305D01*
X181145354Y-60056172D01*
X181145352Y-60056174D01*
X181145351Y-60056174D01*
X181006174Y-60195351D01*
X181006174Y-60195352D01*
X181006172Y-60195354D01*
X181004045Y-60198282D01*
X180890476Y-60354594D01*
X180800485Y-60531213D01*
X180752511Y-60582009D01*
X180684690Y-60598804D01*
X180618555Y-60576267D01*
X180579515Y-60531213D01*
X180524085Y-60422425D01*
X180489524Y-60354595D01*
X180373828Y-60195354D01*
X180234646Y-60056172D01*
X180075405Y-59940476D01*
X179900029Y-59851117D01*
X179712826Y-59790290D01*
X179518422Y-59759500D01*
X179518417Y-59759500D01*
X179321583Y-59759500D01*
X179321578Y-59759500D01*
X179127173Y-59790290D01*
X178939970Y-59851117D01*
X178764594Y-59940476D01*
X178693259Y-59992305D01*
X178605354Y-60056172D01*
X178605352Y-60056174D01*
X178605351Y-60056174D01*
X178466174Y-60195351D01*
X178466174Y-60195352D01*
X178466172Y-60195354D01*
X178464045Y-60198282D01*
X178350476Y-60354594D01*
X178261117Y-60529970D01*
X178200290Y-60717173D01*
X178169500Y-60911577D01*
X178169500Y-61108422D01*
X178200290Y-61302826D01*
X178261117Y-61490029D01*
X178328894Y-61623048D01*
X178350476Y-61665405D01*
X178466172Y-61824646D01*
X178605354Y-61963828D01*
X178764595Y-62079524D01*
X178887992Y-62142397D01*
X178941213Y-62169515D01*
X178992009Y-62217489D01*
X179008804Y-62285310D01*
X178986267Y-62351445D01*
X178941213Y-62390485D01*
X178764594Y-62480476D01*
X178686439Y-62537260D01*
X178605354Y-62596172D01*
X178605352Y-62596174D01*
X178605351Y-62596174D01*
X178466174Y-62735351D01*
X178466174Y-62735352D01*
X178466172Y-62735354D01*
X178455303Y-62750314D01*
X178350476Y-62894594D01*
X178261117Y-63069970D01*
X178200290Y-63257173D01*
X178169500Y-63451577D01*
X178169500Y-63648422D01*
X178200290Y-63842826D01*
X178261117Y-64030029D01*
X178324999Y-64155403D01*
X178350476Y-64205405D01*
X178466172Y-64364646D01*
X178605354Y-64503828D01*
X178684189Y-64561105D01*
X178764590Y-64619521D01*
X178764592Y-64619522D01*
X178764595Y-64619524D01*
X178781792Y-64628286D01*
X178832588Y-64676256D01*
X178849500Y-64738771D01*
X178849500Y-65364070D01*
X178861521Y-65424499D01*
X178861521Y-65424501D01*
X178874497Y-65489736D01*
X178874499Y-65489744D01*
X178918981Y-65597134D01*
X178923535Y-65608127D01*
X178943151Y-65637485D01*
X178994726Y-65714673D01*
X178994727Y-65714674D01*
X179744724Y-66464669D01*
X179806761Y-66526706D01*
X179835332Y-66555277D01*
X179941866Y-66626461D01*
X179941875Y-66626466D01*
X179968692Y-66637574D01*
X180060256Y-66675501D01*
X180060260Y-66675501D01*
X180060261Y-66675502D01*
X180185928Y-66700500D01*
X180185931Y-66700500D01*
X182179192Y-66700500D01*
X182246231Y-66720185D01*
X182266873Y-66736819D01*
X183994724Y-68464669D01*
X184085331Y-68555276D01*
X184085332Y-68555277D01*
X184191866Y-68626461D01*
X184191872Y-68626464D01*
X184191873Y-68626465D01*
X184310256Y-68675501D01*
X184310260Y-68675501D01*
X184310261Y-68675502D01*
X184435928Y-68700500D01*
X184435931Y-68700500D01*
X186215287Y-68700500D01*
X186262739Y-68709938D01*
X186295672Y-68723580D01*
X186295676Y-68723580D01*
X186295677Y-68723581D01*
X186431004Y-68750500D01*
X186431007Y-68750500D01*
X186568995Y-68750500D01*
X186660041Y-68732389D01*
X186704328Y-68723580D01*
X186802924Y-68682740D01*
X186831804Y-68670778D01*
X186831804Y-68670777D01*
X186831811Y-68670775D01*
X186946542Y-68594114D01*
X187044114Y-68496542D01*
X187120775Y-68381811D01*
X187173580Y-68254328D01*
X187200500Y-68118993D01*
X187200500Y-67981007D01*
X187200500Y-67981004D01*
X187173581Y-67845677D01*
X187173580Y-67845676D01*
X187173580Y-67845672D01*
X187173578Y-67845667D01*
X187120778Y-67718195D01*
X187120771Y-67718182D01*
X187044114Y-67603458D01*
X187044111Y-67603454D01*
X186946545Y-67505888D01*
X186946541Y-67505885D01*
X186831817Y-67429228D01*
X186831804Y-67429221D01*
X186704332Y-67376421D01*
X186704322Y-67376418D01*
X186568995Y-67349500D01*
X186568993Y-67349500D01*
X186431007Y-67349500D01*
X186431005Y-67349500D01*
X186295677Y-67376418D01*
X186295671Y-67376420D01*
X186262740Y-67390061D01*
X186215287Y-67399500D01*
X184820807Y-67399500D01*
X184753768Y-67379815D01*
X184733126Y-67363181D01*
X182914674Y-65544727D01*
X182914673Y-65544726D01*
X182843956Y-65497475D01*
X182808127Y-65473535D01*
X182689744Y-65424499D01*
X182689738Y-65424497D01*
X182564071Y-65399500D01*
X182564069Y-65399500D01*
X180570807Y-65399500D01*
X180503768Y-65379815D01*
X180483126Y-65363181D01*
X180186819Y-65066873D01*
X180153334Y-65005550D01*
X180150500Y-64979192D01*
X180150500Y-64628144D01*
X180170185Y-64561105D01*
X180201614Y-64527826D01*
X180234646Y-64503828D01*
X180373828Y-64364646D01*
X180489524Y-64205405D01*
X180578884Y-64030025D01*
X180579515Y-64028787D01*
X180627489Y-63977990D01*
X180695310Y-63961195D01*
X180761445Y-63983732D01*
X180800485Y-64028787D01*
X180890474Y-64205403D01*
X180921770Y-64248477D01*
X181006172Y-64364646D01*
X181145354Y-64503828D01*
X181304595Y-64619524D01*
X181363427Y-64649500D01*
X181479970Y-64708882D01*
X181479972Y-64708882D01*
X181479975Y-64708884D01*
X181573324Y-64739215D01*
X181667173Y-64769709D01*
X181861578Y-64800500D01*
X181861583Y-64800500D01*
X182058422Y-64800500D01*
X182252826Y-64769709D01*
X182291792Y-64757048D01*
X182440025Y-64708884D01*
X182615405Y-64619524D01*
X182774646Y-64503828D01*
X182913828Y-64364646D01*
X183029524Y-64205405D01*
X183118884Y-64030025D01*
X183119515Y-64028787D01*
X183167489Y-63977990D01*
X183235310Y-63961195D01*
X183301445Y-63983732D01*
X183340485Y-64028787D01*
X183430474Y-64205403D01*
X183461770Y-64248477D01*
X183546172Y-64364646D01*
X183685354Y-64503828D01*
X183844595Y-64619524D01*
X183903427Y-64649500D01*
X184019970Y-64708882D01*
X184019972Y-64708882D01*
X184019975Y-64708884D01*
X184113324Y-64739215D01*
X184207173Y-64769709D01*
X184401578Y-64800500D01*
X184401583Y-64800500D01*
X184598422Y-64800500D01*
X184792820Y-64769710D01*
X184792820Y-64769709D01*
X184792826Y-64769709D01*
X184884295Y-64739987D01*
X184954133Y-64737992D01*
X185010292Y-64770238D01*
X189295325Y-69055272D01*
X189295330Y-69055276D01*
X189295331Y-69055277D01*
X189401874Y-69126466D01*
X189471221Y-69155189D01*
X189520256Y-69175501D01*
X189520259Y-69175501D01*
X189520260Y-69175502D01*
X189645928Y-69200500D01*
X189645931Y-69200500D01*
X189774069Y-69200500D01*
X191179192Y-69200500D01*
X191246231Y-69220185D01*
X191266873Y-69236819D01*
X193293181Y-71263127D01*
X193326666Y-71324450D01*
X193329500Y-71350808D01*
X193329500Y-84344069D01*
X193341758Y-84405690D01*
X193354499Y-84469744D01*
X193403535Y-84588127D01*
X193474723Y-84694669D01*
X193474726Y-84694673D01*
X195315326Y-86535273D01*
X195315329Y-86535275D01*
X195315331Y-86535277D01*
X195421873Y-86606465D01*
X195540256Y-86655501D01*
X195540260Y-86655501D01*
X195540261Y-86655502D01*
X195665928Y-86680500D01*
X195665931Y-86680500D01*
X196240535Y-86680500D01*
X196307574Y-86700185D01*
X196340852Y-86731613D01*
X196399310Y-86812073D01*
X196532927Y-86945690D01*
X196685801Y-87056760D01*
X196765347Y-87097290D01*
X196854163Y-87142545D01*
X196854165Y-87142545D01*
X196854168Y-87142547D01*
X196943734Y-87171649D01*
X196975803Y-87182069D01*
X197033478Y-87221507D01*
X197060676Y-87285866D01*
X197048761Y-87354712D01*
X197001516Y-87406188D01*
X196975803Y-87417931D01*
X196854163Y-87457454D01*
X196685800Y-87543240D01*
X196598579Y-87606610D01*
X196532927Y-87654310D01*
X196532925Y-87654312D01*
X196532924Y-87654312D01*
X196399311Y-87787925D01*
X196340853Y-87868386D01*
X196285522Y-87911051D01*
X196240535Y-87919500D01*
X195840808Y-87919500D01*
X195773769Y-87899815D01*
X195753127Y-87883181D01*
X192546819Y-84676873D01*
X192513334Y-84615550D01*
X192510500Y-84589192D01*
X192510500Y-76845928D01*
X192485502Y-76720261D01*
X192485501Y-76720260D01*
X192485501Y-76720256D01*
X192436465Y-76601873D01*
X192368730Y-76500500D01*
X192365276Y-76495330D01*
X191647870Y-75777924D01*
X190914674Y-75044727D01*
X190914673Y-75044726D01*
X190914669Y-75044723D01*
X190808127Y-74973535D01*
X190689744Y-74924499D01*
X190689738Y-74924497D01*
X190564071Y-74899500D01*
X190564069Y-74899500D01*
X185820808Y-74899500D01*
X185753769Y-74879815D01*
X185733127Y-74863181D01*
X185036295Y-74166349D01*
X185009415Y-74126121D01*
X184995775Y-74093189D01*
X184954896Y-74032009D01*
X184919114Y-73978457D01*
X184821545Y-73880888D01*
X184821541Y-73880885D01*
X184706817Y-73804228D01*
X184706804Y-73804221D01*
X184579332Y-73751421D01*
X184579322Y-73751418D01*
X184443995Y-73724500D01*
X184443993Y-73724500D01*
X184306007Y-73724500D01*
X184306002Y-73724500D01*
X184189785Y-73747617D01*
X184181791Y-73748938D01*
X184177531Y-73749499D01*
X184177527Y-73749500D01*
X184177526Y-73749500D01*
X184099250Y-73770473D01*
X184037514Y-73787016D01*
X183911986Y-73859489D01*
X183911983Y-73859491D01*
X183809491Y-73961983D01*
X183809489Y-73961986D01*
X183737016Y-74087514D01*
X183729467Y-74115687D01*
X183699706Y-74226760D01*
X183699499Y-74227531D01*
X183698938Y-74231791D01*
X183697617Y-74239785D01*
X183674500Y-74356002D01*
X183674500Y-74356007D01*
X183674500Y-74493993D01*
X183674500Y-74493995D01*
X183674499Y-74493995D01*
X183701418Y-74629322D01*
X183701421Y-74629332D01*
X183754221Y-74756804D01*
X183754228Y-74756817D01*
X183830885Y-74871541D01*
X183830888Y-74871545D01*
X183928457Y-74969114D01*
X184002939Y-75018881D01*
X184043189Y-75045775D01*
X184076121Y-75059415D01*
X184116349Y-75086295D01*
X185085324Y-76055271D01*
X185085331Y-76055277D01*
X185191871Y-76126464D01*
X185191870Y-76126464D01*
X185226544Y-76140826D01*
X185310256Y-76175501D01*
X185310260Y-76175501D01*
X185310261Y-76175502D01*
X185435928Y-76200500D01*
X185435931Y-76200500D01*
X190179192Y-76200500D01*
X190246231Y-76220185D01*
X190266873Y-76236819D01*
X191173181Y-77143127D01*
X191206666Y-77204450D01*
X191209500Y-77230808D01*
X191209500Y-84974069D01*
X191215303Y-85003240D01*
X191234499Y-85099744D01*
X191283535Y-85218127D01*
X191354723Y-85324669D01*
X191354726Y-85324673D01*
X195105325Y-89075272D01*
X195105332Y-89075278D01*
X195211868Y-89146462D01*
X195211874Y-89146466D01*
X195281221Y-89175189D01*
X195330256Y-89195501D01*
X195330259Y-89195501D01*
X195330260Y-89195502D01*
X195455928Y-89220500D01*
X195455931Y-89220500D01*
X196240535Y-89220500D01*
X196307574Y-89240185D01*
X196340852Y-89271613D01*
X196399310Y-89352073D01*
X196532927Y-89485690D01*
X196685801Y-89596760D01*
X196765347Y-89637290D01*
X196854163Y-89682545D01*
X196854165Y-89682545D01*
X196854168Y-89682547D01*
X196943734Y-89711649D01*
X196975803Y-89722069D01*
X197033478Y-89761507D01*
X197060676Y-89825866D01*
X197048761Y-89894712D01*
X197001516Y-89946188D01*
X196975803Y-89957931D01*
X196854163Y-89997454D01*
X196685800Y-90083240D01*
X196598579Y-90146610D01*
X196532927Y-90194310D01*
X196532925Y-90194312D01*
X196532924Y-90194312D01*
X196399312Y-90327924D01*
X196399312Y-90327925D01*
X196399310Y-90327927D01*
X196351610Y-90393579D01*
X196288240Y-90480800D01*
X196202454Y-90649163D01*
X196144059Y-90828881D01*
X196114500Y-91015513D01*
X196114500Y-91204486D01*
X196144059Y-91391118D01*
X196202454Y-91570836D01*
X196274983Y-91713181D01*
X196288240Y-91739199D01*
X196399310Y-91892073D01*
X196532927Y-92025690D01*
X196685801Y-92136760D01*
X196720950Y-92154669D01*
X196854163Y-92222545D01*
X196854165Y-92222545D01*
X196854168Y-92222547D01*
X196916408Y-92242770D01*
X196975803Y-92262069D01*
X197033478Y-92301507D01*
X197060676Y-92365866D01*
X197048761Y-92434712D01*
X197001516Y-92486188D01*
X196975803Y-92497931D01*
X196854163Y-92537454D01*
X196685800Y-92623240D01*
X196647060Y-92651387D01*
X196532927Y-92734310D01*
X196532925Y-92734312D01*
X196532924Y-92734312D01*
X196399312Y-92867924D01*
X196399312Y-92867925D01*
X196399310Y-92867927D01*
X196351610Y-92933579D01*
X196288240Y-93020800D01*
X196202455Y-93189162D01*
X196202453Y-93189167D01*
X196202453Y-93189168D01*
X196192429Y-93220015D01*
X196152992Y-93277689D01*
X196088633Y-93304886D01*
X196019787Y-93292971D01*
X195968312Y-93245726D01*
X195950500Y-93181694D01*
X195950500Y-92735928D01*
X195925502Y-92610261D01*
X195925501Y-92610260D01*
X195925501Y-92610256D01*
X195876465Y-92491873D01*
X195876464Y-92491872D01*
X195876460Y-92491864D01*
X195857888Y-92464070D01*
X195857886Y-92464068D01*
X195854161Y-92458493D01*
X195805277Y-92385331D01*
X195805275Y-92385329D01*
X195805273Y-92385326D01*
X194024673Y-90604726D01*
X194016852Y-90599500D01*
X193918127Y-90533535D01*
X193799744Y-90484499D01*
X193781153Y-90480801D01*
X193781148Y-90480800D01*
X193674071Y-90459500D01*
X193674069Y-90459500D01*
X190769465Y-90459500D01*
X190702426Y-90439815D01*
X190669147Y-90408386D01*
X190610690Y-90327927D01*
X190477073Y-90194310D01*
X190324199Y-90083240D01*
X190155836Y-89997454D01*
X190081472Y-89973291D01*
X190034195Y-89957930D01*
X189976521Y-89918493D01*
X189949323Y-89854134D01*
X189961238Y-89785288D01*
X190008482Y-89733812D01*
X190034194Y-89722069D01*
X190155832Y-89682547D01*
X190324199Y-89596760D01*
X190477073Y-89485690D01*
X190610690Y-89352073D01*
X190721760Y-89199199D01*
X190807547Y-89030832D01*
X190865940Y-88851118D01*
X190894714Y-88669446D01*
X190895500Y-88664486D01*
X190895500Y-88475513D01*
X190865940Y-88288881D01*
X190807545Y-88109163D01*
X190762290Y-88020347D01*
X190721760Y-87940801D01*
X190610690Y-87787927D01*
X190477073Y-87654310D01*
X190324199Y-87543240D01*
X190324197Y-87543239D01*
X190155836Y-87457454D01*
X190081472Y-87433291D01*
X190034195Y-87417930D01*
X189976521Y-87378493D01*
X189949323Y-87314134D01*
X189961238Y-87245288D01*
X190008482Y-87193812D01*
X190034194Y-87182069D01*
X190155832Y-87142547D01*
X190324199Y-87056760D01*
X190477073Y-86945690D01*
X190610690Y-86812073D01*
X190721760Y-86659199D01*
X190807547Y-86490832D01*
X190865940Y-86311118D01*
X190895500Y-86124486D01*
X190895500Y-85935513D01*
X190865940Y-85748881D01*
X190807545Y-85569163D01*
X190721759Y-85400800D01*
X190610690Y-85247927D01*
X190477073Y-85114310D01*
X190324199Y-85003240D01*
X190266946Y-84974068D01*
X190155836Y-84917454D01*
X190081472Y-84893291D01*
X190034195Y-84877930D01*
X189976521Y-84838493D01*
X189949323Y-84774134D01*
X189961238Y-84705288D01*
X190008482Y-84653812D01*
X190034194Y-84642069D01*
X190155832Y-84602547D01*
X190324199Y-84516760D01*
X190477073Y-84405690D01*
X190610690Y-84272073D01*
X190721760Y-84119199D01*
X190807547Y-83950832D01*
X190865940Y-83771118D01*
X190873476Y-83723538D01*
X190895500Y-83584486D01*
X190895500Y-83395513D01*
X190865940Y-83208881D01*
X190807545Y-83029163D01*
X190721759Y-82860800D01*
X190713549Y-82849500D01*
X190610690Y-82707927D01*
X190477073Y-82574310D01*
X190324199Y-82463240D01*
X190265099Y-82433127D01*
X190155836Y-82377454D01*
X190081472Y-82353291D01*
X190034195Y-82337930D01*
X189976521Y-82298493D01*
X189949323Y-82234134D01*
X189961238Y-82165288D01*
X190008482Y-82113812D01*
X190034194Y-82102069D01*
X190155832Y-82062547D01*
X190324199Y-81976760D01*
X190477073Y-81865690D01*
X190610690Y-81732073D01*
X190721760Y-81579199D01*
X190807547Y-81410832D01*
X190865940Y-81231118D01*
X190895500Y-81044486D01*
X190895500Y-80855513D01*
X190865940Y-80668881D01*
X190838846Y-80585497D01*
X190807547Y-80489168D01*
X190807545Y-80489165D01*
X190807545Y-80489163D01*
X190752838Y-80381795D01*
X190721760Y-80320801D01*
X190610690Y-80167927D01*
X190477073Y-80034310D01*
X190324199Y-79923240D01*
X190243098Y-79881917D01*
X190170615Y-79844985D01*
X190119819Y-79797010D01*
X190103024Y-79729189D01*
X190125561Y-79663054D01*
X190180277Y-79619603D01*
X190226910Y-79610500D01*
X190310686Y-79610500D01*
X190310694Y-79610500D01*
X190347569Y-79607598D01*
X190347571Y-79607597D01*
X190347573Y-79607597D01*
X190389191Y-79595505D01*
X190505398Y-79561744D01*
X190646865Y-79478081D01*
X190763081Y-79361865D01*
X190846744Y-79220398D01*
X190892598Y-79062569D01*
X190895500Y-79025694D01*
X190895500Y-77794306D01*
X190892598Y-77757431D01*
X190846744Y-77599602D01*
X190763081Y-77458135D01*
X190763079Y-77458133D01*
X190763076Y-77458129D01*
X190646870Y-77341923D01*
X190646862Y-77341917D01*
X190512907Y-77262697D01*
X190505398Y-77258256D01*
X190505397Y-77258255D01*
X190505396Y-77258255D01*
X190505393Y-77258254D01*
X190347573Y-77212402D01*
X190347567Y-77212401D01*
X190310701Y-77209500D01*
X190310694Y-77209500D01*
X189079306Y-77209500D01*
X189079298Y-77209500D01*
X189042432Y-77212401D01*
X189042426Y-77212402D01*
X188884606Y-77258254D01*
X188884603Y-77258255D01*
X188743137Y-77341917D01*
X188743129Y-77341923D01*
X188626923Y-77458129D01*
X188626917Y-77458137D01*
X188543255Y-77599603D01*
X188543254Y-77599606D01*
X188497402Y-77757426D01*
X188497401Y-77757432D01*
X188494500Y-77794298D01*
X188494500Y-79025701D01*
X188497401Y-79062567D01*
X188497402Y-79062573D01*
X188543254Y-79220393D01*
X188543255Y-79220396D01*
X188626917Y-79361862D01*
X188626923Y-79361870D01*
X188743129Y-79478076D01*
X188743133Y-79478079D01*
X188743135Y-79478081D01*
X188884602Y-79561744D01*
X188885721Y-79562069D01*
X189042426Y-79607597D01*
X189042429Y-79607597D01*
X189042431Y-79607598D01*
X189079306Y-79610500D01*
X189079314Y-79610500D01*
X189163090Y-79610500D01*
X189230129Y-79630185D01*
X189275884Y-79682989D01*
X189285828Y-79752147D01*
X189256803Y-79815703D01*
X189219385Y-79844985D01*
X189065800Y-79923240D01*
X188978579Y-79986610D01*
X188912927Y-80034310D01*
X188912925Y-80034312D01*
X188912924Y-80034312D01*
X188779312Y-80167924D01*
X188779312Y-80167925D01*
X188779310Y-80167927D01*
X188769223Y-80181811D01*
X188668240Y-80320800D01*
X188637162Y-80381795D01*
X188589187Y-80432591D01*
X188526677Y-80449500D01*
X187135929Y-80449500D01*
X187010261Y-80474497D01*
X187010255Y-80474499D01*
X186891874Y-80523534D01*
X186785326Y-80594726D01*
X186785325Y-80594727D01*
X185594725Y-81785328D01*
X185594724Y-81785329D01*
X185573142Y-81817630D01*
X185551847Y-81849501D01*
X185541032Y-81865687D01*
X185523535Y-81891872D01*
X185523533Y-81891875D01*
X185474499Y-82010255D01*
X185474497Y-82010261D01*
X185449500Y-82135928D01*
X185449500Y-93164071D01*
X185465743Y-93245726D01*
X185470735Y-93270821D01*
X185474499Y-93289744D01*
X185523534Y-93408125D01*
X185594726Y-93514673D01*
X187505326Y-95425273D01*
X187505329Y-95425275D01*
X187505331Y-95425277D01*
X187611873Y-95496465D01*
X187730256Y-95545501D01*
X187730260Y-95545501D01*
X187730261Y-95545502D01*
X187855928Y-95570500D01*
X187855931Y-95570500D01*
X187984069Y-95570500D01*
X188358716Y-95570500D01*
X188425755Y-95590185D01*
X188471510Y-95642989D01*
X188481454Y-95712147D01*
X188476647Y-95732819D01*
X188427009Y-95885582D01*
X188395000Y-96087682D01*
X188395000Y-96292317D01*
X188427009Y-96494417D01*
X188490244Y-96689031D01*
X188583141Y-96871350D01*
X188583147Y-96871359D01*
X188615523Y-96915921D01*
X188615524Y-96915922D01*
X189295000Y-96236446D01*
X189295000Y-96242661D01*
X189322259Y-96344394D01*
X189374920Y-96435606D01*
X189449394Y-96510080D01*
X189540606Y-96562741D01*
X189642339Y-96590000D01*
X189648553Y-96590000D01*
X188969076Y-97269474D01*
X189013650Y-97301859D01*
X189195968Y-97394755D01*
X189390582Y-97457990D01*
X189592683Y-97490000D01*
X189797317Y-97490000D01*
X189999417Y-97457990D01*
X190194031Y-97394755D01*
X190376349Y-97301859D01*
X190420921Y-97269474D01*
X189741447Y-96590000D01*
X189747661Y-96590000D01*
X189849394Y-96562741D01*
X189940606Y-96510080D01*
X190015080Y-96435606D01*
X190067741Y-96344394D01*
X190095000Y-96242661D01*
X190095000Y-96236447D01*
X190774474Y-96915921D01*
X190806859Y-96871349D01*
X190899755Y-96689029D01*
X190907569Y-96664983D01*
X190947006Y-96607308D01*
X191011365Y-96580109D01*
X191080211Y-96592024D01*
X191131687Y-96639268D01*
X191149500Y-96703301D01*
X191149500Y-103964069D01*
X191149500Y-103964071D01*
X191149499Y-103964071D01*
X191173620Y-104085328D01*
X191174498Y-104089743D01*
X191223533Y-104208125D01*
X191271210Y-104279479D01*
X191291774Y-104310256D01*
X191294726Y-104314673D01*
X194285327Y-107305274D01*
X194336177Y-107339251D01*
X194380982Y-107392864D01*
X194389689Y-107462189D01*
X194359534Y-107525216D01*
X194340180Y-107542664D01*
X194335365Y-107546162D01*
X194335351Y-107546174D01*
X194196174Y-107685351D01*
X194196174Y-107685352D01*
X194196172Y-107685354D01*
X194182368Y-107704354D01*
X194080476Y-107844594D01*
X193990485Y-108021213D01*
X193942511Y-108072009D01*
X193874690Y-108088804D01*
X193808555Y-108066267D01*
X193769515Y-108021213D01*
X193742397Y-107967992D01*
X193679524Y-107844595D01*
X193563828Y-107685354D01*
X193424646Y-107546172D01*
X193265405Y-107430476D01*
X193252995Y-107424153D01*
X193090029Y-107341117D01*
X192902826Y-107280290D01*
X192708422Y-107249500D01*
X192708417Y-107249500D01*
X192511583Y-107249500D01*
X192511578Y-107249500D01*
X192317173Y-107280290D01*
X192129970Y-107341117D01*
X191954594Y-107430476D01*
X191871134Y-107491114D01*
X191795354Y-107546172D01*
X191795352Y-107546174D01*
X191795351Y-107546174D01*
X191656174Y-107685351D01*
X191656174Y-107685352D01*
X191656172Y-107685354D01*
X191642368Y-107704354D01*
X191540476Y-107844594D01*
X191450485Y-108021213D01*
X191402511Y-108072009D01*
X191334690Y-108088804D01*
X191268555Y-108066267D01*
X191229515Y-108021213D01*
X191202397Y-107967992D01*
X191139524Y-107844595D01*
X191023828Y-107685354D01*
X190884646Y-107546172D01*
X190725405Y-107430476D01*
X190712995Y-107424153D01*
X190550029Y-107341117D01*
X190362826Y-107280290D01*
X190168422Y-107249500D01*
X190168417Y-107249500D01*
X189971583Y-107249500D01*
X189971578Y-107249500D01*
X189777173Y-107280290D01*
X189589970Y-107341117D01*
X189414594Y-107430476D01*
X189331134Y-107491114D01*
X189255354Y-107546172D01*
X189255352Y-107546174D01*
X189255351Y-107546174D01*
X189116174Y-107685351D01*
X189116174Y-107685352D01*
X189116172Y-107685354D01*
X189102368Y-107704354D01*
X189000476Y-107844594D01*
X188910485Y-108021213D01*
X188862511Y-108072009D01*
X188794690Y-108088804D01*
X188728555Y-108066267D01*
X188689515Y-108021213D01*
X188662397Y-107967992D01*
X188599524Y-107844595D01*
X188483828Y-107685354D01*
X188344646Y-107546172D01*
X188185405Y-107430476D01*
X188172995Y-107424153D01*
X188010029Y-107341117D01*
X187822826Y-107280290D01*
X187628422Y-107249500D01*
X187628417Y-107249500D01*
X187431583Y-107249500D01*
X187431578Y-107249500D01*
X187237173Y-107280290D01*
X187049970Y-107341117D01*
X186874594Y-107430476D01*
X186791134Y-107491114D01*
X186715354Y-107546172D01*
X186715352Y-107546174D01*
X186715351Y-107546174D01*
X186576174Y-107685351D01*
X186576174Y-107685352D01*
X186576172Y-107685354D01*
X186562368Y-107704354D01*
X186460476Y-107844594D01*
X186370485Y-108021213D01*
X186322511Y-108072009D01*
X186254690Y-108088804D01*
X186188555Y-108066267D01*
X186149515Y-108021213D01*
X186122397Y-107967992D01*
X186059524Y-107844595D01*
X185943828Y-107685354D01*
X185804646Y-107546172D01*
X185645405Y-107430476D01*
X185632995Y-107424153D01*
X185470029Y-107341117D01*
X185282826Y-107280290D01*
X185088422Y-107249500D01*
X185088417Y-107249500D01*
X184891583Y-107249500D01*
X184891578Y-107249500D01*
X184697173Y-107280290D01*
X184509970Y-107341117D01*
X184334594Y-107430476D01*
X184251134Y-107491114D01*
X184175354Y-107546172D01*
X184175352Y-107546174D01*
X184175351Y-107546174D01*
X184036174Y-107685351D01*
X184036174Y-107685352D01*
X184036172Y-107685354D01*
X184022368Y-107704354D01*
X183920476Y-107844594D01*
X183830485Y-108021213D01*
X183782511Y-108072009D01*
X183714690Y-108088804D01*
X183648555Y-108066267D01*
X183609515Y-108021213D01*
X183582397Y-107967992D01*
X183519524Y-107844595D01*
X183403828Y-107685354D01*
X183264646Y-107546172D01*
X183105405Y-107430476D01*
X183092995Y-107424153D01*
X182930029Y-107341117D01*
X182742826Y-107280290D01*
X182548422Y-107249500D01*
X182548417Y-107249500D01*
X182351583Y-107249500D01*
X182351578Y-107249500D01*
X182157173Y-107280290D01*
X181969970Y-107341117D01*
X181794594Y-107430476D01*
X181711134Y-107491114D01*
X181635354Y-107546172D01*
X181635352Y-107546174D01*
X181635351Y-107546174D01*
X181496174Y-107685351D01*
X181496174Y-107685352D01*
X181496172Y-107685354D01*
X181482368Y-107704354D01*
X181380476Y-107844594D01*
X181290485Y-108021213D01*
X181242511Y-108072009D01*
X181174690Y-108088804D01*
X181108555Y-108066267D01*
X181069515Y-108021213D01*
X181042397Y-107967992D01*
X180979524Y-107844595D01*
X180863828Y-107685354D01*
X180724646Y-107546172D01*
X180565405Y-107430476D01*
X180552995Y-107424153D01*
X180390029Y-107341117D01*
X180202826Y-107280290D01*
X180008422Y-107249500D01*
X180008417Y-107249500D01*
X179811583Y-107249500D01*
X179811578Y-107249500D01*
X179617173Y-107280290D01*
X179429970Y-107341117D01*
X179254594Y-107430476D01*
X179171134Y-107491114D01*
X179095354Y-107546172D01*
X179095352Y-107546174D01*
X179095351Y-107546174D01*
X178956174Y-107685351D01*
X178956174Y-107685352D01*
X178956172Y-107685354D01*
X178942368Y-107704354D01*
X178840476Y-107844594D01*
X178750485Y-108021213D01*
X178702511Y-108072009D01*
X178634690Y-108088804D01*
X178568555Y-108066267D01*
X178529515Y-108021213D01*
X178502397Y-107967992D01*
X178439524Y-107844595D01*
X178323828Y-107685354D01*
X178184646Y-107546172D01*
X178025405Y-107430476D01*
X178012995Y-107424153D01*
X177850029Y-107341117D01*
X177662826Y-107280290D01*
X177468422Y-107249500D01*
X177468417Y-107249500D01*
X177271583Y-107249500D01*
X177271578Y-107249500D01*
X177077173Y-107280290D01*
X176889970Y-107341117D01*
X176714594Y-107430476D01*
X176631134Y-107491114D01*
X176555354Y-107546172D01*
X176555352Y-107546174D01*
X176555351Y-107546174D01*
X176416174Y-107685351D01*
X176416174Y-107685352D01*
X176416172Y-107685354D01*
X176402368Y-107704354D01*
X176300476Y-107844594D01*
X176210485Y-108021213D01*
X176162511Y-108072009D01*
X176094690Y-108088804D01*
X176028555Y-108066267D01*
X175989515Y-108021213D01*
X175962397Y-107967992D01*
X175899524Y-107844595D01*
X175783828Y-107685354D01*
X175644646Y-107546172D01*
X175485405Y-107430476D01*
X175472995Y-107424153D01*
X175310029Y-107341117D01*
X175122826Y-107280290D01*
X174928422Y-107249500D01*
X174928417Y-107249500D01*
X174731583Y-107249500D01*
X174731578Y-107249500D01*
X174537173Y-107280290D01*
X174349970Y-107341117D01*
X174174594Y-107430476D01*
X174091134Y-107491114D01*
X174015354Y-107546172D01*
X174015352Y-107546174D01*
X174015351Y-107546174D01*
X173876174Y-107685351D01*
X173876174Y-107685352D01*
X173876172Y-107685354D01*
X173862368Y-107704354D01*
X173760476Y-107844594D01*
X173670485Y-108021213D01*
X173622511Y-108072009D01*
X173554690Y-108088804D01*
X173488555Y-108066267D01*
X173449515Y-108021213D01*
X173422397Y-107967992D01*
X173359524Y-107844595D01*
X173243828Y-107685354D01*
X173104646Y-107546172D01*
X172945405Y-107430476D01*
X172932995Y-107424153D01*
X172770029Y-107341117D01*
X172582826Y-107280290D01*
X172388422Y-107249500D01*
X172388417Y-107249500D01*
X172191583Y-107249500D01*
X172191578Y-107249500D01*
X171997173Y-107280290D01*
X171809970Y-107341117D01*
X171634594Y-107430476D01*
X171551134Y-107491114D01*
X171475354Y-107546172D01*
X171475352Y-107546174D01*
X171475351Y-107546174D01*
X171336174Y-107685351D01*
X171336174Y-107685352D01*
X171336172Y-107685354D01*
X171322368Y-107704354D01*
X171220476Y-107844594D01*
X171130485Y-108021213D01*
X171082511Y-108072009D01*
X171014690Y-108088804D01*
X170948555Y-108066267D01*
X170909515Y-108021213D01*
X170882397Y-107967992D01*
X170819524Y-107844595D01*
X170703828Y-107685354D01*
X170564646Y-107546172D01*
X170405405Y-107430476D01*
X170392995Y-107424153D01*
X170230029Y-107341117D01*
X170042826Y-107280290D01*
X169848422Y-107249500D01*
X169848417Y-107249500D01*
X169651583Y-107249500D01*
X169651578Y-107249500D01*
X169457173Y-107280290D01*
X169269970Y-107341117D01*
X169094594Y-107430476D01*
X169011134Y-107491114D01*
X168935354Y-107546172D01*
X168935352Y-107546174D01*
X168935351Y-107546174D01*
X168796174Y-107685351D01*
X168796174Y-107685352D01*
X168796172Y-107685354D01*
X168782368Y-107704354D01*
X168680476Y-107844594D01*
X168590485Y-108021213D01*
X168542511Y-108072009D01*
X168474690Y-108088804D01*
X168408555Y-108066267D01*
X168369515Y-108021213D01*
X168342397Y-107967992D01*
X168279524Y-107844595D01*
X168163828Y-107685354D01*
X168024646Y-107546172D01*
X167865405Y-107430476D01*
X167852995Y-107424153D01*
X167690029Y-107341117D01*
X167502826Y-107280290D01*
X167308422Y-107249500D01*
X167308417Y-107249500D01*
X167111583Y-107249500D01*
X167111578Y-107249500D01*
X166917173Y-107280290D01*
X166729970Y-107341117D01*
X166554594Y-107430476D01*
X166471134Y-107491114D01*
X166395354Y-107546172D01*
X166395352Y-107546174D01*
X166395351Y-107546174D01*
X166256174Y-107685351D01*
X166256174Y-107685352D01*
X166256172Y-107685354D01*
X166242368Y-107704354D01*
X166140476Y-107844594D01*
X166050485Y-108021213D01*
X166002511Y-108072009D01*
X165934690Y-108088804D01*
X165868555Y-108066267D01*
X165829515Y-108021213D01*
X165802397Y-107967992D01*
X165739524Y-107844595D01*
X165623828Y-107685354D01*
X165484646Y-107546172D01*
X165325405Y-107430476D01*
X165312995Y-107424153D01*
X165150029Y-107341117D01*
X164962826Y-107280290D01*
X164768422Y-107249500D01*
X164768417Y-107249500D01*
X164571583Y-107249500D01*
X164571578Y-107249500D01*
X164377173Y-107280290D01*
X164189970Y-107341117D01*
X164014594Y-107430476D01*
X163931134Y-107491114D01*
X163855354Y-107546172D01*
X163855352Y-107546174D01*
X163855351Y-107546174D01*
X163716174Y-107685351D01*
X163716174Y-107685352D01*
X163716172Y-107685354D01*
X163669818Y-107749155D01*
X163600474Y-107844597D01*
X163566319Y-107911630D01*
X163518345Y-107962425D01*
X163450524Y-107979220D01*
X163384389Y-107956682D01*
X163345350Y-107911629D01*
X163284624Y-107792449D01*
X163245270Y-107738282D01*
X163245269Y-107738282D01*
X162612962Y-108370590D01*
X162595925Y-108307007D01*
X162530099Y-108192993D01*
X162437007Y-108099901D01*
X162322993Y-108034075D01*
X162259409Y-108017037D01*
X162891716Y-107384728D01*
X162837550Y-107345375D01*
X162648217Y-107248904D01*
X162446129Y-107183242D01*
X162236246Y-107150000D01*
X162023754Y-107150000D01*
X161813872Y-107183242D01*
X161813869Y-107183242D01*
X161611782Y-107248904D01*
X161422439Y-107345380D01*
X161368282Y-107384727D01*
X161368282Y-107384728D01*
X162000591Y-108017037D01*
X161937007Y-108034075D01*
X161822993Y-108099901D01*
X161729901Y-108192993D01*
X161664075Y-108307007D01*
X161647037Y-108370591D01*
X161014728Y-107738282D01*
X161014727Y-107738282D01*
X160975380Y-107792440D01*
X160975378Y-107792443D01*
X160914648Y-107911630D01*
X160866673Y-107962426D01*
X160798852Y-107979220D01*
X160732717Y-107956682D01*
X160693679Y-107911628D01*
X160659525Y-107844596D01*
X160642144Y-107820674D01*
X160543828Y-107685354D01*
X160404646Y-107546172D01*
X160245405Y-107430476D01*
X160232995Y-107424153D01*
X160070029Y-107341117D01*
X159882826Y-107280290D01*
X159688422Y-107249500D01*
X159688417Y-107249500D01*
X159491583Y-107249500D01*
X159491578Y-107249500D01*
X159297173Y-107280290D01*
X159109970Y-107341117D01*
X158934594Y-107430476D01*
X158851134Y-107491114D01*
X158775354Y-107546172D01*
X158775352Y-107546174D01*
X158775351Y-107546174D01*
X158636174Y-107685351D01*
X158636174Y-107685352D01*
X158636172Y-107685354D01*
X158622368Y-107704354D01*
X158520476Y-107844594D01*
X158430485Y-108021213D01*
X158382511Y-108072009D01*
X158314690Y-108088804D01*
X158248555Y-108066267D01*
X158209515Y-108021213D01*
X158182397Y-107967992D01*
X158119524Y-107844595D01*
X158003828Y-107685354D01*
X157886818Y-107568344D01*
X157853334Y-107507021D01*
X157850500Y-107480663D01*
X157850500Y-104435928D01*
X157825502Y-104310261D01*
X157825501Y-104310260D01*
X157825501Y-104310256D01*
X157776465Y-104191873D01*
X157766170Y-104176465D01*
X157705277Y-104085331D01*
X157705275Y-104085328D01*
X153414673Y-99794726D01*
X153414669Y-99794723D01*
X153308127Y-99723535D01*
X153189744Y-99674499D01*
X153189738Y-99674497D01*
X153064071Y-99649500D01*
X153064069Y-99649500D01*
X122320808Y-99649500D01*
X122253769Y-99629815D01*
X122233127Y-99613181D01*
X121621865Y-99001919D01*
X158617121Y-99001919D01*
X158617121Y-100233322D01*
X158620022Y-100270188D01*
X158620023Y-100270194D01*
X158665875Y-100428014D01*
X158665876Y-100428017D01*
X158749538Y-100569483D01*
X158749544Y-100569491D01*
X158865750Y-100685697D01*
X158865754Y-100685700D01*
X158865756Y-100685702D01*
X159007223Y-100769365D01*
X159048845Y-100781457D01*
X159165047Y-100815218D01*
X159165050Y-100815218D01*
X159165052Y-100815219D01*
X159201927Y-100818121D01*
X159201935Y-100818121D01*
X160433307Y-100818121D01*
X160433315Y-100818121D01*
X160470190Y-100815219D01*
X160470192Y-100815218D01*
X160470194Y-100815218D01*
X160511812Y-100803126D01*
X160628019Y-100769365D01*
X160769486Y-100685702D01*
X160885702Y-100569486D01*
X160969365Y-100428019D01*
X160993058Y-100346467D01*
X161030662Y-100287585D01*
X161094134Y-100258378D01*
X161163321Y-100268124D01*
X161212451Y-100308180D01*
X161238143Y-100343542D01*
X161238145Y-100343543D01*
X161917621Y-99664067D01*
X161917621Y-99670282D01*
X161944880Y-99772015D01*
X161997541Y-99863227D01*
X162072015Y-99937701D01*
X162163227Y-99990362D01*
X162264960Y-100017621D01*
X162271174Y-100017621D01*
X161591697Y-100697095D01*
X161636271Y-100729480D01*
X161818589Y-100822376D01*
X162013203Y-100885611D01*
X162215304Y-100917621D01*
X162419938Y-100917621D01*
X162622038Y-100885611D01*
X162816652Y-100822376D01*
X162998970Y-100729480D01*
X163043542Y-100697095D01*
X162364068Y-100017621D01*
X162370282Y-100017621D01*
X162472015Y-99990362D01*
X162563227Y-99937701D01*
X162637701Y-99863227D01*
X162690362Y-99772015D01*
X162717621Y-99670282D01*
X162717621Y-99664069D01*
X163397095Y-100343543D01*
X163397095Y-100343542D01*
X163429480Y-100298970D01*
X163522376Y-100116652D01*
X163585611Y-99922038D01*
X163617621Y-99719938D01*
X163617621Y-99515303D01*
X163585611Y-99313203D01*
X163522376Y-99118589D01*
X163429480Y-98936271D01*
X163397095Y-98891698D01*
X163397095Y-98891697D01*
X162717621Y-99571172D01*
X162717621Y-99564960D01*
X162690362Y-99463227D01*
X162637701Y-99372015D01*
X162563227Y-99297541D01*
X162472015Y-99244880D01*
X162370282Y-99217621D01*
X162364067Y-99217621D01*
X163043543Y-98538145D01*
X163043542Y-98538144D01*
X162998980Y-98505768D01*
X162998971Y-98505762D01*
X162816652Y-98412865D01*
X162622038Y-98349630D01*
X162419938Y-98317621D01*
X162215304Y-98317621D01*
X162013203Y-98349630D01*
X161818589Y-98412865D01*
X161636265Y-98505764D01*
X161591698Y-98538144D01*
X161591698Y-98538145D01*
X162271175Y-99217621D01*
X162264960Y-99217621D01*
X162163227Y-99244880D01*
X162072015Y-99297541D01*
X161997541Y-99372015D01*
X161944880Y-99463227D01*
X161917621Y-99564960D01*
X161917621Y-99571174D01*
X161238145Y-98891698D01*
X161238143Y-98891698D01*
X161212451Y-98927061D01*
X161157121Y-98969727D01*
X161087508Y-98975706D01*
X161025713Y-98943100D01*
X160993057Y-98888772D01*
X160969365Y-98807223D01*
X160885702Y-98665756D01*
X160885701Y-98665754D01*
X160769491Y-98549544D01*
X160769483Y-98549538D01*
X160628017Y-98465876D01*
X160628014Y-98465875D01*
X160470194Y-98420023D01*
X160470188Y-98420022D01*
X160433322Y-98417121D01*
X160433315Y-98417121D01*
X159201927Y-98417121D01*
X159201919Y-98417121D01*
X159165053Y-98420022D01*
X159165047Y-98420023D01*
X159007227Y-98465875D01*
X159007224Y-98465876D01*
X158865758Y-98549538D01*
X158865750Y-98549544D01*
X158749544Y-98665750D01*
X158749538Y-98665758D01*
X158665876Y-98807224D01*
X158665875Y-98807227D01*
X158620023Y-98965047D01*
X158620022Y-98965053D01*
X158617121Y-99001919D01*
X121621865Y-99001919D01*
X119986819Y-97366873D01*
X119972115Y-97339945D01*
X119955523Y-97314127D01*
X119954631Y-97307926D01*
X119953334Y-97305550D01*
X119950500Y-97279192D01*
X119950500Y-92942846D01*
X119970185Y-92875807D01*
X120018208Y-92832360D01*
X120029199Y-92826760D01*
X120182073Y-92715690D01*
X120315690Y-92582073D01*
X120426760Y-92429199D01*
X120512547Y-92260832D01*
X120552069Y-92139195D01*
X120591507Y-92081521D01*
X120655866Y-92054323D01*
X120724712Y-92066238D01*
X120776188Y-92113482D01*
X120787931Y-92139196D01*
X120827454Y-92260836D01*
X120905600Y-92414205D01*
X120913240Y-92429199D01*
X121024310Y-92582073D01*
X121157927Y-92715690D01*
X121310801Y-92826760D01*
X121321792Y-92832360D01*
X121479163Y-92912545D01*
X121479165Y-92912545D01*
X121479168Y-92912547D01*
X121549499Y-92935399D01*
X121658881Y-92970940D01*
X121845514Y-93000500D01*
X121845519Y-93000500D01*
X122034486Y-93000500D01*
X122221118Y-92970940D01*
X122400832Y-92912547D01*
X122569199Y-92826760D01*
X122722073Y-92715690D01*
X122855690Y-92582073D01*
X122966760Y-92429199D01*
X123052547Y-92260832D01*
X123092069Y-92139195D01*
X123131507Y-92081521D01*
X123195866Y-92054323D01*
X123264712Y-92066238D01*
X123316188Y-92113482D01*
X123327931Y-92139196D01*
X123367454Y-92260836D01*
X123445600Y-92414205D01*
X123453240Y-92429199D01*
X123564310Y-92582073D01*
X123697927Y-92715690D01*
X123850801Y-92826760D01*
X123861792Y-92832360D01*
X124019163Y-92912545D01*
X124019165Y-92912545D01*
X124019168Y-92912547D01*
X124089499Y-92935399D01*
X124198881Y-92970940D01*
X124385514Y-93000500D01*
X124385519Y-93000500D01*
X124574486Y-93000500D01*
X124761118Y-92970940D01*
X124940832Y-92912547D01*
X125109199Y-92826760D01*
X125262073Y-92715690D01*
X125395690Y-92582073D01*
X125506760Y-92429199D01*
X125592547Y-92260832D01*
X125632069Y-92139195D01*
X125671507Y-92081521D01*
X125735866Y-92054323D01*
X125804712Y-92066238D01*
X125856188Y-92113482D01*
X125867931Y-92139196D01*
X125907454Y-92260836D01*
X125985600Y-92414205D01*
X125993240Y-92429199D01*
X126104310Y-92582073D01*
X126237927Y-92715690D01*
X126390801Y-92826760D01*
X126401792Y-92832360D01*
X126559163Y-92912545D01*
X126559165Y-92912545D01*
X126559168Y-92912547D01*
X126629499Y-92935399D01*
X126738881Y-92970940D01*
X126925514Y-93000500D01*
X126925519Y-93000500D01*
X127114486Y-93000500D01*
X127301118Y-92970940D01*
X127480832Y-92912547D01*
X127649199Y-92826760D01*
X127802073Y-92715690D01*
X127935690Y-92582073D01*
X128046760Y-92429199D01*
X128132547Y-92260832D01*
X128172069Y-92139195D01*
X128211507Y-92081521D01*
X128275866Y-92054323D01*
X128344712Y-92066238D01*
X128396188Y-92113482D01*
X128407931Y-92139196D01*
X128447454Y-92260836D01*
X128525600Y-92414205D01*
X128533240Y-92429199D01*
X128644310Y-92582073D01*
X128777927Y-92715690D01*
X128930801Y-92826760D01*
X128941792Y-92832360D01*
X129099163Y-92912545D01*
X129099165Y-92912545D01*
X129099168Y-92912547D01*
X129169499Y-92935399D01*
X129278881Y-92970940D01*
X129465514Y-93000500D01*
X129465519Y-93000500D01*
X129654486Y-93000500D01*
X129841118Y-92970940D01*
X130020832Y-92912547D01*
X130189199Y-92826760D01*
X130342073Y-92715690D01*
X130475690Y-92582073D01*
X130586760Y-92429199D01*
X130672547Y-92260832D01*
X130712069Y-92139195D01*
X130751507Y-92081521D01*
X130815866Y-92054323D01*
X130884712Y-92066238D01*
X130936188Y-92113482D01*
X130947931Y-92139196D01*
X130987454Y-92260836D01*
X131065600Y-92414205D01*
X131073240Y-92429199D01*
X131184310Y-92582073D01*
X131317927Y-92715690D01*
X131470801Y-92826760D01*
X131481792Y-92832360D01*
X131639163Y-92912545D01*
X131639165Y-92912545D01*
X131639168Y-92912547D01*
X131709499Y-92935399D01*
X131818881Y-92970940D01*
X132005514Y-93000500D01*
X132005519Y-93000500D01*
X132194486Y-93000500D01*
X132381118Y-92970940D01*
X132560832Y-92912547D01*
X132729199Y-92826760D01*
X132882073Y-92715690D01*
X133015690Y-92582073D01*
X133126760Y-92429199D01*
X133212547Y-92260832D01*
X133252069Y-92139195D01*
X133291507Y-92081521D01*
X133355866Y-92054323D01*
X133424712Y-92066238D01*
X133476188Y-92113482D01*
X133487931Y-92139196D01*
X133527454Y-92260836D01*
X133605600Y-92414205D01*
X133613240Y-92429199D01*
X133724310Y-92582073D01*
X133857927Y-92715690D01*
X134010801Y-92826760D01*
X134021792Y-92832360D01*
X134179163Y-92912545D01*
X134179165Y-92912545D01*
X134179168Y-92912547D01*
X134249499Y-92935399D01*
X134358881Y-92970940D01*
X134545514Y-93000500D01*
X134545519Y-93000500D01*
X134734486Y-93000500D01*
X134921118Y-92970940D01*
X135100832Y-92912547D01*
X135269199Y-92826760D01*
X135422073Y-92715690D01*
X135555690Y-92582073D01*
X135666760Y-92429199D01*
X135752547Y-92260832D01*
X135792069Y-92139195D01*
X135831507Y-92081521D01*
X135895866Y-92054323D01*
X135964712Y-92066238D01*
X136016188Y-92113482D01*
X136027931Y-92139196D01*
X136067454Y-92260836D01*
X136145600Y-92414205D01*
X136153240Y-92429199D01*
X136264310Y-92582073D01*
X136397927Y-92715690D01*
X136550801Y-92826760D01*
X136561792Y-92832360D01*
X136719163Y-92912545D01*
X136719165Y-92912545D01*
X136719168Y-92912547D01*
X136789499Y-92935399D01*
X136898881Y-92970940D01*
X137085514Y-93000500D01*
X137085519Y-93000500D01*
X137274486Y-93000500D01*
X137461118Y-92970940D01*
X137640832Y-92912547D01*
X137809199Y-92826760D01*
X137962073Y-92715690D01*
X138095690Y-92582073D01*
X138206760Y-92429199D01*
X138292547Y-92260832D01*
X138332069Y-92139195D01*
X138371507Y-92081521D01*
X138435866Y-92054323D01*
X138504712Y-92066238D01*
X138556188Y-92113482D01*
X138567931Y-92139196D01*
X138607454Y-92260836D01*
X138685600Y-92414205D01*
X138693240Y-92429199D01*
X138804310Y-92582073D01*
X138937927Y-92715690D01*
X139090801Y-92826760D01*
X139101792Y-92832360D01*
X139259163Y-92912545D01*
X139259165Y-92912545D01*
X139259168Y-92912547D01*
X139329499Y-92935399D01*
X139438881Y-92970940D01*
X139625514Y-93000500D01*
X139625519Y-93000500D01*
X139814486Y-93000500D01*
X140001118Y-92970940D01*
X140180832Y-92912547D01*
X140349199Y-92826760D01*
X140502073Y-92715690D01*
X140635690Y-92582073D01*
X140746760Y-92429199D01*
X140832547Y-92260832D01*
X140872069Y-92139195D01*
X140911507Y-92081521D01*
X140975866Y-92054323D01*
X141044712Y-92066238D01*
X141096188Y-92113482D01*
X141107931Y-92139196D01*
X141147454Y-92260836D01*
X141225600Y-92414205D01*
X141233240Y-92429199D01*
X141344310Y-92582073D01*
X141477927Y-92715690D01*
X141630801Y-92826760D01*
X141641792Y-92832360D01*
X141799163Y-92912545D01*
X141799165Y-92912545D01*
X141799168Y-92912547D01*
X141869499Y-92935399D01*
X141978881Y-92970940D01*
X142165514Y-93000500D01*
X142165519Y-93000500D01*
X142354486Y-93000500D01*
X142541118Y-92970940D01*
X142720832Y-92912547D01*
X142889199Y-92826760D01*
X143042073Y-92715690D01*
X143175690Y-92582073D01*
X143286760Y-92429199D01*
X143372547Y-92260832D01*
X143412069Y-92139195D01*
X143451507Y-92081521D01*
X143515866Y-92054323D01*
X143584712Y-92066238D01*
X143636188Y-92113482D01*
X143647931Y-92139196D01*
X143687454Y-92260836D01*
X143765600Y-92414205D01*
X143773240Y-92429199D01*
X143884310Y-92582073D01*
X144017927Y-92715690D01*
X144170801Y-92826760D01*
X144181792Y-92832360D01*
X144339163Y-92912545D01*
X144339165Y-92912545D01*
X144339168Y-92912547D01*
X144409499Y-92935399D01*
X144518881Y-92970940D01*
X144705514Y-93000500D01*
X144705519Y-93000500D01*
X144894486Y-93000500D01*
X145081118Y-92970940D01*
X145260832Y-92912547D01*
X145429199Y-92826760D01*
X145582073Y-92715690D01*
X145715690Y-92582073D01*
X145826760Y-92429199D01*
X145912547Y-92260832D01*
X145952069Y-92139195D01*
X145991507Y-92081521D01*
X146055866Y-92054323D01*
X146124712Y-92066238D01*
X146176188Y-92113482D01*
X146187931Y-92139196D01*
X146227454Y-92260836D01*
X146305600Y-92414205D01*
X146313240Y-92429199D01*
X146424310Y-92582073D01*
X146424312Y-92582075D01*
X146557930Y-92715693D01*
X146638384Y-92774145D01*
X146681051Y-92829475D01*
X146689500Y-92874464D01*
X146689500Y-94104070D01*
X146703510Y-94174498D01*
X146703510Y-94174500D01*
X146714497Y-94229736D01*
X146714499Y-94229744D01*
X146761632Y-94343534D01*
X146763535Y-94348127D01*
X146834723Y-94454669D01*
X146834726Y-94454673D01*
X148285324Y-95905271D01*
X148285331Y-95905277D01*
X148391871Y-95976464D01*
X148391870Y-95976464D01*
X148426544Y-95990826D01*
X148510256Y-96025501D01*
X148510260Y-96025501D01*
X148510261Y-96025502D01*
X148635928Y-96050500D01*
X148635931Y-96050500D01*
X163915287Y-96050500D01*
X163962739Y-96059938D01*
X163995672Y-96073580D01*
X163995676Y-96073580D01*
X163995677Y-96073581D01*
X164131004Y-96100500D01*
X164131007Y-96100500D01*
X164268995Y-96100500D01*
X164333433Y-96087682D01*
X172200000Y-96087682D01*
X172200000Y-96292317D01*
X172232009Y-96494417D01*
X172295244Y-96689031D01*
X172388141Y-96871350D01*
X172388147Y-96871359D01*
X172420523Y-96915921D01*
X172420524Y-96915922D01*
X173100000Y-96236446D01*
X173100000Y-96242661D01*
X173127259Y-96344394D01*
X173179920Y-96435606D01*
X173254394Y-96510080D01*
X173345606Y-96562741D01*
X173447339Y-96590000D01*
X173453553Y-96590000D01*
X172774076Y-97269474D01*
X172818650Y-97301859D01*
X173000968Y-97394755D01*
X173195582Y-97457990D01*
X173397683Y-97490000D01*
X173602317Y-97490000D01*
X173804417Y-97457990D01*
X173999031Y-97394755D01*
X174181349Y-97301859D01*
X174225921Y-97269474D01*
X173546447Y-96590000D01*
X173552661Y-96590000D01*
X173654394Y-96562741D01*
X173745606Y-96510080D01*
X173820080Y-96435606D01*
X173872741Y-96344394D01*
X173900000Y-96242661D01*
X173900000Y-96236448D01*
X174579474Y-96915922D01*
X174579474Y-96915921D01*
X174611859Y-96871349D01*
X174704755Y-96689031D01*
X174767990Y-96494417D01*
X174800000Y-96292317D01*
X174800000Y-96087682D01*
X174767990Y-95885582D01*
X174704755Y-95690968D01*
X174611859Y-95508650D01*
X174579474Y-95464077D01*
X174579474Y-95464076D01*
X173900000Y-96143551D01*
X173900000Y-96137339D01*
X173872741Y-96035606D01*
X173820080Y-95944394D01*
X173745606Y-95869920D01*
X173654394Y-95817259D01*
X173552661Y-95790000D01*
X173546446Y-95790000D01*
X174225922Y-95110524D01*
X174225921Y-95110523D01*
X174181359Y-95078147D01*
X174181350Y-95078141D01*
X173999027Y-94985242D01*
X173993534Y-94983458D01*
X173935859Y-94944020D01*
X173908662Y-94879661D01*
X173920578Y-94810815D01*
X173967822Y-94759340D01*
X173975559Y-94755043D01*
X174004963Y-94740061D01*
X174129199Y-94676760D01*
X174282073Y-94565690D01*
X174415690Y-94432073D01*
X174526760Y-94279199D01*
X174612547Y-94110832D01*
X174670940Y-93931118D01*
X174682174Y-93860191D01*
X174700500Y-93744486D01*
X174700500Y-93555513D01*
X174670940Y-93368881D01*
X174630924Y-93245726D01*
X174612547Y-93189168D01*
X174612545Y-93189165D01*
X174612545Y-93189163D01*
X174551546Y-93069446D01*
X174526760Y-93020801D01*
X174415690Y-92867927D01*
X174282073Y-92734310D01*
X174129199Y-92623240D01*
X174112980Y-92614976D01*
X173960836Y-92537454D01*
X173886472Y-92513291D01*
X173839195Y-92497930D01*
X173781521Y-92458493D01*
X173754323Y-92394134D01*
X173766238Y-92325288D01*
X173813482Y-92273812D01*
X173839194Y-92262069D01*
X173960832Y-92222547D01*
X174129199Y-92136760D01*
X174282073Y-92025690D01*
X174415690Y-91892073D01*
X174526760Y-91739199D01*
X174612547Y-91570832D01*
X174670940Y-91391118D01*
X174679169Y-91339163D01*
X174700500Y-91204486D01*
X174700500Y-91015513D01*
X174670940Y-90828881D01*
X174637360Y-90725534D01*
X174612547Y-90649168D01*
X174612545Y-90649165D01*
X174612545Y-90649163D01*
X174528644Y-90484499D01*
X174526760Y-90480801D01*
X174415690Y-90327927D01*
X174282073Y-90194310D01*
X174129199Y-90083240D01*
X173960836Y-89997454D01*
X173886472Y-89973291D01*
X173839195Y-89957930D01*
X173781521Y-89918493D01*
X173754323Y-89854134D01*
X173766238Y-89785288D01*
X173813482Y-89733812D01*
X173839194Y-89722069D01*
X173960832Y-89682547D01*
X174129199Y-89596760D01*
X174282073Y-89485690D01*
X174415690Y-89352073D01*
X174526760Y-89199199D01*
X174612547Y-89030832D01*
X174670940Y-88851118D01*
X174699714Y-88669446D01*
X174700500Y-88664486D01*
X174700500Y-88475513D01*
X174670940Y-88288881D01*
X174612545Y-88109163D01*
X174567290Y-88020347D01*
X174526760Y-87940801D01*
X174415690Y-87787927D01*
X174282073Y-87654310D01*
X174129199Y-87543240D01*
X174129197Y-87543239D01*
X173960836Y-87457454D01*
X173886472Y-87433291D01*
X173839195Y-87417930D01*
X173781521Y-87378493D01*
X173754323Y-87314134D01*
X173766238Y-87245288D01*
X173813482Y-87193812D01*
X173839194Y-87182069D01*
X173960832Y-87142547D01*
X174129199Y-87056760D01*
X174282073Y-86945690D01*
X174415690Y-86812073D01*
X174526760Y-86659199D01*
X174612547Y-86490832D01*
X174670940Y-86311118D01*
X174700500Y-86124486D01*
X174700500Y-85935513D01*
X174670940Y-85748881D01*
X174612545Y-85569163D01*
X174526759Y-85400800D01*
X174415690Y-85247927D01*
X174282073Y-85114310D01*
X174129199Y-85003240D01*
X174071946Y-84974068D01*
X173960836Y-84917454D01*
X173886472Y-84893291D01*
X173839195Y-84877930D01*
X173781521Y-84838493D01*
X173754323Y-84774134D01*
X173766238Y-84705288D01*
X173813482Y-84653812D01*
X173839194Y-84642069D01*
X173960832Y-84602547D01*
X174129199Y-84516760D01*
X174282073Y-84405690D01*
X174415690Y-84272073D01*
X174526760Y-84119199D01*
X174612547Y-83950832D01*
X174670940Y-83771118D01*
X174678476Y-83723538D01*
X174700500Y-83584486D01*
X174700500Y-83395513D01*
X174670940Y-83208881D01*
X174612545Y-83029163D01*
X174526759Y-82860800D01*
X174518549Y-82849500D01*
X174415690Y-82707927D01*
X174282073Y-82574310D01*
X174129199Y-82463240D01*
X174070099Y-82433127D01*
X173975615Y-82384985D01*
X173924819Y-82337010D01*
X173908024Y-82269189D01*
X173930561Y-82203054D01*
X173985277Y-82159603D01*
X174031910Y-82150500D01*
X174115686Y-82150500D01*
X174115694Y-82150500D01*
X174152569Y-82147598D01*
X174152571Y-82147597D01*
X174152573Y-82147597D01*
X174194191Y-82135505D01*
X174310398Y-82101744D01*
X174451865Y-82018081D01*
X174568081Y-81901865D01*
X174651744Y-81760398D01*
X174685505Y-81644191D01*
X174697597Y-81602573D01*
X174697598Y-81602567D01*
X174700499Y-81565701D01*
X174700500Y-81565694D01*
X174700500Y-80334306D01*
X174697598Y-80297431D01*
X174687647Y-80263181D01*
X174651745Y-80139606D01*
X174651744Y-80139603D01*
X174651744Y-80139602D01*
X174568081Y-79998135D01*
X174568079Y-79998133D01*
X174568076Y-79998129D01*
X174451870Y-79881923D01*
X174451862Y-79881917D01*
X174310396Y-79798255D01*
X174310393Y-79798254D01*
X174152573Y-79752402D01*
X174152567Y-79752401D01*
X174115701Y-79749500D01*
X174115694Y-79749500D01*
X172884306Y-79749500D01*
X172884298Y-79749500D01*
X172847432Y-79752401D01*
X172847426Y-79752402D01*
X172689606Y-79798254D01*
X172689603Y-79798255D01*
X172548137Y-79881917D01*
X172548129Y-79881923D01*
X172431923Y-79998129D01*
X172431917Y-79998137D01*
X172348255Y-80139603D01*
X172348254Y-80139606D01*
X172302402Y-80297426D01*
X172302401Y-80297432D01*
X172299500Y-80334298D01*
X172299500Y-81565701D01*
X172302401Y-81602567D01*
X172302402Y-81602573D01*
X172348254Y-81760393D01*
X172348255Y-81760396D01*
X172348256Y-81760398D01*
X172363000Y-81785329D01*
X172431917Y-81901862D01*
X172431923Y-81901870D01*
X172548129Y-82018076D01*
X172548133Y-82018079D01*
X172548135Y-82018081D01*
X172689602Y-82101744D01*
X172690721Y-82102069D01*
X172847426Y-82147597D01*
X172847429Y-82147597D01*
X172847431Y-82147598D01*
X172884306Y-82150500D01*
X172884314Y-82150500D01*
X172968090Y-82150500D01*
X173035129Y-82170185D01*
X173080884Y-82222989D01*
X173090828Y-82292147D01*
X173061803Y-82355703D01*
X173024385Y-82384985D01*
X172870800Y-82463240D01*
X172791566Y-82520808D01*
X172717927Y-82574310D01*
X172717925Y-82574312D01*
X172717924Y-82574312D01*
X172584312Y-82707924D01*
X172584312Y-82707925D01*
X172584310Y-82707927D01*
X172536610Y-82773579D01*
X172473240Y-82860800D01*
X172387454Y-83029163D01*
X172329059Y-83208881D01*
X172299500Y-83395513D01*
X172299500Y-83584486D01*
X172329059Y-83771118D01*
X172387454Y-83950836D01*
X172468683Y-84110256D01*
X172473240Y-84119199D01*
X172584310Y-84272073D01*
X172717927Y-84405690D01*
X172870801Y-84516760D01*
X172950347Y-84557290D01*
X173039163Y-84602545D01*
X173039165Y-84602545D01*
X173039168Y-84602547D01*
X173128734Y-84631649D01*
X173160803Y-84642069D01*
X173218478Y-84681507D01*
X173245676Y-84745866D01*
X173233761Y-84814712D01*
X173186516Y-84866188D01*
X173160803Y-84877931D01*
X173039163Y-84917454D01*
X172870800Y-85003240D01*
X172783579Y-85066610D01*
X172717927Y-85114310D01*
X172717925Y-85114312D01*
X172717924Y-85114312D01*
X172584312Y-85247924D01*
X172584312Y-85247925D01*
X172584310Y-85247927D01*
X172536610Y-85313579D01*
X172473240Y-85400800D01*
X172387454Y-85569163D01*
X172329059Y-85748881D01*
X172299500Y-85935513D01*
X172299500Y-86124486D01*
X172329059Y-86311118D01*
X172387454Y-86490836D01*
X172471355Y-86655500D01*
X172473240Y-86659199D01*
X172584310Y-86812073D01*
X172717927Y-86945690D01*
X172870801Y-87056760D01*
X172950347Y-87097290D01*
X173039163Y-87142545D01*
X173039165Y-87142545D01*
X173039168Y-87142547D01*
X173128734Y-87171649D01*
X173160803Y-87182069D01*
X173218478Y-87221507D01*
X173245676Y-87285866D01*
X173233761Y-87354712D01*
X173186516Y-87406188D01*
X173160803Y-87417931D01*
X173039163Y-87457454D01*
X172870800Y-87543240D01*
X172783579Y-87606610D01*
X172717927Y-87654310D01*
X172717925Y-87654312D01*
X172717924Y-87654312D01*
X172584312Y-87787924D01*
X172584312Y-87787925D01*
X172584310Y-87787927D01*
X172536610Y-87853579D01*
X172473240Y-87940800D01*
X172387454Y-88109163D01*
X172329059Y-88288881D01*
X172299500Y-88475513D01*
X172299500Y-88664486D01*
X172329059Y-88851118D01*
X172387454Y-89030836D01*
X172461005Y-89175187D01*
X172473240Y-89199199D01*
X172584310Y-89352073D01*
X172717927Y-89485690D01*
X172870801Y-89596760D01*
X172950347Y-89637290D01*
X173039163Y-89682545D01*
X173039165Y-89682545D01*
X173039168Y-89682547D01*
X173128734Y-89711649D01*
X173160803Y-89722069D01*
X173218478Y-89761507D01*
X173245676Y-89825866D01*
X173233761Y-89894712D01*
X173186516Y-89946188D01*
X173160803Y-89957931D01*
X173039163Y-89997454D01*
X172870800Y-90083240D01*
X172783579Y-90146610D01*
X172717927Y-90194310D01*
X172717925Y-90194312D01*
X172717924Y-90194312D01*
X172584312Y-90327924D01*
X172584312Y-90327925D01*
X172584310Y-90327927D01*
X172536610Y-90393579D01*
X172473240Y-90480800D01*
X172387454Y-90649163D01*
X172329059Y-90828881D01*
X172299500Y-91015513D01*
X172299500Y-91204486D01*
X172329059Y-91391118D01*
X172387454Y-91570836D01*
X172459983Y-91713181D01*
X172473240Y-91739199D01*
X172584310Y-91892073D01*
X172717927Y-92025690D01*
X172870801Y-92136760D01*
X172905950Y-92154669D01*
X173039163Y-92222545D01*
X173039165Y-92222545D01*
X173039168Y-92222547D01*
X173101408Y-92242770D01*
X173160803Y-92262069D01*
X173218478Y-92301507D01*
X173245676Y-92365866D01*
X173233761Y-92434712D01*
X173186516Y-92486188D01*
X173160803Y-92497931D01*
X173039163Y-92537454D01*
X172870800Y-92623240D01*
X172832060Y-92651387D01*
X172717927Y-92734310D01*
X172717925Y-92734312D01*
X172717924Y-92734312D01*
X172584312Y-92867924D01*
X172584312Y-92867925D01*
X172584310Y-92867927D01*
X172536610Y-92933579D01*
X172473240Y-93020800D01*
X172387454Y-93189163D01*
X172329059Y-93368881D01*
X172299500Y-93555513D01*
X172299500Y-93744486D01*
X172329059Y-93931118D01*
X172387454Y-94110836D01*
X172457988Y-94249266D01*
X172473240Y-94279199D01*
X172584310Y-94432073D01*
X172717927Y-94565690D01*
X172870801Y-94676760D01*
X172964398Y-94724450D01*
X173024440Y-94755043D01*
X173075236Y-94803018D01*
X173092031Y-94870839D01*
X173069494Y-94936974D01*
X173014778Y-94980425D01*
X173006469Y-94983457D01*
X173000971Y-94985243D01*
X172818644Y-95078143D01*
X172774077Y-95110523D01*
X172774077Y-95110524D01*
X173453554Y-95790000D01*
X173447339Y-95790000D01*
X173345606Y-95817259D01*
X173254394Y-95869920D01*
X173179920Y-95944394D01*
X173127259Y-96035606D01*
X173100000Y-96137339D01*
X173100000Y-96143553D01*
X172420524Y-95464077D01*
X172420523Y-95464077D01*
X172388143Y-95508644D01*
X172295244Y-95690968D01*
X172232009Y-95885582D01*
X172200000Y-96087682D01*
X164333433Y-96087682D01*
X164360041Y-96082389D01*
X164404328Y-96073580D01*
X164520399Y-96025502D01*
X164531804Y-96020778D01*
X164531804Y-96020777D01*
X164531811Y-96020775D01*
X164531817Y-96020771D01*
X164593264Y-95979714D01*
X164620276Y-95961664D01*
X164646542Y-95944114D01*
X164744114Y-95846542D01*
X164820775Y-95731811D01*
X164873580Y-95604328D01*
X164892613Y-95508644D01*
X164900500Y-95468995D01*
X164900500Y-95331004D01*
X164873581Y-95195677D01*
X164873580Y-95195676D01*
X164873580Y-95195672D01*
X164838311Y-95110524D01*
X164820778Y-95068195D01*
X164820771Y-95068182D01*
X164744114Y-94953458D01*
X164744111Y-94953454D01*
X164646545Y-94855888D01*
X164646541Y-94855885D01*
X164531817Y-94779228D01*
X164531804Y-94779221D01*
X164404332Y-94726421D01*
X164404322Y-94726418D01*
X164268995Y-94699500D01*
X164268993Y-94699500D01*
X164131007Y-94699500D01*
X164131005Y-94699500D01*
X163995677Y-94726418D01*
X163995671Y-94726420D01*
X163962740Y-94740061D01*
X163915287Y-94749500D01*
X149020808Y-94749500D01*
X148953769Y-94729815D01*
X148933127Y-94713181D01*
X148026819Y-93806873D01*
X147993334Y-93745550D01*
X147990500Y-93719192D01*
X147990500Y-92874464D01*
X148010185Y-92807425D01*
X148041616Y-92774145D01*
X148122069Y-92715693D01*
X148122069Y-92715692D01*
X148122073Y-92715690D01*
X148255690Y-92582073D01*
X148366760Y-92429199D01*
X148452547Y-92260832D01*
X148492069Y-92139195D01*
X148531507Y-92081521D01*
X148595866Y-92054323D01*
X148664712Y-92066238D01*
X148716188Y-92113482D01*
X148727931Y-92139196D01*
X148767454Y-92260836D01*
X148845600Y-92414205D01*
X148853240Y-92429199D01*
X148964310Y-92582073D01*
X149097927Y-92715690D01*
X149250801Y-92826760D01*
X149261792Y-92832360D01*
X149419163Y-92912545D01*
X149419165Y-92912545D01*
X149419168Y-92912547D01*
X149489499Y-92935399D01*
X149598881Y-92970940D01*
X149785514Y-93000500D01*
X149785519Y-93000500D01*
X149974486Y-93000500D01*
X150161118Y-92970940D01*
X150340832Y-92912547D01*
X150509199Y-92826760D01*
X150662073Y-92715690D01*
X150795690Y-92582073D01*
X150906760Y-92429199D01*
X150992547Y-92260832D01*
X151032069Y-92139195D01*
X151071507Y-92081521D01*
X151135866Y-92054323D01*
X151204712Y-92066238D01*
X151256188Y-92113482D01*
X151267931Y-92139196D01*
X151307454Y-92260836D01*
X151385600Y-92414205D01*
X151393240Y-92429199D01*
X151504310Y-92582073D01*
X151637927Y-92715690D01*
X151790801Y-92826760D01*
X151801792Y-92832360D01*
X151959163Y-92912545D01*
X151959165Y-92912545D01*
X151959168Y-92912547D01*
X152029499Y-92935399D01*
X152138881Y-92970940D01*
X152325514Y-93000500D01*
X152325519Y-93000500D01*
X152514486Y-93000500D01*
X152701118Y-92970940D01*
X152880832Y-92912547D01*
X153049199Y-92826760D01*
X153202073Y-92715690D01*
X153335690Y-92582073D01*
X153446760Y-92429199D01*
X153532547Y-92260832D01*
X153572069Y-92139195D01*
X153611507Y-92081521D01*
X153675866Y-92054323D01*
X153744712Y-92066238D01*
X153796188Y-92113482D01*
X153807931Y-92139196D01*
X153847454Y-92260836D01*
X153925600Y-92414205D01*
X153933240Y-92429199D01*
X154044310Y-92582073D01*
X154177927Y-92715690D01*
X154330801Y-92826760D01*
X154341792Y-92832360D01*
X154499163Y-92912545D01*
X154499165Y-92912545D01*
X154499168Y-92912547D01*
X154569499Y-92935399D01*
X154678881Y-92970940D01*
X154865514Y-93000500D01*
X154865519Y-93000500D01*
X155054486Y-93000500D01*
X155241118Y-92970940D01*
X155420832Y-92912547D01*
X155589199Y-92826760D01*
X155742073Y-92715690D01*
X155875690Y-92582073D01*
X155986760Y-92429199D01*
X156072547Y-92260832D01*
X156112069Y-92139195D01*
X156151507Y-92081521D01*
X156215866Y-92054323D01*
X156284712Y-92066238D01*
X156336188Y-92113482D01*
X156347931Y-92139196D01*
X156387454Y-92260836D01*
X156465600Y-92414205D01*
X156473240Y-92429199D01*
X156584310Y-92582073D01*
X156717927Y-92715690D01*
X156870801Y-92826760D01*
X156881792Y-92832360D01*
X157039163Y-92912545D01*
X157039165Y-92912545D01*
X157039168Y-92912547D01*
X157109499Y-92935399D01*
X157218881Y-92970940D01*
X157405514Y-93000500D01*
X157405519Y-93000500D01*
X157594486Y-93000500D01*
X157781118Y-92970940D01*
X157960832Y-92912547D01*
X158129199Y-92826760D01*
X158282073Y-92715690D01*
X158415690Y-92582073D01*
X158526760Y-92429199D01*
X158612547Y-92260832D01*
X158670940Y-92081118D01*
X158679719Y-92025690D01*
X158700500Y-91894486D01*
X158700500Y-91705513D01*
X158670940Y-91518881D01*
X158643846Y-91435497D01*
X158612547Y-91339168D01*
X158612545Y-91339165D01*
X158612545Y-91339163D01*
X158543923Y-91204486D01*
X158526760Y-91170801D01*
X158415690Y-91017927D01*
X158282073Y-90884310D01*
X158129199Y-90773240D01*
X158123863Y-90770521D01*
X157960836Y-90687454D01*
X157781118Y-90629059D01*
X157594486Y-90599500D01*
X157594481Y-90599500D01*
X157405519Y-90599500D01*
X157405514Y-90599500D01*
X157218881Y-90629059D01*
X157039163Y-90687454D01*
X156870800Y-90773240D01*
X156794218Y-90828881D01*
X156717927Y-90884310D01*
X156717925Y-90884312D01*
X156717924Y-90884312D01*
X156584312Y-91017924D01*
X156584312Y-91017925D01*
X156584310Y-91017927D01*
X156536610Y-91083579D01*
X156473240Y-91170800D01*
X156387454Y-91339163D01*
X156347931Y-91460803D01*
X156308493Y-91518478D01*
X156244134Y-91545676D01*
X156175288Y-91533761D01*
X156123812Y-91486516D01*
X156112069Y-91460803D01*
X156072545Y-91339163D01*
X156003923Y-91204486D01*
X155986760Y-91170801D01*
X155875690Y-91017927D01*
X155742073Y-90884310D01*
X155589199Y-90773240D01*
X155583863Y-90770521D01*
X155420836Y-90687454D01*
X155241118Y-90629059D01*
X155054486Y-90599500D01*
X155054481Y-90599500D01*
X154865519Y-90599500D01*
X154865514Y-90599500D01*
X154678881Y-90629059D01*
X154499163Y-90687454D01*
X154330800Y-90773240D01*
X154254218Y-90828881D01*
X154177927Y-90884310D01*
X154177925Y-90884312D01*
X154177924Y-90884312D01*
X154044312Y-91017924D01*
X154044312Y-91017925D01*
X154044310Y-91017927D01*
X153996610Y-91083579D01*
X153933240Y-91170800D01*
X153847454Y-91339163D01*
X153807931Y-91460803D01*
X153768493Y-91518478D01*
X153704134Y-91545676D01*
X153635288Y-91533761D01*
X153583812Y-91486516D01*
X153572069Y-91460803D01*
X153532545Y-91339163D01*
X153463923Y-91204486D01*
X153446760Y-91170801D01*
X153335690Y-91017927D01*
X153202073Y-90884310D01*
X153049199Y-90773240D01*
X153043863Y-90770521D01*
X152880836Y-90687454D01*
X152701118Y-90629059D01*
X152514486Y-90599500D01*
X152514481Y-90599500D01*
X152325519Y-90599500D01*
X152325514Y-90599500D01*
X152138881Y-90629059D01*
X151959163Y-90687454D01*
X151790800Y-90773240D01*
X151714218Y-90828881D01*
X151637927Y-90884310D01*
X151637925Y-90884312D01*
X151637924Y-90884312D01*
X151504312Y-91017924D01*
X151504312Y-91017925D01*
X151504310Y-91017927D01*
X151456610Y-91083579D01*
X151393240Y-91170800D01*
X151307454Y-91339163D01*
X151267931Y-91460803D01*
X151228493Y-91518478D01*
X151164134Y-91545676D01*
X151095288Y-91533761D01*
X151043812Y-91486516D01*
X151032069Y-91460803D01*
X150992545Y-91339163D01*
X150923923Y-91204486D01*
X150906760Y-91170801D01*
X150795690Y-91017927D01*
X150662073Y-90884310D01*
X150509199Y-90773240D01*
X150503863Y-90770521D01*
X150340836Y-90687454D01*
X150161118Y-90629059D01*
X149974486Y-90599500D01*
X149974481Y-90599500D01*
X149785519Y-90599500D01*
X149785514Y-90599500D01*
X149598881Y-90629059D01*
X149419163Y-90687454D01*
X149250800Y-90773240D01*
X149174218Y-90828881D01*
X149097927Y-90884310D01*
X149097925Y-90884312D01*
X149097924Y-90884312D01*
X148964312Y-91017924D01*
X148964312Y-91017925D01*
X148964310Y-91017927D01*
X148916610Y-91083579D01*
X148853240Y-91170800D01*
X148767454Y-91339163D01*
X148727931Y-91460803D01*
X148688493Y-91518478D01*
X148624134Y-91545676D01*
X148555288Y-91533761D01*
X148503812Y-91486516D01*
X148492069Y-91460803D01*
X148452545Y-91339163D01*
X148383923Y-91204486D01*
X148366760Y-91170801D01*
X148255690Y-91017927D01*
X148122073Y-90884310D01*
X147969199Y-90773240D01*
X147963863Y-90770521D01*
X147800836Y-90687454D01*
X147621118Y-90629059D01*
X147434486Y-90599500D01*
X147434481Y-90599500D01*
X147245519Y-90599500D01*
X147245514Y-90599500D01*
X147058881Y-90629059D01*
X146879163Y-90687454D01*
X146710800Y-90773240D01*
X146634218Y-90828881D01*
X146557927Y-90884310D01*
X146557925Y-90884312D01*
X146557924Y-90884312D01*
X146424312Y-91017924D01*
X146424312Y-91017925D01*
X146424310Y-91017927D01*
X146376610Y-91083579D01*
X146313240Y-91170800D01*
X146227454Y-91339163D01*
X146187931Y-91460803D01*
X146148493Y-91518478D01*
X146084134Y-91545676D01*
X146015288Y-91533761D01*
X145963812Y-91486516D01*
X145952069Y-91460803D01*
X145912545Y-91339163D01*
X145843923Y-91204486D01*
X145826760Y-91170801D01*
X145715690Y-91017927D01*
X145582073Y-90884310D01*
X145582072Y-90884309D01*
X145501613Y-90825851D01*
X145458948Y-90770521D01*
X145450500Y-90725534D01*
X145450500Y-89820808D01*
X145470185Y-89753769D01*
X145486819Y-89733127D01*
X145833127Y-89386819D01*
X145894450Y-89353334D01*
X145920808Y-89350500D01*
X164515287Y-89350500D01*
X164562739Y-89359938D01*
X164595672Y-89373580D01*
X164595676Y-89373580D01*
X164595677Y-89373581D01*
X164731004Y-89400500D01*
X164731007Y-89400500D01*
X164868995Y-89400500D01*
X164960041Y-89382389D01*
X165004328Y-89373580D01*
X165131811Y-89320775D01*
X165246542Y-89244114D01*
X165344114Y-89146542D01*
X165420775Y-89031811D01*
X165473580Y-88904328D01*
X165500500Y-88768993D01*
X165500500Y-88631007D01*
X165500500Y-88631004D01*
X165473581Y-88495677D01*
X165473580Y-88495676D01*
X165473580Y-88495672D01*
X165473578Y-88495667D01*
X165420778Y-88368195D01*
X165420771Y-88368182D01*
X165344114Y-88253458D01*
X165344111Y-88253454D01*
X165246545Y-88155888D01*
X165246541Y-88155885D01*
X165131817Y-88079228D01*
X165131804Y-88079221D01*
X165004332Y-88026421D01*
X165004322Y-88026418D01*
X164868995Y-87999500D01*
X164868993Y-87999500D01*
X164731007Y-87999500D01*
X164731005Y-87999500D01*
X164595677Y-88026418D01*
X164595671Y-88026420D01*
X164562740Y-88040061D01*
X164515287Y-88049500D01*
X145535929Y-88049500D01*
X145410261Y-88074497D01*
X145410255Y-88074499D01*
X145291874Y-88123534D01*
X145185326Y-88194726D01*
X145185325Y-88194727D01*
X144294722Y-89085331D01*
X144294718Y-89085336D01*
X144253876Y-89146464D01*
X144253875Y-89146466D01*
X144238705Y-89169169D01*
X144223535Y-89191872D01*
X144223533Y-89191875D01*
X144174499Y-89310255D01*
X144174497Y-89310261D01*
X144149500Y-89435928D01*
X144149500Y-90725534D01*
X144129815Y-90792573D01*
X144098387Y-90825851D01*
X144017927Y-90884309D01*
X143884312Y-91017924D01*
X143884312Y-91017925D01*
X143884310Y-91017927D01*
X143836610Y-91083579D01*
X143773240Y-91170800D01*
X143687454Y-91339163D01*
X143647931Y-91460803D01*
X143608493Y-91518478D01*
X143544134Y-91545676D01*
X143475288Y-91533761D01*
X143423812Y-91486516D01*
X143412069Y-91460803D01*
X143372545Y-91339163D01*
X143303923Y-91204486D01*
X143286760Y-91170801D01*
X143175690Y-91017927D01*
X143042073Y-90884310D01*
X142889199Y-90773240D01*
X142883863Y-90770521D01*
X142720836Y-90687454D01*
X142541118Y-90629059D01*
X142354486Y-90599500D01*
X142354481Y-90599500D01*
X142165519Y-90599500D01*
X142165514Y-90599500D01*
X141978881Y-90629059D01*
X141799163Y-90687454D01*
X141630800Y-90773240D01*
X141554218Y-90828881D01*
X141477927Y-90884310D01*
X141477925Y-90884312D01*
X141477924Y-90884312D01*
X141344312Y-91017924D01*
X141344312Y-91017925D01*
X141344310Y-91017927D01*
X141296610Y-91083579D01*
X141233240Y-91170800D01*
X141147454Y-91339163D01*
X141107931Y-91460803D01*
X141068493Y-91518478D01*
X141004134Y-91545676D01*
X140935288Y-91533761D01*
X140883812Y-91486516D01*
X140872069Y-91460803D01*
X140832545Y-91339163D01*
X140763923Y-91204486D01*
X140746760Y-91170801D01*
X140635690Y-91017927D01*
X140502073Y-90884310D01*
X140349199Y-90773240D01*
X140343863Y-90770521D01*
X140180836Y-90687454D01*
X140001118Y-90629059D01*
X139814486Y-90599500D01*
X139814481Y-90599500D01*
X139625519Y-90599500D01*
X139625514Y-90599500D01*
X139438881Y-90629059D01*
X139259163Y-90687454D01*
X139090800Y-90773240D01*
X139014218Y-90828881D01*
X138937927Y-90884310D01*
X138937925Y-90884312D01*
X138937924Y-90884312D01*
X138804312Y-91017924D01*
X138804312Y-91017925D01*
X138804310Y-91017927D01*
X138756610Y-91083579D01*
X138693240Y-91170800D01*
X138607454Y-91339163D01*
X138567931Y-91460803D01*
X138528493Y-91518478D01*
X138464134Y-91545676D01*
X138395288Y-91533761D01*
X138343812Y-91486516D01*
X138332069Y-91460803D01*
X138292545Y-91339163D01*
X138223923Y-91204486D01*
X138206760Y-91170801D01*
X138095690Y-91017927D01*
X137962073Y-90884310D01*
X137809199Y-90773240D01*
X137803863Y-90770521D01*
X137640836Y-90687454D01*
X137461118Y-90629059D01*
X137274486Y-90599500D01*
X137274481Y-90599500D01*
X137085519Y-90599500D01*
X137085514Y-90599500D01*
X136898881Y-90629059D01*
X136719163Y-90687454D01*
X136550800Y-90773240D01*
X136474218Y-90828881D01*
X136397927Y-90884310D01*
X136397925Y-90884312D01*
X136397924Y-90884312D01*
X136264312Y-91017924D01*
X136264312Y-91017925D01*
X136264310Y-91017927D01*
X136216610Y-91083579D01*
X136153240Y-91170800D01*
X136067454Y-91339163D01*
X136027931Y-91460803D01*
X135988493Y-91518478D01*
X135924134Y-91545676D01*
X135855288Y-91533761D01*
X135803812Y-91486516D01*
X135792069Y-91460803D01*
X135752545Y-91339163D01*
X135683923Y-91204486D01*
X135666760Y-91170801D01*
X135555690Y-91017927D01*
X135422073Y-90884310D01*
X135269199Y-90773240D01*
X135263863Y-90770521D01*
X135100836Y-90687454D01*
X134921118Y-90629059D01*
X134734486Y-90599500D01*
X134734481Y-90599500D01*
X134545519Y-90599500D01*
X134545514Y-90599500D01*
X134358881Y-90629059D01*
X134179163Y-90687454D01*
X134010800Y-90773240D01*
X133934218Y-90828881D01*
X133857927Y-90884310D01*
X133857925Y-90884312D01*
X133857924Y-90884312D01*
X133724312Y-91017924D01*
X133724312Y-91017925D01*
X133724310Y-91017927D01*
X133676610Y-91083579D01*
X133613240Y-91170800D01*
X133527454Y-91339163D01*
X133487931Y-91460803D01*
X133448493Y-91518478D01*
X133384134Y-91545676D01*
X133315288Y-91533761D01*
X133263812Y-91486516D01*
X133252069Y-91460803D01*
X133212545Y-91339163D01*
X133143923Y-91204486D01*
X133126760Y-91170801D01*
X133015690Y-91017927D01*
X132882073Y-90884310D01*
X132729199Y-90773240D01*
X132723863Y-90770521D01*
X132560836Y-90687454D01*
X132381118Y-90629059D01*
X132194486Y-90599500D01*
X132194481Y-90599500D01*
X132005519Y-90599500D01*
X132005514Y-90599500D01*
X131818881Y-90629059D01*
X131639163Y-90687454D01*
X131470800Y-90773240D01*
X131394218Y-90828881D01*
X131317927Y-90884310D01*
X131317925Y-90884312D01*
X131317924Y-90884312D01*
X131184312Y-91017924D01*
X131184312Y-91017925D01*
X131184310Y-91017927D01*
X131136610Y-91083579D01*
X131073240Y-91170800D01*
X130987454Y-91339163D01*
X130947931Y-91460803D01*
X130908493Y-91518478D01*
X130844134Y-91545676D01*
X130775288Y-91533761D01*
X130723812Y-91486516D01*
X130712069Y-91460803D01*
X130672545Y-91339163D01*
X130603923Y-91204486D01*
X130586760Y-91170801D01*
X130475690Y-91017927D01*
X130342073Y-90884310D01*
X130189199Y-90773240D01*
X130183863Y-90770521D01*
X130020836Y-90687454D01*
X129841118Y-90629059D01*
X129654486Y-90599500D01*
X129654481Y-90599500D01*
X129465519Y-90599500D01*
X129465514Y-90599500D01*
X129278881Y-90629059D01*
X129099163Y-90687454D01*
X128930800Y-90773240D01*
X128854218Y-90828881D01*
X128777927Y-90884310D01*
X128777925Y-90884312D01*
X128777924Y-90884312D01*
X128644312Y-91017924D01*
X128644312Y-91017925D01*
X128644310Y-91017927D01*
X128596610Y-91083579D01*
X128533240Y-91170800D01*
X128447454Y-91339163D01*
X128407931Y-91460803D01*
X128368493Y-91518478D01*
X128304134Y-91545676D01*
X128235288Y-91533761D01*
X128183812Y-91486516D01*
X128172069Y-91460803D01*
X128132545Y-91339163D01*
X128063923Y-91204486D01*
X128046760Y-91170801D01*
X127935690Y-91017927D01*
X127802073Y-90884310D01*
X127649199Y-90773240D01*
X127643863Y-90770521D01*
X127480836Y-90687454D01*
X127301118Y-90629059D01*
X127114486Y-90599500D01*
X127114481Y-90599500D01*
X126925519Y-90599500D01*
X126925514Y-90599500D01*
X126738881Y-90629059D01*
X126559163Y-90687454D01*
X126390800Y-90773240D01*
X126314218Y-90828881D01*
X126237927Y-90884310D01*
X126237925Y-90884312D01*
X126237924Y-90884312D01*
X126104312Y-91017924D01*
X126104312Y-91017925D01*
X126104310Y-91017927D01*
X126056610Y-91083579D01*
X125993240Y-91170800D01*
X125907454Y-91339163D01*
X125867931Y-91460803D01*
X125828493Y-91518478D01*
X125764134Y-91545676D01*
X125695288Y-91533761D01*
X125643812Y-91486516D01*
X125632069Y-91460803D01*
X125592545Y-91339163D01*
X125523923Y-91204486D01*
X125506760Y-91170801D01*
X125395690Y-91017927D01*
X125262073Y-90884310D01*
X125109199Y-90773240D01*
X125103863Y-90770521D01*
X124940836Y-90687454D01*
X124761118Y-90629059D01*
X124574486Y-90599500D01*
X124574481Y-90599500D01*
X124385519Y-90599500D01*
X124385514Y-90599500D01*
X124198881Y-90629059D01*
X124019163Y-90687454D01*
X123850800Y-90773240D01*
X123774218Y-90828881D01*
X123697927Y-90884310D01*
X123697925Y-90884312D01*
X123697924Y-90884312D01*
X123564312Y-91017924D01*
X123564312Y-91017925D01*
X123564310Y-91017927D01*
X123516610Y-91083579D01*
X123453240Y-91170800D01*
X123367454Y-91339163D01*
X123327931Y-91460803D01*
X123288493Y-91518478D01*
X123224134Y-91545676D01*
X123155288Y-91533761D01*
X123103812Y-91486516D01*
X123092069Y-91460803D01*
X123052545Y-91339163D01*
X122983923Y-91204486D01*
X122966760Y-91170801D01*
X122855690Y-91017927D01*
X122722073Y-90884310D01*
X122569199Y-90773240D01*
X122563863Y-90770521D01*
X122400836Y-90687454D01*
X122221118Y-90629059D01*
X122034486Y-90599500D01*
X122034481Y-90599500D01*
X121845519Y-90599500D01*
X121845514Y-90599500D01*
X121658881Y-90629059D01*
X121479163Y-90687454D01*
X121310800Y-90773240D01*
X121234218Y-90828881D01*
X121157927Y-90884310D01*
X121157925Y-90884312D01*
X121157924Y-90884312D01*
X121024312Y-91017924D01*
X121024312Y-91017925D01*
X121024310Y-91017927D01*
X120976610Y-91083579D01*
X120913240Y-91170800D01*
X120827454Y-91339163D01*
X120787931Y-91460803D01*
X120748493Y-91518478D01*
X120684134Y-91545676D01*
X120615288Y-91533761D01*
X120563812Y-91486516D01*
X120552069Y-91460803D01*
X120512545Y-91339163D01*
X120443923Y-91204486D01*
X120426760Y-91170801D01*
X120315690Y-91017927D01*
X120182073Y-90884310D01*
X120029199Y-90773240D01*
X120023863Y-90770521D01*
X119860836Y-90687454D01*
X119681118Y-90629059D01*
X119494486Y-90599500D01*
X119494481Y-90599500D01*
X119305519Y-90599500D01*
X119305514Y-90599500D01*
X119118881Y-90629059D01*
X118939163Y-90687454D01*
X118770800Y-90773240D01*
X118694218Y-90828881D01*
X118617927Y-90884310D01*
X118617925Y-90884312D01*
X118617924Y-90884312D01*
X118484312Y-91017924D01*
X118484312Y-91017925D01*
X118484310Y-91017927D01*
X118436610Y-91083579D01*
X118373240Y-91170800D01*
X118287454Y-91339163D01*
X118247931Y-91460803D01*
X118208493Y-91518478D01*
X118144134Y-91545676D01*
X118075288Y-91533761D01*
X118023812Y-91486516D01*
X118012069Y-91460803D01*
X117972545Y-91339163D01*
X117903923Y-91204486D01*
X117886760Y-91170801D01*
X117775690Y-91017927D01*
X117775687Y-91017924D01*
X117774182Y-91015852D01*
X117750702Y-90950045D01*
X117750500Y-90942966D01*
X117750500Y-88720808D01*
X117770185Y-88653769D01*
X117786819Y-88633127D01*
X118733127Y-87686819D01*
X118794450Y-87653334D01*
X118820808Y-87650500D01*
X167564071Y-87650500D01*
X167648615Y-87633682D01*
X167689744Y-87625501D01*
X167808127Y-87576465D01*
X167857852Y-87543240D01*
X167857852Y-87543239D01*
X167857854Y-87543239D01*
X167872056Y-87533749D01*
X167914669Y-87505277D01*
X171505276Y-83914670D01*
X171576465Y-83808127D01*
X171625501Y-83689744D01*
X171627489Y-83679746D01*
X171627490Y-83679746D01*
X171627490Y-83679743D01*
X171650500Y-83564069D01*
X171650500Y-78820808D01*
X171659144Y-78791367D01*
X171665668Y-78761381D01*
X171669422Y-78756365D01*
X171670185Y-78753769D01*
X171686819Y-78733127D01*
X171733127Y-78686819D01*
X171794450Y-78653334D01*
X171820808Y-78650500D01*
X174679192Y-78650500D01*
X174746231Y-78670185D01*
X174766873Y-78686819D01*
X176813181Y-80733127D01*
X176846666Y-80794450D01*
X176849500Y-80820808D01*
X176849500Y-82564069D01*
X176849500Y-82564071D01*
X176849499Y-82564071D01*
X176872916Y-82681791D01*
X176874450Y-82689500D01*
X176874499Y-82689744D01*
X176923535Y-82808127D01*
X176967883Y-82874499D01*
X176994726Y-82914673D01*
X178075324Y-83995271D01*
X178075331Y-83995277D01*
X178181871Y-84066464D01*
X178181870Y-84066464D01*
X178216544Y-84080826D01*
X178300256Y-84115501D01*
X178300260Y-84115501D01*
X178300261Y-84115502D01*
X178425928Y-84140500D01*
X178425931Y-84140500D01*
X180045535Y-84140500D01*
X180112574Y-84160185D01*
X180145852Y-84191613D01*
X180204310Y-84272073D01*
X180337927Y-84405690D01*
X180490801Y-84516760D01*
X180570347Y-84557290D01*
X180659163Y-84602545D01*
X180659165Y-84602545D01*
X180659168Y-84602547D01*
X180748734Y-84631649D01*
X180780803Y-84642069D01*
X180838478Y-84681507D01*
X180865676Y-84745866D01*
X180853761Y-84814712D01*
X180806516Y-84866188D01*
X180780803Y-84877931D01*
X180659163Y-84917454D01*
X180490800Y-85003240D01*
X180403579Y-85066610D01*
X180337927Y-85114310D01*
X180337925Y-85114312D01*
X180337924Y-85114312D01*
X180204312Y-85247924D01*
X180204312Y-85247925D01*
X180204310Y-85247927D01*
X180156610Y-85313579D01*
X180093240Y-85400800D01*
X180007454Y-85569163D01*
X179949059Y-85748881D01*
X179919500Y-85935513D01*
X179919500Y-86124486D01*
X179949059Y-86311118D01*
X180007454Y-86490836D01*
X180091355Y-86655500D01*
X180093240Y-86659199D01*
X180204310Y-86812073D01*
X180337927Y-86945690D01*
X180490801Y-87056760D01*
X180570347Y-87097290D01*
X180659163Y-87142545D01*
X180659165Y-87142545D01*
X180659168Y-87142547D01*
X180748734Y-87171649D01*
X180780803Y-87182069D01*
X180838478Y-87221507D01*
X180865676Y-87285866D01*
X180853761Y-87354712D01*
X180806516Y-87406188D01*
X180780803Y-87417931D01*
X180659163Y-87457454D01*
X180490800Y-87543240D01*
X180403579Y-87606610D01*
X180337927Y-87654310D01*
X180337925Y-87654312D01*
X180337924Y-87654312D01*
X180204312Y-87787924D01*
X180204312Y-87787925D01*
X180204310Y-87787927D01*
X180156610Y-87853579D01*
X180093240Y-87940800D01*
X180007454Y-88109163D01*
X179949059Y-88288881D01*
X179919500Y-88475513D01*
X179919500Y-88664486D01*
X179949059Y-88851118D01*
X180007454Y-89030836D01*
X180081005Y-89175187D01*
X180093240Y-89199199D01*
X180204310Y-89352073D01*
X180337927Y-89485690D01*
X180490801Y-89596760D01*
X180570347Y-89637290D01*
X180659163Y-89682545D01*
X180659165Y-89682545D01*
X180659168Y-89682547D01*
X180748734Y-89711649D01*
X180780803Y-89722069D01*
X180838478Y-89761507D01*
X180865676Y-89825866D01*
X180853761Y-89894712D01*
X180806516Y-89946188D01*
X180780803Y-89957931D01*
X180659163Y-89997454D01*
X180490800Y-90083240D01*
X180403579Y-90146610D01*
X180337927Y-90194310D01*
X180337925Y-90194312D01*
X180337924Y-90194312D01*
X180204312Y-90327924D01*
X180204312Y-90327925D01*
X180204310Y-90327927D01*
X180156610Y-90393579D01*
X180093240Y-90480800D01*
X180007454Y-90649163D01*
X179949059Y-90828881D01*
X179919500Y-91015513D01*
X179919500Y-91204486D01*
X179949059Y-91391118D01*
X180007454Y-91570836D01*
X180079983Y-91713181D01*
X180093240Y-91739199D01*
X180204310Y-91892073D01*
X180337927Y-92025690D01*
X180490801Y-92136760D01*
X180525950Y-92154669D01*
X180659163Y-92222545D01*
X180659165Y-92222545D01*
X180659168Y-92222547D01*
X180721408Y-92242770D01*
X180780803Y-92262069D01*
X180838478Y-92301507D01*
X180865676Y-92365866D01*
X180853761Y-92434712D01*
X180806516Y-92486188D01*
X180780803Y-92497931D01*
X180659163Y-92537454D01*
X180490800Y-92623240D01*
X180452060Y-92651387D01*
X180337927Y-92734310D01*
X180337925Y-92734312D01*
X180337924Y-92734312D01*
X180204312Y-92867924D01*
X180204312Y-92867925D01*
X180204310Y-92867927D01*
X180156610Y-92933579D01*
X180093240Y-93020800D01*
X180007454Y-93189163D01*
X179949059Y-93368881D01*
X179919500Y-93555513D01*
X179919500Y-93744486D01*
X179949059Y-93931118D01*
X180007454Y-94110836D01*
X180077988Y-94249266D01*
X180093240Y-94279199D01*
X180204310Y-94432073D01*
X180337927Y-94565690D01*
X180490801Y-94676760D01*
X180570347Y-94717290D01*
X180659163Y-94762545D01*
X180659165Y-94762545D01*
X180659168Y-94762547D01*
X180710507Y-94779228D01*
X180780803Y-94802069D01*
X180838478Y-94841507D01*
X180865676Y-94905866D01*
X180853761Y-94974712D01*
X180806516Y-95026188D01*
X180780803Y-95037931D01*
X180659163Y-95077454D01*
X180490800Y-95163240D01*
X180420015Y-95214669D01*
X180337927Y-95274310D01*
X180337925Y-95274312D01*
X180337924Y-95274312D01*
X180204312Y-95407924D01*
X180204312Y-95407925D01*
X180204310Y-95407927D01*
X180159943Y-95468993D01*
X180093240Y-95560800D01*
X180007454Y-95729163D01*
X179949059Y-95908881D01*
X179919500Y-96095513D01*
X179919500Y-96284486D01*
X179949059Y-96471118D01*
X180007454Y-96650836D01*
X180093240Y-96819199D01*
X180204310Y-96972073D01*
X180337927Y-97105690D01*
X180490801Y-97216760D01*
X180570347Y-97257290D01*
X180659163Y-97302545D01*
X180659165Y-97302545D01*
X180659168Y-97302547D01*
X180745364Y-97330554D01*
X180838881Y-97360940D01*
X181025514Y-97390500D01*
X181025519Y-97390500D01*
X181214486Y-97390500D01*
X181401118Y-97360940D01*
X181580832Y-97302547D01*
X181749199Y-97216760D01*
X181902073Y-97105690D01*
X182035690Y-96972073D01*
X182146760Y-96819199D01*
X182232547Y-96650832D01*
X182290940Y-96471118D01*
X182320500Y-96284486D01*
X182320500Y-96095513D01*
X182290940Y-95908881D01*
X182250924Y-95785726D01*
X182232547Y-95729168D01*
X182232545Y-95729165D01*
X182232545Y-95729163D01*
X182174850Y-95615931D01*
X182146760Y-95560801D01*
X182035690Y-95407927D01*
X181902073Y-95274310D01*
X181749199Y-95163240D01*
X181580836Y-95077454D01*
X181506472Y-95053291D01*
X181459195Y-95037930D01*
X181401521Y-94998493D01*
X181374323Y-94934134D01*
X181386238Y-94865288D01*
X181433482Y-94813812D01*
X181459194Y-94802069D01*
X181580832Y-94762547D01*
X181749199Y-94676760D01*
X181902073Y-94565690D01*
X182035690Y-94432073D01*
X182146760Y-94279199D01*
X182232547Y-94110832D01*
X182290940Y-93931118D01*
X182302174Y-93860191D01*
X182320500Y-93744486D01*
X182320500Y-93555513D01*
X182290940Y-93368881D01*
X182250924Y-93245726D01*
X182232547Y-93189168D01*
X182232545Y-93189165D01*
X182232545Y-93189163D01*
X182171546Y-93069446D01*
X182146760Y-93020801D01*
X182035690Y-92867927D01*
X181902073Y-92734310D01*
X181749199Y-92623240D01*
X181732980Y-92614976D01*
X181580836Y-92537454D01*
X181506472Y-92513291D01*
X181459195Y-92497930D01*
X181401521Y-92458493D01*
X181374323Y-92394134D01*
X181386238Y-92325288D01*
X181433482Y-92273812D01*
X181459194Y-92262069D01*
X181580832Y-92222547D01*
X181749199Y-92136760D01*
X181902073Y-92025690D01*
X182035690Y-91892073D01*
X182146760Y-91739199D01*
X182232547Y-91570832D01*
X182290940Y-91391118D01*
X182299169Y-91339163D01*
X182320500Y-91204486D01*
X182320500Y-91015513D01*
X182290940Y-90828881D01*
X182257360Y-90725534D01*
X182232547Y-90649168D01*
X182232545Y-90649165D01*
X182232545Y-90649163D01*
X182148644Y-90484499D01*
X182146760Y-90480801D01*
X182035690Y-90327927D01*
X181902073Y-90194310D01*
X181749199Y-90083240D01*
X181580836Y-89997454D01*
X181506472Y-89973291D01*
X181459195Y-89957930D01*
X181401521Y-89918493D01*
X181374323Y-89854134D01*
X181386238Y-89785288D01*
X181433482Y-89733812D01*
X181459194Y-89722069D01*
X181580832Y-89682547D01*
X181749199Y-89596760D01*
X181902073Y-89485690D01*
X182035690Y-89352073D01*
X182146760Y-89199199D01*
X182232547Y-89030832D01*
X182290940Y-88851118D01*
X182319714Y-88669446D01*
X182320500Y-88664486D01*
X182320500Y-88475513D01*
X182290940Y-88288881D01*
X182232545Y-88109163D01*
X182187290Y-88020347D01*
X182146760Y-87940801D01*
X182035690Y-87787927D01*
X181902073Y-87654310D01*
X181749199Y-87543240D01*
X181749197Y-87543239D01*
X181580836Y-87457454D01*
X181506472Y-87433291D01*
X181459195Y-87417930D01*
X181401521Y-87378493D01*
X181374323Y-87314134D01*
X181386238Y-87245288D01*
X181433482Y-87193812D01*
X181459194Y-87182069D01*
X181580832Y-87142547D01*
X181749199Y-87056760D01*
X181902073Y-86945690D01*
X182035690Y-86812073D01*
X182146760Y-86659199D01*
X182232547Y-86490832D01*
X182290940Y-86311118D01*
X182320500Y-86124486D01*
X182320500Y-85935513D01*
X182290940Y-85748881D01*
X182232545Y-85569163D01*
X182146759Y-85400800D01*
X182035690Y-85247927D01*
X181902073Y-85114310D01*
X181749199Y-85003240D01*
X181691946Y-84974068D01*
X181580836Y-84917454D01*
X181506472Y-84893291D01*
X181459195Y-84877930D01*
X181401521Y-84838493D01*
X181374323Y-84774134D01*
X181386238Y-84705288D01*
X181433482Y-84653812D01*
X181459194Y-84642069D01*
X181580832Y-84602547D01*
X181749199Y-84516760D01*
X181902073Y-84405690D01*
X182035690Y-84272073D01*
X182146760Y-84119199D01*
X182232547Y-83950832D01*
X182290940Y-83771118D01*
X182298476Y-83723538D01*
X182320500Y-83584486D01*
X182320500Y-83395513D01*
X182290940Y-83208881D01*
X182232545Y-83029163D01*
X182146759Y-82860800D01*
X182138549Y-82849500D01*
X182035690Y-82707927D01*
X181902073Y-82574310D01*
X181749199Y-82463240D01*
X181690099Y-82433127D01*
X181580836Y-82377454D01*
X181506472Y-82353291D01*
X181459195Y-82337930D01*
X181401521Y-82298493D01*
X181374323Y-82234134D01*
X181386238Y-82165288D01*
X181433482Y-82113812D01*
X181459194Y-82102069D01*
X181580832Y-82062547D01*
X181749199Y-81976760D01*
X181902073Y-81865690D01*
X182035690Y-81732073D01*
X182146760Y-81579199D01*
X182232547Y-81410832D01*
X182290940Y-81231118D01*
X182320500Y-81044486D01*
X182320500Y-80855513D01*
X182290940Y-80668881D01*
X182263846Y-80585497D01*
X182232547Y-80489168D01*
X182232545Y-80489165D01*
X182232545Y-80489163D01*
X182177838Y-80381795D01*
X182146760Y-80320801D01*
X182035690Y-80167927D01*
X181902073Y-80034310D01*
X181749199Y-79923240D01*
X181740864Y-79918993D01*
X181580836Y-79837454D01*
X181401118Y-79779059D01*
X181214486Y-79749500D01*
X181214481Y-79749500D01*
X181025519Y-79749500D01*
X181025514Y-79749500D01*
X180838881Y-79779059D01*
X180659163Y-79837454D01*
X180490800Y-79923240D01*
X180403579Y-79986610D01*
X180337927Y-80034310D01*
X180337925Y-80034312D01*
X180337924Y-80034312D01*
X180204312Y-80167924D01*
X180204312Y-80167925D01*
X180204310Y-80167927D01*
X180194223Y-80181811D01*
X180093240Y-80320800D01*
X180007454Y-80489163D01*
X179949059Y-80668881D01*
X179919500Y-80855513D01*
X179919500Y-81044486D01*
X179949059Y-81231118D01*
X180007454Y-81410836D01*
X180066371Y-81526466D01*
X180093240Y-81579199D01*
X180204310Y-81732073D01*
X180337927Y-81865690D01*
X180490801Y-81976760D01*
X180556539Y-82010255D01*
X180659163Y-82062545D01*
X180659165Y-82062545D01*
X180659168Y-82062547D01*
X180748734Y-82091649D01*
X180780803Y-82102069D01*
X180838478Y-82141507D01*
X180865676Y-82205866D01*
X180853761Y-82274712D01*
X180806516Y-82326188D01*
X180780803Y-82337931D01*
X180659163Y-82377454D01*
X180490800Y-82463240D01*
X180411566Y-82520808D01*
X180337927Y-82574310D01*
X180337925Y-82574312D01*
X180337924Y-82574312D01*
X180204311Y-82707925D01*
X180145853Y-82788386D01*
X180090522Y-82831051D01*
X180045535Y-82839500D01*
X178810808Y-82839500D01*
X178743769Y-82819815D01*
X178723127Y-82803181D01*
X178186819Y-82266873D01*
X178153334Y-82205550D01*
X178150500Y-82179192D01*
X178150500Y-80435928D01*
X178125502Y-80310261D01*
X178125501Y-80310260D01*
X178125501Y-80310256D01*
X178076465Y-80191873D01*
X178069742Y-80181811D01*
X178005277Y-80085331D01*
X178005275Y-80085328D01*
X175414673Y-77494726D01*
X175414669Y-77494723D01*
X175308127Y-77423535D01*
X175189744Y-77374499D01*
X175189738Y-77374497D01*
X175064071Y-77349500D01*
X175064069Y-77349500D01*
X171435931Y-77349500D01*
X171435929Y-77349500D01*
X171310261Y-77374497D01*
X171310255Y-77374499D01*
X171213707Y-77414491D01*
X171213706Y-77414491D01*
X171191876Y-77423532D01*
X171085326Y-77494726D01*
X170494726Y-78085326D01*
X170433806Y-78176502D01*
X170423533Y-78191876D01*
X170374499Y-78310255D01*
X170374497Y-78310261D01*
X170349500Y-78435928D01*
X170349500Y-83179192D01*
X170329815Y-83246231D01*
X170313181Y-83266873D01*
X167266873Y-86313181D01*
X167205550Y-86346666D01*
X167179192Y-86349500D01*
X118435929Y-86349500D01*
X118310261Y-86374497D01*
X118310255Y-86374499D01*
X118191874Y-86423534D01*
X118085326Y-86494726D01*
X118085325Y-86494727D01*
X116594725Y-87985328D01*
X116594724Y-87985329D01*
X116594723Y-87985331D01*
X116551847Y-88049501D01*
X116537691Y-88070687D01*
X116523535Y-88091872D01*
X116523533Y-88091875D01*
X116474499Y-88210255D01*
X116474497Y-88210261D01*
X116449500Y-88335928D01*
X116449500Y-90585819D01*
X116429815Y-90652858D01*
X116381795Y-90696304D01*
X116230800Y-90773240D01*
X116154218Y-90828881D01*
X116077927Y-90884310D01*
X116077925Y-90884312D01*
X116077924Y-90884312D01*
X115944312Y-91017924D01*
X115944312Y-91017925D01*
X115944310Y-91017927D01*
X115896610Y-91083579D01*
X115833240Y-91170800D01*
X115747454Y-91339163D01*
X115707931Y-91460803D01*
X115668493Y-91518478D01*
X115604134Y-91545676D01*
X115535288Y-91533761D01*
X115483812Y-91486516D01*
X115472069Y-91460803D01*
X115432545Y-91339163D01*
X115363923Y-91204486D01*
X115346760Y-91170801D01*
X115235690Y-91017927D01*
X115102073Y-90884310D01*
X115102072Y-90884309D01*
X115021613Y-90825851D01*
X114978948Y-90770521D01*
X114970500Y-90725534D01*
X114970500Y-86550807D01*
X114990185Y-86483768D01*
X115006819Y-86463126D01*
X116483126Y-84986819D01*
X116544449Y-84953334D01*
X116570807Y-84950500D01*
X155314071Y-84950500D01*
X155398615Y-84933682D01*
X155439744Y-84925501D01*
X155558127Y-84876465D01*
X155664669Y-84805277D01*
X156755277Y-83714669D01*
X156826466Y-83608126D01*
X156875501Y-83489743D01*
X156888195Y-83425931D01*
X156900500Y-83364069D01*
X156900500Y-80134713D01*
X156909939Y-80087260D01*
X156910739Y-80085328D01*
X156923580Y-80054328D01*
X156941414Y-79964673D01*
X156950500Y-79918995D01*
X156950500Y-79781004D01*
X156923581Y-79645677D01*
X156923580Y-79645676D01*
X156923580Y-79645672D01*
X156912782Y-79619603D01*
X156870778Y-79518195D01*
X156870771Y-79518182D01*
X156794114Y-79403458D01*
X156794111Y-79403454D01*
X156696545Y-79305888D01*
X156696541Y-79305885D01*
X156581817Y-79229228D01*
X156581804Y-79229221D01*
X156454332Y-79176421D01*
X156454322Y-79176418D01*
X156318995Y-79149500D01*
X156318993Y-79149500D01*
X156181007Y-79149500D01*
X156181005Y-79149500D01*
X156045677Y-79176418D01*
X156045667Y-79176421D01*
X155918195Y-79229221D01*
X155918182Y-79229228D01*
X155803458Y-79305885D01*
X155803454Y-79305888D01*
X155705888Y-79403454D01*
X155705885Y-79403458D01*
X155629228Y-79518182D01*
X155629221Y-79518195D01*
X155576421Y-79645667D01*
X155576418Y-79645677D01*
X155549500Y-79781004D01*
X155549500Y-79781007D01*
X155549500Y-79918993D01*
X155549500Y-79918995D01*
X155549499Y-79918995D01*
X155576418Y-80054322D01*
X155576420Y-80054328D01*
X155590061Y-80087260D01*
X155599500Y-80134713D01*
X155599500Y-82979192D01*
X155579815Y-83046231D01*
X155563181Y-83066873D01*
X155016873Y-83613181D01*
X154955550Y-83646666D01*
X154929192Y-83649500D01*
X116185929Y-83649500D01*
X116060261Y-83674497D01*
X116060255Y-83674499D01*
X115941875Y-83723533D01*
X115941866Y-83723538D01*
X115835331Y-83794723D01*
X115835327Y-83794726D01*
X113814727Y-85815325D01*
X113814726Y-85815326D01*
X113743534Y-85921874D01*
X113694499Y-86040255D01*
X113694497Y-86040261D01*
X113669500Y-86165928D01*
X113669500Y-90725534D01*
X113649815Y-90792573D01*
X113618387Y-90825851D01*
X113537927Y-90884309D01*
X113404312Y-91017924D01*
X113404312Y-91017925D01*
X113404310Y-91017927D01*
X113356610Y-91083579D01*
X113293240Y-91170800D01*
X113207454Y-91339163D01*
X113167931Y-91460803D01*
X113128493Y-91518478D01*
X113064134Y-91545676D01*
X112995288Y-91533761D01*
X112943812Y-91486516D01*
X112932069Y-91460803D01*
X112892545Y-91339163D01*
X112823923Y-91204486D01*
X112806760Y-91170801D01*
X112695690Y-91017927D01*
X112562073Y-90884310D01*
X112409199Y-90773240D01*
X112403863Y-90770521D01*
X112240836Y-90687454D01*
X112061118Y-90629059D01*
X111874486Y-90599500D01*
X111874481Y-90599500D01*
X111685519Y-90599500D01*
X111685514Y-90599500D01*
X111498881Y-90629059D01*
X111319163Y-90687454D01*
X111150800Y-90773240D01*
X111074218Y-90828881D01*
X110997927Y-90884310D01*
X110997925Y-90884312D01*
X110997924Y-90884312D01*
X110864312Y-91017924D01*
X110864312Y-91017925D01*
X110864310Y-91017927D01*
X110816610Y-91083579D01*
X110753240Y-91170800D01*
X110667454Y-91339163D01*
X110627931Y-91460803D01*
X110588493Y-91518478D01*
X110524134Y-91545676D01*
X110455288Y-91533761D01*
X110403812Y-91486516D01*
X110392069Y-91460803D01*
X110352545Y-91339163D01*
X110283923Y-91204486D01*
X110266760Y-91170801D01*
X110155690Y-91017927D01*
X110022073Y-90884310D01*
X109869199Y-90773240D01*
X109863863Y-90770521D01*
X109700836Y-90687454D01*
X109521118Y-90629059D01*
X109334486Y-90599500D01*
X109334481Y-90599500D01*
X109145519Y-90599500D01*
X109145514Y-90599500D01*
X108958881Y-90629059D01*
X108779163Y-90687454D01*
X108610800Y-90773240D01*
X108534218Y-90828881D01*
X108457927Y-90884310D01*
X108457925Y-90884312D01*
X108457924Y-90884312D01*
X108324312Y-91017924D01*
X108324312Y-91017925D01*
X108324310Y-91017927D01*
X108276610Y-91083579D01*
X108213240Y-91170800D01*
X108127454Y-91339163D01*
X108069059Y-91518881D01*
X108039500Y-91705513D01*
X108039500Y-91894486D01*
X108069059Y-92081118D01*
X108127454Y-92260836D01*
X108205600Y-92414205D01*
X108213240Y-92429199D01*
X108324310Y-92582073D01*
X108457927Y-92715690D01*
X108538383Y-92774145D01*
X108610802Y-92826761D01*
X108781794Y-92913885D01*
X108832591Y-92961859D01*
X108849500Y-93024370D01*
X108849500Y-94864070D01*
X108863665Y-94935277D01*
X108863665Y-94935279D01*
X108874497Y-94989736D01*
X108874499Y-94989744D01*
X108906994Y-95068195D01*
X108923535Y-95108127D01*
X108982030Y-95195672D01*
X108994726Y-95214673D01*
X117185326Y-103405273D01*
X117185329Y-103405275D01*
X117185331Y-103405277D01*
X117291873Y-103476465D01*
X117410256Y-103525501D01*
X117410260Y-103525501D01*
X117410261Y-103525502D01*
X117535928Y-103550500D01*
X117535931Y-103550500D01*
X141279192Y-103550500D01*
X141346231Y-103570185D01*
X141366873Y-103586819D01*
X143813181Y-106033127D01*
X143846666Y-106094450D01*
X143849500Y-106120808D01*
X143849500Y-107275560D01*
X143829815Y-107342599D01*
X143781795Y-107386045D01*
X143694594Y-107430476D01*
X143611134Y-107491114D01*
X143535354Y-107546172D01*
X143535352Y-107546174D01*
X143535351Y-107546174D01*
X143396174Y-107685351D01*
X143396174Y-107685352D01*
X143396172Y-107685354D01*
X143382368Y-107704354D01*
X143280476Y-107844594D01*
X143190485Y-108021213D01*
X143142511Y-108072009D01*
X143074690Y-108088804D01*
X143008555Y-108066267D01*
X142969515Y-108021213D01*
X142942397Y-107967992D01*
X142879524Y-107844595D01*
X142763828Y-107685354D01*
X142624646Y-107546172D01*
X142465405Y-107430476D01*
X142452995Y-107424153D01*
X142290029Y-107341117D01*
X142102826Y-107280290D01*
X141908422Y-107249500D01*
X141908417Y-107249500D01*
X141711583Y-107249500D01*
X141711578Y-107249500D01*
X141517173Y-107280290D01*
X141329970Y-107341117D01*
X141154594Y-107430476D01*
X141071134Y-107491114D01*
X140995354Y-107546172D01*
X140995352Y-107546174D01*
X140995351Y-107546174D01*
X140856174Y-107685351D01*
X140856174Y-107685352D01*
X140856172Y-107685354D01*
X140842368Y-107704354D01*
X140740476Y-107844594D01*
X140650485Y-108021213D01*
X140602511Y-108072009D01*
X140534690Y-108088804D01*
X140468555Y-108066267D01*
X140429515Y-108021213D01*
X140402397Y-107967992D01*
X140339524Y-107844595D01*
X140223828Y-107685354D01*
X140084646Y-107546172D01*
X139925405Y-107430476D01*
X139912995Y-107424153D01*
X139750029Y-107341117D01*
X139562826Y-107280290D01*
X139368422Y-107249500D01*
X139368417Y-107249500D01*
X139171583Y-107249500D01*
X139171578Y-107249500D01*
X138977173Y-107280290D01*
X138789970Y-107341117D01*
X138614594Y-107430476D01*
X138531134Y-107491114D01*
X138455354Y-107546172D01*
X138455352Y-107546174D01*
X138455351Y-107546174D01*
X138316174Y-107685351D01*
X138316174Y-107685352D01*
X138316172Y-107685354D01*
X138302368Y-107704354D01*
X138200476Y-107844594D01*
X138110485Y-108021213D01*
X138062511Y-108072009D01*
X137994690Y-108088804D01*
X137928555Y-108066267D01*
X137889515Y-108021213D01*
X137862397Y-107967992D01*
X137799524Y-107844595D01*
X137683828Y-107685354D01*
X137544646Y-107546172D01*
X137385405Y-107430476D01*
X137372995Y-107424153D01*
X137210029Y-107341117D01*
X137022826Y-107280290D01*
X136828422Y-107249500D01*
X136828417Y-107249500D01*
X136631583Y-107249500D01*
X136631578Y-107249500D01*
X136437173Y-107280290D01*
X136249970Y-107341117D01*
X136074594Y-107430476D01*
X135991134Y-107491114D01*
X135915354Y-107546172D01*
X135915352Y-107546174D01*
X135915351Y-107546174D01*
X135776174Y-107685351D01*
X135776174Y-107685352D01*
X135776172Y-107685354D01*
X135762368Y-107704354D01*
X135660476Y-107844594D01*
X135570485Y-108021213D01*
X135522511Y-108072009D01*
X135454690Y-108088804D01*
X135388555Y-108066267D01*
X135349515Y-108021213D01*
X135322397Y-107967992D01*
X135259524Y-107844595D01*
X135143828Y-107685354D01*
X135004646Y-107546172D01*
X134845405Y-107430476D01*
X134832995Y-107424153D01*
X134670029Y-107341117D01*
X134482826Y-107280290D01*
X134288422Y-107249500D01*
X134288417Y-107249500D01*
X134091583Y-107249500D01*
X134091578Y-107249500D01*
X133897173Y-107280290D01*
X133709970Y-107341117D01*
X133534594Y-107430476D01*
X133451134Y-107491114D01*
X133375354Y-107546172D01*
X133375352Y-107546174D01*
X133375351Y-107546174D01*
X133236174Y-107685351D01*
X133236174Y-107685352D01*
X133236172Y-107685354D01*
X133222368Y-107704354D01*
X133120476Y-107844594D01*
X133030485Y-108021213D01*
X132982511Y-108072009D01*
X132914690Y-108088804D01*
X132848555Y-108066267D01*
X132809515Y-108021213D01*
X132782397Y-107967992D01*
X132719524Y-107844595D01*
X132603828Y-107685354D01*
X132464646Y-107546172D01*
X132305405Y-107430476D01*
X132292995Y-107424153D01*
X132130029Y-107341117D01*
X131942826Y-107280290D01*
X131748422Y-107249500D01*
X131748417Y-107249500D01*
X131551583Y-107249500D01*
X131551578Y-107249500D01*
X131357173Y-107280290D01*
X131169970Y-107341117D01*
X130994594Y-107430476D01*
X130911134Y-107491114D01*
X130835354Y-107546172D01*
X130835352Y-107546174D01*
X130835351Y-107546174D01*
X130696174Y-107685351D01*
X130696174Y-107685352D01*
X130696172Y-107685354D01*
X130682368Y-107704354D01*
X130580476Y-107844594D01*
X130490485Y-108021213D01*
X130442511Y-108072009D01*
X130374690Y-108088804D01*
X130308555Y-108066267D01*
X130269515Y-108021213D01*
X130242397Y-107967992D01*
X130179524Y-107844595D01*
X130063828Y-107685354D01*
X129924646Y-107546172D01*
X129765405Y-107430476D01*
X129752995Y-107424153D01*
X129590029Y-107341117D01*
X129402826Y-107280290D01*
X129208422Y-107249500D01*
X129208417Y-107249500D01*
X129011583Y-107249500D01*
X129011578Y-107249500D01*
X128817173Y-107280290D01*
X128629970Y-107341117D01*
X128454594Y-107430476D01*
X128371134Y-107491114D01*
X128295354Y-107546172D01*
X128295352Y-107546174D01*
X128295351Y-107546174D01*
X128156174Y-107685351D01*
X128156174Y-107685352D01*
X128156172Y-107685354D01*
X128142368Y-107704354D01*
X128040476Y-107844594D01*
X127950485Y-108021213D01*
X127902511Y-108072009D01*
X127834690Y-108088804D01*
X127768555Y-108066267D01*
X127729515Y-108021213D01*
X127702397Y-107967992D01*
X127639524Y-107844595D01*
X127523828Y-107685354D01*
X127384646Y-107546172D01*
X127225405Y-107430476D01*
X127212995Y-107424153D01*
X127050029Y-107341117D01*
X126862826Y-107280290D01*
X126668422Y-107249500D01*
X126668417Y-107249500D01*
X126471583Y-107249500D01*
X126471578Y-107249500D01*
X126277173Y-107280290D01*
X126089970Y-107341117D01*
X125914594Y-107430476D01*
X125831134Y-107491114D01*
X125755354Y-107546172D01*
X125755352Y-107546174D01*
X125755351Y-107546174D01*
X125616174Y-107685351D01*
X125616174Y-107685352D01*
X125616172Y-107685354D01*
X125602368Y-107704354D01*
X125500476Y-107844594D01*
X125410485Y-108021213D01*
X125362511Y-108072009D01*
X125294690Y-108088804D01*
X125228555Y-108066267D01*
X125189515Y-108021213D01*
X125162397Y-107967992D01*
X125099524Y-107844595D01*
X124983828Y-107685354D01*
X124844646Y-107546172D01*
X124685405Y-107430476D01*
X124672995Y-107424153D01*
X124510029Y-107341117D01*
X124322826Y-107280290D01*
X124128422Y-107249500D01*
X124128417Y-107249500D01*
X123931583Y-107249500D01*
X123931578Y-107249500D01*
X123737173Y-107280290D01*
X123549970Y-107341117D01*
X123374594Y-107430476D01*
X123291134Y-107491114D01*
X123215354Y-107546172D01*
X123215352Y-107546174D01*
X123215351Y-107546174D01*
X123076174Y-107685351D01*
X123076174Y-107685352D01*
X123076172Y-107685354D01*
X123062368Y-107704354D01*
X122960476Y-107844594D01*
X122870485Y-108021213D01*
X122822511Y-108072009D01*
X122754690Y-108088804D01*
X122688555Y-108066267D01*
X122649515Y-108021213D01*
X122622397Y-107967992D01*
X122559524Y-107844595D01*
X122443828Y-107685354D01*
X122304646Y-107546172D01*
X122145405Y-107430476D01*
X122132995Y-107424153D01*
X121970029Y-107341117D01*
X121782826Y-107280290D01*
X121588422Y-107249500D01*
X121588417Y-107249500D01*
X121391583Y-107249500D01*
X121391578Y-107249500D01*
X121197173Y-107280290D01*
X121009970Y-107341117D01*
X120834594Y-107430476D01*
X120751134Y-107491114D01*
X120675354Y-107546172D01*
X120675352Y-107546174D01*
X120675351Y-107546174D01*
X120536174Y-107685351D01*
X120536174Y-107685352D01*
X120536172Y-107685354D01*
X120522368Y-107704354D01*
X120420476Y-107844594D01*
X120330485Y-108021213D01*
X120282511Y-108072009D01*
X120214690Y-108088804D01*
X120148555Y-108066267D01*
X120109515Y-108021213D01*
X120082397Y-107967992D01*
X120019524Y-107844595D01*
X119903828Y-107685354D01*
X119764646Y-107546172D01*
X119605405Y-107430476D01*
X119592995Y-107424153D01*
X119430029Y-107341117D01*
X119242826Y-107280290D01*
X119048422Y-107249500D01*
X119048417Y-107249500D01*
X118851583Y-107249500D01*
X118851578Y-107249500D01*
X118657173Y-107280290D01*
X118469970Y-107341117D01*
X118294594Y-107430476D01*
X118211134Y-107491114D01*
X118135354Y-107546172D01*
X118135352Y-107546174D01*
X118135351Y-107546174D01*
X117996174Y-107685351D01*
X117996174Y-107685352D01*
X117996172Y-107685354D01*
X117982368Y-107704354D01*
X117880476Y-107844594D01*
X117790485Y-108021213D01*
X117742511Y-108072009D01*
X117674690Y-108088804D01*
X117608555Y-108066267D01*
X117569515Y-108021213D01*
X117542397Y-107967992D01*
X117479524Y-107844595D01*
X117363828Y-107685354D01*
X117224646Y-107546172D01*
X117065405Y-107430476D01*
X117052995Y-107424153D01*
X116890029Y-107341117D01*
X116702826Y-107280290D01*
X116508422Y-107249500D01*
X116508417Y-107249500D01*
X116311583Y-107249500D01*
X116311578Y-107249500D01*
X116117173Y-107280290D01*
X115929970Y-107341117D01*
X115754594Y-107430476D01*
X115671134Y-107491114D01*
X115595354Y-107546172D01*
X115595352Y-107546174D01*
X115595351Y-107546174D01*
X115456174Y-107685351D01*
X115456174Y-107685352D01*
X115456172Y-107685354D01*
X115442368Y-107704354D01*
X115340476Y-107844594D01*
X115250485Y-108021213D01*
X115202511Y-108072009D01*
X115134690Y-108088804D01*
X115068555Y-108066267D01*
X115029515Y-108021213D01*
X115002397Y-107967992D01*
X114939524Y-107844595D01*
X114823828Y-107685354D01*
X114684646Y-107546172D01*
X114525405Y-107430476D01*
X114512995Y-107424153D01*
X114350029Y-107341117D01*
X114162826Y-107280290D01*
X113968422Y-107249500D01*
X113968417Y-107249500D01*
X113771583Y-107249500D01*
X113771578Y-107249500D01*
X113577173Y-107280290D01*
X113389970Y-107341117D01*
X113214594Y-107430476D01*
X113131134Y-107491114D01*
X113055354Y-107546172D01*
X113055352Y-107546174D01*
X113055351Y-107546174D01*
X112916174Y-107685351D01*
X112916174Y-107685352D01*
X112916172Y-107685354D01*
X112902368Y-107704354D01*
X112800476Y-107844594D01*
X112710485Y-108021213D01*
X112662511Y-108072009D01*
X112594690Y-108088804D01*
X112528555Y-108066267D01*
X112489515Y-108021213D01*
X112462397Y-107967992D01*
X112399524Y-107844595D01*
X112283828Y-107685354D01*
X112144646Y-107546172D01*
X111985405Y-107430476D01*
X111972995Y-107424153D01*
X111810029Y-107341117D01*
X111622826Y-107280290D01*
X111428422Y-107249500D01*
X111428417Y-107249500D01*
X111231583Y-107249500D01*
X111231578Y-107249500D01*
X111037173Y-107280290D01*
X110849970Y-107341117D01*
X110674594Y-107430476D01*
X110591134Y-107491114D01*
X110515354Y-107546172D01*
X110515352Y-107546174D01*
X110515351Y-107546174D01*
X110376174Y-107685351D01*
X110376174Y-107685352D01*
X110376172Y-107685354D01*
X110362368Y-107704354D01*
X110260476Y-107844594D01*
X110170485Y-108021213D01*
X110122511Y-108072009D01*
X110054690Y-108088804D01*
X109988555Y-108066267D01*
X109949515Y-108021213D01*
X109922397Y-107967992D01*
X109859524Y-107844595D01*
X109743828Y-107685354D01*
X109604646Y-107546172D01*
X109445405Y-107430476D01*
X109432995Y-107424153D01*
X109270029Y-107341117D01*
X109082826Y-107280290D01*
X108888422Y-107249500D01*
X108888417Y-107249500D01*
X108691583Y-107249500D01*
X108691578Y-107249500D01*
X108497173Y-107280290D01*
X108309970Y-107341117D01*
X108134594Y-107430476D01*
X108051134Y-107491114D01*
X107975354Y-107546172D01*
X107975352Y-107546174D01*
X107975351Y-107546174D01*
X107836174Y-107685351D01*
X107836174Y-107685352D01*
X107836172Y-107685354D01*
X107822368Y-107704354D01*
X107720476Y-107844594D01*
X107630485Y-108021213D01*
X107582511Y-108072009D01*
X107514690Y-108088804D01*
X107448555Y-108066267D01*
X107409515Y-108021213D01*
X107382397Y-107967992D01*
X107319524Y-107844595D01*
X107203828Y-107685354D01*
X107064646Y-107546172D01*
X106905405Y-107430476D01*
X106892995Y-107424153D01*
X106730029Y-107341117D01*
X106542826Y-107280290D01*
X106348422Y-107249500D01*
X106348417Y-107249500D01*
X106151583Y-107249500D01*
X106151578Y-107249500D01*
X105957173Y-107280290D01*
X105769970Y-107341117D01*
X105594594Y-107430476D01*
X105511134Y-107491114D01*
X105435354Y-107546172D01*
X105435352Y-107546174D01*
X105435351Y-107546174D01*
X105296174Y-107685351D01*
X105296174Y-107685352D01*
X105296172Y-107685354D01*
X105249818Y-107749155D01*
X105194488Y-107791820D01*
X105124874Y-107797799D01*
X105063079Y-107765193D01*
X105028722Y-107704354D01*
X105025500Y-107676269D01*
X105025500Y-101885258D01*
X106499500Y-101885258D01*
X106499500Y-102114741D01*
X106524446Y-102304215D01*
X106529452Y-102342238D01*
X106529453Y-102342240D01*
X106588842Y-102563887D01*
X106676650Y-102775876D01*
X106676657Y-102775890D01*
X106791392Y-102974617D01*
X106931081Y-103156661D01*
X106931089Y-103156670D01*
X107093330Y-103318911D01*
X107093338Y-103318918D01*
X107275382Y-103458607D01*
X107275385Y-103458608D01*
X107275388Y-103458611D01*
X107474112Y-103573344D01*
X107474117Y-103573346D01*
X107474123Y-103573349D01*
X107506643Y-103586819D01*
X107686113Y-103661158D01*
X107907762Y-103720548D01*
X108135266Y-103750500D01*
X108135273Y-103750500D01*
X108364727Y-103750500D01*
X108364734Y-103750500D01*
X108592238Y-103720548D01*
X108813887Y-103661158D01*
X109025888Y-103573344D01*
X109224612Y-103458611D01*
X109406661Y-103318919D01*
X109406665Y-103318914D01*
X109406670Y-103318911D01*
X109568911Y-103156670D01*
X109568914Y-103156665D01*
X109568919Y-103156661D01*
X109708611Y-102974612D01*
X109823344Y-102775888D01*
X109911158Y-102563887D01*
X109970548Y-102342238D01*
X110000500Y-102114734D01*
X110000500Y-101885266D01*
X109970548Y-101657762D01*
X109911158Y-101436113D01*
X109823344Y-101224112D01*
X109708611Y-101025388D01*
X109708608Y-101025385D01*
X109708607Y-101025382D01*
X109568918Y-100843338D01*
X109568911Y-100843330D01*
X109406670Y-100681089D01*
X109406661Y-100681081D01*
X109224617Y-100541392D01*
X109025890Y-100426657D01*
X109025876Y-100426650D01*
X108813887Y-100338842D01*
X108592238Y-100279452D01*
X108554215Y-100274446D01*
X108364741Y-100249500D01*
X108364734Y-100249500D01*
X108135266Y-100249500D01*
X108135258Y-100249500D01*
X107918715Y-100278009D01*
X107907762Y-100279452D01*
X107877409Y-100287585D01*
X107686112Y-100338842D01*
X107474123Y-100426650D01*
X107474109Y-100426657D01*
X107275382Y-100541392D01*
X107093338Y-100681081D01*
X106931081Y-100843338D01*
X106791392Y-101025382D01*
X106676657Y-101224109D01*
X106676650Y-101224123D01*
X106588842Y-101436112D01*
X106529453Y-101657759D01*
X106529451Y-101657770D01*
X106499500Y-101885258D01*
X105025500Y-101885258D01*
X105025500Y-76465513D01*
X108039500Y-76465513D01*
X108039500Y-76654486D01*
X108069059Y-76841118D01*
X108127454Y-77020836D01*
X108198355Y-77159986D01*
X108213240Y-77189199D01*
X108324310Y-77342073D01*
X108457927Y-77475690D01*
X108610801Y-77586760D01*
X108636013Y-77599606D01*
X108779163Y-77672545D01*
X108779165Y-77672545D01*
X108779168Y-77672547D01*
X108870784Y-77702315D01*
X108958881Y-77730940D01*
X109145514Y-77760500D01*
X109145519Y-77760500D01*
X109334486Y-77760500D01*
X109521118Y-77730940D01*
X109700832Y-77672547D01*
X109869199Y-77586760D01*
X110022073Y-77475690D01*
X110155690Y-77342073D01*
X110266760Y-77189199D01*
X110352547Y-77020832D01*
X110392069Y-76899195D01*
X110431507Y-76841521D01*
X110495866Y-76814323D01*
X110564712Y-76826238D01*
X110616188Y-76873482D01*
X110627931Y-76899196D01*
X110667454Y-77020836D01*
X110738355Y-77159986D01*
X110753240Y-77189199D01*
X110864310Y-77342073D01*
X110997927Y-77475690D01*
X111150801Y-77586760D01*
X111176013Y-77599606D01*
X111319163Y-77672545D01*
X111319165Y-77672545D01*
X111319168Y-77672547D01*
X111410784Y-77702315D01*
X111498881Y-77730940D01*
X111685514Y-77760500D01*
X111685519Y-77760500D01*
X111874486Y-77760500D01*
X112061118Y-77730940D01*
X112240832Y-77672547D01*
X112409199Y-77586760D01*
X112562073Y-77475690D01*
X112695690Y-77342073D01*
X112806760Y-77189199D01*
X112892547Y-77020832D01*
X112932069Y-76899195D01*
X112971507Y-76841521D01*
X113035866Y-76814323D01*
X113104712Y-76826238D01*
X113156188Y-76873482D01*
X113167931Y-76899196D01*
X113207454Y-77020836D01*
X113278355Y-77159986D01*
X113293240Y-77189199D01*
X113404310Y-77342073D01*
X113537927Y-77475690D01*
X113690801Y-77586760D01*
X113716013Y-77599606D01*
X113859163Y-77672545D01*
X113859165Y-77672545D01*
X113859168Y-77672547D01*
X113950784Y-77702315D01*
X114038881Y-77730940D01*
X114225514Y-77760500D01*
X114225519Y-77760500D01*
X114414486Y-77760500D01*
X114601118Y-77730940D01*
X114780832Y-77672547D01*
X114949199Y-77586760D01*
X115102073Y-77475690D01*
X115235690Y-77342073D01*
X115346760Y-77189199D01*
X115432547Y-77020832D01*
X115472069Y-76899195D01*
X115511507Y-76841521D01*
X115575866Y-76814323D01*
X115644712Y-76826238D01*
X115696188Y-76873482D01*
X115707931Y-76899196D01*
X115747454Y-77020836D01*
X115818355Y-77159986D01*
X115833240Y-77189199D01*
X115944310Y-77342073D01*
X116077927Y-77475690D01*
X116230801Y-77586760D01*
X116256013Y-77599606D01*
X116399163Y-77672545D01*
X116399165Y-77672545D01*
X116399168Y-77672547D01*
X116490784Y-77702315D01*
X116578881Y-77730940D01*
X116765514Y-77760500D01*
X116765519Y-77760500D01*
X116954486Y-77760500D01*
X117141118Y-77730940D01*
X117320832Y-77672547D01*
X117489199Y-77586760D01*
X117642073Y-77475690D01*
X117775690Y-77342073D01*
X117886760Y-77189199D01*
X117972547Y-77020832D01*
X118012069Y-76899195D01*
X118051507Y-76841521D01*
X118115866Y-76814323D01*
X118184712Y-76826238D01*
X118236188Y-76873482D01*
X118247931Y-76899196D01*
X118287454Y-77020836D01*
X118358355Y-77159986D01*
X118373240Y-77189199D01*
X118484310Y-77342073D01*
X118617927Y-77475690D01*
X118770801Y-77586760D01*
X118796013Y-77599606D01*
X118939163Y-77672545D01*
X118939165Y-77672545D01*
X118939168Y-77672547D01*
X119030784Y-77702315D01*
X119118881Y-77730940D01*
X119305514Y-77760500D01*
X119305519Y-77760500D01*
X119494486Y-77760500D01*
X119681118Y-77730940D01*
X119860832Y-77672547D01*
X120029199Y-77586760D01*
X120182073Y-77475690D01*
X120315690Y-77342073D01*
X120426760Y-77189199D01*
X120512547Y-77020832D01*
X120552069Y-76899195D01*
X120591507Y-76841521D01*
X120655866Y-76814323D01*
X120724712Y-76826238D01*
X120776188Y-76873482D01*
X120787931Y-76899196D01*
X120827454Y-77020836D01*
X120898355Y-77159986D01*
X120913240Y-77189199D01*
X121024310Y-77342073D01*
X121157927Y-77475690D01*
X121310801Y-77586760D01*
X121336013Y-77599606D01*
X121479163Y-77672545D01*
X121479165Y-77672545D01*
X121479168Y-77672547D01*
X121570784Y-77702315D01*
X121658881Y-77730940D01*
X121845514Y-77760500D01*
X121845519Y-77760500D01*
X122034486Y-77760500D01*
X122221118Y-77730940D01*
X122400832Y-77672547D01*
X122569199Y-77586760D01*
X122722073Y-77475690D01*
X122855690Y-77342073D01*
X122966760Y-77189199D01*
X123052547Y-77020832D01*
X123092069Y-76899195D01*
X123131507Y-76841521D01*
X123195866Y-76814323D01*
X123264712Y-76826238D01*
X123316188Y-76873482D01*
X123327931Y-76899196D01*
X123367454Y-77020836D01*
X123438355Y-77159986D01*
X123453240Y-77189199D01*
X123564310Y-77342073D01*
X123697927Y-77475690D01*
X123850801Y-77586760D01*
X123876013Y-77599606D01*
X124019163Y-77672545D01*
X124019165Y-77672545D01*
X124019168Y-77672547D01*
X124110784Y-77702315D01*
X124198881Y-77730940D01*
X124385514Y-77760500D01*
X124385519Y-77760500D01*
X124574486Y-77760500D01*
X124761118Y-77730940D01*
X124940832Y-77672547D01*
X125109199Y-77586760D01*
X125262073Y-77475690D01*
X125395690Y-77342073D01*
X125506760Y-77189199D01*
X125592547Y-77020832D01*
X125632069Y-76899195D01*
X125671507Y-76841521D01*
X125735866Y-76814323D01*
X125804712Y-76826238D01*
X125856188Y-76873482D01*
X125867931Y-76899196D01*
X125907454Y-77020836D01*
X125978355Y-77159986D01*
X125993240Y-77189199D01*
X126104310Y-77342073D01*
X126237927Y-77475690D01*
X126390801Y-77586760D01*
X126416013Y-77599606D01*
X126559163Y-77672545D01*
X126559165Y-77672545D01*
X126559168Y-77672547D01*
X126650784Y-77702315D01*
X126738881Y-77730940D01*
X126925514Y-77760500D01*
X126925519Y-77760500D01*
X127114486Y-77760500D01*
X127301118Y-77730940D01*
X127480832Y-77672547D01*
X127649199Y-77586760D01*
X127802073Y-77475690D01*
X127935690Y-77342073D01*
X128046760Y-77189199D01*
X128132547Y-77020832D01*
X128172069Y-76899195D01*
X128211507Y-76841521D01*
X128275866Y-76814323D01*
X128344712Y-76826238D01*
X128396188Y-76873482D01*
X128407931Y-76899196D01*
X128447454Y-77020836D01*
X128518355Y-77159986D01*
X128533240Y-77189199D01*
X128644310Y-77342073D01*
X128777927Y-77475690D01*
X128930801Y-77586760D01*
X128956013Y-77599606D01*
X129099163Y-77672545D01*
X129099165Y-77672545D01*
X129099168Y-77672547D01*
X129190784Y-77702315D01*
X129278881Y-77730940D01*
X129465514Y-77760500D01*
X129465519Y-77760500D01*
X129654486Y-77760500D01*
X129841118Y-77730940D01*
X130020832Y-77672547D01*
X130189199Y-77586760D01*
X130342073Y-77475690D01*
X130475690Y-77342073D01*
X130586760Y-77189199D01*
X130672547Y-77020832D01*
X130712069Y-76899195D01*
X130751507Y-76841521D01*
X130815866Y-76814323D01*
X130884712Y-76826238D01*
X130936188Y-76873482D01*
X130947931Y-76899196D01*
X130987454Y-77020836D01*
X131058355Y-77159986D01*
X131073240Y-77189199D01*
X131184310Y-77342073D01*
X131317927Y-77475690D01*
X131470801Y-77586760D01*
X131496013Y-77599606D01*
X131639163Y-77672545D01*
X131639165Y-77672545D01*
X131639168Y-77672547D01*
X131730784Y-77702315D01*
X131818881Y-77730940D01*
X132005514Y-77760500D01*
X132005519Y-77760500D01*
X132194486Y-77760500D01*
X132381118Y-77730940D01*
X132560832Y-77672547D01*
X132729199Y-77586760D01*
X132882073Y-77475690D01*
X133015690Y-77342073D01*
X133126760Y-77189199D01*
X133212547Y-77020832D01*
X133252069Y-76899195D01*
X133291507Y-76841521D01*
X133355866Y-76814323D01*
X133424712Y-76826238D01*
X133476188Y-76873482D01*
X133487931Y-76899196D01*
X133527454Y-77020836D01*
X133598355Y-77159986D01*
X133613240Y-77189199D01*
X133724310Y-77342073D01*
X133857927Y-77475690D01*
X134010801Y-77586760D01*
X134036013Y-77599606D01*
X134179163Y-77672545D01*
X134179165Y-77672545D01*
X134179168Y-77672547D01*
X134270784Y-77702315D01*
X134358881Y-77730940D01*
X134545514Y-77760500D01*
X134545519Y-77760500D01*
X134734486Y-77760500D01*
X134921118Y-77730940D01*
X135100832Y-77672547D01*
X135269199Y-77586760D01*
X135422073Y-77475690D01*
X135555690Y-77342073D01*
X135666760Y-77189199D01*
X135752547Y-77020832D01*
X135792069Y-76899195D01*
X135831507Y-76841521D01*
X135895866Y-76814323D01*
X135964712Y-76826238D01*
X136016188Y-76873482D01*
X136027931Y-76899196D01*
X136067454Y-77020836D01*
X136138355Y-77159986D01*
X136153240Y-77189199D01*
X136264310Y-77342073D01*
X136397927Y-77475690D01*
X136550801Y-77586760D01*
X136576013Y-77599606D01*
X136719163Y-77672545D01*
X136719165Y-77672545D01*
X136719168Y-77672547D01*
X136810784Y-77702315D01*
X136898881Y-77730940D01*
X137085514Y-77760500D01*
X137085519Y-77760500D01*
X137274486Y-77760500D01*
X137461118Y-77730940D01*
X137640832Y-77672547D01*
X137809199Y-77586760D01*
X137962073Y-77475690D01*
X138095690Y-77342073D01*
X138206760Y-77189199D01*
X138292547Y-77020832D01*
X138332069Y-76899195D01*
X138371507Y-76841521D01*
X138435866Y-76814323D01*
X138504712Y-76826238D01*
X138556188Y-76873482D01*
X138567931Y-76899196D01*
X138607454Y-77020836D01*
X138678355Y-77159986D01*
X138693240Y-77189199D01*
X138804310Y-77342073D01*
X138937927Y-77475690D01*
X139090801Y-77586760D01*
X139116013Y-77599606D01*
X139259163Y-77672545D01*
X139259165Y-77672545D01*
X139259168Y-77672547D01*
X139350784Y-77702315D01*
X139438881Y-77730940D01*
X139625514Y-77760500D01*
X139625519Y-77760500D01*
X139814486Y-77760500D01*
X140001118Y-77730940D01*
X140180832Y-77672547D01*
X140349199Y-77586760D01*
X140502073Y-77475690D01*
X140635690Y-77342073D01*
X140746760Y-77189199D01*
X140832547Y-77020832D01*
X140872069Y-76899195D01*
X140911507Y-76841521D01*
X140975866Y-76814323D01*
X141044712Y-76826238D01*
X141096188Y-76873482D01*
X141107931Y-76899196D01*
X141147454Y-77020836D01*
X141218355Y-77159986D01*
X141233240Y-77189199D01*
X141344310Y-77342073D01*
X141477927Y-77475690D01*
X141630801Y-77586760D01*
X141656013Y-77599606D01*
X141799163Y-77672545D01*
X141799165Y-77672545D01*
X141799168Y-77672547D01*
X141890784Y-77702315D01*
X141978881Y-77730940D01*
X142165514Y-77760500D01*
X142165519Y-77760500D01*
X142354486Y-77760500D01*
X142541118Y-77730940D01*
X142720832Y-77672547D01*
X142889199Y-77586760D01*
X143042073Y-77475690D01*
X143175690Y-77342073D01*
X143286760Y-77189199D01*
X143372547Y-77020832D01*
X143412069Y-76899195D01*
X143451507Y-76841521D01*
X143515866Y-76814323D01*
X143584712Y-76826238D01*
X143636188Y-76873482D01*
X143647931Y-76899196D01*
X143687454Y-77020836D01*
X143758355Y-77159986D01*
X143773240Y-77189199D01*
X143884310Y-77342073D01*
X144017927Y-77475690D01*
X144170801Y-77586760D01*
X144196013Y-77599606D01*
X144339163Y-77672545D01*
X144339165Y-77672545D01*
X144339168Y-77672547D01*
X144430784Y-77702315D01*
X144518881Y-77730940D01*
X144705514Y-77760500D01*
X144705519Y-77760500D01*
X144894486Y-77760500D01*
X145081118Y-77730940D01*
X145260832Y-77672547D01*
X145429199Y-77586760D01*
X145582073Y-77475690D01*
X145715690Y-77342073D01*
X145826760Y-77189199D01*
X145912547Y-77020832D01*
X145952069Y-76899195D01*
X145991507Y-76841521D01*
X146055866Y-76814323D01*
X146124712Y-76826238D01*
X146176188Y-76873482D01*
X146187931Y-76899196D01*
X146227454Y-77020836D01*
X146298355Y-77159986D01*
X146313240Y-77189199D01*
X146424310Y-77342073D01*
X146557927Y-77475690D01*
X146710801Y-77586760D01*
X146736013Y-77599606D01*
X146879163Y-77672545D01*
X146879165Y-77672545D01*
X146879168Y-77672547D01*
X146970784Y-77702315D01*
X147058881Y-77730940D01*
X147245514Y-77760500D01*
X147245519Y-77760500D01*
X147434486Y-77760500D01*
X147621118Y-77730940D01*
X147800832Y-77672547D01*
X147969199Y-77586760D01*
X148122073Y-77475690D01*
X148255690Y-77342073D01*
X148366760Y-77189199D01*
X148452547Y-77020832D01*
X148492069Y-76899195D01*
X148531507Y-76841521D01*
X148595866Y-76814323D01*
X148664712Y-76826238D01*
X148716188Y-76873482D01*
X148727931Y-76899196D01*
X148767454Y-77020836D01*
X148838355Y-77159986D01*
X148853240Y-77189199D01*
X148964310Y-77342073D01*
X149097927Y-77475690D01*
X149250801Y-77586760D01*
X149276013Y-77599606D01*
X149419163Y-77672545D01*
X149419165Y-77672545D01*
X149419168Y-77672547D01*
X149510784Y-77702315D01*
X149598881Y-77730940D01*
X149785514Y-77760500D01*
X149785519Y-77760500D01*
X149974486Y-77760500D01*
X150161118Y-77730940D01*
X150340832Y-77672547D01*
X150509199Y-77586760D01*
X150662073Y-77475690D01*
X150795690Y-77342073D01*
X150906760Y-77189199D01*
X150992547Y-77020832D01*
X151032069Y-76899195D01*
X151071507Y-76841521D01*
X151135866Y-76814323D01*
X151204712Y-76826238D01*
X151256188Y-76873482D01*
X151267931Y-76899196D01*
X151307454Y-77020836D01*
X151378355Y-77159986D01*
X151393240Y-77189199D01*
X151504310Y-77342073D01*
X151637927Y-77475690D01*
X151790801Y-77586760D01*
X151816013Y-77599606D01*
X151959163Y-77672545D01*
X151959165Y-77672545D01*
X151959168Y-77672547D01*
X152050784Y-77702315D01*
X152138881Y-77730940D01*
X152325514Y-77760500D01*
X152325519Y-77760500D01*
X152514486Y-77760500D01*
X152701118Y-77730940D01*
X152880832Y-77672547D01*
X153049199Y-77586760D01*
X153202073Y-77475690D01*
X153335690Y-77342073D01*
X153446760Y-77189199D01*
X153532547Y-77020832D01*
X153572069Y-76899195D01*
X153611507Y-76841521D01*
X153675866Y-76814323D01*
X153744712Y-76826238D01*
X153796188Y-76873482D01*
X153807931Y-76899196D01*
X153847454Y-77020836D01*
X153918355Y-77159986D01*
X153933240Y-77189199D01*
X154044310Y-77342073D01*
X154177927Y-77475690D01*
X154330801Y-77586760D01*
X154356013Y-77599606D01*
X154499163Y-77672545D01*
X154499165Y-77672545D01*
X154499168Y-77672547D01*
X154590784Y-77702315D01*
X154678881Y-77730940D01*
X154865514Y-77760500D01*
X154865519Y-77760500D01*
X155054486Y-77760500D01*
X155241118Y-77730940D01*
X155420832Y-77672547D01*
X155589199Y-77586760D01*
X155742073Y-77475690D01*
X155875690Y-77342073D01*
X155985627Y-77190757D01*
X156040957Y-77148092D01*
X156110570Y-77142113D01*
X156172365Y-77174719D01*
X156206722Y-77235557D01*
X156209303Y-77251039D01*
X156210494Y-77262697D01*
X156265641Y-77429119D01*
X156265643Y-77429124D01*
X156357684Y-77578345D01*
X156481654Y-77702315D01*
X156630875Y-77794356D01*
X156630880Y-77794358D01*
X156797302Y-77849505D01*
X156797309Y-77849506D01*
X156900019Y-77859999D01*
X157249999Y-77859999D01*
X157250000Y-77859998D01*
X157250000Y-76875686D01*
X157254394Y-76880080D01*
X157345606Y-76932741D01*
X157447339Y-76960000D01*
X157552661Y-76960000D01*
X157654394Y-76932741D01*
X157745606Y-76880080D01*
X157750000Y-76875686D01*
X157750000Y-77859999D01*
X158099972Y-77859999D01*
X158099986Y-77859998D01*
X158202697Y-77849505D01*
X158369119Y-77794358D01*
X158369124Y-77794356D01*
X158518345Y-77702315D01*
X158642315Y-77578345D01*
X158734356Y-77429124D01*
X158734358Y-77429119D01*
X158789505Y-77262697D01*
X158789506Y-77262690D01*
X158799999Y-77159986D01*
X158800000Y-77159973D01*
X158800000Y-76810000D01*
X157815686Y-76810000D01*
X157820080Y-76805606D01*
X157872741Y-76714394D01*
X157900000Y-76612661D01*
X157900000Y-76507339D01*
X157872741Y-76405606D01*
X157820080Y-76314394D01*
X157815686Y-76310000D01*
X158799999Y-76310000D01*
X158799999Y-75960028D01*
X158799998Y-75960013D01*
X158789505Y-75857302D01*
X158734358Y-75690880D01*
X158734356Y-75690875D01*
X158642315Y-75541654D01*
X158518345Y-75417684D01*
X158369124Y-75325643D01*
X158369119Y-75325641D01*
X158323491Y-75310522D01*
X158202697Y-75270494D01*
X158202690Y-75270493D01*
X158099986Y-75260000D01*
X157750000Y-75260000D01*
X157750000Y-76244314D01*
X157745606Y-76239920D01*
X157654394Y-76187259D01*
X157552661Y-76160000D01*
X157447339Y-76160000D01*
X157345606Y-76187259D01*
X157254394Y-76239920D01*
X157250000Y-76244314D01*
X157250000Y-75260000D01*
X156900028Y-75260000D01*
X156900012Y-75260001D01*
X156797302Y-75270494D01*
X156630880Y-75325641D01*
X156630875Y-75325643D01*
X156481654Y-75417684D01*
X156357684Y-75541654D01*
X156265643Y-75690875D01*
X156265641Y-75690880D01*
X156210494Y-75857302D01*
X156210493Y-75857308D01*
X156209303Y-75868960D01*
X156182905Y-75933651D01*
X156125724Y-75973801D01*
X156055913Y-75976663D01*
X155995637Y-75941328D01*
X155985627Y-75929241D01*
X155891023Y-75799031D01*
X155875690Y-75777927D01*
X155742073Y-75644310D01*
X155720351Y-75628528D01*
X155586614Y-75531360D01*
X155543948Y-75476030D01*
X155535500Y-75431043D01*
X155535500Y-75197682D01*
X173700000Y-75197682D01*
X173700000Y-75402317D01*
X173732009Y-75604417D01*
X173795244Y-75799031D01*
X173888141Y-75981350D01*
X173888147Y-75981359D01*
X173920523Y-76025921D01*
X173920524Y-76025922D01*
X174600000Y-75346446D01*
X174600000Y-75352661D01*
X174627259Y-75454394D01*
X174679920Y-75545606D01*
X174754394Y-75620080D01*
X174845606Y-75672741D01*
X174947339Y-75700000D01*
X174953553Y-75700000D01*
X174274076Y-76379474D01*
X174318650Y-76411859D01*
X174500968Y-76504755D01*
X174695582Y-76567990D01*
X174897683Y-76600000D01*
X175102317Y-76600000D01*
X175304417Y-76567990D01*
X175499031Y-76504755D01*
X175681349Y-76411859D01*
X175725921Y-76379474D01*
X175046447Y-75700000D01*
X175052661Y-75700000D01*
X175154394Y-75672741D01*
X175245606Y-75620080D01*
X175320080Y-75545606D01*
X175372741Y-75454394D01*
X175400000Y-75352661D01*
X175400000Y-75346447D01*
X176079474Y-76025921D01*
X176111859Y-75981349D01*
X176204755Y-75799031D01*
X176267990Y-75604417D01*
X176300000Y-75402317D01*
X176300000Y-75205513D01*
X178799500Y-75205513D01*
X178799500Y-75394486D01*
X178829059Y-75581118D01*
X178887454Y-75760836D01*
X178973240Y-75929199D01*
X179084310Y-76082073D01*
X179217927Y-76215690D01*
X179370801Y-76326760D01*
X179450347Y-76367290D01*
X179539163Y-76412545D01*
X179539165Y-76412545D01*
X179539168Y-76412547D01*
X179635497Y-76443846D01*
X179718881Y-76470940D01*
X179905514Y-76500500D01*
X179905519Y-76500500D01*
X180094486Y-76500500D01*
X180281118Y-76470940D01*
X180297820Y-76465513D01*
X180460832Y-76412547D01*
X180629199Y-76326760D01*
X180782073Y-76215690D01*
X180915690Y-76082073D01*
X181026760Y-75929199D01*
X181112547Y-75760832D01*
X181170940Y-75581118D01*
X181175368Y-75553158D01*
X181200500Y-75394486D01*
X181200500Y-75205513D01*
X181170940Y-75018881D01*
X181123066Y-74871542D01*
X181112547Y-74839168D01*
X181112545Y-74839165D01*
X181112545Y-74839163D01*
X181026759Y-74670800D01*
X180915690Y-74517927D01*
X180782073Y-74384310D01*
X180629199Y-74273240D01*
X180563540Y-74239785D01*
X180460836Y-74187454D01*
X180281118Y-74129059D01*
X180094486Y-74099500D01*
X180094481Y-74099500D01*
X179905519Y-74099500D01*
X179905514Y-74099500D01*
X179718881Y-74129059D01*
X179539163Y-74187454D01*
X179370800Y-74273240D01*
X179283579Y-74336610D01*
X179217927Y-74384310D01*
X179217925Y-74384312D01*
X179217924Y-74384312D01*
X179084312Y-74517924D01*
X179084312Y-74517925D01*
X179084310Y-74517927D01*
X179036610Y-74583579D01*
X178973240Y-74670800D01*
X178887454Y-74839163D01*
X178829059Y-75018881D01*
X178799500Y-75205513D01*
X176300000Y-75205513D01*
X176300000Y-75197682D01*
X176267990Y-74995582D01*
X176204755Y-74800968D01*
X176111859Y-74618650D01*
X176079474Y-74574077D01*
X176079474Y-74574076D01*
X175400000Y-75253551D01*
X175400000Y-75247339D01*
X175372741Y-75145606D01*
X175320080Y-75054394D01*
X175245606Y-74979920D01*
X175154394Y-74927259D01*
X175052661Y-74900000D01*
X175046446Y-74900000D01*
X175725922Y-74220524D01*
X175725921Y-74220523D01*
X175681359Y-74188147D01*
X175681350Y-74188141D01*
X175499031Y-74095244D01*
X175304417Y-74032009D01*
X175102317Y-74000000D01*
X174897683Y-74000000D01*
X174695582Y-74032009D01*
X174500968Y-74095244D01*
X174318644Y-74188143D01*
X174274077Y-74220523D01*
X174274077Y-74220524D01*
X174953554Y-74900000D01*
X174947339Y-74900000D01*
X174845606Y-74927259D01*
X174754394Y-74979920D01*
X174679920Y-75054394D01*
X174627259Y-75145606D01*
X174600000Y-75247339D01*
X174600000Y-75253553D01*
X173920524Y-74574077D01*
X173920523Y-74574077D01*
X173888143Y-74618644D01*
X173795244Y-74800968D01*
X173732009Y-74995582D01*
X173700000Y-75197682D01*
X155535500Y-75197682D01*
X155535500Y-72697682D01*
X189950000Y-72697682D01*
X189950000Y-72902317D01*
X189982009Y-73104417D01*
X190045244Y-73299031D01*
X190138141Y-73481350D01*
X190138147Y-73481359D01*
X190170523Y-73525921D01*
X190170524Y-73525922D01*
X190850000Y-72846446D01*
X190850000Y-72852661D01*
X190877259Y-72954394D01*
X190929920Y-73045606D01*
X191004394Y-73120080D01*
X191095606Y-73172741D01*
X191197339Y-73200000D01*
X191203553Y-73200000D01*
X190524076Y-73879474D01*
X190568650Y-73911859D01*
X190750968Y-74004755D01*
X190945582Y-74067990D01*
X191147683Y-74100000D01*
X191352317Y-74100000D01*
X191554417Y-74067990D01*
X191749031Y-74004755D01*
X191931349Y-73911859D01*
X191975921Y-73879474D01*
X191296447Y-73200000D01*
X191302661Y-73200000D01*
X191404394Y-73172741D01*
X191495606Y-73120080D01*
X191570080Y-73045606D01*
X191622741Y-72954394D01*
X191650000Y-72852661D01*
X191650000Y-72846447D01*
X192329474Y-73525921D01*
X192361859Y-73481349D01*
X192454755Y-73299031D01*
X192517990Y-73104417D01*
X192550000Y-72902317D01*
X192550000Y-72697682D01*
X192517990Y-72495582D01*
X192454755Y-72300968D01*
X192361859Y-72118650D01*
X192329474Y-72074077D01*
X192329474Y-72074076D01*
X191650000Y-72753551D01*
X191650000Y-72747339D01*
X191622741Y-72645606D01*
X191570080Y-72554394D01*
X191495606Y-72479920D01*
X191404394Y-72427259D01*
X191302661Y-72400000D01*
X191296446Y-72400000D01*
X191975922Y-71720524D01*
X191975921Y-71720523D01*
X191931359Y-71688147D01*
X191931350Y-71688141D01*
X191749031Y-71595244D01*
X191554417Y-71532009D01*
X191352317Y-71500000D01*
X191147683Y-71500000D01*
X190945582Y-71532009D01*
X190750968Y-71595244D01*
X190568644Y-71688143D01*
X190524077Y-71720523D01*
X190524077Y-71720524D01*
X191203554Y-72400000D01*
X191197339Y-72400000D01*
X191095606Y-72427259D01*
X191004394Y-72479920D01*
X190929920Y-72554394D01*
X190877259Y-72645606D01*
X190850000Y-72747339D01*
X190850000Y-72753553D01*
X190170524Y-72074077D01*
X190170523Y-72074077D01*
X190138143Y-72118644D01*
X190045244Y-72300968D01*
X189982009Y-72495582D01*
X189950000Y-72697682D01*
X155535500Y-72697682D01*
X155535500Y-68618995D01*
X164799499Y-68618995D01*
X164826418Y-68754322D01*
X164826421Y-68754332D01*
X164879221Y-68881804D01*
X164879228Y-68881817D01*
X164955885Y-68996541D01*
X164955888Y-68996545D01*
X165053454Y-69094111D01*
X165053458Y-69094114D01*
X165168182Y-69170771D01*
X165168195Y-69170778D01*
X165295667Y-69223578D01*
X165295672Y-69223580D01*
X165295676Y-69223580D01*
X165295677Y-69223581D01*
X165431004Y-69250500D01*
X165431007Y-69250500D01*
X165568995Y-69250500D01*
X165660041Y-69232389D01*
X165704328Y-69223580D01*
X165737260Y-69209938D01*
X165784713Y-69200500D01*
X169064071Y-69200500D01*
X169148615Y-69183682D01*
X169189744Y-69175501D01*
X169308127Y-69126465D01*
X169314607Y-69122135D01*
X169414669Y-69055277D01*
X171505276Y-66964669D01*
X171576465Y-66858127D01*
X171625501Y-66739744D01*
X171627239Y-66731007D01*
X171647656Y-66628367D01*
X171650500Y-66614071D01*
X171650500Y-62584713D01*
X171659939Y-62537260D01*
X171673580Y-62504328D01*
X171689682Y-62423380D01*
X171700500Y-62368995D01*
X171700500Y-62231004D01*
X171673581Y-62095677D01*
X171673580Y-62095676D01*
X171673580Y-62095672D01*
X171646181Y-62029524D01*
X171620778Y-61968195D01*
X171620771Y-61968182D01*
X171544114Y-61853458D01*
X171544111Y-61853454D01*
X171446545Y-61755888D01*
X171446541Y-61755885D01*
X171331817Y-61679228D01*
X171331804Y-61679221D01*
X171204332Y-61626421D01*
X171204322Y-61626418D01*
X171068995Y-61599500D01*
X171068993Y-61599500D01*
X170931007Y-61599500D01*
X170931005Y-61599500D01*
X170795677Y-61626418D01*
X170795667Y-61626421D01*
X170668195Y-61679221D01*
X170668182Y-61679228D01*
X170553458Y-61755885D01*
X170553454Y-61755888D01*
X170455888Y-61853454D01*
X170455885Y-61853458D01*
X170379228Y-61968182D01*
X170379221Y-61968195D01*
X170326421Y-62095667D01*
X170326418Y-62095677D01*
X170299500Y-62231004D01*
X170299500Y-62231007D01*
X170299500Y-62368993D01*
X170299500Y-62368995D01*
X170299499Y-62368995D01*
X170326418Y-62504322D01*
X170326420Y-62504328D01*
X170340061Y-62537260D01*
X170349500Y-62584713D01*
X170349500Y-66229192D01*
X170329815Y-66296231D01*
X170313181Y-66316873D01*
X168766873Y-67863181D01*
X168705550Y-67896666D01*
X168679192Y-67899500D01*
X165784713Y-67899500D01*
X165737260Y-67890061D01*
X165704328Y-67876420D01*
X165704322Y-67876418D01*
X165568995Y-67849500D01*
X165568993Y-67849500D01*
X165431007Y-67849500D01*
X165431005Y-67849500D01*
X165295677Y-67876418D01*
X165295667Y-67876421D01*
X165168195Y-67929221D01*
X165168182Y-67929228D01*
X165053458Y-68005885D01*
X165053454Y-68005888D01*
X164955888Y-68103454D01*
X164955885Y-68103458D01*
X164879228Y-68218182D01*
X164879221Y-68218195D01*
X164826421Y-68345667D01*
X164826418Y-68345677D01*
X164799500Y-68481004D01*
X164799500Y-68481007D01*
X164799500Y-68618993D01*
X164799500Y-68618995D01*
X164799499Y-68618995D01*
X155535500Y-68618995D01*
X155535500Y-68476813D01*
X155535500Y-68359234D01*
X155535203Y-68358127D01*
X155496281Y-68212865D01*
X155420515Y-68081635D01*
X153131819Y-65792939D01*
X153098334Y-65731616D01*
X153095500Y-65705258D01*
X153095500Y-64686224D01*
X153115185Y-64619185D01*
X153163206Y-64575739D01*
X153175405Y-64569524D01*
X153334646Y-64453828D01*
X153473828Y-64314646D01*
X153589524Y-64155405D01*
X153654039Y-64028787D01*
X153679515Y-63978787D01*
X153727489Y-63927990D01*
X153795310Y-63911195D01*
X153861445Y-63933732D01*
X153900485Y-63978787D01*
X153990474Y-64155403D01*
X154025234Y-64203246D01*
X154106172Y-64314646D01*
X154245354Y-64453828D01*
X154404595Y-64569524D01*
X154469499Y-64602594D01*
X154579970Y-64658882D01*
X154579972Y-64658882D01*
X154579975Y-64658884D01*
X154672745Y-64689027D01*
X154767173Y-64719709D01*
X154961578Y-64750500D01*
X154961583Y-64750500D01*
X155158422Y-64750500D01*
X155352826Y-64719709D01*
X155377475Y-64711700D01*
X155540025Y-64658884D01*
X155715405Y-64569524D01*
X155874646Y-64453828D01*
X156013828Y-64314646D01*
X156129524Y-64155405D01*
X156218884Y-63980025D01*
X156279709Y-63792826D01*
X156291076Y-63721059D01*
X156310500Y-63598422D01*
X156310500Y-63401577D01*
X156279709Y-63207173D01*
X156218882Y-63019970D01*
X156155000Y-62894595D01*
X156129524Y-62844595D01*
X156013828Y-62685354D01*
X155874646Y-62546172D01*
X155744499Y-62451614D01*
X155715403Y-62430474D01*
X155538787Y-62340485D01*
X155487990Y-62292511D01*
X155471195Y-62224690D01*
X155493732Y-62158555D01*
X155538787Y-62119515D01*
X155715403Y-62029525D01*
X155715402Y-62029525D01*
X155715405Y-62029524D01*
X155874646Y-61913828D01*
X156013828Y-61774646D01*
X156129524Y-61615405D01*
X156218884Y-61440025D01*
X156279709Y-61252826D01*
X156295521Y-61152993D01*
X156310500Y-61058422D01*
X156310500Y-60861577D01*
X156279709Y-60667173D01*
X156218882Y-60479970D01*
X156155000Y-60354595D01*
X156129524Y-60304595D01*
X156013828Y-60145354D01*
X155874646Y-60006172D01*
X155715405Y-59890476D01*
X155540029Y-59801117D01*
X155352826Y-59740290D01*
X155158422Y-59709500D01*
X155158417Y-59709500D01*
X154961583Y-59709500D01*
X154961578Y-59709500D01*
X154767173Y-59740290D01*
X154579970Y-59801117D01*
X154404594Y-59890476D01*
X154335776Y-59940476D01*
X154245354Y-60006172D01*
X154245352Y-60006174D01*
X154245351Y-60006174D01*
X154106174Y-60145351D01*
X154106174Y-60145352D01*
X154106172Y-60145354D01*
X154069847Y-60195351D01*
X153990476Y-60304594D01*
X153900485Y-60481213D01*
X153852511Y-60532009D01*
X153784690Y-60548804D01*
X153718555Y-60526267D01*
X153679515Y-60481213D01*
X153615000Y-60354595D01*
X153589524Y-60304595D01*
X153473828Y-60145354D01*
X153334646Y-60006172D01*
X153175405Y-59890476D01*
X153000029Y-59801117D01*
X152812826Y-59740290D01*
X152618422Y-59709500D01*
X152618417Y-59709500D01*
X152421583Y-59709500D01*
X152421578Y-59709500D01*
X152227173Y-59740290D01*
X152039970Y-59801117D01*
X151864594Y-59890476D01*
X151795776Y-59940476D01*
X151705354Y-60006172D01*
X151705352Y-60006174D01*
X151705351Y-60006174D01*
X151566174Y-60145351D01*
X151566174Y-60145352D01*
X151566172Y-60145354D01*
X151529847Y-60195351D01*
X151450476Y-60304594D01*
X151360485Y-60481213D01*
X151312511Y-60532009D01*
X151244690Y-60548804D01*
X151178555Y-60526267D01*
X151139515Y-60481213D01*
X151075000Y-60354595D01*
X151049524Y-60304595D01*
X150933828Y-60145354D01*
X150794646Y-60006172D01*
X150635405Y-59890476D01*
X150460029Y-59801117D01*
X150272826Y-59740290D01*
X150078422Y-59709500D01*
X150078417Y-59709500D01*
X149881583Y-59709500D01*
X149881578Y-59709500D01*
X149687173Y-59740290D01*
X149499970Y-59801117D01*
X149324594Y-59890476D01*
X149255776Y-59940476D01*
X149165354Y-60006172D01*
X149165352Y-60006174D01*
X149165351Y-60006174D01*
X149026174Y-60145351D01*
X149026174Y-60145352D01*
X149026172Y-60145354D01*
X148989847Y-60195351D01*
X148910476Y-60304594D01*
X148820485Y-60481213D01*
X148772511Y-60532009D01*
X148704690Y-60548804D01*
X148638555Y-60526267D01*
X148599515Y-60481213D01*
X148535000Y-60354595D01*
X148509524Y-60304595D01*
X148393828Y-60145354D01*
X148254646Y-60006172D01*
X148095405Y-59890476D01*
X147920029Y-59801117D01*
X147732826Y-59740290D01*
X147538422Y-59709500D01*
X147538417Y-59709500D01*
X147341583Y-59709500D01*
X147341578Y-59709500D01*
X147147173Y-59740290D01*
X146959970Y-59801117D01*
X146784594Y-59890476D01*
X146715776Y-59940476D01*
X146625354Y-60006172D01*
X146625352Y-60006174D01*
X146625351Y-60006174D01*
X146486174Y-60145351D01*
X146486174Y-60145352D01*
X146486172Y-60145354D01*
X146449847Y-60195351D01*
X146370476Y-60304594D01*
X146280485Y-60481213D01*
X146232511Y-60532009D01*
X146164690Y-60548804D01*
X146098555Y-60526267D01*
X146059515Y-60481213D01*
X145995000Y-60354595D01*
X145969524Y-60304595D01*
X145853828Y-60145354D01*
X145714646Y-60006172D01*
X145555405Y-59890476D01*
X145380029Y-59801117D01*
X145192826Y-59740290D01*
X144998422Y-59709500D01*
X144998417Y-59709500D01*
X144801583Y-59709500D01*
X144801578Y-59709500D01*
X144607173Y-59740290D01*
X144419970Y-59801117D01*
X144244594Y-59890476D01*
X144175776Y-59940476D01*
X144085354Y-60006172D01*
X144085352Y-60006174D01*
X144085351Y-60006174D01*
X143946174Y-60145351D01*
X143946174Y-60145352D01*
X143946172Y-60145354D01*
X143909847Y-60195351D01*
X143830476Y-60304594D01*
X143740485Y-60481213D01*
X143692511Y-60532009D01*
X143624690Y-60548804D01*
X143558555Y-60526267D01*
X143519515Y-60481213D01*
X143455000Y-60354595D01*
X143429524Y-60304595D01*
X143313828Y-60145354D01*
X143174646Y-60006172D01*
X143015405Y-59890476D01*
X142840029Y-59801117D01*
X142652826Y-59740290D01*
X142458422Y-59709500D01*
X142458417Y-59709500D01*
X142261583Y-59709500D01*
X142261578Y-59709500D01*
X142067173Y-59740290D01*
X141879970Y-59801117D01*
X141704594Y-59890476D01*
X141635776Y-59940476D01*
X141545354Y-60006172D01*
X141545352Y-60006174D01*
X141545351Y-60006174D01*
X141406174Y-60145351D01*
X141406174Y-60145352D01*
X141406172Y-60145354D01*
X141348324Y-60224974D01*
X141290474Y-60304597D01*
X141256319Y-60371630D01*
X141208345Y-60422425D01*
X141140524Y-60439220D01*
X141074389Y-60416682D01*
X141035350Y-60371629D01*
X140974624Y-60252449D01*
X140935270Y-60198282D01*
X140935269Y-60198282D01*
X140302962Y-60830590D01*
X140285925Y-60767007D01*
X140220099Y-60652993D01*
X140127007Y-60559901D01*
X140012993Y-60494075D01*
X139949409Y-60477037D01*
X140581716Y-59844728D01*
X140527550Y-59805375D01*
X140338217Y-59708904D01*
X140136129Y-59643242D01*
X139926246Y-59610000D01*
X139713754Y-59610000D01*
X139503872Y-59643242D01*
X139503869Y-59643242D01*
X139301782Y-59708904D01*
X139112439Y-59805380D01*
X139058282Y-59844727D01*
X139058282Y-59844728D01*
X139690591Y-60477037D01*
X139627007Y-60494075D01*
X139512993Y-60559901D01*
X139419901Y-60652993D01*
X139354075Y-60767007D01*
X139337037Y-60830591D01*
X138704728Y-60198282D01*
X138704727Y-60198282D01*
X138665380Y-60252439D01*
X138568904Y-60441782D01*
X138503242Y-60643869D01*
X138503242Y-60643872D01*
X138470000Y-60853753D01*
X138470000Y-61066246D01*
X138503242Y-61276127D01*
X138503242Y-61276130D01*
X138568904Y-61478217D01*
X138665375Y-61667550D01*
X138704728Y-61721716D01*
X139337037Y-61089408D01*
X139354075Y-61152993D01*
X139419901Y-61267007D01*
X139512993Y-61360099D01*
X139627007Y-61425925D01*
X139690590Y-61442962D01*
X139021195Y-62112356D01*
X138959872Y-62145841D01*
X138945167Y-62144924D01*
X138945444Y-62147497D01*
X138862626Y-62156401D01*
X138862619Y-62156403D01*
X138727913Y-62206645D01*
X138727906Y-62206649D01*
X138612812Y-62292809D01*
X138612809Y-62292812D01*
X138526649Y-62407906D01*
X138526645Y-62407913D01*
X138476403Y-62542620D01*
X138476401Y-62542627D01*
X138470000Y-62602155D01*
X138470000Y-63250000D01*
X139386988Y-63250000D01*
X139354075Y-63307007D01*
X139320000Y-63434174D01*
X139320000Y-63565826D01*
X139354075Y-63692993D01*
X139386988Y-63750000D01*
X138470000Y-63750000D01*
X138470000Y-64397844D01*
X138476401Y-64457372D01*
X138476403Y-64457379D01*
X138526645Y-64592086D01*
X138526649Y-64592093D01*
X138612809Y-64707187D01*
X138612812Y-64707190D01*
X138727906Y-64793350D01*
X138727913Y-64793354D01*
X138862620Y-64843596D01*
X138862627Y-64843598D01*
X138922155Y-64849999D01*
X138922172Y-64850000D01*
X139570000Y-64850000D01*
X139570000Y-63933012D01*
X139627007Y-63965925D01*
X139754174Y-64000000D01*
X139885826Y-64000000D01*
X140012993Y-63965925D01*
X140070000Y-63933012D01*
X140070000Y-64850000D01*
X140717828Y-64850000D01*
X140717844Y-64849999D01*
X140777372Y-64843598D01*
X140777379Y-64843596D01*
X140912086Y-64793354D01*
X140912093Y-64793350D01*
X141027187Y-64707190D01*
X141027190Y-64707187D01*
X141113350Y-64592093D01*
X141113354Y-64592086D01*
X141163596Y-64457379D01*
X141163598Y-64457372D01*
X141169999Y-64397844D01*
X141170000Y-64397827D01*
X141170000Y-64371215D01*
X141189685Y-64304176D01*
X141242489Y-64258421D01*
X141311647Y-64248477D01*
X141375203Y-64277502D01*
X141394316Y-64298327D01*
X141406172Y-64314646D01*
X141545354Y-64453828D01*
X141704595Y-64569524D01*
X141769499Y-64602594D01*
X141879970Y-64658882D01*
X141879972Y-64658882D01*
X141879975Y-64658884D01*
X141972745Y-64689027D01*
X142067173Y-64719709D01*
X142261578Y-64750500D01*
X142261583Y-64750500D01*
X142458422Y-64750500D01*
X142652826Y-64719709D01*
X142677475Y-64711700D01*
X142840025Y-64658884D01*
X142919205Y-64618539D01*
X142987874Y-64605644D01*
X143052615Y-64631920D01*
X143092872Y-64689027D01*
X143099500Y-64729025D01*
X143099500Y-69960258D01*
X143079815Y-70027297D01*
X143063181Y-70047939D01*
X142547939Y-70563181D01*
X142486616Y-70596666D01*
X142460258Y-70599500D01*
X138199234Y-70599500D01*
X138052863Y-70638719D01*
X137921635Y-70714485D01*
X137921632Y-70714487D01*
X136719487Y-71916632D01*
X136719485Y-71916635D01*
X136643719Y-72047863D01*
X136604500Y-72194234D01*
X136604500Y-75431043D01*
X136584815Y-75498082D01*
X136553386Y-75531360D01*
X136397933Y-75644305D01*
X136397924Y-75644312D01*
X136264312Y-75777924D01*
X136264312Y-75777925D01*
X136264310Y-75777927D01*
X136248977Y-75799031D01*
X136153240Y-75930800D01*
X136067454Y-76099163D01*
X136027931Y-76220803D01*
X135988493Y-76278478D01*
X135924134Y-76305676D01*
X135855288Y-76293761D01*
X135803812Y-76246516D01*
X135792069Y-76220803D01*
X135752545Y-76099163D01*
X135707290Y-76010347D01*
X135666760Y-75930801D01*
X135555690Y-75777927D01*
X135422073Y-75644310D01*
X135400351Y-75628528D01*
X135266614Y-75531360D01*
X135223948Y-75476030D01*
X135215500Y-75431043D01*
X135215500Y-71589235D01*
X135215500Y-71589234D01*
X135201042Y-71535277D01*
X135176281Y-71442865D01*
X135100515Y-71311635D01*
X129861819Y-66072939D01*
X129828334Y-66011616D01*
X129825500Y-65985258D01*
X129825500Y-64654432D01*
X129845185Y-64587393D01*
X129876611Y-64554116D01*
X130014646Y-64453828D01*
X130153828Y-64314646D01*
X130269524Y-64155405D01*
X130334039Y-64028787D01*
X130359515Y-63978787D01*
X130407489Y-63927990D01*
X130475310Y-63911195D01*
X130541445Y-63933732D01*
X130580485Y-63978787D01*
X130670474Y-64155403D01*
X130705234Y-64203246D01*
X130786172Y-64314646D01*
X130925354Y-64453828D01*
X131084595Y-64569524D01*
X131149499Y-64602594D01*
X131259970Y-64658882D01*
X131259972Y-64658882D01*
X131259975Y-64658884D01*
X131352745Y-64689027D01*
X131447173Y-64719709D01*
X131641578Y-64750500D01*
X131641583Y-64750500D01*
X131838422Y-64750500D01*
X132032826Y-64719709D01*
X132057475Y-64711700D01*
X132220025Y-64658884D01*
X132395405Y-64569524D01*
X132554646Y-64453828D01*
X132693828Y-64314646D01*
X132809524Y-64155405D01*
X132898884Y-63980025D01*
X132959709Y-63792826D01*
X132971076Y-63721059D01*
X132977700Y-63679240D01*
X132990500Y-63598422D01*
X132990500Y-63401577D01*
X132959709Y-63207173D01*
X132898882Y-63019970D01*
X132835000Y-62894595D01*
X132809524Y-62844595D01*
X132693828Y-62685354D01*
X132554646Y-62546172D01*
X132424499Y-62451614D01*
X132395403Y-62430474D01*
X132218787Y-62340485D01*
X132167990Y-62292511D01*
X132151195Y-62224690D01*
X132173732Y-62158555D01*
X132218787Y-62119515D01*
X132395403Y-62029525D01*
X132395402Y-62029525D01*
X132395405Y-62029524D01*
X132554646Y-61913828D01*
X132693828Y-61774646D01*
X132809524Y-61615405D01*
X132898884Y-61440025D01*
X132959709Y-61252826D01*
X132975521Y-61152993D01*
X132990500Y-61058422D01*
X132990500Y-60861580D01*
X132990499Y-60861574D01*
X132959709Y-60667173D01*
X132898882Y-60479970D01*
X132835000Y-60354595D01*
X132809524Y-60304595D01*
X132693828Y-60145354D01*
X132554646Y-60006172D01*
X132395405Y-59890476D01*
X132220029Y-59801117D01*
X132032826Y-59740290D01*
X131838422Y-59709500D01*
X131838417Y-59709500D01*
X131641583Y-59709500D01*
X131641578Y-59709500D01*
X131447173Y-59740290D01*
X131259970Y-59801117D01*
X131084594Y-59890476D01*
X131015776Y-59940476D01*
X130925354Y-60006172D01*
X130925352Y-60006174D01*
X130925351Y-60006174D01*
X130786174Y-60145351D01*
X130786174Y-60145352D01*
X130786172Y-60145354D01*
X130749847Y-60195351D01*
X130670476Y-60304594D01*
X130580485Y-60481213D01*
X130532511Y-60532009D01*
X130464690Y-60548804D01*
X130398555Y-60526267D01*
X130359515Y-60481213D01*
X130295000Y-60354595D01*
X130269524Y-60304595D01*
X130153828Y-60145354D01*
X130014646Y-60006172D01*
X129855405Y-59890476D01*
X129680029Y-59801117D01*
X129492826Y-59740290D01*
X129298422Y-59709500D01*
X129298417Y-59709500D01*
X129101583Y-59709500D01*
X129101578Y-59709500D01*
X128907173Y-59740290D01*
X128719970Y-59801117D01*
X128544594Y-59890476D01*
X128475776Y-59940476D01*
X128385354Y-60006172D01*
X128385352Y-60006174D01*
X128385351Y-60006174D01*
X128246174Y-60145351D01*
X128246174Y-60145352D01*
X128246172Y-60145354D01*
X128209847Y-60195351D01*
X128130476Y-60304594D01*
X128040485Y-60481213D01*
X127992511Y-60532009D01*
X127924690Y-60548804D01*
X127858555Y-60526267D01*
X127819515Y-60481213D01*
X127755000Y-60354595D01*
X127729524Y-60304595D01*
X127613828Y-60145354D01*
X127474646Y-60006172D01*
X127315405Y-59890476D01*
X127140029Y-59801117D01*
X126952826Y-59740290D01*
X126758422Y-59709500D01*
X126758417Y-59709500D01*
X126561583Y-59709500D01*
X126561578Y-59709500D01*
X126367173Y-59740290D01*
X126179970Y-59801117D01*
X126004594Y-59890476D01*
X125935776Y-59940476D01*
X125845354Y-60006172D01*
X125845352Y-60006174D01*
X125845351Y-60006174D01*
X125706174Y-60145351D01*
X125706174Y-60145352D01*
X125706172Y-60145354D01*
X125669847Y-60195351D01*
X125590476Y-60304594D01*
X125500485Y-60481213D01*
X125452511Y-60532009D01*
X125384690Y-60548804D01*
X125318555Y-60526267D01*
X125279515Y-60481213D01*
X125215000Y-60354595D01*
X125189524Y-60304595D01*
X125073828Y-60145354D01*
X124934646Y-60006172D01*
X124775405Y-59890476D01*
X124600029Y-59801117D01*
X124412826Y-59740290D01*
X124218422Y-59709500D01*
X124218417Y-59709500D01*
X124021583Y-59709500D01*
X124021578Y-59709500D01*
X123827173Y-59740290D01*
X123639970Y-59801117D01*
X123464594Y-59890476D01*
X123395776Y-59940476D01*
X123305354Y-60006172D01*
X123305352Y-60006174D01*
X123305351Y-60006174D01*
X123166174Y-60145351D01*
X123166174Y-60145352D01*
X123166172Y-60145354D01*
X123129847Y-60195351D01*
X123050476Y-60304594D01*
X122960485Y-60481213D01*
X122912511Y-60532009D01*
X122844690Y-60548804D01*
X122778555Y-60526267D01*
X122739515Y-60481213D01*
X122675000Y-60354595D01*
X122649524Y-60304595D01*
X122533828Y-60145354D01*
X122394646Y-60006172D01*
X122235405Y-59890476D01*
X122060029Y-59801117D01*
X121872826Y-59740290D01*
X121678422Y-59709500D01*
X121678417Y-59709500D01*
X121481583Y-59709500D01*
X121481578Y-59709500D01*
X121287173Y-59740290D01*
X121099970Y-59801117D01*
X120924594Y-59890476D01*
X120855776Y-59940476D01*
X120765354Y-60006172D01*
X120765352Y-60006174D01*
X120765351Y-60006174D01*
X120626174Y-60145351D01*
X120626174Y-60145352D01*
X120626172Y-60145354D01*
X120589847Y-60195351D01*
X120510476Y-60304594D01*
X120420485Y-60481213D01*
X120372511Y-60532009D01*
X120304690Y-60548804D01*
X120238555Y-60526267D01*
X120199515Y-60481213D01*
X120135000Y-60354595D01*
X120109524Y-60304595D01*
X119993828Y-60145354D01*
X119854646Y-60006172D01*
X119695405Y-59890476D01*
X119520029Y-59801117D01*
X119332826Y-59740290D01*
X119138422Y-59709500D01*
X119138417Y-59709500D01*
X118941583Y-59709500D01*
X118941578Y-59709500D01*
X118747173Y-59740290D01*
X118559970Y-59801117D01*
X118384594Y-59890476D01*
X118315776Y-59940476D01*
X118225354Y-60006172D01*
X118225352Y-60006174D01*
X118225351Y-60006174D01*
X118086174Y-60145351D01*
X118086174Y-60145352D01*
X118086172Y-60145354D01*
X118028324Y-60224974D01*
X117970474Y-60304597D01*
X117936319Y-60371630D01*
X117888345Y-60422425D01*
X117820524Y-60439220D01*
X117754389Y-60416682D01*
X117715350Y-60371629D01*
X117654624Y-60252449D01*
X117615270Y-60198282D01*
X117615269Y-60198282D01*
X116982962Y-60830590D01*
X116965925Y-60767007D01*
X116900099Y-60652993D01*
X116807007Y-60559901D01*
X116692993Y-60494075D01*
X116629409Y-60477037D01*
X117261716Y-59844728D01*
X117207550Y-59805375D01*
X117018217Y-59708904D01*
X116816129Y-59643242D01*
X116606246Y-59610000D01*
X116393754Y-59610000D01*
X116183872Y-59643242D01*
X116183869Y-59643242D01*
X115981782Y-59708904D01*
X115792439Y-59805380D01*
X115738282Y-59844727D01*
X115738282Y-59844728D01*
X116370591Y-60477037D01*
X116307007Y-60494075D01*
X116192993Y-60559901D01*
X116099901Y-60652993D01*
X116034075Y-60767007D01*
X116017037Y-60830591D01*
X115384728Y-60198282D01*
X115384727Y-60198282D01*
X115345380Y-60252439D01*
X115248904Y-60441782D01*
X115183242Y-60643869D01*
X115183242Y-60643872D01*
X115150000Y-60853753D01*
X115150000Y-61066246D01*
X115183242Y-61276127D01*
X115183242Y-61276130D01*
X115248904Y-61478217D01*
X115345375Y-61667550D01*
X115384728Y-61721716D01*
X116017037Y-61089408D01*
X116034075Y-61152993D01*
X116099901Y-61267007D01*
X116192993Y-61360099D01*
X116307007Y-61425925D01*
X116370590Y-61442962D01*
X115701195Y-62112356D01*
X115639872Y-62145841D01*
X115625167Y-62144924D01*
X115625444Y-62147497D01*
X115542626Y-62156401D01*
X115542619Y-62156403D01*
X115407913Y-62206645D01*
X115407906Y-62206649D01*
X115292812Y-62292809D01*
X115292809Y-62292812D01*
X115206649Y-62407906D01*
X115206645Y-62407913D01*
X115156403Y-62542620D01*
X115156401Y-62542627D01*
X115150000Y-62602155D01*
X115150000Y-63250000D01*
X116066988Y-63250000D01*
X116034075Y-63307007D01*
X116000000Y-63434174D01*
X116000000Y-63565826D01*
X116034075Y-63692993D01*
X116066988Y-63750000D01*
X115150000Y-63750000D01*
X115150000Y-64397844D01*
X115156401Y-64457372D01*
X115156403Y-64457379D01*
X115206645Y-64592086D01*
X115206649Y-64592093D01*
X115292809Y-64707187D01*
X115292812Y-64707190D01*
X115407906Y-64793350D01*
X115407913Y-64793354D01*
X115542620Y-64843596D01*
X115542627Y-64843598D01*
X115602155Y-64849999D01*
X115602172Y-64850000D01*
X116250000Y-64850000D01*
X116250000Y-63933012D01*
X116307007Y-63965925D01*
X116434174Y-64000000D01*
X116565826Y-64000000D01*
X116692993Y-63965925D01*
X116750000Y-63933012D01*
X116750000Y-64850000D01*
X117050500Y-64850000D01*
X117059185Y-64852550D01*
X117068147Y-64851262D01*
X117092187Y-64862240D01*
X117117539Y-64869685D01*
X117123466Y-64876525D01*
X117131703Y-64880287D01*
X117145992Y-64902521D01*
X117163294Y-64922489D01*
X117165581Y-64933003D01*
X117169477Y-64939065D01*
X117174500Y-64974000D01*
X117174500Y-65085258D01*
X117154815Y-65152297D01*
X117138181Y-65172939D01*
X111289487Y-71021632D01*
X111289485Y-71021635D01*
X111213719Y-71152863D01*
X111174500Y-71299234D01*
X111174500Y-75452840D01*
X111154815Y-75519879D01*
X111123386Y-75553158D01*
X110997925Y-75644311D01*
X110864312Y-75777924D01*
X110864312Y-75777925D01*
X110864310Y-75777927D01*
X110848977Y-75799031D01*
X110753240Y-75930800D01*
X110667454Y-76099163D01*
X110627931Y-76220803D01*
X110588493Y-76278478D01*
X110524134Y-76305676D01*
X110455288Y-76293761D01*
X110403812Y-76246516D01*
X110392069Y-76220803D01*
X110352545Y-76099163D01*
X110307290Y-76010347D01*
X110266760Y-75930801D01*
X110155690Y-75777927D01*
X110022073Y-75644310D01*
X109869199Y-75533240D01*
X109853200Y-75525088D01*
X109700836Y-75447454D01*
X109521118Y-75389059D01*
X109334486Y-75359500D01*
X109334481Y-75359500D01*
X109145519Y-75359500D01*
X109145514Y-75359500D01*
X108958881Y-75389059D01*
X108779163Y-75447454D01*
X108610800Y-75533240D01*
X108523579Y-75596610D01*
X108457927Y-75644310D01*
X108457925Y-75644312D01*
X108457924Y-75644312D01*
X108324312Y-75777924D01*
X108324312Y-75777925D01*
X108324310Y-75777927D01*
X108308977Y-75799031D01*
X108213240Y-75930800D01*
X108127454Y-76099163D01*
X108069059Y-76278881D01*
X108039500Y-76465513D01*
X105025500Y-76465513D01*
X105025500Y-73097682D01*
X105550000Y-73097682D01*
X105550000Y-73302317D01*
X105582009Y-73504417D01*
X105645244Y-73699031D01*
X105738141Y-73881350D01*
X105738147Y-73881359D01*
X105770523Y-73925921D01*
X105770524Y-73925922D01*
X106450000Y-73246446D01*
X106450000Y-73252661D01*
X106477259Y-73354394D01*
X106529920Y-73445606D01*
X106604394Y-73520080D01*
X106695606Y-73572741D01*
X106797339Y-73600000D01*
X106803553Y-73600000D01*
X106124076Y-74279474D01*
X106168650Y-74311859D01*
X106350968Y-74404755D01*
X106545582Y-74467990D01*
X106747683Y-74500000D01*
X106952317Y-74500000D01*
X107154417Y-74467990D01*
X107349031Y-74404755D01*
X107531349Y-74311859D01*
X107575921Y-74279474D01*
X106896447Y-73600000D01*
X106902661Y-73600000D01*
X107004394Y-73572741D01*
X107095606Y-73520080D01*
X107170080Y-73445606D01*
X107222741Y-73354394D01*
X107250000Y-73252661D01*
X107250000Y-73246448D01*
X107929474Y-73925922D01*
X107929474Y-73925921D01*
X107961861Y-73881347D01*
X107961861Y-73881346D01*
X108045350Y-73717489D01*
X108093324Y-73666693D01*
X108161145Y-73649897D01*
X108227280Y-73672434D01*
X108266320Y-73717488D01*
X108301747Y-73787016D01*
X108323240Y-73829199D01*
X108434310Y-73982073D01*
X108567927Y-74115690D01*
X108720801Y-74226760D01*
X108800347Y-74267290D01*
X108889163Y-74312545D01*
X108889165Y-74312545D01*
X108889168Y-74312547D01*
X108985497Y-74343846D01*
X109068881Y-74370940D01*
X109255514Y-74400500D01*
X109255519Y-74400500D01*
X109444486Y-74400500D01*
X109631118Y-74370940D01*
X109810832Y-74312547D01*
X109979199Y-74226760D01*
X110132073Y-74115690D01*
X110265690Y-73982073D01*
X110376760Y-73829199D01*
X110462547Y-73660832D01*
X110520940Y-73481118D01*
X110550500Y-73294486D01*
X110550500Y-73105513D01*
X110520940Y-72918881D01*
X110482312Y-72799999D01*
X110462547Y-72739168D01*
X110462545Y-72739165D01*
X110462545Y-72739163D01*
X110406792Y-72629742D01*
X110376760Y-72570801D01*
X110265690Y-72417927D01*
X110132073Y-72284310D01*
X109979199Y-72173240D01*
X109974410Y-72170800D01*
X109810836Y-72087454D01*
X109631118Y-72029059D01*
X109444486Y-71999500D01*
X109444481Y-71999500D01*
X109255519Y-71999500D01*
X109255514Y-71999500D01*
X109068881Y-72029059D01*
X108889163Y-72087454D01*
X108720800Y-72173240D01*
X108691905Y-72194234D01*
X108567927Y-72284310D01*
X108567925Y-72284312D01*
X108567924Y-72284312D01*
X108434312Y-72417924D01*
X108434312Y-72417925D01*
X108434310Y-72417927D01*
X108389269Y-72479920D01*
X108323238Y-72570803D01*
X108266319Y-72682512D01*
X108218345Y-72733307D01*
X108150524Y-72750102D01*
X108084389Y-72727564D01*
X108045350Y-72682510D01*
X107961861Y-72518652D01*
X107929474Y-72474077D01*
X107929474Y-72474076D01*
X107250000Y-73153551D01*
X107250000Y-73147339D01*
X107222741Y-73045606D01*
X107170080Y-72954394D01*
X107095606Y-72879920D01*
X107004394Y-72827259D01*
X106902661Y-72800000D01*
X106896446Y-72800000D01*
X107575922Y-72120524D01*
X107575921Y-72120523D01*
X107531359Y-72088147D01*
X107531350Y-72088141D01*
X107349031Y-71995244D01*
X107154417Y-71932009D01*
X106952317Y-71900000D01*
X106747683Y-71900000D01*
X106545582Y-71932009D01*
X106350968Y-71995244D01*
X106168644Y-72088143D01*
X106124077Y-72120523D01*
X106124077Y-72120524D01*
X106803554Y-72800000D01*
X106797339Y-72800000D01*
X106695606Y-72827259D01*
X106604394Y-72879920D01*
X106529920Y-72954394D01*
X106477259Y-73045606D01*
X106450000Y-73147339D01*
X106450000Y-73153553D01*
X105770524Y-72474077D01*
X105770523Y-72474077D01*
X105738143Y-72518644D01*
X105645244Y-72700968D01*
X105582009Y-72895582D01*
X105550000Y-73097682D01*
X105025500Y-73097682D01*
X105025500Y-59385258D01*
X106499500Y-59385258D01*
X106499500Y-59614741D01*
X106511976Y-59709500D01*
X106529452Y-59842238D01*
X106573378Y-60006174D01*
X106588842Y-60063887D01*
X106676650Y-60275876D01*
X106676656Y-60275888D01*
X106770955Y-60439220D01*
X106791392Y-60474617D01*
X106931081Y-60656661D01*
X106931089Y-60656670D01*
X107093330Y-60818911D01*
X107093338Y-60818918D01*
X107275382Y-60958607D01*
X107275385Y-60958608D01*
X107275388Y-60958611D01*
X107474112Y-61073344D01*
X107474117Y-61073346D01*
X107474123Y-61073349D01*
X107558785Y-61108417D01*
X107686113Y-61161158D01*
X107907762Y-61220548D01*
X108135266Y-61250500D01*
X108135273Y-61250500D01*
X108364727Y-61250500D01*
X108364734Y-61250500D01*
X108592238Y-61220548D01*
X108813887Y-61161158D01*
X109025888Y-61073344D01*
X109224612Y-60958611D01*
X109406661Y-60818919D01*
X109406665Y-60818914D01*
X109406670Y-60818911D01*
X109568911Y-60656670D01*
X109568914Y-60656665D01*
X109568919Y-60656661D01*
X109708611Y-60474612D01*
X109823344Y-60275888D01*
X109911158Y-60063887D01*
X109970548Y-59842238D01*
X110000500Y-59614734D01*
X110000500Y-59385266D01*
X110000499Y-59385258D01*
X199249500Y-59385258D01*
X199249500Y-59614741D01*
X199261976Y-59709500D01*
X199279452Y-59842238D01*
X199323378Y-60006174D01*
X199338842Y-60063887D01*
X199426650Y-60275876D01*
X199426656Y-60275888D01*
X199520955Y-60439220D01*
X199541392Y-60474617D01*
X199681081Y-60656661D01*
X199681089Y-60656670D01*
X199843330Y-60818911D01*
X199843338Y-60818918D01*
X200025382Y-60958607D01*
X200025385Y-60958608D01*
X200025388Y-60958611D01*
X200224112Y-61073344D01*
X200224117Y-61073346D01*
X200224123Y-61073349D01*
X200308785Y-61108417D01*
X200436113Y-61161158D01*
X200657762Y-61220548D01*
X200885266Y-61250500D01*
X200885273Y-61250500D01*
X201114727Y-61250500D01*
X201114734Y-61250500D01*
X201342238Y-61220548D01*
X201563887Y-61161158D01*
X201775888Y-61073344D01*
X201974612Y-60958611D01*
X202156661Y-60818919D01*
X202156665Y-60818914D01*
X202156670Y-60818911D01*
X202318911Y-60656670D01*
X202318914Y-60656665D01*
X202318919Y-60656661D01*
X202458611Y-60474612D01*
X202573344Y-60275888D01*
X202661158Y-60063887D01*
X202720548Y-59842238D01*
X202750500Y-59614734D01*
X202750500Y-59385266D01*
X202720548Y-59157762D01*
X202661158Y-58936113D01*
X202573344Y-58724112D01*
X202458611Y-58525388D01*
X202458608Y-58525385D01*
X202458607Y-58525382D01*
X202318918Y-58343338D01*
X202318911Y-58343330D01*
X202156670Y-58181089D01*
X202156661Y-58181081D01*
X201974617Y-58041392D01*
X201775890Y-57926657D01*
X201775876Y-57926650D01*
X201563887Y-57838842D01*
X201342238Y-57779452D01*
X201304215Y-57774446D01*
X201114741Y-57749500D01*
X201114734Y-57749500D01*
X200885266Y-57749500D01*
X200885258Y-57749500D01*
X200668715Y-57778009D01*
X200657762Y-57779452D01*
X200564076Y-57804554D01*
X200436112Y-57838842D01*
X200224123Y-57926650D01*
X200224109Y-57926657D01*
X200025382Y-58041392D01*
X199843338Y-58181081D01*
X199681081Y-58343338D01*
X199541392Y-58525382D01*
X199426657Y-58724109D01*
X199426650Y-58724123D01*
X199338842Y-58936112D01*
X199279453Y-59157759D01*
X199279451Y-59157770D01*
X199249500Y-59385258D01*
X110000499Y-59385258D01*
X109970548Y-59157762D01*
X109911158Y-58936113D01*
X109823344Y-58724112D01*
X109708611Y-58525388D01*
X109708608Y-58525385D01*
X109708607Y-58525382D01*
X109568918Y-58343338D01*
X109568911Y-58343330D01*
X109406670Y-58181089D01*
X109406661Y-58181081D01*
X109224617Y-58041392D01*
X109025890Y-57926657D01*
X109025876Y-57926650D01*
X108813887Y-57838842D01*
X108592238Y-57779452D01*
X108554215Y-57774446D01*
X108364741Y-57749500D01*
X108364734Y-57749500D01*
X108135266Y-57749500D01*
X108135258Y-57749500D01*
X107918715Y-57778009D01*
X107907762Y-57779452D01*
X107814076Y-57804554D01*
X107686112Y-57838842D01*
X107474123Y-57926650D01*
X107474109Y-57926657D01*
X107275382Y-58041392D01*
X107093338Y-58181081D01*
X106931081Y-58343338D01*
X106791392Y-58525382D01*
X106676657Y-58724109D01*
X106676650Y-58724123D01*
X106588842Y-58936112D01*
X106529453Y-59157759D01*
X106529451Y-59157770D01*
X106499500Y-59385258D01*
X105025500Y-59385258D01*
X105025500Y-55214500D01*
X105045185Y-55147461D01*
X105097989Y-55101706D01*
X105149500Y-55090500D01*
X203900500Y-55090500D01*
X203967539Y-55110185D01*
G37*
%TD.AperFunction*%
%TD*%
M02*
