M48
; DRILL file {KiCad 9.0.7} date 2026-03-29T12:42:39+0200
; FORMAT={-:-/ absolute / inch / decimal}
; #@! TF.CreationDate,2026-03-29T12:42:39+02:00
; #@! TF.GenerationSoftware,Kicad,Pcbnew,9.0.7
; #@! TF.FileFunction,Plated,1,2,PTH
FMAT,2
INCH
; #@! TA.AperFunction,Plated,PTH,ViaDrill
T1C0.0118
; #@! TA.AperFunction,Plated,PTH,ComponentDrill
T2C0.0315
; #@! TA.AperFunction,Plated,PTH,ComponentDrill
T3C0.0394
%
G90
G05
T1
X6.1516Y-3.1437
X6.4646Y-3.7559
X6.4882Y-3.4921
X6.5157Y-2.6988
X6.7323Y-2.4528
X7.2589Y-2.9301
X7.3425Y-2.6791
X7.8102Y-2.6299
T2
X4.2067Y-2.8819
X4.3008Y-3.0142
X4.3008Y-3.6142
X4.3051Y-2.8819
X4.4008Y-3.0142
X4.4008Y-3.6142
X4.5008Y-3.0142
X4.5008Y-3.6142
X4.6008Y-3.0142
X4.6008Y-3.6142
X4.7008Y-3.0142
X4.7008Y-3.6142
X4.8008Y-3.0142
X4.8008Y-3.6142
X4.9008Y-3.0142
X4.9008Y-3.6142
X5.0008Y-3.0142
X5.0008Y-3.6142
X5.1008Y-3.0142
X5.1008Y-3.6142
X5.2008Y-3.0142
X5.2008Y-3.6142
X5.3008Y-3.0142
X5.3008Y-3.6142
X5.4008Y-3.0142
X5.4008Y-3.6142
X5.5008Y-3.0142
X5.5008Y-3.6142
X5.6008Y-3.0142
X5.6008Y-3.6142
X5.7008Y-3.0142
X5.7008Y-3.6142
X5.8008Y-3.0142
X5.8008Y-3.6142
X5.9008Y-3.0142
X5.9008Y-3.6142
X6.0008Y-3.0142
X6.0008Y-3.6142
X6.1008Y-3.0142
X6.1008Y-3.6142
X6.2008Y-3.0142
X6.2008Y-3.6142
X6.292Y-3.922
X6.3905Y-3.922
X6.8307Y-3.187
X6.8307Y-3.287
X6.8307Y-3.387
X6.8307Y-3.487
X6.8307Y-3.587
X6.8307Y-3.687
X6.8307Y-3.787
X6.8898Y-2.9646
X7.0866Y-2.9646
X7.1307Y-3.187
X7.1307Y-3.287
X7.1307Y-3.387
X7.1307Y-3.487
X7.1307Y-3.587
X7.1307Y-3.687
X7.1307Y-3.787
X7.4683Y-3.087
X7.4683Y-3.187
X7.4683Y-3.287
X7.4683Y-3.387
X7.4683Y-3.487
X7.4683Y-3.587
X7.4683Y-3.687
X7.4683Y-3.787
X7.5295Y-2.8661
X7.7264Y-2.8661
X7.7683Y-3.087
X7.7683Y-3.187
X7.7683Y-3.287
X7.7683Y-3.387
X7.7683Y-3.487
X7.7683Y-3.587
X7.7683Y-3.687
X7.7683Y-3.787
T3
X4.1831Y-4.2717
X4.2831Y-4.2717
X4.3831Y-4.2717
X4.4831Y-4.2717
X4.5831Y-4.2717
X4.5866Y-2.4
X4.5866Y-2.5
X4.6831Y-4.2717
X4.6866Y-2.4
X4.6866Y-2.5
X4.7831Y-4.2717
X4.7866Y-2.4
X4.7866Y-2.5
X4.8831Y-4.2717
X4.8866Y-2.4
X4.8866Y-2.5
X4.9831Y-4.2717
X4.9866Y-2.4
X4.9866Y-2.5
X5.0831Y-4.2717
X5.0866Y-2.4
X5.0866Y-2.5
X5.1831Y-4.2717
X5.1866Y-2.4
X5.1866Y-2.5
X5.2831Y-4.2717
X5.3831Y-4.2717
X5.4831Y-4.2717
X5.5047Y-2.4
X5.5047Y-2.5
X5.5831Y-4.2717
X5.6047Y-2.4
X5.6047Y-2.5
X5.6831Y-4.2717
X5.7047Y-2.4
X5.7047Y-2.5
X5.7831Y-4.2717
X5.8047Y-2.4
X5.8047Y-2.5
X5.8831Y-4.2717
X5.9047Y-2.4
X5.9047Y-2.5
X5.9831Y-4.2717
X6.0047Y-2.4
X6.0047Y-2.5
X6.0831Y-4.2717
X6.1047Y-2.4
X6.1047Y-2.5
X6.1831Y-4.2717
X6.2831Y-4.2717
X6.3831Y-4.2717
X6.4831Y-4.2717
X6.5831Y-4.2717
X6.6831Y-4.2717
X6.7831Y-4.2717
X6.8831Y-4.2717
X6.9831Y-4.2717
X7.0638Y-2.402
X7.0638Y-2.502
X7.0831Y-4.2717
X7.1638Y-2.402
X7.1638Y-2.502
X7.1831Y-4.2717
X7.2638Y-2.402
X7.2638Y-2.502
X7.2831Y-4.2717
X7.3638Y-2.402
X7.3638Y-2.502
X7.3831Y-4.2717
X7.4638Y-2.402
X7.4638Y-2.502
X7.4831Y-4.2717
X7.5831Y-4.2717
X7.6831Y-4.2717
X7.7831Y-4.2717
X7.8831Y-4.2717
X7.9831Y-4.2717
M30
