%TF.GenerationSoftware,KiCad,Pcbnew,9.0.7*%
%TF.CreationDate,2026-03-29T12:42:13+02:00*%
%TF.ProjectId,RC6502_6821_PIA_IO,52433635-3032-45f3-9638-32315f504941,1*%
%TF.SameCoordinates,Original*%
%TF.FileFunction,Copper,L1,Top*%
%TF.FilePolarity,Positive*%
%FSLAX46Y46*%
G04 Gerber Fmt 4.6, Leading zero omitted, Abs format (unit mm)*
G04 Created by KiCad (PCBNEW 9.0.7) date 2026-03-29 12:42:13*
%MOMM*%
%LPD*%
G01*
G04 APERTURE LIST*
G04 Aperture macros list*
%AMRoundRect*
0 Rectangle with rounded corners*
0 $1 Rounding radius*
0 $2 $3 $4 $5 $6 $7 $8 $9 X,Y pos of 4 corners*
0 Add a 4 corners polygon primitive as box body*
4,1,4,$2,$3,$4,$5,$6,$7,$8,$9,$2,$3,0*
0 Add four circle primitives for the rounded corners*
1,1,$1+$1,$2,$3*
1,1,$1+$1,$4,$5*
1,1,$1+$1,$6,$7*
1,1,$1+$1,$8,$9*
0 Add four rect primitives between the rounded corners*
20,1,$1+$1,$2,$3,$4,$5,0*
20,1,$1+$1,$4,$5,$6,$7,0*
20,1,$1+$1,$6,$7,$8,$9,0*
20,1,$1+$1,$8,$9,$2,$3,0*%
G04 Aperture macros list end*
%TA.AperFunction,ComponentPad*%
%ADD10C,1.600000*%
%TD*%
%TA.AperFunction,ComponentPad*%
%ADD11RoundRect,0.250000X-0.550000X-0.550000X0.550000X-0.550000X0.550000X0.550000X-0.550000X0.550000X0*%
%TD*%
%TA.AperFunction,ComponentPad*%
%ADD12RoundRect,0.250000X-0.550000X0.550000X-0.550000X-0.550000X0.550000X-0.550000X0.550000X0.550000X0*%
%TD*%
%TA.AperFunction,ComponentPad*%
%ADD13R,1.700000X1.700000*%
%TD*%
%TA.AperFunction,ComponentPad*%
%ADD14C,1.700000*%
%TD*%
%TA.AperFunction,ViaPad*%
%ADD15C,0.600000*%
%TD*%
%TA.AperFunction,Conductor*%
%ADD16C,0.500000*%
%TD*%
%TA.AperFunction,Conductor*%
%ADD17C,0.200000*%
%TD*%
%TA.AperFunction,Conductor*%
%ADD18C,0.350000*%
%TD*%
%TA.AperFunction,Conductor*%
%ADD19C,0.300000*%
%TD*%
G04 APERTURE END LIST*
D10*
%TO.P,C2,1*%
%TO.N,VCC*%
X109350000Y-73200000D03*
%TO.P,C2,2*%
%TO.N,GND*%
X106850000Y-73200000D03*
%TD*%
D11*
%TO.P,U1,1,A0*%
%TO.N,A12*%
X189695000Y-78410000D03*
D10*
%TO.P,U1,2,A1*%
%TO.N,A13*%
X189695000Y-80950000D03*
%TO.P,U1,3,A2*%
%TO.N,A14*%
X189695000Y-83490000D03*
%TO.P,U1,4,E1*%
%TO.N,A10*%
X189695000Y-86030000D03*
%TO.P,U1,5,E2*%
%TO.N,A11*%
X189695000Y-88570000D03*
%TO.P,U1,6,E3*%
%TO.N,A15*%
X189695000Y-91110000D03*
%TO.P,U1,7,O7*%
%TO.N,unconnected-(U1-O7-Pad7)*%
X189695000Y-93650000D03*
%TO.P,U1,8,GND*%
%TO.N,GND*%
X189695000Y-96190000D03*
%TO.P,U1,9,O6*%
%TO.N,unconnected-(U1-O6-Pad9)*%
X197315000Y-96190000D03*
%TO.P,U1,10,O5*%
%TO.N,unconnected-(U1-O5-Pad10)*%
X197315000Y-93650000D03*
%TO.P,U1,11,O4*%
%TO.N,Net-(J4-Pin_10)*%
X197315000Y-91110000D03*
%TO.P,U1,12,O3*%
%TO.N,Net-(J4-Pin_8)*%
X197315000Y-88570000D03*
%TO.P,U1,13,O2*%
%TO.N,Net-(J4-Pin_6)*%
X197315000Y-86030000D03*
%TO.P,U1,14,O1*%
%TO.N,Net-(J4-Pin_4)*%
X197315000Y-83490000D03*
%TO.P,U1,15,O0*%
%TO.N,Net-(J4-Pin_2)*%
X197315000Y-80950000D03*
%TO.P,U1,16,VCC*%
%TO.N,VCC*%
X197315000Y-78410000D03*
%TD*%
D12*
%TO.P,U2,1,VSS*%
%TO.N,GND*%
X157500000Y-76560000D03*
D10*
%TO.P,U2,2,PA0*%
%TO.N,/PA0*%
X154960000Y-76560000D03*
%TO.P,U2,3,PA1*%
%TO.N,/PA1*%
X152420000Y-76560000D03*
%TO.P,U2,4,PA2*%
%TO.N,/PA2*%
X149880000Y-76560000D03*
%TO.P,U2,5,PA3*%
%TO.N,/PA3*%
X147340000Y-76560000D03*
%TO.P,U2,6,PA4*%
%TO.N,/PA4*%
X144800000Y-76560000D03*
%TO.P,U2,7,PA5*%
%TO.N,/PA5*%
X142260000Y-76560000D03*
%TO.P,U2,8,PA6*%
%TO.N,/PA6*%
X139720000Y-76560000D03*
%TO.P,U2,9,PA7*%
%TO.N,/PA7*%
X137180000Y-76560000D03*
%TO.P,U2,10,PB0*%
%TO.N,/PB0*%
X134640000Y-76560000D03*
%TO.P,U2,11,PB1*%
%TO.N,/PB1*%
X132100000Y-76560000D03*
%TO.P,U2,12,PB2*%
%TO.N,/PB2*%
X129560000Y-76560000D03*
%TO.P,U2,13,PB3*%
%TO.N,/PB3*%
X127020000Y-76560000D03*
%TO.P,U2,14,PB4*%
%TO.N,/PB4*%
X124480000Y-76560000D03*
%TO.P,U2,15,PB5*%
%TO.N,/PB5*%
X121940000Y-76560000D03*
%TO.P,U2,16,PB6*%
%TO.N,/PB6*%
X119400000Y-76560000D03*
%TO.P,U2,17,PB7*%
%TO.N,/PB7*%
X116860000Y-76560000D03*
%TO.P,U2,18,CB1*%
%TO.N,/CB1*%
X114320000Y-76560000D03*
%TO.P,U2,19,CB2*%
%TO.N,/CB2*%
X111780000Y-76560000D03*
%TO.P,U2,20,VCC*%
%TO.N,VCC*%
X109240000Y-76560000D03*
%TO.P,U2,21,R/~{W}*%
%TO.N,RW*%
X109240000Y-91800000D03*
%TO.P,U2,22,CS0*%
%TO.N,VCC*%
X111780000Y-91800000D03*
%TO.P,U2,23,~{CS2}*%
%TO.N,Net-(J4-Pin_1)*%
X114320000Y-91800000D03*
%TO.P,U2,24,CS1*%
%TO.N,Net-(U2-CS1)*%
X116860000Y-91800000D03*
%TO.P,U2,25,ENABLE*%
%TO.N,PHI2*%
X119400000Y-91800000D03*
%TO.P,U2,26,D7*%
%TO.N,D7*%
X121940000Y-91800000D03*
%TO.P,U2,27,D6*%
%TO.N,D6*%
X124480000Y-91800000D03*
%TO.P,U2,28,D5*%
%TO.N,D5*%
X127020000Y-91800000D03*
%TO.P,U2,29,D4*%
%TO.N,D4*%
X129560000Y-91800000D03*
%TO.P,U2,30,D3*%
%TO.N,D3*%
X132100000Y-91800000D03*
%TO.P,U2,31,D2*%
%TO.N,D2*%
X134640000Y-91800000D03*
%TO.P,U2,32,D1*%
%TO.N,D1*%
X137180000Y-91800000D03*
%TO.P,U2,33,D0*%
%TO.N,D0*%
X139720000Y-91800000D03*
%TO.P,U2,34,~{RESET}*%
%TO.N,RESET*%
X142260000Y-91800000D03*
%TO.P,U2,35,RS1*%
%TO.N,A1*%
X144800000Y-91800000D03*
%TO.P,U2,36,RS0*%
%TO.N,A0*%
X147340000Y-91800000D03*
%TO.P,U2,37,~{IRQB}*%
%TO.N,unconnected-(U2-~{IRQB}-Pad37)*%
X149880000Y-91800000D03*
%TO.P,U2,38,~{IRQA}*%
%TO.N,unconnected-(U2-~{IRQA}-Pad38)*%
X152420000Y-91800000D03*
%TO.P,U2,39,CA2*%
%TO.N,/CA2*%
X154960000Y-91800000D03*
%TO.P,U2,40,CA1*%
%TO.N,/CA1*%
X157500000Y-91800000D03*
%TD*%
%TO.P,C4,1*%
%TO.N,VCC*%
X196250000Y-72800000D03*
%TO.P,C4,2*%
%TO.N,GND*%
X191250000Y-72800000D03*
%TD*%
D13*
%TO.P,J3,1,Pin_1*%
%TO.N,GND*%
X116500000Y-63500000D03*
D14*
%TO.P,J3,2,Pin_2*%
X116500000Y-60960000D03*
%TO.P,J3,3,Pin_3*%
%TO.N,/CB1*%
X119040000Y-63500000D03*
%TO.P,J3,4,Pin_4*%
%TO.N,/CB2*%
X119040000Y-60960000D03*
%TO.P,J3,5,Pin_5*%
%TO.N,/PB6*%
X121580000Y-63500000D03*
%TO.P,J3,6,Pin_6*%
%TO.N,/PB7*%
X121580000Y-60960000D03*
%TO.P,J3,7,Pin_7*%
%TO.N,/PB4*%
X124120000Y-63500000D03*
%TO.P,J3,8,Pin_8*%
%TO.N,/PB5*%
X124120000Y-60960000D03*
%TO.P,J3,9,Pin_9*%
%TO.N,/PB2*%
X126660000Y-63500000D03*
%TO.P,J3,10,Pin_10*%
%TO.N,/PB3*%
X126660000Y-60960000D03*
%TO.P,J3,11,Pin_11*%
%TO.N,/PB0*%
X129200000Y-63500000D03*
%TO.P,J3,12,Pin_12*%
%TO.N,/PB1*%
X129200000Y-60960000D03*
%TO.P,J3,13,Pin_13*%
%TO.N,VCC*%
X131740000Y-63500000D03*
%TO.P,J3,14,Pin_14*%
X131740000Y-60960000D03*
%TD*%
D11*
%TO.P,C1,1*%
%TO.N,VCC*%
X159817621Y-99617621D03*
D10*
%TO.P,C1,2*%
%TO.N,GND*%
X162317621Y-99617621D03*
%TD*%
D13*
%TO.P,J2,1,Pin_1*%
%TO.N,GND*%
X139820000Y-63500000D03*
D14*
%TO.P,J2,2,Pin_2*%
X139820000Y-60960000D03*
%TO.P,J2,3,Pin_3*%
%TO.N,/CA1*%
X142360000Y-63500000D03*
%TO.P,J2,4,Pin_4*%
%TO.N,/CA2*%
X142360000Y-60960000D03*
%TO.P,J2,5,Pin_5*%
%TO.N,/PA6*%
X144900000Y-63500000D03*
%TO.P,J2,6,Pin_6*%
%TO.N,/PA7*%
X144900000Y-60960000D03*
%TO.P,J2,7,Pin_7*%
%TO.N,/PA4*%
X147440000Y-63500000D03*
%TO.P,J2,8,Pin_8*%
%TO.N,/PA5*%
X147440000Y-60960000D03*
%TO.P,J2,9,Pin_9*%
%TO.N,/PA2*%
X149980000Y-63500000D03*
%TO.P,J2,10,Pin_10*%
%TO.N,/PA3*%
X149980000Y-60960000D03*
%TO.P,J2,11,Pin_11*%
%TO.N,/PA0*%
X152520000Y-63500000D03*
%TO.P,J2,12,Pin_12*%
%TO.N,/PA1*%
X152520000Y-60960000D03*
%TO.P,J2,13,Pin_13*%
%TO.N,VCC*%
X155060000Y-63500000D03*
%TO.P,J2,14,Pin_14*%
X155060000Y-60960000D03*
%TD*%
D10*
%TO.P,C3,1*%
%TO.N,VCC*%
X180000000Y-75300000D03*
%TO.P,C3,2*%
%TO.N,GND*%
X175000000Y-75300000D03*
%TD*%
D11*
%TO.P,U3,1*%
%TO.N,unconnected-(U3-Pad1)*%
X173500000Y-80950000D03*
D10*
%TO.P,U3,2*%
%TO.N,A2*%
X173500000Y-83490000D03*
%TO.P,U3,3*%
%TO.N,A3*%
X173500000Y-86030000D03*
%TO.P,U3,4*%
%TO.N,A4*%
X173500000Y-88570000D03*
%TO.P,U3,5*%
%TO.N,A5*%
X173500000Y-91110000D03*
%TO.P,U3,6*%
%TO.N,unconnected-(U3-Pad6)*%
X173500000Y-93650000D03*
%TO.P,U3,7,Vss*%
%TO.N,GND*%
X173500000Y-96190000D03*
%TO.P,U3,8*%
%TO.N,unconnected-(U3-Pad8)*%
X181120000Y-96190000D03*
%TO.P,U3,9*%
%TO.N,A6*%
X181120000Y-93650000D03*
%TO.P,U3,10*%
%TO.N,A7*%
X181120000Y-91110000D03*
%TO.P,U3,11*%
%TO.N,A8*%
X181120000Y-88570000D03*
%TO.P,U3,12*%
%TO.N,A9*%
X181120000Y-86030000D03*
%TO.P,U3,13*%
%TO.N,Net-(U2-CS1)*%
X181120000Y-83490000D03*
%TO.P,U3,14,Vdd*%
%TO.N,VCC*%
X181120000Y-80950000D03*
%TD*%
D13*
%TO.P,J1,1,Pin_1*%
%TO.N,A15*%
X202770000Y-108500000D03*
D14*
%TO.P,J1,2,Pin_2*%
%TO.N,A14*%
X200230000Y-108500000D03*
%TO.P,J1,3,Pin_3*%
%TO.N,A13*%
X197690000Y-108500000D03*
%TO.P,J1,4,Pin_4*%
%TO.N,A12*%
X195150000Y-108500000D03*
%TO.P,J1,5,Pin_5*%
%TO.N,A11*%
X192610000Y-108500000D03*
%TO.P,J1,6,Pin_6*%
%TO.N,A10*%
X190070000Y-108500000D03*
%TO.P,J1,7,Pin_7*%
%TO.N,A9*%
X187530000Y-108500000D03*
%TO.P,J1,8,Pin_8*%
%TO.N,A8*%
X184990000Y-108500000D03*
%TO.P,J1,9,Pin_9*%
%TO.N,A7*%
X182450000Y-108500000D03*
%TO.P,J1,10,Pin_10*%
%TO.N,A6*%
X179910000Y-108500000D03*
%TO.P,J1,11,Pin_11*%
%TO.N,A5*%
X177370000Y-108500000D03*
%TO.P,J1,12,Pin_12*%
%TO.N,A4*%
X174830000Y-108500000D03*
%TO.P,J1,13,Pin_13*%
%TO.N,A3*%
X172290000Y-108500000D03*
%TO.P,J1,14,Pin_14*%
%TO.N,A2*%
X169750000Y-108500000D03*
%TO.P,J1,15,Pin_15*%
%TO.N,A1*%
X167210000Y-108500000D03*
%TO.P,J1,16,Pin_16*%
%TO.N,A0*%
X164670000Y-108500000D03*
%TO.P,J1,17,Pin_17*%
%TO.N,GND*%
X162130000Y-108500000D03*
%TO.P,J1,18,Pin_18*%
%TO.N,VCC*%
X159590000Y-108500000D03*
%TO.P,J1,19,Pin_19*%
%TO.N,PHI2*%
X157050000Y-108500000D03*
%TO.P,J1,20,Pin_20*%
%TO.N,RESET*%
X154510000Y-108500000D03*
%TO.P,J1,21,Pin_21*%
%TO.N,unconnected-(J1-Pin_21-Pad21)*%
X151970000Y-108500000D03*
%TO.P,J1,22,Pin_22*%
%TO.N,unconnected-(J1-Pin_22-Pad22)*%
X149430000Y-108500000D03*
%TO.P,J1,23,Pin_23*%
%TO.N,unconnected-(J1-Pin_23-Pad23)*%
X146890000Y-108500000D03*
%TO.P,J1,24,Pin_24*%
%TO.N,RW*%
X144350000Y-108500000D03*
%TO.P,J1,25,Pin_25*%
%TO.N,unconnected-(J1-Pin_25-Pad25)*%
X141810000Y-108500000D03*
%TO.P,J1,26,Pin_26*%
%TO.N,unconnected-(J1-Pin_26-Pad26)*%
X139270000Y-108500000D03*
%TO.P,J1,27,Pin_27*%
%TO.N,D0*%
X136730000Y-108500000D03*
%TO.P,J1,28,Pin_28*%
%TO.N,D1*%
X134190000Y-108500000D03*
%TO.P,J1,29,Pin_29*%
%TO.N,D2*%
X131650000Y-108500000D03*
%TO.P,J1,30,Pin_30*%
%TO.N,D3*%
X129110000Y-108500000D03*
%TO.P,J1,31,Pin_31*%
%TO.N,D4*%
X126570000Y-108500000D03*
%TO.P,J1,32,Pin_32*%
%TO.N,D5*%
X124030000Y-108500000D03*
%TO.P,J1,33,Pin_33*%
%TO.N,D6*%
X121490000Y-108500000D03*
%TO.P,J1,34,Pin_34*%
%TO.N,D7*%
X118950000Y-108500000D03*
%TO.P,J1,35,Pin_35*%
%TO.N,unconnected-(J1-Pin_35-Pad35)*%
X116410000Y-108500000D03*
%TO.P,J1,36,Pin_36*%
%TO.N,unconnected-(J1-Pin_36-Pad36)*%
X113870000Y-108500000D03*
%TO.P,J1,37,Pin_37*%
%TO.N,unconnected-(J1-Pin_37-Pad37)*%
X111330000Y-108500000D03*
%TO.P,J1,38,Pin_38*%
%TO.N,unconnected-(J1-Pin_38-Pad38)*%
X108790000Y-108500000D03*
%TO.P,J1,39,Pin_39*%
%TO.N,unconnected-(J1-Pin_39-Pad39)*%
X106250000Y-108500000D03*
%TD*%
D13*
%TO.P,J4,1,Pin_1*%
%TO.N,Net-(J4-Pin_1)*%
X189580000Y-61010000D03*
D14*
%TO.P,J4,2,Pin_2*%
%TO.N,Net-(J4-Pin_2)*%
X189580000Y-63550000D03*
%TO.P,J4,3,Pin_3*%
%TO.N,Net-(J4-Pin_1)*%
X187040000Y-61010000D03*
%TO.P,J4,4,Pin_4*%
%TO.N,Net-(J4-Pin_4)*%
X187040000Y-63550000D03*
%TO.P,J4,5,Pin_5*%
%TO.N,Net-(J4-Pin_1)*%
X184500000Y-61010000D03*
%TO.P,J4,6,Pin_6*%
%TO.N,Net-(J4-Pin_6)*%
X184500000Y-63550000D03*
%TO.P,J4,7,Pin_7*%
%TO.N,Net-(J4-Pin_1)*%
X181960000Y-61010000D03*
%TO.P,J4,8,Pin_8*%
%TO.N,Net-(J4-Pin_8)*%
X181960000Y-63550000D03*
%TO.P,J4,9,Pin_9*%
%TO.N,Net-(J4-Pin_1)*%
X179420000Y-61010000D03*
%TO.P,J4,10,Pin_10*%
%TO.N,Net-(J4-Pin_10)*%
X179420000Y-63550000D03*
%TD*%
D15*
%TO.N,A0*%
X164200000Y-95400000D03*
%TO.N,A1*%
X164800000Y-88700000D03*
%TO.N,Net-(J4-Pin_10)*%
X186500000Y-68050000D03*
%TO.N,Net-(J4-Pin_1)*%
X171000000Y-62300000D03*
X156250000Y-79850000D03*
X165500000Y-68550000D03*
%TO.N,Net-(J4-Pin_4)*%
X198380000Y-66800000D03*
%TO.N,Net-(J4-Pin_8)*%
X184375000Y-74425000D03*
%TD*%
D16*
%TO.N,VCC*%
X168500000Y-81300000D02*
X168500000Y-71200000D01*
X159817621Y-99617621D02*
X159817621Y-94682379D01*
X168100000Y-81700000D02*
X168500000Y-81300000D01*
X197300000Y-73700000D02*
X197150000Y-73700000D01*
X169400000Y-70300000D02*
X168500000Y-71200000D01*
X131700000Y-58400000D02*
X130600000Y-57300000D01*
X162600000Y-81700000D02*
X168100000Y-81700000D01*
X159817621Y-99482379D02*
X160000000Y-99300000D01*
X109365000Y-66935000D02*
X113400000Y-62900000D01*
X159817621Y-99617621D02*
X159817621Y-99482379D01*
D17*
X159817621Y-99300000D02*
X160000000Y-99300000D01*
D16*
X196250000Y-72800000D02*
X196250000Y-59450000D01*
X197250000Y-78345000D02*
X197315000Y-78410000D01*
X181120000Y-76420000D02*
X180000000Y-75300000D01*
X131700000Y-63590000D02*
X131700000Y-58400000D01*
X180000000Y-75300000D02*
X180000000Y-71300000D01*
X113400000Y-62900000D02*
X113400000Y-58400000D01*
X112000000Y-87800000D02*
X109365000Y-85165000D01*
X109365000Y-85165000D02*
X109365000Y-66935000D01*
X155060000Y-58360000D02*
X154000000Y-57300000D01*
D17*
X159817621Y-99300000D02*
X159817621Y-99617621D01*
D16*
X155060000Y-63550000D02*
X155060000Y-58360000D01*
X197315000Y-78410000D02*
X197300000Y-78395000D01*
X159740000Y-99695242D02*
X159817621Y-99617621D01*
X154000000Y-57300000D02*
X132500000Y-57300000D01*
X159740000Y-108117621D02*
X159740000Y-99695242D01*
X161500000Y-82800000D02*
X162600000Y-81700000D01*
X168500000Y-58150000D02*
X167650000Y-57300000D01*
X179000000Y-70300000D02*
X180000000Y-71300000D01*
X181120000Y-76420000D02*
X181120000Y-80680000D01*
X111905000Y-91920000D02*
X112000000Y-91825000D01*
X155500000Y-57300000D02*
X167650000Y-57300000D01*
X179000000Y-70300000D02*
X169400000Y-70300000D01*
X112000000Y-91825000D02*
X112000000Y-87800000D01*
X113400000Y-58400000D02*
X114500000Y-57300000D01*
D17*
X159817621Y-99617621D02*
X160000000Y-99800000D01*
D16*
X114500000Y-57300000D02*
X130600000Y-57300000D01*
X130600000Y-57300000D02*
X132500000Y-57300000D01*
X159817621Y-94682379D02*
X161500000Y-93000000D01*
X168500000Y-71200000D02*
X168500000Y-58150000D01*
X197300000Y-78395000D02*
X197300000Y-73700000D01*
X155500000Y-57300000D02*
X154000000Y-57300000D01*
X196250000Y-59450000D02*
X194100000Y-57300000D01*
X161500000Y-93000000D02*
X161500000Y-82800000D01*
X167650000Y-57300000D02*
X194100000Y-57300000D01*
X197150000Y-73700000D02*
X196250000Y-72800000D01*
D18*
%TO.N,/CA2*%
X141100000Y-70450000D02*
X141100000Y-62100000D01*
X142240000Y-60960000D02*
X142360000Y-60960000D01*
X154960000Y-91800000D02*
X154960000Y-84660000D01*
X141100000Y-62100000D02*
X142240000Y-60960000D01*
X154960000Y-84660000D02*
X153250000Y-82950000D01*
X153250000Y-82950000D02*
X138975000Y-82950000D01*
X138400000Y-73150000D02*
X141100000Y-70450000D01*
X138975000Y-82950000D02*
X138400000Y-82375000D01*
D19*
X142510000Y-61010000D02*
X142360000Y-61010000D01*
D18*
X138400000Y-82375000D02*
X138400000Y-73150000D01*
%TO.N,/PA1*%
X151250000Y-62230000D02*
X152520000Y-60960000D01*
X152420000Y-67720000D02*
X151250000Y-66550000D01*
X151250000Y-66550000D02*
X151250000Y-62230000D01*
X152420000Y-76560000D02*
X152420000Y-67720000D01*
D16*
%TO.N,D0*%
X136880000Y-108117621D02*
X136880000Y-107920000D01*
X139700000Y-91980000D02*
X139880000Y-91800000D01*
X136880000Y-108117621D02*
X136880000Y-104920000D01*
X136880000Y-104920000D02*
X139700000Y-102100000D01*
X139700000Y-102100000D02*
X139700000Y-91980000D01*
X137000000Y-107800000D02*
X136880000Y-107920000D01*
D18*
%TO.N,/PA7*%
X137200000Y-76540000D02*
X137180000Y-76560000D01*
D16*
%TO.N,D3*%
X132260000Y-91800000D02*
X132100000Y-91960000D01*
X129200000Y-108057621D02*
X129260000Y-108117621D01*
X129200000Y-102100000D02*
X129200000Y-108057621D01*
X129317621Y-108117621D02*
X129500000Y-108300000D01*
X132100000Y-91960000D02*
X132100000Y-99200000D01*
X132100000Y-99200000D02*
X129200000Y-102100000D01*
X129260000Y-108117621D02*
X129317621Y-108117621D01*
D19*
%TO.N,/PA0*%
X152420000Y-63650000D02*
X152520000Y-63550000D01*
D18*
X152450000Y-63570000D02*
X152520000Y-63500000D01*
%TO.N,/CA1*%
X157475000Y-91775000D02*
X157500000Y-91800000D01*
X142360000Y-63500000D02*
X142360000Y-73240000D01*
X142225000Y-80600000D02*
X154400000Y-80600000D01*
X157475000Y-83675000D02*
X157475000Y-91775000D01*
X141025000Y-79375000D02*
X142225000Y-80575000D01*
X141025000Y-74575000D02*
X141025000Y-79375000D01*
X154400000Y-80600000D02*
X157475000Y-83675000D01*
X142360000Y-73240000D02*
X141025000Y-74575000D01*
D16*
%TO.N,RESET*%
X142200000Y-101000000D02*
X142200000Y-92020000D01*
X154660000Y-108117621D02*
X154660000Y-104960000D01*
X142200000Y-92020000D02*
X142420000Y-91800000D01*
X144000000Y-102800000D02*
X142200000Y-101000000D01*
X154660000Y-104960000D02*
X152500000Y-102800000D01*
X152500000Y-102800000D02*
X144000000Y-102800000D01*
%TO.N,A0*%
X164820000Y-108117621D02*
X164820000Y-96020000D01*
X164820000Y-96020000D02*
X164200000Y-95400000D01*
D19*
X147340000Y-91800000D02*
X147400000Y-91800000D01*
D16*
%TO.N,D4*%
X126700000Y-108097621D02*
X126720000Y-108117621D01*
X129720000Y-91800000D02*
X129720000Y-97580000D01*
X126700000Y-100600000D02*
X126700000Y-108097621D01*
X129720000Y-97580000D02*
X126700000Y-100600000D01*
%TO.N,D7*%
X119100000Y-108117621D02*
X119100000Y-96200000D01*
X121940000Y-91960000D02*
X122100000Y-91800000D01*
X121940000Y-93360000D02*
X121940000Y-91960000D01*
X119100000Y-96200000D02*
X121940000Y-93360000D01*
%TO.N,D2*%
X135000000Y-92000000D02*
X134600000Y-91600000D01*
X134600000Y-91600000D02*
X134600000Y-100700000D01*
X134600000Y-100700000D02*
X131800000Y-103500000D01*
X131800000Y-103500000D02*
X131800000Y-108117621D01*
D19*
%TO.N,/PA2*%
X150000000Y-76440000D02*
X149880000Y-76560000D01*
X149880000Y-63600000D02*
X149980000Y-63500000D01*
D18*
%TO.N,/PA3*%
X147340000Y-75185000D02*
X147340000Y-76560000D01*
X149980000Y-60960000D02*
X149965000Y-60960000D01*
X149965000Y-60960000D02*
X148700000Y-62225000D01*
D19*
X150110000Y-61010000D02*
X149980000Y-61010000D01*
D18*
X148700000Y-73825000D02*
X147340000Y-75185000D01*
X148700000Y-62225000D02*
X148700000Y-73825000D01*
D19*
%TO.N,/PA5*%
X147710000Y-61010000D02*
X147440000Y-61010000D01*
D18*
X146150000Y-72200000D02*
X142260000Y-76090000D01*
X147440000Y-60960000D02*
X146150000Y-62250000D01*
D19*
X142250000Y-76550000D02*
X142260000Y-76560000D01*
D18*
X146150000Y-62250000D02*
X146150000Y-72200000D01*
X142260000Y-76090000D02*
X142260000Y-76560000D01*
D19*
%TO.N,/PB0*%
X134700000Y-76500000D02*
X134640000Y-76560000D01*
D16*
%TO.N,D1*%
X134300000Y-108077621D02*
X134300000Y-104500000D01*
X137200000Y-92280000D02*
X137340000Y-92140000D01*
X134340000Y-108117621D02*
X134300000Y-108077621D01*
X137200000Y-101600000D02*
X137200000Y-92280000D01*
X137340000Y-92140000D02*
X137340000Y-91800000D01*
X134300000Y-104500000D02*
X137200000Y-101600000D01*
D19*
%TO.N,/PB3*%
X127020000Y-76560000D02*
X126800000Y-76340000D01*
D18*
X126660000Y-61035000D02*
X127925000Y-62300000D01*
X127050000Y-74100000D02*
X127050000Y-76530000D01*
X126660000Y-60960000D02*
X126660000Y-61035000D01*
X127925000Y-62300000D02*
X127925000Y-73225000D01*
X127925000Y-73225000D02*
X127050000Y-74100000D01*
X127050000Y-76530000D02*
X127020000Y-76560000D01*
D19*
X126810000Y-61010000D02*
X126660000Y-61010000D01*
%TO.N,/PB2*%
X126660000Y-63550000D02*
X126700000Y-63590000D01*
X126800000Y-63690000D02*
X126660000Y-63550000D01*
X129500000Y-76500000D02*
X129560000Y-76560000D01*
D16*
%TO.N,D6*%
X121640000Y-108117621D02*
X121640000Y-97660000D01*
X124400000Y-92040000D02*
X124640000Y-91800000D01*
X124400000Y-94900000D02*
X124400000Y-92040000D01*
X121640000Y-97660000D02*
X124400000Y-94900000D01*
D18*
%TO.N,/PB1*%
X130450000Y-62210000D02*
X130450000Y-66250000D01*
X130450000Y-66250000D02*
X132100000Y-67900000D01*
D19*
X129200000Y-61010000D02*
X129310000Y-61010000D01*
D18*
X132100000Y-67900000D02*
X132100000Y-76560000D01*
X129200000Y-60960000D02*
X130450000Y-62210000D01*
%TO.N,/CB1*%
X114320000Y-71630000D02*
X119075000Y-66875000D01*
X119075000Y-66875000D02*
X119075000Y-63535000D01*
X119075000Y-63535000D02*
X119040000Y-63500000D01*
X114320000Y-76560000D02*
X114320000Y-71630000D01*
D19*
%TO.N,/PB5*%
X124120000Y-61010000D02*
X124310000Y-61010000D01*
X121940000Y-76560000D02*
X122000000Y-76500000D01*
%TO.N,/PB4*%
X124050000Y-63570000D02*
X124120000Y-63500000D01*
X124480000Y-76560000D02*
X124480000Y-66205000D01*
X124480000Y-66205000D02*
X124050000Y-65775000D01*
X124100000Y-63570000D02*
X124120000Y-63550000D01*
X124500000Y-76540000D02*
X124480000Y-76560000D01*
X124050000Y-65775000D02*
X124050000Y-63570000D01*
D16*
%TO.N,A1*%
X167360000Y-108117621D02*
X167360000Y-106660000D01*
X167360000Y-106660000D02*
X167100000Y-106400000D01*
X167100000Y-91000000D02*
X164800000Y-88700000D01*
X167100000Y-106400000D02*
X167100000Y-91000000D01*
D19*
%TO.N,/CB2*%
X119210000Y-61010000D02*
X119040000Y-61010000D01*
%TO.N,/PB7*%
X121910000Y-61010000D02*
X121580000Y-61010000D01*
D18*
%TO.N,/PB6*%
X119400000Y-71850000D02*
X121580000Y-69670000D01*
X119400000Y-76560000D02*
X119400000Y-71850000D01*
X121580000Y-69670000D02*
X121580000Y-63500000D01*
D16*
%TO.N,D5*%
X124180000Y-108117621D02*
X124180000Y-99120000D01*
X124180000Y-99120000D02*
X127180000Y-96120000D01*
X127180000Y-96120000D02*
X127180000Y-91800000D01*
%TO.N,Net-(J4-Pin_10)*%
X194000000Y-69550000D02*
X192500000Y-68050000D01*
X194000000Y-89550000D02*
X194000000Y-69550000D01*
X197315000Y-91110000D02*
X195560000Y-91110000D01*
X195560000Y-91110000D02*
X194000000Y-89550000D01*
X192500000Y-68050000D02*
X186500000Y-68050000D01*
%TO.N,A5*%
X176000000Y-91000000D02*
X173610000Y-91000000D01*
X176500000Y-104000000D02*
X176500000Y-91500000D01*
D19*
X177500000Y-108097621D02*
X177520000Y-108117621D01*
D16*
X177370000Y-104870000D02*
X176500000Y-104000000D01*
X176500000Y-91500000D02*
X176000000Y-91000000D01*
X177370000Y-108500000D02*
X177370000Y-104870000D01*
X173610000Y-91000000D02*
X173500000Y-91110000D01*
%TO.N,A11*%
X192700000Y-106300000D02*
X192700000Y-108057621D01*
X189695000Y-88570000D02*
X187730000Y-88570000D01*
X187200000Y-100800000D02*
X192700000Y-106300000D01*
D19*
X192760000Y-108117621D02*
X192760000Y-108140000D01*
X192700000Y-108057621D02*
X192760000Y-108117621D01*
D16*
X187200000Y-89100000D02*
X187200000Y-100800000D01*
X187730000Y-88570000D02*
X187200000Y-89100000D01*
D19*
X192760000Y-108140000D02*
X192700000Y-108200000D01*
D16*
%TO.N,A6*%
X178500000Y-94000000D02*
X179000000Y-93500000D01*
X180970000Y-93500000D02*
X181120000Y-93650000D01*
X179910000Y-108500000D02*
X180000000Y-108500000D01*
X178500000Y-98000000D02*
X178500000Y-94000000D01*
D19*
X181100000Y-93400000D02*
X181120000Y-93380000D01*
D16*
X179000000Y-93500000D02*
X180970000Y-93500000D01*
X179910000Y-108500000D02*
X179910000Y-99410000D01*
X179910000Y-99410000D02*
X178500000Y-98000000D01*
D19*
%TO.N,A12*%
X195300000Y-108117621D02*
X195300000Y-108100000D01*
D16*
X195300000Y-105600000D02*
X195300000Y-108117621D01*
X192350000Y-78850000D02*
X192350000Y-102650000D01*
X191910000Y-78410000D02*
X192350000Y-78850000D01*
D19*
X195300000Y-108117621D02*
X195317621Y-108117621D01*
D16*
X189695000Y-78410000D02*
X191910000Y-78410000D01*
D19*
X195317621Y-108117621D02*
X195500000Y-108300000D01*
D16*
X192350000Y-102650000D02*
X195300000Y-105600000D01*
%TO.N,A10*%
X190220000Y-106720000D02*
X185900000Y-102400000D01*
X185900000Y-87000000D02*
X186800000Y-86100000D01*
X190220000Y-108117621D02*
X190220000Y-106720000D01*
X186800000Y-86100000D02*
X189625000Y-86100000D01*
D19*
X189625000Y-86100000D02*
X189695000Y-86030000D01*
D16*
X185900000Y-102400000D02*
X185900000Y-87000000D01*
%TO.N,A3*%
X172440000Y-108117621D02*
X172440000Y-103440000D01*
X169800000Y-100800000D02*
X169800000Y-87600000D01*
X169800000Y-87600000D02*
X171500000Y-85900000D01*
X171500000Y-85900000D02*
X173360000Y-85900000D01*
X172440000Y-103440000D02*
X169800000Y-100800000D01*
D19*
%TO.N,A14*%
X200382379Y-108117621D02*
X200380000Y-108117621D01*
X200382379Y-108117621D02*
X200400000Y-108100000D01*
D16*
%TO.N,A9*%
X181120000Y-85760000D02*
X184800000Y-89440000D01*
X184800000Y-105237621D02*
X187680000Y-108117621D01*
X184800000Y-89440000D02*
X184800000Y-105237621D01*
%TO.N,A7*%
X182900000Y-91400000D02*
X182610000Y-91110000D01*
X182300000Y-101100000D02*
X182300000Y-107817621D01*
X182610000Y-91110000D02*
X181120000Y-91110000D01*
X182900000Y-100500000D02*
X182300000Y-101100000D01*
X182900000Y-100500000D02*
X182900000Y-91400000D01*
D19*
X182300000Y-107817621D02*
X182600000Y-108117621D01*
D16*
%TO.N,A2*%
X169010000Y-83490000D02*
X168400000Y-84100000D01*
X169900000Y-108117621D02*
X169900000Y-105900000D01*
X169900000Y-105900000D02*
X168400000Y-104400000D01*
X168400000Y-104400000D02*
X168400000Y-84100000D01*
X173500000Y-83490000D02*
X169010000Y-83490000D01*
%TO.N,A8*%
X181600000Y-88300000D02*
X183800000Y-90500000D01*
X181120000Y-88300000D02*
X181600000Y-88300000D01*
X183800000Y-106777621D02*
X185140000Y-108117621D01*
X183800000Y-90500000D02*
X183800000Y-106777621D01*
%TO.N,A4*%
X171600000Y-88400000D02*
X173400000Y-88400000D01*
D19*
X173400000Y-88400000D02*
X173500000Y-88300000D01*
D16*
X171100000Y-88900000D02*
X171600000Y-88400000D01*
X171100000Y-98400000D02*
X171100000Y-88900000D01*
X174980000Y-102280000D02*
X171100000Y-98400000D01*
X174980000Y-108117621D02*
X174980000Y-102280000D01*
%TO.N,Net-(J4-Pin_1)*%
X164600000Y-68600000D02*
X165450000Y-68600000D01*
X156250000Y-79850000D02*
X157000000Y-79100000D01*
D19*
X165450000Y-68600000D02*
X165500000Y-68550000D01*
D16*
X164100000Y-78400000D02*
X164100000Y-69100000D01*
X157000000Y-79100000D02*
X163400000Y-79100000D01*
X163400000Y-79100000D02*
X164100000Y-78400000D01*
X164100000Y-69100000D02*
X164600000Y-68600000D01*
X189580000Y-61010000D02*
X172290000Y-61010000D01*
X172290000Y-61010000D02*
X171000000Y-62300000D01*
%TO.N,Net-(J4-Pin_4)*%
X197315000Y-83490000D02*
X198830000Y-83490000D01*
X200250000Y-82070000D02*
X200250000Y-68670000D01*
X198830000Y-83490000D02*
X200250000Y-82070000D01*
X200250000Y-68670000D02*
X198380000Y-66800000D01*
%TO.N,Net-(J4-Pin_8)*%
X184375000Y-74425000D02*
X184375000Y-65755000D01*
X184375000Y-65755000D02*
X181960000Y-63340000D01*
%TD*%
%TA.AperFunction,NonConductor*%
G36*
X139843585Y-78269751D02*
G01*
X139885895Y-78314314D01*
X140333776Y-79116765D01*
X140349500Y-79177199D01*
X140349500Y-79441535D01*
X140375457Y-79572028D01*
X140375459Y-79572036D01*
X140426378Y-79694965D01*
X140426383Y-79694975D01*
X140500304Y-79805605D01*
X140500307Y-79805609D01*
X140981344Y-80286645D01*
X141001939Y-80313893D01*
X141649998Y-81474999D01*
X141649999Y-81475000D01*
X141650000Y-81475000D01*
X145174549Y-81475000D01*
X145175424Y-81475002D01*
X152250000Y-81525000D01*
X153991193Y-81476633D01*
X154058751Y-81494448D01*
X154088461Y-81519516D01*
X156769330Y-84622372D01*
X156798263Y-84685967D01*
X156799500Y-84703438D01*
X156799500Y-88905364D01*
X156799428Y-88909596D01*
X156775820Y-89601000D01*
X156775675Y-89605232D01*
X156753714Y-89671560D01*
X156699379Y-89715487D01*
X156651747Y-89725000D01*
X155759500Y-89725000D01*
X155692461Y-89705315D01*
X155646706Y-89652511D01*
X155635500Y-89601000D01*
X155635500Y-84593466D01*
X155609541Y-84462969D01*
X155609540Y-84462968D01*
X155609540Y-84462964D01*
X155558620Y-84340031D01*
X155484695Y-84229394D01*
X155390606Y-84135305D01*
X154610332Y-83355031D01*
X153680609Y-82425307D01*
X153680605Y-82425304D01*
X153569975Y-82351383D01*
X153569965Y-82351378D01*
X153447036Y-82300459D01*
X153447028Y-82300457D01*
X153316535Y-82274500D01*
X153316531Y-82274500D01*
X139306163Y-82274500D01*
X139276722Y-82265855D01*
X139246736Y-82259332D01*
X139241720Y-82255577D01*
X139239124Y-82254815D01*
X139218482Y-82238181D01*
X139111819Y-82131518D01*
X139078334Y-82070195D01*
X139075500Y-82043837D01*
X139075500Y-78380677D01*
X139095185Y-78313638D01*
X139147989Y-78267883D01*
X139198224Y-78256684D01*
X139776348Y-78250755D01*
X139843585Y-78269751D01*
G37*
%TD.AperFunction*%
%TA.AperFunction,NonConductor*%
G36*
X137666466Y-78292079D02*
G01*
X137712760Y-78344411D01*
X137724500Y-78397077D01*
X137724500Y-82441535D01*
X137750457Y-82572028D01*
X137750459Y-82572036D01*
X137801378Y-82694965D01*
X137801383Y-82694975D01*
X137875304Y-82805605D01*
X137875307Y-82805609D01*
X138544390Y-83474692D01*
X138544394Y-83474695D01*
X138655024Y-83548616D01*
X138655028Y-83548618D01*
X138655031Y-83548620D01*
X138777964Y-83599541D01*
X138908464Y-83625499D01*
X138908468Y-83625500D01*
X138908469Y-83625500D01*
X139041531Y-83625500D01*
X152918837Y-83625500D01*
X152985876Y-83645185D01*
X153006518Y-83661819D01*
X154248181Y-84903482D01*
X154281666Y-84964805D01*
X154284500Y-84991163D01*
X154284500Y-89623005D01*
X154282275Y-89630580D01*
X154283544Y-89638376D01*
X154272570Y-89663632D01*
X154264815Y-89690044D01*
X154258848Y-89695214D01*
X154255701Y-89702458D01*
X154232813Y-89717773D01*
X154212011Y-89735799D01*
X154202720Y-89737910D01*
X154197633Y-89741315D01*
X154162797Y-89746984D01*
X154003512Y-89749934D01*
X154001133Y-89749979D01*
X153998838Y-89750000D01*
X113451362Y-89750000D01*
X113384323Y-89730315D01*
X113363681Y-89713681D01*
X112886319Y-89236319D01*
X112852834Y-89174996D01*
X112850000Y-89148638D01*
X112850000Y-86900000D01*
X112750000Y-86450000D01*
X112749999Y-86450000D01*
X112251362Y-86450000D01*
X112184323Y-86430315D01*
X112163681Y-86413681D01*
X110151819Y-84401819D01*
X110118334Y-84340496D01*
X110115500Y-84314138D01*
X110115500Y-78624000D01*
X110135185Y-78556961D01*
X110187989Y-78511206D01*
X110239500Y-78500000D01*
X115475046Y-78500000D01*
X123425923Y-78418452D01*
X137599230Y-78273084D01*
X137666466Y-78292079D01*
G37*
%TD.AperFunction*%
%TA.AperFunction,Conductor*%
%TO.N,GND*%
G36*
X161664075Y-108692993D02*
G01*
X161729901Y-108807007D01*
X161822993Y-108900099D01*
X161937007Y-108965925D01*
X162000591Y-108982962D01*
X161430373Y-109553181D01*
X161369050Y-109586666D01*
X161342692Y-109589500D01*
X160568336Y-109589500D01*
X160501297Y-109569815D01*
X160455542Y-109517011D01*
X160445598Y-109447853D01*
X160474623Y-109384297D01*
X160480655Y-109377819D01*
X160543828Y-109314646D01*
X160659524Y-109155405D01*
X160693679Y-109088370D01*
X160741652Y-109037575D01*
X160809473Y-109020779D01*
X160875608Y-109043316D01*
X160914648Y-109088370D01*
X160975370Y-109207542D01*
X160975373Y-109207547D01*
X161014728Y-109261716D01*
X161647037Y-108629408D01*
X161664075Y-108692993D01*
G37*
%TD.AperFunction*%
%TA.AperFunction,Conductor*%
G36*
X163245270Y-109261717D02*
G01*
X163245270Y-109261716D01*
X163284622Y-109207554D01*
X163345350Y-109088370D01*
X163393324Y-109037574D01*
X163461145Y-109020779D01*
X163527280Y-109043316D01*
X163566320Y-109088370D01*
X163600476Y-109155405D01*
X163716172Y-109314646D01*
X163716174Y-109314648D01*
X163779345Y-109377819D01*
X163812830Y-109439142D01*
X163807846Y-109508834D01*
X163765974Y-109564767D01*
X163700510Y-109589184D01*
X163691664Y-109589500D01*
X162917308Y-109589500D01*
X162850269Y-109569815D01*
X162829627Y-109553181D01*
X162259408Y-108982962D01*
X162322993Y-108965925D01*
X162437007Y-108900099D01*
X162530099Y-108807007D01*
X162595925Y-108692993D01*
X162612962Y-108629409D01*
X163245270Y-109261717D01*
G37*
%TD.AperFunction*%
%TA.AperFunction,Conductor*%
G36*
X178746231Y-70970185D02*
G01*
X178766873Y-70986819D01*
X179313181Y-71533127D01*
X179346666Y-71594450D01*
X179349500Y-71620808D01*
X179349500Y-74225534D01*
X179329815Y-74292573D01*
X179298387Y-74325851D01*
X179217927Y-74384309D01*
X179084312Y-74517924D01*
X179084312Y-74517925D01*
X179084310Y-74517927D01*
X179036610Y-74583579D01*
X178973240Y-74670800D01*
X178887454Y-74839163D01*
X178829059Y-75018881D01*
X178799500Y-75205513D01*
X178799500Y-75394486D01*
X178829059Y-75581118D01*
X178887454Y-75760836D01*
X178958214Y-75899709D01*
X178973240Y-75929199D01*
X179084310Y-76082073D01*
X179217927Y-76215690D01*
X179370801Y-76326760D01*
X179450347Y-76367290D01*
X179539163Y-76412545D01*
X179539165Y-76412545D01*
X179539168Y-76412547D01*
X179635497Y-76443846D01*
X179718881Y-76470940D01*
X179905514Y-76500500D01*
X179905519Y-76500500D01*
X180094479Y-76500500D01*
X180094481Y-76500500D01*
X180192711Y-76484941D01*
X180198134Y-76485642D01*
X180203261Y-76483730D01*
X180232412Y-76490071D01*
X180262001Y-76493895D01*
X180267605Y-76497727D01*
X180271534Y-76498582D01*
X180299788Y-76519733D01*
X180433181Y-76653126D01*
X180466666Y-76714449D01*
X180469500Y-76740807D01*
X180469500Y-79875534D01*
X180449815Y-79942573D01*
X180418387Y-79975851D01*
X180337927Y-80034309D01*
X180204312Y-80167924D01*
X180204312Y-80167925D01*
X180204310Y-80167927D01*
X180156610Y-80233579D01*
X180093240Y-80320800D01*
X180007454Y-80489163D01*
X179949059Y-80668881D01*
X179919500Y-80855513D01*
X179919500Y-81044486D01*
X179949059Y-81231118D01*
X180007454Y-81410836D01*
X180086355Y-81565686D01*
X180093240Y-81579199D01*
X180204310Y-81732073D01*
X180337927Y-81865690D01*
X180490801Y-81976760D01*
X180570347Y-82017290D01*
X180659163Y-82062545D01*
X180659165Y-82062545D01*
X180659168Y-82062547D01*
X180748734Y-82091649D01*
X180780803Y-82102069D01*
X180838478Y-82141507D01*
X180865676Y-82205866D01*
X180853761Y-82274712D01*
X180806516Y-82326188D01*
X180780803Y-82337931D01*
X180659163Y-82377454D01*
X180490800Y-82463240D01*
X180461305Y-82484670D01*
X180337927Y-82574310D01*
X180337925Y-82574312D01*
X180337924Y-82574312D01*
X180204312Y-82707924D01*
X180204312Y-82707925D01*
X180204310Y-82707927D01*
X180183966Y-82735928D01*
X180093240Y-82860800D01*
X180007454Y-83029163D01*
X179949059Y-83208881D01*
X179919500Y-83395513D01*
X179919500Y-83584486D01*
X179949059Y-83771118D01*
X180007454Y-83950836D01*
X180091355Y-84115500D01*
X180093240Y-84119199D01*
X180204310Y-84272073D01*
X180337927Y-84405690D01*
X180490801Y-84516760D01*
X180570347Y-84557290D01*
X180659163Y-84602545D01*
X180659165Y-84602545D01*
X180659168Y-84602547D01*
X180748734Y-84631649D01*
X180780803Y-84642069D01*
X180838478Y-84681507D01*
X180865676Y-84745866D01*
X180853761Y-84814712D01*
X180806516Y-84866188D01*
X180780803Y-84877931D01*
X180659163Y-84917454D01*
X180490800Y-85003240D01*
X180403579Y-85066610D01*
X180337927Y-85114310D01*
X180337925Y-85114312D01*
X180337924Y-85114312D01*
X180204312Y-85247924D01*
X180204312Y-85247925D01*
X180204310Y-85247927D01*
X180156610Y-85313579D01*
X180093240Y-85400800D01*
X180007454Y-85569163D01*
X179949059Y-85748881D01*
X179919500Y-85935513D01*
X179919500Y-86124486D01*
X179949059Y-86311118D01*
X180007454Y-86490836D01*
X180072353Y-86618206D01*
X180093240Y-86659199D01*
X180204310Y-86812073D01*
X180337927Y-86945690D01*
X180490801Y-87056760D01*
X180570347Y-87097290D01*
X180659163Y-87142545D01*
X180659165Y-87142545D01*
X180659168Y-87142547D01*
X180748734Y-87171649D01*
X180780803Y-87182069D01*
X180838478Y-87221507D01*
X180865676Y-87285866D01*
X180853761Y-87354712D01*
X180806516Y-87406188D01*
X180780803Y-87417931D01*
X180659163Y-87457454D01*
X180490800Y-87543240D01*
X180403579Y-87606610D01*
X180337927Y-87654310D01*
X180337925Y-87654312D01*
X180337924Y-87654312D01*
X180204312Y-87787924D01*
X180204312Y-87787925D01*
X180204310Y-87787927D01*
X180178440Y-87823534D01*
X180093240Y-87940800D01*
X180007454Y-88109163D01*
X179949059Y-88288881D01*
X179919500Y-88475513D01*
X179919500Y-88664486D01*
X179949059Y-88851118D01*
X180007454Y-89030836D01*
X180070092Y-89153769D01*
X180093240Y-89199199D01*
X180204310Y-89352073D01*
X180337927Y-89485690D01*
X180490801Y-89596760D01*
X180524772Y-89614069D01*
X180659163Y-89682545D01*
X180659165Y-89682545D01*
X180659168Y-89682547D01*
X180741954Y-89709446D01*
X180780803Y-89722069D01*
X180838478Y-89761507D01*
X180865676Y-89825866D01*
X180853761Y-89894712D01*
X180806516Y-89946188D01*
X180780803Y-89957931D01*
X180659163Y-89997454D01*
X180490800Y-90083240D01*
X180434807Y-90123922D01*
X180337927Y-90194310D01*
X180337925Y-90194312D01*
X180337924Y-90194312D01*
X180204312Y-90327924D01*
X180204312Y-90327925D01*
X180204310Y-90327927D01*
X180174599Y-90368821D01*
X180093240Y-90480800D01*
X180007454Y-90649163D01*
X179949059Y-90828881D01*
X179919500Y-91015513D01*
X179919500Y-91204486D01*
X179949059Y-91391118D01*
X180007454Y-91570836D01*
X180066371Y-91686466D01*
X180093240Y-91739199D01*
X180204310Y-91892073D01*
X180337927Y-92025690D01*
X180490801Y-92136760D01*
X180570347Y-92177290D01*
X180659163Y-92222545D01*
X180659165Y-92222545D01*
X180659168Y-92222547D01*
X180748734Y-92251649D01*
X180780803Y-92262069D01*
X180838478Y-92301507D01*
X180865676Y-92365866D01*
X180853761Y-92434712D01*
X180806516Y-92486188D01*
X180780803Y-92497931D01*
X180659163Y-92537454D01*
X180490800Y-92623240D01*
X180424259Y-92671586D01*
X180337927Y-92734310D01*
X180337925Y-92734312D01*
X180337924Y-92734312D01*
X180259056Y-92813181D01*
X180197733Y-92846666D01*
X180171375Y-92849500D01*
X178935929Y-92849500D01*
X178810261Y-92874497D01*
X178810255Y-92874499D01*
X178691874Y-92923534D01*
X178585326Y-92994726D01*
X177994724Y-93585328D01*
X177924955Y-93689747D01*
X177923535Y-93691871D01*
X177923532Y-93691877D01*
X177874500Y-93810251D01*
X177874497Y-93810261D01*
X177849500Y-93935928D01*
X177849500Y-93935931D01*
X177849500Y-98064069D01*
X177855031Y-98091873D01*
X177874499Y-98189744D01*
X177923535Y-98308127D01*
X177990127Y-98407790D01*
X177994726Y-98414673D01*
X177994727Y-98414674D01*
X179223181Y-99643126D01*
X179256666Y-99704449D01*
X179259500Y-99730807D01*
X179259500Y-107363731D01*
X179239815Y-107430770D01*
X179208386Y-107464049D01*
X179095352Y-107546173D01*
X178956174Y-107685351D01*
X178956174Y-107685352D01*
X178956172Y-107685354D01*
X178942368Y-107704354D01*
X178840476Y-107844594D01*
X178750485Y-108021213D01*
X178702511Y-108072009D01*
X178634690Y-108088804D01*
X178568555Y-108066267D01*
X178529515Y-108021213D01*
X178502397Y-107967992D01*
X178439524Y-107844595D01*
X178323828Y-107685354D01*
X178184646Y-107546172D01*
X178071613Y-107464048D01*
X178028949Y-107408718D01*
X178020500Y-107363731D01*
X178020500Y-104805928D01*
X177995502Y-104680261D01*
X177995501Y-104680260D01*
X177995501Y-104680256D01*
X177946465Y-104561873D01*
X177908685Y-104505331D01*
X177875277Y-104455331D01*
X177186819Y-103766873D01*
X177153334Y-103705550D01*
X177150500Y-103679192D01*
X177150500Y-91435928D01*
X177125502Y-91310261D01*
X177125501Y-91310260D01*
X177125501Y-91310256D01*
X177076465Y-91191873D01*
X177076462Y-91191868D01*
X177067336Y-91178210D01*
X177067334Y-91178208D01*
X177062384Y-91170800D01*
X177005277Y-91085331D01*
X177005275Y-91085329D01*
X177005273Y-91085326D01*
X176414674Y-90494727D01*
X176414670Y-90494724D01*
X176414669Y-90494723D01*
X176308127Y-90423535D01*
X176307272Y-90423181D01*
X176189744Y-90374499D01*
X176189738Y-90374497D01*
X176064071Y-90349500D01*
X176064069Y-90349500D01*
X174488625Y-90349500D01*
X174421586Y-90329815D01*
X174400944Y-90313181D01*
X174282075Y-90194312D01*
X174282073Y-90194310D01*
X174129199Y-90083240D01*
X174105387Y-90071107D01*
X173960836Y-89997454D01*
X173859934Y-89964669D01*
X173839195Y-89957930D01*
X173781521Y-89918493D01*
X173754323Y-89854134D01*
X173766238Y-89785288D01*
X173813482Y-89733812D01*
X173839194Y-89722069D01*
X173960832Y-89682547D01*
X174129199Y-89596760D01*
X174282073Y-89485690D01*
X174415690Y-89352073D01*
X174526760Y-89199199D01*
X174612547Y-89030832D01*
X174670940Y-88851118D01*
X174680156Y-88792930D01*
X174700500Y-88664486D01*
X174700500Y-88475513D01*
X174670940Y-88288881D01*
X174612545Y-88109163D01*
X174567290Y-88020347D01*
X174526760Y-87940801D01*
X174415690Y-87787927D01*
X174282073Y-87654310D01*
X174129199Y-87543240D01*
X174114854Y-87535931D01*
X173960836Y-87457454D01*
X173886472Y-87433291D01*
X173839195Y-87417930D01*
X173781521Y-87378493D01*
X173754323Y-87314134D01*
X173766238Y-87245288D01*
X173813482Y-87193812D01*
X173839194Y-87182069D01*
X173960832Y-87142547D01*
X174129199Y-87056760D01*
X174282073Y-86945690D01*
X174415690Y-86812073D01*
X174526760Y-86659199D01*
X174612547Y-86490832D01*
X174670940Y-86311118D01*
X174700500Y-86124486D01*
X174700500Y-85935513D01*
X174670940Y-85748881D01*
X174620851Y-85594726D01*
X174612547Y-85569168D01*
X174612545Y-85569165D01*
X174612545Y-85569163D01*
X174526759Y-85400800D01*
X174493297Y-85354744D01*
X174415690Y-85247927D01*
X174282073Y-85114310D01*
X174129199Y-85003240D01*
X173960836Y-84917454D01*
X173886472Y-84893291D01*
X173839195Y-84877930D01*
X173781521Y-84838493D01*
X173754323Y-84774134D01*
X173766238Y-84705288D01*
X173813482Y-84653812D01*
X173839194Y-84642069D01*
X173960832Y-84602547D01*
X174129199Y-84516760D01*
X174282073Y-84405690D01*
X174415690Y-84272073D01*
X174526760Y-84119199D01*
X174612547Y-83950832D01*
X174670940Y-83771118D01*
X174678482Y-83723498D01*
X174700500Y-83584486D01*
X174700500Y-83395513D01*
X174670940Y-83208881D01*
X174612545Y-83029163D01*
X174528644Y-82864499D01*
X174526760Y-82860801D01*
X174415690Y-82707927D01*
X174282073Y-82574310D01*
X174129199Y-82463240D01*
X173979214Y-82386819D01*
X173975615Y-82384985D01*
X173924819Y-82337010D01*
X173908024Y-82269189D01*
X173930561Y-82203054D01*
X173985277Y-82159603D01*
X174031910Y-82150500D01*
X174115686Y-82150500D01*
X174115694Y-82150500D01*
X174152569Y-82147598D01*
X174152571Y-82147597D01*
X174152573Y-82147597D01*
X174199136Y-82134069D01*
X174310398Y-82101744D01*
X174451865Y-82018081D01*
X174568081Y-81901865D01*
X174651744Y-81760398D01*
X174697598Y-81602569D01*
X174700500Y-81565694D01*
X174700500Y-80334306D01*
X174697598Y-80297431D01*
X174697339Y-80296541D01*
X174651745Y-80139606D01*
X174651744Y-80139603D01*
X174651744Y-80139602D01*
X174568081Y-79998135D01*
X174568079Y-79998133D01*
X174568076Y-79998129D01*
X174451870Y-79881923D01*
X174451862Y-79881917D01*
X174310396Y-79798255D01*
X174310393Y-79798254D01*
X174152573Y-79752402D01*
X174152567Y-79752401D01*
X174115701Y-79749500D01*
X174115694Y-79749500D01*
X172884306Y-79749500D01*
X172884298Y-79749500D01*
X172847432Y-79752401D01*
X172847426Y-79752402D01*
X172689606Y-79798254D01*
X172689603Y-79798255D01*
X172548137Y-79881917D01*
X172548129Y-79881923D01*
X172431923Y-79998129D01*
X172431917Y-79998137D01*
X172348255Y-80139603D01*
X172348254Y-80139606D01*
X172302402Y-80297426D01*
X172302401Y-80297432D01*
X172299500Y-80334298D01*
X172299500Y-81565701D01*
X172302401Y-81602567D01*
X172302402Y-81602573D01*
X172348254Y-81760393D01*
X172348255Y-81760396D01*
X172431917Y-81901862D01*
X172431923Y-81901870D01*
X172548129Y-82018076D01*
X172548133Y-82018079D01*
X172548135Y-82018081D01*
X172689602Y-82101744D01*
X172690721Y-82102069D01*
X172847426Y-82147597D01*
X172847429Y-82147597D01*
X172847431Y-82147598D01*
X172884306Y-82150500D01*
X172884314Y-82150500D01*
X172968090Y-82150500D01*
X173035129Y-82170185D01*
X173080884Y-82222989D01*
X173090828Y-82292147D01*
X173061803Y-82355703D01*
X173024385Y-82384985D01*
X172870800Y-82463240D01*
X172841305Y-82484670D01*
X172717927Y-82574310D01*
X172717925Y-82574312D01*
X172717924Y-82574312D01*
X172584311Y-82707925D01*
X172525853Y-82788386D01*
X172470522Y-82831051D01*
X172425535Y-82839500D01*
X168945929Y-82839500D01*
X168838852Y-82860800D01*
X168838847Y-82860801D01*
X168824870Y-82863581D01*
X168820255Y-82864499D01*
X168701870Y-82913535D01*
X168595331Y-82984722D01*
X168595324Y-82984728D01*
X167894722Y-83685331D01*
X167894717Y-83685337D01*
X167869224Y-83723494D01*
X167869222Y-83723497D01*
X167850922Y-83750885D01*
X167823534Y-83791873D01*
X167774499Y-83910255D01*
X167774497Y-83910261D01*
X167749500Y-84035928D01*
X167749500Y-90430192D01*
X167743262Y-90451435D01*
X167741683Y-90473523D01*
X167733609Y-90484308D01*
X167729815Y-90497231D01*
X167713085Y-90511727D01*
X167699813Y-90529458D01*
X167687188Y-90534166D01*
X167677011Y-90542986D01*
X167655097Y-90546136D01*
X167634349Y-90553876D01*
X167621186Y-90551012D01*
X167607853Y-90552930D01*
X167587710Y-90543731D01*
X167566075Y-90539025D01*
X167548347Y-90525754D01*
X167544297Y-90523905D01*
X167537821Y-90517875D01*
X167514671Y-90494726D01*
X167514668Y-90494723D01*
X165461295Y-88441349D01*
X165434415Y-88401121D01*
X165420775Y-88368189D01*
X165401296Y-88339037D01*
X165344114Y-88253457D01*
X165246545Y-88155888D01*
X165246541Y-88155885D01*
X165131817Y-88079228D01*
X165131804Y-88079221D01*
X165004332Y-88026421D01*
X165004322Y-88026418D01*
X164868995Y-87999500D01*
X164868993Y-87999500D01*
X164731007Y-87999500D01*
X164731005Y-87999500D01*
X164595677Y-88026418D01*
X164595667Y-88026421D01*
X164468195Y-88079221D01*
X164468182Y-88079228D01*
X164353458Y-88155885D01*
X164353454Y-88155888D01*
X164255888Y-88253454D01*
X164255885Y-88253458D01*
X164179228Y-88368182D01*
X164179221Y-88368195D01*
X164126421Y-88495667D01*
X164126418Y-88495677D01*
X164099500Y-88631004D01*
X164099500Y-88631007D01*
X164099500Y-88768993D01*
X164099500Y-88768995D01*
X164099499Y-88768995D01*
X164126418Y-88904322D01*
X164126421Y-88904332D01*
X164179221Y-89031804D01*
X164179228Y-89031817D01*
X164255885Y-89146541D01*
X164255888Y-89146545D01*
X164353457Y-89244114D01*
X164407994Y-89280554D01*
X164468189Y-89320775D01*
X164501121Y-89334415D01*
X164541349Y-89361295D01*
X165486516Y-90306462D01*
X166413181Y-91233126D01*
X166446666Y-91294449D01*
X166449500Y-91320807D01*
X166449500Y-106464070D01*
X166474123Y-106587851D01*
X166474126Y-106587885D01*
X166474129Y-106587885D01*
X166474496Y-106589733D01*
X166474499Y-106589744D01*
X166501914Y-106655931D01*
X166523535Y-106708127D01*
X166594723Y-106814669D01*
X166673182Y-106893128D01*
X166706666Y-106954449D01*
X166709500Y-106980808D01*
X166709500Y-107275560D01*
X166689815Y-107342599D01*
X166641795Y-107386045D01*
X166554594Y-107430476D01*
X166474553Y-107488630D01*
X166395354Y-107546172D01*
X166395352Y-107546174D01*
X166395351Y-107546174D01*
X166256174Y-107685351D01*
X166256174Y-107685352D01*
X166256172Y-107685354D01*
X166242368Y-107704354D01*
X166140476Y-107844594D01*
X166050485Y-108021213D01*
X166002511Y-108072009D01*
X165934690Y-108088804D01*
X165868555Y-108066267D01*
X165829515Y-108021213D01*
X165802397Y-107967992D01*
X165739524Y-107844595D01*
X165623828Y-107685354D01*
X165506818Y-107568344D01*
X165473334Y-107507021D01*
X165470500Y-107480663D01*
X165470500Y-95955928D01*
X165445501Y-95830256D01*
X165445500Y-95830253D01*
X165404726Y-95731817D01*
X165396465Y-95711873D01*
X165392094Y-95705331D01*
X165392093Y-95705330D01*
X165325276Y-95605330D01*
X165325274Y-95605327D01*
X165325271Y-95605324D01*
X164861295Y-95141349D01*
X164834415Y-95101121D01*
X164820775Y-95068189D01*
X164787947Y-95019058D01*
X164744114Y-94953457D01*
X164646545Y-94855888D01*
X164646541Y-94855885D01*
X164531817Y-94779228D01*
X164531804Y-94779221D01*
X164404332Y-94726421D01*
X164404322Y-94726418D01*
X164268995Y-94699500D01*
X164268993Y-94699500D01*
X164131007Y-94699500D01*
X164131005Y-94699500D01*
X163995677Y-94726418D01*
X163995667Y-94726421D01*
X163868195Y-94779221D01*
X163868182Y-94779228D01*
X163753458Y-94855885D01*
X163753454Y-94855888D01*
X163655888Y-94953454D01*
X163655885Y-94953458D01*
X163579228Y-95068182D01*
X163579221Y-95068195D01*
X163526421Y-95195667D01*
X163526418Y-95195677D01*
X163499500Y-95331004D01*
X163499500Y-95331007D01*
X163499500Y-95468993D01*
X163499500Y-95468995D01*
X163499499Y-95468995D01*
X163526418Y-95604322D01*
X163526421Y-95604332D01*
X163579221Y-95731804D01*
X163579228Y-95731817D01*
X163655885Y-95846541D01*
X163655888Y-95846545D01*
X163753457Y-95944114D01*
X163852445Y-96010255D01*
X163868189Y-96020775D01*
X163901121Y-96034415D01*
X163941349Y-96061295D01*
X164133181Y-96253127D01*
X164166666Y-96314450D01*
X164169500Y-96340808D01*
X164169500Y-107275560D01*
X164149815Y-107342599D01*
X164101795Y-107386045D01*
X164014594Y-107430476D01*
X163934553Y-107488630D01*
X163855354Y-107546172D01*
X163855352Y-107546174D01*
X163855351Y-107546174D01*
X163716174Y-107685351D01*
X163716174Y-107685352D01*
X163716172Y-107685354D01*
X163669818Y-107749155D01*
X163600474Y-107844597D01*
X163566319Y-107911630D01*
X163518345Y-107962425D01*
X163450524Y-107979220D01*
X163384389Y-107956682D01*
X163345350Y-107911629D01*
X163284624Y-107792449D01*
X163245270Y-107738282D01*
X163245269Y-107738282D01*
X162612962Y-108370590D01*
X162595925Y-108307007D01*
X162530099Y-108192993D01*
X162437007Y-108099901D01*
X162322993Y-108034075D01*
X162259409Y-108017037D01*
X162891716Y-107384728D01*
X162837550Y-107345375D01*
X162648217Y-107248904D01*
X162446129Y-107183242D01*
X162236246Y-107150000D01*
X162023754Y-107150000D01*
X161813872Y-107183242D01*
X161813869Y-107183242D01*
X161611782Y-107248904D01*
X161422439Y-107345380D01*
X161368282Y-107384727D01*
X161368282Y-107384728D01*
X162000591Y-108017037D01*
X161937007Y-108034075D01*
X161822993Y-108099901D01*
X161729901Y-108192993D01*
X161664075Y-108307007D01*
X161647037Y-108370591D01*
X161014728Y-107738282D01*
X161014727Y-107738282D01*
X160975380Y-107792440D01*
X160975378Y-107792443D01*
X160914648Y-107911630D01*
X160866673Y-107962426D01*
X160798852Y-107979220D01*
X160732717Y-107956682D01*
X160693679Y-107911628D01*
X160659525Y-107844596D01*
X160625525Y-107797799D01*
X160543828Y-107685354D01*
X160426818Y-107568344D01*
X160412111Y-107541410D01*
X160395523Y-107515598D01*
X160394631Y-107509397D01*
X160393334Y-107507021D01*
X160390500Y-107480663D01*
X160390500Y-100931472D01*
X160410185Y-100864433D01*
X160462989Y-100818678D01*
X160479890Y-100812400D01*
X160628019Y-100769365D01*
X160769486Y-100685702D01*
X160885702Y-100569486D01*
X160969365Y-100428019D01*
X160993058Y-100346467D01*
X161030662Y-100287585D01*
X161094134Y-100258378D01*
X161163321Y-100268124D01*
X161212451Y-100308180D01*
X161238143Y-100343542D01*
X161238145Y-100343543D01*
X161917621Y-99664067D01*
X161917621Y-99670282D01*
X161944880Y-99772015D01*
X161997541Y-99863227D01*
X162072015Y-99937701D01*
X162163227Y-99990362D01*
X162264960Y-100017621D01*
X162271174Y-100017621D01*
X161591697Y-100697095D01*
X161636271Y-100729480D01*
X161818589Y-100822376D01*
X162013203Y-100885611D01*
X162215304Y-100917621D01*
X162419938Y-100917621D01*
X162622038Y-100885611D01*
X162816652Y-100822376D01*
X162998970Y-100729480D01*
X163043542Y-100697095D01*
X162364068Y-100017621D01*
X162370282Y-100017621D01*
X162472015Y-99990362D01*
X162563227Y-99937701D01*
X162637701Y-99863227D01*
X162690362Y-99772015D01*
X162717621Y-99670282D01*
X162717621Y-99664069D01*
X163397095Y-100343543D01*
X163397095Y-100343542D01*
X163429480Y-100298970D01*
X163522376Y-100116652D01*
X163585611Y-99922038D01*
X163617621Y-99719938D01*
X163617621Y-99515303D01*
X163585611Y-99313203D01*
X163522376Y-99118589D01*
X163429480Y-98936271D01*
X163397095Y-98891698D01*
X163397095Y-98891697D01*
X162717621Y-99571172D01*
X162717621Y-99564960D01*
X162690362Y-99463227D01*
X162637701Y-99372015D01*
X162563227Y-99297541D01*
X162472015Y-99244880D01*
X162370282Y-99217621D01*
X162364067Y-99217621D01*
X163043543Y-98538145D01*
X163043542Y-98538144D01*
X162998980Y-98505768D01*
X162998971Y-98505762D01*
X162816652Y-98412865D01*
X162622038Y-98349630D01*
X162419938Y-98317621D01*
X162215304Y-98317621D01*
X162013203Y-98349630D01*
X161818589Y-98412865D01*
X161636265Y-98505764D01*
X161591698Y-98538144D01*
X161591698Y-98538145D01*
X162271175Y-99217621D01*
X162264960Y-99217621D01*
X162163227Y-99244880D01*
X162072015Y-99297541D01*
X161997541Y-99372015D01*
X161944880Y-99463227D01*
X161917621Y-99564960D01*
X161917621Y-99571174D01*
X161238145Y-98891698D01*
X161238143Y-98891698D01*
X161212451Y-98927061D01*
X161157121Y-98969727D01*
X161087508Y-98975706D01*
X161025713Y-98943100D01*
X160993057Y-98888772D01*
X160969365Y-98807223D01*
X160885702Y-98665756D01*
X160885701Y-98665754D01*
X160769491Y-98549544D01*
X160769483Y-98549538D01*
X160628017Y-98465876D01*
X160628014Y-98465874D01*
X160557526Y-98445396D01*
X160498640Y-98407790D01*
X160469434Y-98344317D01*
X160468121Y-98326320D01*
X160468121Y-95003186D01*
X160487806Y-94936147D01*
X160504440Y-94915505D01*
X162005273Y-93414672D01*
X162005276Y-93414669D01*
X162076465Y-93308127D01*
X162125501Y-93189744D01*
X162125944Y-93187515D01*
X162150500Y-93064069D01*
X162150500Y-83120808D01*
X162170185Y-83053769D01*
X162186819Y-83033127D01*
X162833127Y-82386819D01*
X162894450Y-82353334D01*
X162920808Y-82350500D01*
X168164071Y-82350500D01*
X168248615Y-82333682D01*
X168289744Y-82325501D01*
X168408127Y-82276465D01*
X168433152Y-82259744D01*
X168514669Y-82205277D01*
X169005276Y-81714670D01*
X169076465Y-81608127D01*
X169125501Y-81489744D01*
X169134501Y-81444499D01*
X169150500Y-81364069D01*
X169150500Y-75197682D01*
X173700000Y-75197682D01*
X173700000Y-75402317D01*
X173732009Y-75604417D01*
X173795244Y-75799031D01*
X173888141Y-75981350D01*
X173888147Y-75981359D01*
X173920523Y-76025921D01*
X173920524Y-76025922D01*
X174600000Y-75346446D01*
X174600000Y-75352661D01*
X174627259Y-75454394D01*
X174679920Y-75545606D01*
X174754394Y-75620080D01*
X174845606Y-75672741D01*
X174947339Y-75700000D01*
X174953553Y-75700000D01*
X174274076Y-76379474D01*
X174318650Y-76411859D01*
X174500968Y-76504755D01*
X174695582Y-76567990D01*
X174897683Y-76600000D01*
X175102317Y-76600000D01*
X175304417Y-76567990D01*
X175499031Y-76504755D01*
X175681349Y-76411859D01*
X175725921Y-76379474D01*
X175046447Y-75700000D01*
X175052661Y-75700000D01*
X175154394Y-75672741D01*
X175245606Y-75620080D01*
X175320080Y-75545606D01*
X175372741Y-75454394D01*
X175400000Y-75352661D01*
X175400000Y-75346447D01*
X176079474Y-76025921D01*
X176111859Y-75981349D01*
X176204755Y-75799031D01*
X176267990Y-75604417D01*
X176300000Y-75402317D01*
X176300000Y-75197682D01*
X176267990Y-74995582D01*
X176204755Y-74800968D01*
X176111859Y-74618650D01*
X176079474Y-74574077D01*
X176079474Y-74574076D01*
X175400000Y-75253551D01*
X175400000Y-75247339D01*
X175372741Y-75145606D01*
X175320080Y-75054394D01*
X175245606Y-74979920D01*
X175154394Y-74927259D01*
X175052661Y-74900000D01*
X175046446Y-74900000D01*
X175725922Y-74220524D01*
X175725921Y-74220523D01*
X175681359Y-74188147D01*
X175681350Y-74188141D01*
X175499031Y-74095244D01*
X175304417Y-74032009D01*
X175102317Y-74000000D01*
X174897683Y-74000000D01*
X174695582Y-74032009D01*
X174500968Y-74095244D01*
X174318644Y-74188143D01*
X174274077Y-74220523D01*
X174274077Y-74220524D01*
X174953554Y-74900000D01*
X174947339Y-74900000D01*
X174845606Y-74927259D01*
X174754394Y-74979920D01*
X174679920Y-75054394D01*
X174627259Y-75145606D01*
X174600000Y-75247339D01*
X174600000Y-75253553D01*
X173920524Y-74574077D01*
X173920523Y-74574077D01*
X173888143Y-74618644D01*
X173795244Y-74800968D01*
X173732009Y-74995582D01*
X173700000Y-75197682D01*
X169150500Y-75197682D01*
X169150500Y-71520807D01*
X169170185Y-71453768D01*
X169186819Y-71433126D01*
X169633126Y-70986819D01*
X169694449Y-70953334D01*
X169720807Y-70950500D01*
X178679192Y-70950500D01*
X178746231Y-70970185D01*
G37*
%TD.AperFunction*%
%TA.AperFunction,Conductor*%
G36*
X203967539Y-55110185D02*
G01*
X204013294Y-55162989D01*
X204024500Y-55214500D01*
X204024500Y-107204262D01*
X204004815Y-107271301D01*
X203952011Y-107317056D01*
X203882853Y-107327000D01*
X203844205Y-107314747D01*
X203827295Y-107306131D01*
X203776582Y-107280291D01*
X203745301Y-107264352D01*
X203651524Y-107249500D01*
X201888482Y-107249500D01*
X201807519Y-107262323D01*
X201794696Y-107264354D01*
X201681658Y-107321950D01*
X201681657Y-107321951D01*
X201681652Y-107321954D01*
X201591954Y-107411652D01*
X201591951Y-107411657D01*
X201534352Y-107524698D01*
X201519500Y-107618475D01*
X201519500Y-107765733D01*
X201499815Y-107832772D01*
X201447011Y-107878527D01*
X201377853Y-107888471D01*
X201314297Y-107859446D01*
X201295182Y-107838619D01*
X201285014Y-107824624D01*
X201183828Y-107685354D01*
X201044646Y-107546172D01*
X200885405Y-107430476D01*
X200880498Y-107427976D01*
X200710029Y-107341117D01*
X200522826Y-107280290D01*
X200328422Y-107249500D01*
X200328417Y-107249500D01*
X200131583Y-107249500D01*
X200131578Y-107249500D01*
X199937173Y-107280290D01*
X199749970Y-107341117D01*
X199574594Y-107430476D01*
X199494553Y-107488630D01*
X199415354Y-107546172D01*
X199415352Y-107546174D01*
X199415351Y-107546174D01*
X199276174Y-107685351D01*
X199276174Y-107685352D01*
X199276172Y-107685354D01*
X199262368Y-107704354D01*
X199160476Y-107844594D01*
X199070485Y-108021213D01*
X199022511Y-108072009D01*
X198954690Y-108088804D01*
X198888555Y-108066267D01*
X198849515Y-108021213D01*
X198822397Y-107967992D01*
X198759524Y-107844595D01*
X198643828Y-107685354D01*
X198504646Y-107546172D01*
X198345405Y-107430476D01*
X198340498Y-107427976D01*
X198170029Y-107341117D01*
X197982826Y-107280290D01*
X197788422Y-107249500D01*
X197788417Y-107249500D01*
X197591583Y-107249500D01*
X197591578Y-107249500D01*
X197397173Y-107280290D01*
X197209970Y-107341117D01*
X197034594Y-107430476D01*
X196954553Y-107488630D01*
X196875354Y-107546172D01*
X196875352Y-107546174D01*
X196875351Y-107546174D01*
X196736174Y-107685351D01*
X196736174Y-107685352D01*
X196736172Y-107685354D01*
X196722368Y-107704354D01*
X196620476Y-107844594D01*
X196530485Y-108021213D01*
X196482511Y-108072009D01*
X196414690Y-108088804D01*
X196348555Y-108066267D01*
X196309515Y-108021213D01*
X196282397Y-107967992D01*
X196219524Y-107844595D01*
X196103828Y-107685354D01*
X195986818Y-107568344D01*
X195953334Y-107507021D01*
X195950500Y-107480663D01*
X195950500Y-105535928D01*
X195925502Y-105410261D01*
X195925501Y-105410260D01*
X195925501Y-105410256D01*
X195876465Y-105291873D01*
X195805277Y-105185331D01*
X195805275Y-105185329D01*
X195805273Y-105185326D01*
X193036819Y-102416872D01*
X193003334Y-102355549D01*
X193000500Y-102329191D01*
X193000500Y-101885258D01*
X199249500Y-101885258D01*
X199249500Y-102114741D01*
X199272541Y-102289744D01*
X199279452Y-102342238D01*
X199325656Y-102514675D01*
X199338842Y-102563887D01*
X199426650Y-102775876D01*
X199426656Y-102775888D01*
X199531871Y-102958127D01*
X199541392Y-102974617D01*
X199681081Y-103156661D01*
X199681089Y-103156670D01*
X199843330Y-103318911D01*
X199843338Y-103318918D01*
X200025382Y-103458607D01*
X200025385Y-103458608D01*
X200025388Y-103458611D01*
X200224112Y-103573344D01*
X200224117Y-103573346D01*
X200224123Y-103573349D01*
X200315480Y-103611190D01*
X200436113Y-103661158D01*
X200657762Y-103720548D01*
X200885266Y-103750500D01*
X200885273Y-103750500D01*
X201114727Y-103750500D01*
X201114734Y-103750500D01*
X201342238Y-103720548D01*
X201563887Y-103661158D01*
X201775888Y-103573344D01*
X201974612Y-103458611D01*
X202156661Y-103318919D01*
X202156665Y-103318914D01*
X202156670Y-103318911D01*
X202318911Y-103156670D01*
X202318914Y-103156665D01*
X202318919Y-103156661D01*
X202458611Y-102974612D01*
X202573344Y-102775888D01*
X202661158Y-102563887D01*
X202720548Y-102342238D01*
X202750500Y-102114734D01*
X202750500Y-101885266D01*
X202720548Y-101657762D01*
X202661158Y-101436113D01*
X202582854Y-101247070D01*
X202573349Y-101224123D01*
X202573346Y-101224117D01*
X202573344Y-101224112D01*
X202458611Y-101025388D01*
X202458608Y-101025385D01*
X202458607Y-101025382D01*
X202318918Y-100843338D01*
X202318911Y-100843330D01*
X202156670Y-100681089D01*
X202156661Y-100681081D01*
X201974617Y-100541392D01*
X201775890Y-100426657D01*
X201775876Y-100426650D01*
X201563887Y-100338842D01*
X201342238Y-100279452D01*
X201304215Y-100274446D01*
X201114741Y-100249500D01*
X201114734Y-100249500D01*
X200885266Y-100249500D01*
X200885258Y-100249500D01*
X200668715Y-100278009D01*
X200657762Y-100279452D01*
X200627409Y-100287585D01*
X200436112Y-100338842D01*
X200224123Y-100426650D01*
X200224109Y-100426657D01*
X200025382Y-100541392D01*
X199843338Y-100681081D01*
X199681081Y-100843338D01*
X199541392Y-101025382D01*
X199426657Y-101224109D01*
X199426650Y-101224123D01*
X199338842Y-101436112D01*
X199279453Y-101657759D01*
X199279451Y-101657770D01*
X199249500Y-101885258D01*
X193000500Y-101885258D01*
X193000500Y-78785928D01*
X192975502Y-78660261D01*
X192975501Y-78660260D01*
X192975501Y-78660256D01*
X192926465Y-78541873D01*
X192914212Y-78523535D01*
X192914211Y-78523532D01*
X192855278Y-78435332D01*
X192855272Y-78435325D01*
X192324673Y-77904726D01*
X192324061Y-77904317D01*
X192218127Y-77833535D01*
X192198149Y-77825260D01*
X192099744Y-77784499D01*
X192081153Y-77780801D01*
X192074562Y-77779490D01*
X191974071Y-77759500D01*
X191974069Y-77759500D01*
X190986301Y-77759500D01*
X190919262Y-77739815D01*
X190873507Y-77687011D01*
X190867225Y-77670095D01*
X190846746Y-77599606D01*
X190846744Y-77599603D01*
X190846744Y-77599602D01*
X190763081Y-77458135D01*
X190763079Y-77458133D01*
X190763076Y-77458129D01*
X190646870Y-77341923D01*
X190646862Y-77341917D01*
X190512907Y-77262697D01*
X190505398Y-77258256D01*
X190505397Y-77258255D01*
X190505396Y-77258255D01*
X190505393Y-77258254D01*
X190347573Y-77212402D01*
X190347567Y-77212401D01*
X190310701Y-77209500D01*
X190310694Y-77209500D01*
X189079306Y-77209500D01*
X189079298Y-77209500D01*
X189042432Y-77212401D01*
X189042426Y-77212402D01*
X188884606Y-77258254D01*
X188884603Y-77258255D01*
X188743137Y-77341917D01*
X188743129Y-77341923D01*
X188626923Y-77458129D01*
X188626917Y-77458137D01*
X188543255Y-77599603D01*
X188543254Y-77599606D01*
X188497402Y-77757426D01*
X188497401Y-77757432D01*
X188494500Y-77794298D01*
X188494500Y-79025701D01*
X188497401Y-79062567D01*
X188497402Y-79062573D01*
X188543254Y-79220393D01*
X188543255Y-79220396D01*
X188626917Y-79361862D01*
X188626923Y-79361870D01*
X188743129Y-79478076D01*
X188743133Y-79478079D01*
X188743135Y-79478081D01*
X188884602Y-79561744D01*
X188885721Y-79562069D01*
X189042426Y-79607597D01*
X189042429Y-79607597D01*
X189042431Y-79607598D01*
X189079306Y-79610500D01*
X189079314Y-79610500D01*
X189163090Y-79610500D01*
X189230129Y-79630185D01*
X189275884Y-79682989D01*
X189285828Y-79752147D01*
X189256803Y-79815703D01*
X189219385Y-79844985D01*
X189065800Y-79923240D01*
X188978579Y-79986610D01*
X188912927Y-80034310D01*
X188912925Y-80034312D01*
X188912924Y-80034312D01*
X188779312Y-80167924D01*
X188779312Y-80167925D01*
X188779310Y-80167927D01*
X188731610Y-80233579D01*
X188668240Y-80320800D01*
X188582454Y-80489163D01*
X188524059Y-80668881D01*
X188494500Y-80855513D01*
X188494500Y-81044486D01*
X188524059Y-81231118D01*
X188582454Y-81410836D01*
X188661355Y-81565686D01*
X188668240Y-81579199D01*
X188779310Y-81732073D01*
X188912927Y-81865690D01*
X189065801Y-81976760D01*
X189145347Y-82017290D01*
X189234163Y-82062545D01*
X189234165Y-82062545D01*
X189234168Y-82062547D01*
X189323734Y-82091649D01*
X189355803Y-82102069D01*
X189413478Y-82141507D01*
X189440676Y-82205866D01*
X189428761Y-82274712D01*
X189381516Y-82326188D01*
X189355803Y-82337931D01*
X189234163Y-82377454D01*
X189065800Y-82463240D01*
X189036305Y-82484670D01*
X188912927Y-82574310D01*
X188912925Y-82574312D01*
X188912924Y-82574312D01*
X188779312Y-82707924D01*
X188779312Y-82707925D01*
X188779310Y-82707927D01*
X188758966Y-82735928D01*
X188668240Y-82860800D01*
X188582454Y-83029163D01*
X188524059Y-83208881D01*
X188494500Y-83395513D01*
X188494500Y-83584486D01*
X188524059Y-83771118D01*
X188582454Y-83950836D01*
X188666355Y-84115500D01*
X188668240Y-84119199D01*
X188779310Y-84272073D01*
X188912927Y-84405690D01*
X189065801Y-84516760D01*
X189145347Y-84557290D01*
X189234163Y-84602545D01*
X189234165Y-84602545D01*
X189234168Y-84602547D01*
X189323734Y-84631649D01*
X189355803Y-84642069D01*
X189413478Y-84681507D01*
X189440676Y-84745866D01*
X189428761Y-84814712D01*
X189381516Y-84866188D01*
X189355803Y-84877931D01*
X189234163Y-84917454D01*
X189065800Y-85003240D01*
X188978579Y-85066610D01*
X188912927Y-85114310D01*
X188912925Y-85114312D01*
X188912924Y-85114312D01*
X188779312Y-85247924D01*
X188779312Y-85247925D01*
X188779310Y-85247927D01*
X188701703Y-85354744D01*
X188669995Y-85398386D01*
X188614665Y-85441051D01*
X188569677Y-85449500D01*
X186735929Y-85449500D01*
X186610261Y-85474497D01*
X186610255Y-85474499D01*
X186491875Y-85523533D01*
X186491866Y-85523538D01*
X186385331Y-85594723D01*
X186385327Y-85594726D01*
X185394727Y-86585325D01*
X185394724Y-86585328D01*
X185350317Y-86651788D01*
X185350318Y-86651789D01*
X185323534Y-86691874D01*
X185274499Y-86810255D01*
X185274497Y-86810261D01*
X185249500Y-86935928D01*
X185249500Y-88670192D01*
X185229815Y-88737231D01*
X185177011Y-88782986D01*
X185107853Y-88792930D01*
X185044297Y-88763905D01*
X185037819Y-88757873D01*
X182356819Y-86076873D01*
X182323334Y-86015550D01*
X182320500Y-85989192D01*
X182320500Y-85935513D01*
X182290940Y-85748881D01*
X182240851Y-85594726D01*
X182232547Y-85569168D01*
X182232545Y-85569165D01*
X182232545Y-85569163D01*
X182146759Y-85400800D01*
X182113297Y-85354744D01*
X182035690Y-85247927D01*
X181902073Y-85114310D01*
X181749199Y-85003240D01*
X181580836Y-84917454D01*
X181506472Y-84893291D01*
X181459195Y-84877930D01*
X181401521Y-84838493D01*
X181374323Y-84774134D01*
X181386238Y-84705288D01*
X181433482Y-84653812D01*
X181459194Y-84642069D01*
X181580832Y-84602547D01*
X181749199Y-84516760D01*
X181902073Y-84405690D01*
X182035690Y-84272073D01*
X182146760Y-84119199D01*
X182232547Y-83950832D01*
X182290940Y-83771118D01*
X182298482Y-83723498D01*
X182320500Y-83584486D01*
X182320500Y-83395513D01*
X182290940Y-83208881D01*
X182232545Y-83029163D01*
X182148644Y-82864499D01*
X182146760Y-82860801D01*
X182035690Y-82707927D01*
X181902073Y-82574310D01*
X181749199Y-82463240D01*
X181580836Y-82377454D01*
X181497880Y-82350500D01*
X181459195Y-82337930D01*
X181401521Y-82298493D01*
X181374323Y-82234134D01*
X181386238Y-82165288D01*
X181433482Y-82113812D01*
X181459194Y-82102069D01*
X181580832Y-82062547D01*
X181749199Y-81976760D01*
X181902073Y-81865690D01*
X182035690Y-81732073D01*
X182146760Y-81579199D01*
X182232547Y-81410832D01*
X182290940Y-81231118D01*
X182296704Y-81194723D01*
X182320500Y-81044486D01*
X182320500Y-80855513D01*
X182290940Y-80668881D01*
X182252475Y-80550500D01*
X182232547Y-80489168D01*
X182232545Y-80489165D01*
X182232545Y-80489163D01*
X182184113Y-80394111D01*
X182146760Y-80320801D01*
X182035690Y-80167927D01*
X181902073Y-80034310D01*
X181888571Y-80024500D01*
X181821613Y-79975851D01*
X181778948Y-79920521D01*
X181770500Y-79875534D01*
X181770500Y-76355928D01*
X181745502Y-76230261D01*
X181745501Y-76230260D01*
X181745501Y-76230256D01*
X181696465Y-76111873D01*
X181696464Y-76111872D01*
X181696461Y-76111866D01*
X181625277Y-76005332D01*
X181593746Y-75973801D01*
X181534669Y-75914724D01*
X181219733Y-75599788D01*
X181186248Y-75538465D01*
X181184941Y-75492714D01*
X181200500Y-75394481D01*
X181200500Y-75205519D01*
X181200500Y-75205513D01*
X181170940Y-75018881D01*
X181123066Y-74871542D01*
X181112547Y-74839168D01*
X181112545Y-74839165D01*
X181112545Y-74839163D01*
X181026759Y-74670800D01*
X180915690Y-74517927D01*
X180782073Y-74384310D01*
X180743118Y-74356007D01*
X180701613Y-74325851D01*
X180658948Y-74270521D01*
X180650500Y-74225534D01*
X180650500Y-71235928D01*
X180625502Y-71110261D01*
X180625501Y-71110260D01*
X180625501Y-71110256D01*
X180584080Y-71010256D01*
X180576466Y-70991874D01*
X180573088Y-70986819D01*
X180505278Y-70885332D01*
X180505272Y-70885325D01*
X179414673Y-69794726D01*
X179397314Y-69783127D01*
X179308127Y-69723535D01*
X179189744Y-69674499D01*
X179189738Y-69674497D01*
X179064071Y-69649500D01*
X179064069Y-69649500D01*
X169335931Y-69649500D01*
X169335929Y-69649500D01*
X169298692Y-69656907D01*
X169229100Y-69650680D01*
X169173923Y-69607817D01*
X169150678Y-69541928D01*
X169150500Y-69535290D01*
X169150500Y-62368995D01*
X170299499Y-62368995D01*
X170326418Y-62504322D01*
X170326421Y-62504332D01*
X170379221Y-62631804D01*
X170379228Y-62631817D01*
X170455885Y-62746541D01*
X170455888Y-62746545D01*
X170553454Y-62844111D01*
X170553458Y-62844114D01*
X170668182Y-62920771D01*
X170668195Y-62920778D01*
X170772710Y-62964069D01*
X170795672Y-62973580D01*
X170795676Y-62973580D01*
X170795677Y-62973581D01*
X170931004Y-63000500D01*
X170931007Y-63000500D01*
X171068995Y-63000500D01*
X171160041Y-62982389D01*
X171204328Y-62973580D01*
X171331811Y-62920775D01*
X171446542Y-62844114D01*
X171544114Y-62746542D01*
X171620775Y-62631811D01*
X171634415Y-62598877D01*
X171661293Y-62558651D01*
X172523127Y-61696819D01*
X172584450Y-61663334D01*
X172610808Y-61660500D01*
X178283732Y-61660500D01*
X178350771Y-61680185D01*
X178384049Y-61711614D01*
X178466172Y-61824646D01*
X178605354Y-61963828D01*
X178764595Y-62079524D01*
X178849072Y-62122567D01*
X178941213Y-62169515D01*
X178992009Y-62217489D01*
X179008804Y-62285310D01*
X178986267Y-62351445D01*
X178941213Y-62390485D01*
X178764594Y-62480476D01*
X178731760Y-62504332D01*
X178605354Y-62596172D01*
X178605352Y-62596174D01*
X178605351Y-62596174D01*
X178466174Y-62735351D01*
X178466174Y-62735352D01*
X178466172Y-62735354D01*
X178455303Y-62750314D01*
X178350476Y-62894594D01*
X178261117Y-63069970D01*
X178200290Y-63257173D01*
X178169500Y-63451577D01*
X178169500Y-63648422D01*
X178200290Y-63842826D01*
X178261117Y-64030029D01*
X178324999Y-64155403D01*
X178350476Y-64205405D01*
X178466172Y-64364646D01*
X178605354Y-64503828D01*
X178764595Y-64619524D01*
X178841367Y-64658641D01*
X178939970Y-64708882D01*
X178939972Y-64708882D01*
X178939975Y-64708884D01*
X179029560Y-64737992D01*
X179127173Y-64769709D01*
X179321578Y-64800500D01*
X179321583Y-64800500D01*
X179518422Y-64800500D01*
X179712826Y-64769709D01*
X179712829Y-64769708D01*
X179900025Y-64708884D01*
X180075405Y-64619524D01*
X180234646Y-64503828D01*
X180373828Y-64364646D01*
X180489524Y-64205405D01*
X180578884Y-64030025D01*
X180579515Y-64028787D01*
X180627489Y-63977990D01*
X180695310Y-63961195D01*
X180761445Y-63983732D01*
X180800485Y-64028787D01*
X180890474Y-64205403D01*
X180921770Y-64248477D01*
X181006172Y-64364646D01*
X181145354Y-64503828D01*
X181304595Y-64619524D01*
X181381367Y-64658641D01*
X181479970Y-64708882D01*
X181479972Y-64708882D01*
X181479975Y-64708884D01*
X181569560Y-64737992D01*
X181667173Y-64769709D01*
X181861578Y-64800500D01*
X181861583Y-64800500D01*
X182058422Y-64800500D01*
X182252820Y-64769710D01*
X182252820Y-64769709D01*
X182252826Y-64769709D01*
X182344295Y-64739987D01*
X182414133Y-64737992D01*
X182470292Y-64770238D01*
X183688181Y-65988127D01*
X183721666Y-66049450D01*
X183724500Y-66075808D01*
X183724500Y-74140287D01*
X183715062Y-74187734D01*
X183701420Y-74220672D01*
X183701418Y-74220678D01*
X183674500Y-74356004D01*
X183674500Y-74356007D01*
X183674500Y-74493993D01*
X183674500Y-74493995D01*
X183674499Y-74493995D01*
X183701418Y-74629322D01*
X183701421Y-74629332D01*
X183754221Y-74756804D01*
X183754228Y-74756817D01*
X183830885Y-74871541D01*
X183830888Y-74871545D01*
X183928454Y-74969111D01*
X183928458Y-74969114D01*
X184043182Y-75045771D01*
X184043195Y-75045778D01*
X184170667Y-75098578D01*
X184170672Y-75098580D01*
X184170676Y-75098580D01*
X184170677Y-75098581D01*
X184306004Y-75125500D01*
X184306007Y-75125500D01*
X184443995Y-75125500D01*
X184535041Y-75107389D01*
X184579328Y-75098580D01*
X184706811Y-75045775D01*
X184821542Y-74969114D01*
X184919114Y-74871542D01*
X184995775Y-74756811D01*
X185048580Y-74629328D01*
X185074305Y-74500000D01*
X185075500Y-74493995D01*
X185075500Y-74356004D01*
X185048880Y-74222182D01*
X185048580Y-74220672D01*
X185034937Y-74187734D01*
X185025500Y-74140287D01*
X185025500Y-72697682D01*
X189950000Y-72697682D01*
X189950000Y-72902317D01*
X189982009Y-73104417D01*
X190045244Y-73299031D01*
X190138141Y-73481350D01*
X190138147Y-73481359D01*
X190170523Y-73525921D01*
X190170524Y-73525922D01*
X190850000Y-72846446D01*
X190850000Y-72852661D01*
X190877259Y-72954394D01*
X190929920Y-73045606D01*
X191004394Y-73120080D01*
X191095606Y-73172741D01*
X191197339Y-73200000D01*
X191203553Y-73200000D01*
X190524076Y-73879474D01*
X190568650Y-73911859D01*
X190750968Y-74004755D01*
X190945582Y-74067990D01*
X191147683Y-74100000D01*
X191352317Y-74100000D01*
X191554417Y-74067990D01*
X191749031Y-74004755D01*
X191931349Y-73911859D01*
X191975921Y-73879474D01*
X191296447Y-73200000D01*
X191302661Y-73200000D01*
X191404394Y-73172741D01*
X191495606Y-73120080D01*
X191570080Y-73045606D01*
X191622741Y-72954394D01*
X191650000Y-72852661D01*
X191650000Y-72846447D01*
X192329474Y-73525921D01*
X192361859Y-73481349D01*
X192454755Y-73299031D01*
X192517990Y-73104417D01*
X192550000Y-72902317D01*
X192550000Y-72697682D01*
X192517990Y-72495582D01*
X192454755Y-72300968D01*
X192361859Y-72118650D01*
X192329474Y-72074077D01*
X192329474Y-72074076D01*
X191650000Y-72753551D01*
X191650000Y-72747339D01*
X191622741Y-72645606D01*
X191570080Y-72554394D01*
X191495606Y-72479920D01*
X191404394Y-72427259D01*
X191302661Y-72400000D01*
X191296446Y-72400000D01*
X191975922Y-71720524D01*
X191975921Y-71720523D01*
X191931359Y-71688147D01*
X191931350Y-71688141D01*
X191749031Y-71595244D01*
X191554417Y-71532009D01*
X191352317Y-71500000D01*
X191147683Y-71500000D01*
X190945582Y-71532009D01*
X190750968Y-71595244D01*
X190568644Y-71688143D01*
X190524077Y-71720523D01*
X190524077Y-71720524D01*
X191203554Y-72400000D01*
X191197339Y-72400000D01*
X191095606Y-72427259D01*
X191004394Y-72479920D01*
X190929920Y-72554394D01*
X190877259Y-72645606D01*
X190850000Y-72747339D01*
X190850000Y-72753553D01*
X190170524Y-72074077D01*
X190170523Y-72074077D01*
X190138143Y-72118644D01*
X190045244Y-72300968D01*
X189982009Y-72495582D01*
X189950000Y-72697682D01*
X185025500Y-72697682D01*
X185025500Y-65690928D01*
X185000502Y-65565261D01*
X185000501Y-65565260D01*
X185000501Y-65565256D01*
X184951465Y-65446873D01*
X184944858Y-65436985D01*
X184944857Y-65436983D01*
X184944857Y-65436984D01*
X184880277Y-65340331D01*
X184880275Y-65340329D01*
X184880273Y-65340326D01*
X184880272Y-65340325D01*
X184547802Y-65007856D01*
X184514317Y-64946533D01*
X184519301Y-64876842D01*
X184561172Y-64820908D01*
X184616085Y-64797702D01*
X184657237Y-64791183D01*
X184792826Y-64769709D01*
X184980025Y-64708884D01*
X185155405Y-64619524D01*
X185314646Y-64503828D01*
X185453828Y-64364646D01*
X185569524Y-64205405D01*
X185658884Y-64030025D01*
X185659515Y-64028787D01*
X185707489Y-63977990D01*
X185775310Y-63961195D01*
X185841445Y-63983732D01*
X185880485Y-64028787D01*
X185970474Y-64205403D01*
X186001770Y-64248477D01*
X186086172Y-64364646D01*
X186225354Y-64503828D01*
X186384595Y-64619524D01*
X186461367Y-64658641D01*
X186559970Y-64708882D01*
X186559972Y-64708882D01*
X186559975Y-64708884D01*
X186649560Y-64737992D01*
X186747173Y-64769709D01*
X186941578Y-64800500D01*
X186941583Y-64800500D01*
X187138422Y-64800500D01*
X187332826Y-64769709D01*
X187332829Y-64769708D01*
X187520025Y-64708884D01*
X187695405Y-64619524D01*
X187854646Y-64503828D01*
X187993828Y-64364646D01*
X188109524Y-64205405D01*
X188198884Y-64030025D01*
X188199515Y-64028787D01*
X188247489Y-63977990D01*
X188315310Y-63961195D01*
X188381445Y-63983732D01*
X188420485Y-64028787D01*
X188510474Y-64205403D01*
X188541770Y-64248477D01*
X188626172Y-64364646D01*
X188765354Y-64503828D01*
X188924595Y-64619524D01*
X189001367Y-64658641D01*
X189099970Y-64708882D01*
X189099972Y-64708882D01*
X189099975Y-64708884D01*
X189189560Y-64737992D01*
X189287173Y-64769709D01*
X189481578Y-64800500D01*
X189481583Y-64800500D01*
X189678422Y-64800500D01*
X189872826Y-64769709D01*
X189872829Y-64769708D01*
X190060025Y-64708884D01*
X190235405Y-64619524D01*
X190394646Y-64503828D01*
X190533828Y-64364646D01*
X190649524Y-64205405D01*
X190738884Y-64030025D01*
X190799709Y-63842826D01*
X190818995Y-63721059D01*
X190830500Y-63648422D01*
X190830500Y-63451577D01*
X190799709Y-63257173D01*
X190753925Y-63116267D01*
X190738884Y-63069975D01*
X190738882Y-63069972D01*
X190738882Y-63069970D01*
X190684925Y-62964073D01*
X190649524Y-62894595D01*
X190533828Y-62735354D01*
X190394646Y-62596172D01*
X190241377Y-62484815D01*
X190198714Y-62429487D01*
X190192735Y-62359873D01*
X190225341Y-62298078D01*
X190286180Y-62263721D01*
X190314264Y-62260499D01*
X190461518Y-62260499D01*
X190555304Y-62245646D01*
X190668342Y-62188050D01*
X190758050Y-62098342D01*
X190815646Y-61985304D01*
X190815646Y-61985302D01*
X190815647Y-61985301D01*
X190830499Y-61891524D01*
X190830500Y-61891519D01*
X190830499Y-60128482D01*
X190815646Y-60034696D01*
X190758050Y-59921658D01*
X190758046Y-59921654D01*
X190758045Y-59921652D01*
X190668347Y-59831954D01*
X190668344Y-59831952D01*
X190668342Y-59831950D01*
X190586580Y-59790290D01*
X190555301Y-59774352D01*
X190461524Y-59759500D01*
X188698482Y-59759500D01*
X188617519Y-59772323D01*
X188604696Y-59774354D01*
X188491658Y-59831950D01*
X188491657Y-59831951D01*
X188491652Y-59831954D01*
X188401954Y-59921652D01*
X188401951Y-59921657D01*
X188344352Y-60034698D01*
X188329500Y-60128475D01*
X188329500Y-60235500D01*
X188326949Y-60244185D01*
X188328238Y-60253147D01*
X188317259Y-60277187D01*
X188309815Y-60302539D01*
X188302974Y-60308466D01*
X188299213Y-60316703D01*
X188276978Y-60330992D01*
X188257011Y-60348294D01*
X188246496Y-60350581D01*
X188240435Y-60354477D01*
X188205500Y-60359500D01*
X188176268Y-60359500D01*
X188109229Y-60339815D01*
X188075950Y-60308385D01*
X188073196Y-60304595D01*
X187993828Y-60195354D01*
X187854646Y-60056172D01*
X187695405Y-59940476D01*
X187663165Y-59924049D01*
X187520029Y-59851117D01*
X187332826Y-59790290D01*
X187138422Y-59759500D01*
X187138417Y-59759500D01*
X186941583Y-59759500D01*
X186941578Y-59759500D01*
X186747173Y-59790290D01*
X186559970Y-59851117D01*
X186384594Y-59940476D01*
X186313260Y-59992304D01*
X186225354Y-60056172D01*
X186225352Y-60056174D01*
X186225351Y-60056174D01*
X186086174Y-60195351D01*
X186086169Y-60195357D01*
X186025150Y-60279342D01*
X186006804Y-60304595D01*
X186004050Y-60308385D01*
X185948720Y-60351051D01*
X185903732Y-60359500D01*
X185636268Y-60359500D01*
X185569229Y-60339815D01*
X185535950Y-60308385D01*
X185533196Y-60304595D01*
X185453828Y-60195354D01*
X185314646Y-60056172D01*
X185155405Y-59940476D01*
X185123165Y-59924049D01*
X184980029Y-59851117D01*
X184792826Y-59790290D01*
X184598422Y-59759500D01*
X184598417Y-59759500D01*
X184401583Y-59759500D01*
X184401578Y-59759500D01*
X184207173Y-59790290D01*
X184019970Y-59851117D01*
X183844594Y-59940476D01*
X183773260Y-59992304D01*
X183685354Y-60056172D01*
X183685352Y-60056174D01*
X183685351Y-60056174D01*
X183546174Y-60195351D01*
X183546169Y-60195357D01*
X183485150Y-60279342D01*
X183466804Y-60304595D01*
X183464050Y-60308385D01*
X183408720Y-60351051D01*
X183363732Y-60359500D01*
X183096268Y-60359500D01*
X183029229Y-60339815D01*
X182995950Y-60308385D01*
X182993196Y-60304595D01*
X182913828Y-60195354D01*
X182774646Y-60056172D01*
X182615405Y-59940476D01*
X182583165Y-59924049D01*
X182440029Y-59851117D01*
X182252826Y-59790290D01*
X182058422Y-59759500D01*
X182058417Y-59759500D01*
X181861583Y-59759500D01*
X181861578Y-59759500D01*
X181667173Y-59790290D01*
X181479970Y-59851117D01*
X181304594Y-59940476D01*
X181233260Y-59992304D01*
X181145354Y-60056172D01*
X181145352Y-60056174D01*
X181145351Y-60056174D01*
X181006174Y-60195351D01*
X181006169Y-60195357D01*
X180945150Y-60279342D01*
X180926804Y-60304595D01*
X180924050Y-60308385D01*
X180868720Y-60351051D01*
X180823732Y-60359500D01*
X180556268Y-60359500D01*
X180489229Y-60339815D01*
X180455950Y-60308385D01*
X180453196Y-60304595D01*
X180373828Y-60195354D01*
X180234646Y-60056172D01*
X180075405Y-59940476D01*
X180043165Y-59924049D01*
X179900029Y-59851117D01*
X179712826Y-59790290D01*
X179518422Y-59759500D01*
X179518417Y-59759500D01*
X179321583Y-59759500D01*
X179321578Y-59759500D01*
X179127173Y-59790290D01*
X178939970Y-59851117D01*
X178764594Y-59940476D01*
X178693260Y-59992304D01*
X178605354Y-60056172D01*
X178605352Y-60056174D01*
X178605351Y-60056174D01*
X178466174Y-60195351D01*
X178466169Y-60195357D01*
X178405150Y-60279342D01*
X178386804Y-60304595D01*
X178384050Y-60308385D01*
X178328720Y-60351051D01*
X178283732Y-60359500D01*
X172225929Y-60359500D01*
X172100261Y-60384497D01*
X172100255Y-60384499D01*
X171981870Y-60433535D01*
X171875331Y-60504722D01*
X171875324Y-60504728D01*
X170741349Y-61638703D01*
X170701123Y-61665582D01*
X170668192Y-61679222D01*
X170668186Y-61679226D01*
X170553462Y-61755882D01*
X170553454Y-61755888D01*
X170455888Y-61853454D01*
X170455885Y-61853458D01*
X170379228Y-61968182D01*
X170379221Y-61968195D01*
X170326421Y-62095667D01*
X170326418Y-62095677D01*
X170299500Y-62231004D01*
X170299500Y-62231007D01*
X170299500Y-62368993D01*
X170299500Y-62368995D01*
X170299499Y-62368995D01*
X169150500Y-62368995D01*
X169150500Y-58079839D01*
X169151864Y-58079839D01*
X169163588Y-58018011D01*
X169211652Y-57967300D01*
X169273974Y-57950500D01*
X193779192Y-57950500D01*
X193846231Y-57970185D01*
X193866873Y-57986819D01*
X195563181Y-59683126D01*
X195596666Y-59744449D01*
X195599500Y-59770807D01*
X195599500Y-71725534D01*
X195579815Y-71792573D01*
X195548387Y-71825851D01*
X195467927Y-71884309D01*
X195334312Y-72017924D01*
X195334312Y-72017925D01*
X195334310Y-72017927D01*
X195286610Y-72083579D01*
X195223240Y-72170800D01*
X195137454Y-72339163D01*
X195079059Y-72518881D01*
X195049500Y-72705513D01*
X195049500Y-72894486D01*
X195079059Y-73081118D01*
X195137454Y-73260836D01*
X195223240Y-73429199D01*
X195334310Y-73582073D01*
X195467927Y-73715690D01*
X195620801Y-73826760D01*
X195700347Y-73867290D01*
X195789163Y-73912545D01*
X195789165Y-73912545D01*
X195789168Y-73912547D01*
X195830329Y-73925921D01*
X195968881Y-73970940D01*
X196155514Y-74000500D01*
X196155519Y-74000500D01*
X196344479Y-74000500D01*
X196344481Y-74000500D01*
X196442711Y-73984941D01*
X196448134Y-73985642D01*
X196453261Y-73983730D01*
X196482412Y-73990071D01*
X196512001Y-73993895D01*
X196517605Y-73997727D01*
X196521534Y-73998582D01*
X196549788Y-74019733D01*
X196613181Y-74083126D01*
X196646666Y-74144449D01*
X196649500Y-74170807D01*
X196649500Y-77346433D01*
X196629815Y-77413472D01*
X196598386Y-77446750D01*
X196532933Y-77494305D01*
X196532924Y-77494312D01*
X196399312Y-77627924D01*
X196399312Y-77627925D01*
X196399310Y-77627927D01*
X196352499Y-77692357D01*
X196288240Y-77780800D01*
X196202454Y-77949163D01*
X196144059Y-78128881D01*
X196114500Y-78315513D01*
X196114500Y-78504483D01*
X196114499Y-78504484D01*
X196144059Y-78691118D01*
X196202454Y-78870836D01*
X196281359Y-79025694D01*
X196288240Y-79039199D01*
X196399310Y-79192073D01*
X196532927Y-79325690D01*
X196685801Y-79436760D01*
X196765347Y-79477290D01*
X196854163Y-79522545D01*
X196854165Y-79522545D01*
X196854168Y-79522547D01*
X196943734Y-79551649D01*
X196975803Y-79562069D01*
X197033478Y-79601507D01*
X197060676Y-79665866D01*
X197048761Y-79734712D01*
X197001516Y-79786188D01*
X196975803Y-79797931D01*
X196854163Y-79837454D01*
X196685800Y-79923240D01*
X196598579Y-79986610D01*
X196532927Y-80034310D01*
X196532925Y-80034312D01*
X196532924Y-80034312D01*
X196399312Y-80167924D01*
X196399312Y-80167925D01*
X196399310Y-80167927D01*
X196351610Y-80233579D01*
X196288240Y-80320800D01*
X196202454Y-80489163D01*
X196144059Y-80668881D01*
X196114500Y-80855513D01*
X196114500Y-81044486D01*
X196144059Y-81231118D01*
X196202454Y-81410836D01*
X196281355Y-81565686D01*
X196288240Y-81579199D01*
X196399310Y-81732073D01*
X196532927Y-81865690D01*
X196685801Y-81976760D01*
X196765347Y-82017290D01*
X196854163Y-82062545D01*
X196854165Y-82062545D01*
X196854168Y-82062547D01*
X196943734Y-82091649D01*
X196975803Y-82102069D01*
X197033478Y-82141507D01*
X197060676Y-82205866D01*
X197048761Y-82274712D01*
X197001516Y-82326188D01*
X196975803Y-82337931D01*
X196854163Y-82377454D01*
X196685800Y-82463240D01*
X196656305Y-82484670D01*
X196532927Y-82574310D01*
X196532925Y-82574312D01*
X196532924Y-82574312D01*
X196399312Y-82707924D01*
X196399312Y-82707925D01*
X196399310Y-82707927D01*
X196378966Y-82735928D01*
X196288240Y-82860800D01*
X196202454Y-83029163D01*
X196144059Y-83208881D01*
X196114500Y-83395513D01*
X196114500Y-83584486D01*
X196144059Y-83771118D01*
X196202454Y-83950836D01*
X196286355Y-84115500D01*
X196288240Y-84119199D01*
X196399310Y-84272073D01*
X196532927Y-84405690D01*
X196685801Y-84516760D01*
X196765347Y-84557290D01*
X196854163Y-84602545D01*
X196854165Y-84602545D01*
X196854168Y-84602547D01*
X196943734Y-84631649D01*
X196975803Y-84642069D01*
X197033478Y-84681507D01*
X197060676Y-84745866D01*
X197048761Y-84814712D01*
X197001516Y-84866188D01*
X196975803Y-84877931D01*
X196854163Y-84917454D01*
X196685800Y-85003240D01*
X196598579Y-85066610D01*
X196532927Y-85114310D01*
X196532925Y-85114312D01*
X196532924Y-85114312D01*
X196399312Y-85247924D01*
X196399312Y-85247925D01*
X196399310Y-85247927D01*
X196351610Y-85313579D01*
X196288240Y-85400800D01*
X196202454Y-85569163D01*
X196144059Y-85748881D01*
X196114500Y-85935513D01*
X196114500Y-86124486D01*
X196144059Y-86311118D01*
X196202454Y-86490836D01*
X196267353Y-86618206D01*
X196288240Y-86659199D01*
X196399310Y-86812073D01*
X196532927Y-86945690D01*
X196685801Y-87056760D01*
X196765347Y-87097290D01*
X196854163Y-87142545D01*
X196854165Y-87142545D01*
X196854168Y-87142547D01*
X196943734Y-87171649D01*
X196975803Y-87182069D01*
X197033478Y-87221507D01*
X197060676Y-87285866D01*
X197048761Y-87354712D01*
X197001516Y-87406188D01*
X196975803Y-87417931D01*
X196854163Y-87457454D01*
X196685800Y-87543240D01*
X196598579Y-87606610D01*
X196532927Y-87654310D01*
X196532925Y-87654312D01*
X196532924Y-87654312D01*
X196399312Y-87787924D01*
X196399312Y-87787925D01*
X196399310Y-87787927D01*
X196373440Y-87823534D01*
X196288240Y-87940800D01*
X196202454Y-88109163D01*
X196144059Y-88288881D01*
X196114500Y-88475513D01*
X196114500Y-88664486D01*
X196144059Y-88851118D01*
X196202454Y-89030836D01*
X196265092Y-89153769D01*
X196288240Y-89199199D01*
X196399310Y-89352073D01*
X196532927Y-89485690D01*
X196685801Y-89596760D01*
X196719772Y-89614069D01*
X196854163Y-89682545D01*
X196854165Y-89682545D01*
X196854168Y-89682547D01*
X196936954Y-89709446D01*
X196975803Y-89722069D01*
X197033478Y-89761507D01*
X197060676Y-89825866D01*
X197048761Y-89894712D01*
X197001516Y-89946188D01*
X196975803Y-89957931D01*
X196854163Y-89997454D01*
X196685800Y-90083240D01*
X196629807Y-90123922D01*
X196532927Y-90194310D01*
X196532925Y-90194312D01*
X196532924Y-90194312D01*
X196399311Y-90327925D01*
X196340853Y-90408386D01*
X196285522Y-90451051D01*
X196240535Y-90459500D01*
X195880807Y-90459500D01*
X195813768Y-90439815D01*
X195793126Y-90423181D01*
X194686819Y-89316873D01*
X194653334Y-89255550D01*
X194650500Y-89229192D01*
X194650500Y-69485928D01*
X194625502Y-69360261D01*
X194625501Y-69360260D01*
X194625501Y-69360256D01*
X194576465Y-69241873D01*
X194532761Y-69176465D01*
X194528956Y-69170771D01*
X194505274Y-69135327D01*
X192914673Y-67544726D01*
X192856544Y-67505886D01*
X192808127Y-67473535D01*
X192689744Y-67424499D01*
X192689738Y-67424497D01*
X192564071Y-67399500D01*
X192564069Y-67399500D01*
X186784713Y-67399500D01*
X186737260Y-67390061D01*
X186704328Y-67376420D01*
X186704322Y-67376418D01*
X186568995Y-67349500D01*
X186568993Y-67349500D01*
X186431007Y-67349500D01*
X186431005Y-67349500D01*
X186295677Y-67376418D01*
X186295667Y-67376421D01*
X186168195Y-67429221D01*
X186168182Y-67429228D01*
X186053458Y-67505885D01*
X186053454Y-67505888D01*
X185955888Y-67603454D01*
X185955885Y-67603458D01*
X185879228Y-67718182D01*
X185879221Y-67718195D01*
X185826421Y-67845667D01*
X185826418Y-67845677D01*
X185799500Y-67981004D01*
X185799500Y-67981007D01*
X185799500Y-68118993D01*
X185799500Y-68118995D01*
X185799499Y-68118995D01*
X185826418Y-68254322D01*
X185826421Y-68254332D01*
X185879221Y-68381804D01*
X185879228Y-68381817D01*
X185955885Y-68496541D01*
X185955888Y-68496545D01*
X186053454Y-68594111D01*
X186053458Y-68594114D01*
X186168182Y-68670771D01*
X186168195Y-68670778D01*
X186295667Y-68723578D01*
X186295672Y-68723580D01*
X186295676Y-68723580D01*
X186295677Y-68723581D01*
X186431004Y-68750500D01*
X186431007Y-68750500D01*
X186568995Y-68750500D01*
X186660041Y-68732389D01*
X186704328Y-68723580D01*
X186737260Y-68709938D01*
X186784713Y-68700500D01*
X192179192Y-68700500D01*
X192246231Y-68720185D01*
X192266873Y-68736819D01*
X193313181Y-69783127D01*
X193346666Y-69844450D01*
X193349500Y-69870808D01*
X193349500Y-89614069D01*
X193349500Y-89614071D01*
X193349499Y-89614071D01*
X193371665Y-89725498D01*
X193374497Y-89739739D01*
X193374498Y-89739743D01*
X193374499Y-89739744D01*
X193423535Y-89858127D01*
X193477612Y-89939060D01*
X193494726Y-89964673D01*
X193494727Y-89964674D01*
X195054724Y-91524669D01*
X195100887Y-91570832D01*
X195145332Y-91615277D01*
X195251866Y-91686461D01*
X195251875Y-91686466D01*
X195278692Y-91697574D01*
X195370256Y-91735501D01*
X195370260Y-91735501D01*
X195370261Y-91735502D01*
X195495928Y-91760500D01*
X195495931Y-91760500D01*
X196240535Y-91760500D01*
X196307574Y-91780185D01*
X196340852Y-91811613D01*
X196399310Y-91892073D01*
X196532927Y-92025690D01*
X196685801Y-92136760D01*
X196765347Y-92177290D01*
X196854163Y-92222545D01*
X196854165Y-92222545D01*
X196854168Y-92222547D01*
X196943734Y-92251649D01*
X196975803Y-92262069D01*
X197033478Y-92301507D01*
X197060676Y-92365866D01*
X197048761Y-92434712D01*
X197001516Y-92486188D01*
X196975803Y-92497931D01*
X196854163Y-92537454D01*
X196685800Y-92623240D01*
X196619259Y-92671586D01*
X196532927Y-92734310D01*
X196532925Y-92734312D01*
X196532924Y-92734312D01*
X196399312Y-92867924D01*
X196399312Y-92867925D01*
X196399310Y-92867927D01*
X196377875Y-92897430D01*
X196288240Y-93020800D01*
X196202454Y-93189163D01*
X196144059Y-93368881D01*
X196114500Y-93555513D01*
X196114500Y-93744486D01*
X196144059Y-93931118D01*
X196202454Y-94110836D01*
X196282386Y-94267710D01*
X196288240Y-94279199D01*
X196399310Y-94432073D01*
X196532927Y-94565690D01*
X196685801Y-94676760D01*
X196730431Y-94699500D01*
X196854163Y-94762545D01*
X196854165Y-94762545D01*
X196854168Y-94762547D01*
X196905507Y-94779228D01*
X196975803Y-94802069D01*
X197033478Y-94841507D01*
X197060676Y-94905866D01*
X197048761Y-94974712D01*
X197001516Y-95026188D01*
X196975803Y-95037931D01*
X196854163Y-95077454D01*
X196685800Y-95163240D01*
X196624017Y-95208129D01*
X196532927Y-95274310D01*
X196532925Y-95274312D01*
X196532924Y-95274312D01*
X196399312Y-95407924D01*
X196399312Y-95407925D01*
X196399310Y-95407927D01*
X196354943Y-95468993D01*
X196288240Y-95560800D01*
X196202454Y-95729163D01*
X196144059Y-95908881D01*
X196114500Y-96095513D01*
X196114500Y-96284486D01*
X196144059Y-96471118D01*
X196202454Y-96650836D01*
X196288240Y-96819199D01*
X196399310Y-96972073D01*
X196532927Y-97105690D01*
X196685801Y-97216760D01*
X196741863Y-97245325D01*
X196854163Y-97302545D01*
X196854165Y-97302545D01*
X196854168Y-97302547D01*
X196950497Y-97333846D01*
X197033881Y-97360940D01*
X197220514Y-97390500D01*
X197220519Y-97390500D01*
X197409486Y-97390500D01*
X197596118Y-97360940D01*
X197631323Y-97349501D01*
X197775832Y-97302547D01*
X197944199Y-97216760D01*
X198097073Y-97105690D01*
X198230690Y-96972073D01*
X198341760Y-96819199D01*
X198427547Y-96650832D01*
X198485940Y-96471118D01*
X198488688Y-96453769D01*
X198515500Y-96284486D01*
X198515500Y-96095513D01*
X198485940Y-95908881D01*
X198445796Y-95785333D01*
X198427547Y-95729168D01*
X198427545Y-95729165D01*
X198427545Y-95729163D01*
X198382290Y-95640347D01*
X198341760Y-95560801D01*
X198230690Y-95407927D01*
X198097073Y-95274310D01*
X197944199Y-95163240D01*
X197775836Y-95077454D01*
X197701472Y-95053291D01*
X197654195Y-95037930D01*
X197596521Y-94998493D01*
X197569323Y-94934134D01*
X197581238Y-94865288D01*
X197628482Y-94813812D01*
X197654194Y-94802069D01*
X197775832Y-94762547D01*
X197944199Y-94676760D01*
X198097073Y-94565690D01*
X198230690Y-94432073D01*
X198341760Y-94279199D01*
X198427547Y-94110832D01*
X198485940Y-93931118D01*
X198505082Y-93810261D01*
X198515500Y-93744486D01*
X198515500Y-93555513D01*
X198485940Y-93368881D01*
X198427545Y-93189163D01*
X198377301Y-93090554D01*
X198341760Y-93020801D01*
X198230690Y-92867927D01*
X198097073Y-92734310D01*
X197944199Y-92623240D01*
X197775836Y-92537454D01*
X197701472Y-92513291D01*
X197654195Y-92497930D01*
X197596521Y-92458493D01*
X197569323Y-92394134D01*
X197581238Y-92325288D01*
X197628482Y-92273812D01*
X197654194Y-92262069D01*
X197775832Y-92222547D01*
X197944199Y-92136760D01*
X198097073Y-92025690D01*
X198230690Y-91892073D01*
X198341760Y-91739199D01*
X198427547Y-91570832D01*
X198485940Y-91391118D01*
X198497076Y-91320807D01*
X198515500Y-91204486D01*
X198515500Y-91015513D01*
X198485940Y-90828881D01*
X198441423Y-90691873D01*
X198427547Y-90649168D01*
X198427545Y-90649165D01*
X198427545Y-90649163D01*
X198373445Y-90542986D01*
X198341760Y-90480801D01*
X198230690Y-90327927D01*
X198097073Y-90194310D01*
X197944199Y-90083240D01*
X197920387Y-90071107D01*
X197775836Y-89997454D01*
X197674934Y-89964669D01*
X197654195Y-89957930D01*
X197596521Y-89918493D01*
X197569323Y-89854134D01*
X197581238Y-89785288D01*
X197628482Y-89733812D01*
X197654194Y-89722069D01*
X197775832Y-89682547D01*
X197944199Y-89596760D01*
X198097073Y-89485690D01*
X198230690Y-89352073D01*
X198341760Y-89199199D01*
X198427547Y-89030832D01*
X198485940Y-88851118D01*
X198495156Y-88792930D01*
X198515500Y-88664486D01*
X198515500Y-88475513D01*
X198485940Y-88288881D01*
X198427545Y-88109163D01*
X198382290Y-88020347D01*
X198341760Y-87940801D01*
X198230690Y-87787927D01*
X198097073Y-87654310D01*
X197944199Y-87543240D01*
X197929854Y-87535931D01*
X197775836Y-87457454D01*
X197701472Y-87433291D01*
X197654195Y-87417930D01*
X197596521Y-87378493D01*
X197569323Y-87314134D01*
X197581238Y-87245288D01*
X197628482Y-87193812D01*
X197654194Y-87182069D01*
X197775832Y-87142547D01*
X197944199Y-87056760D01*
X198097073Y-86945690D01*
X198230690Y-86812073D01*
X198341760Y-86659199D01*
X198427547Y-86490832D01*
X198485940Y-86311118D01*
X198515500Y-86124486D01*
X198515500Y-85935513D01*
X198485940Y-85748881D01*
X198435851Y-85594726D01*
X198427547Y-85569168D01*
X198427545Y-85569165D01*
X198427545Y-85569163D01*
X198341759Y-85400800D01*
X198308297Y-85354744D01*
X198230690Y-85247927D01*
X198097073Y-85114310D01*
X197944199Y-85003240D01*
X197775836Y-84917454D01*
X197701472Y-84893291D01*
X197654195Y-84877930D01*
X197596521Y-84838493D01*
X197569323Y-84774134D01*
X197581238Y-84705288D01*
X197628482Y-84653812D01*
X197654194Y-84642069D01*
X197775832Y-84602547D01*
X197944199Y-84516760D01*
X198097073Y-84405690D01*
X198230690Y-84272073D01*
X198289147Y-84191613D01*
X198344478Y-84148949D01*
X198389465Y-84140500D01*
X198894071Y-84140500D01*
X199001153Y-84119199D01*
X199019744Y-84115501D01*
X199138127Y-84066465D01*
X199244669Y-83995277D01*
X200755276Y-82484670D01*
X200790870Y-82431398D01*
X200826464Y-82378129D01*
X200835753Y-82355703D01*
X200875501Y-82259744D01*
X200886218Y-82205866D01*
X200900500Y-82134071D01*
X200900500Y-68605928D01*
X200875502Y-68480261D01*
X200875501Y-68480260D01*
X200875501Y-68480256D01*
X200826465Y-68361873D01*
X200779693Y-68291873D01*
X200779693Y-68291872D01*
X200755274Y-68255327D01*
X200755271Y-68255324D01*
X199041295Y-66541349D01*
X199014415Y-66501121D01*
X199000775Y-66468189D01*
X198977279Y-66433025D01*
X198924114Y-66353457D01*
X198826545Y-66255888D01*
X198826541Y-66255885D01*
X198711817Y-66179228D01*
X198711804Y-66179221D01*
X198584332Y-66126421D01*
X198584322Y-66126418D01*
X198448995Y-66099500D01*
X198448993Y-66099500D01*
X198311007Y-66099500D01*
X198311005Y-66099500D01*
X198175677Y-66126418D01*
X198175667Y-66126421D01*
X198048195Y-66179221D01*
X198048182Y-66179228D01*
X197933458Y-66255885D01*
X197933454Y-66255888D01*
X197835888Y-66353454D01*
X197835885Y-66353458D01*
X197759228Y-66468182D01*
X197759221Y-66468195D01*
X197706421Y-66595667D01*
X197706418Y-66595677D01*
X197679500Y-66731004D01*
X197679500Y-66731007D01*
X197679500Y-66868993D01*
X197679500Y-66868995D01*
X197679499Y-66868995D01*
X197706418Y-67004322D01*
X197706421Y-67004332D01*
X197759221Y-67131804D01*
X197759228Y-67131817D01*
X197835885Y-67246541D01*
X197835888Y-67246545D01*
X197933457Y-67344114D01*
X198002222Y-67390061D01*
X198048189Y-67420775D01*
X198081121Y-67434415D01*
X198121349Y-67461295D01*
X199563181Y-68903127D01*
X199596666Y-68964450D01*
X199599500Y-68990808D01*
X199599500Y-81749192D01*
X199579815Y-81816231D01*
X199563181Y-81836873D01*
X198596873Y-82803181D01*
X198569945Y-82817884D01*
X198544127Y-82834477D01*
X198537926Y-82835368D01*
X198535550Y-82836666D01*
X198509192Y-82839500D01*
X198389465Y-82839500D01*
X198322426Y-82819815D01*
X198289147Y-82788386D01*
X198251034Y-82735928D01*
X198230690Y-82707927D01*
X198097073Y-82574310D01*
X197944199Y-82463240D01*
X197775836Y-82377454D01*
X197692880Y-82350500D01*
X197654195Y-82337930D01*
X197596521Y-82298493D01*
X197569323Y-82234134D01*
X197581238Y-82165288D01*
X197628482Y-82113812D01*
X197654194Y-82102069D01*
X197775832Y-82062547D01*
X197944199Y-81976760D01*
X198097073Y-81865690D01*
X198230690Y-81732073D01*
X198341760Y-81579199D01*
X198427547Y-81410832D01*
X198485940Y-81231118D01*
X198491704Y-81194723D01*
X198515500Y-81044486D01*
X198515500Y-80855513D01*
X198485940Y-80668881D01*
X198447475Y-80550500D01*
X198427547Y-80489168D01*
X198427545Y-80489165D01*
X198427545Y-80489163D01*
X198379113Y-80394111D01*
X198341760Y-80320801D01*
X198230690Y-80167927D01*
X198097073Y-80034310D01*
X197944199Y-79923240D01*
X197935864Y-79918993D01*
X197775836Y-79837454D01*
X197701472Y-79813291D01*
X197654195Y-79797930D01*
X197596521Y-79758493D01*
X197569323Y-79694134D01*
X197581238Y-79625288D01*
X197628482Y-79573812D01*
X197654194Y-79562069D01*
X197775832Y-79522547D01*
X197944199Y-79436760D01*
X198097073Y-79325690D01*
X198230690Y-79192073D01*
X198341760Y-79039199D01*
X198427547Y-78870832D01*
X198485940Y-78691118D01*
X198501207Y-78594724D01*
X198515500Y-78504484D01*
X198515500Y-78315513D01*
X198485940Y-78128881D01*
X198430469Y-77958162D01*
X198427547Y-77949168D01*
X198427545Y-77949165D01*
X198427545Y-77949163D01*
X198367228Y-77830785D01*
X198341760Y-77780801D01*
X198230690Y-77627927D01*
X198097073Y-77494310D01*
X198047286Y-77458137D01*
X198001614Y-77424953D01*
X197958948Y-77369623D01*
X197950500Y-77324636D01*
X197950500Y-73635928D01*
X197925502Y-73510261D01*
X197925501Y-73510260D01*
X197925501Y-73510256D01*
X197876465Y-73391873D01*
X197876464Y-73391872D01*
X197876461Y-73391866D01*
X197805276Y-73285331D01*
X197805273Y-73285327D01*
X197714672Y-73194726D01*
X197714668Y-73194723D01*
X197608133Y-73123538D01*
X197608123Y-73123533D01*
X197516471Y-73085569D01*
X197462067Y-73041727D01*
X197440003Y-72975433D01*
X197441450Y-72951615D01*
X197450500Y-72894481D01*
X197450500Y-72705519D01*
X197450500Y-72705513D01*
X197420940Y-72518881D01*
X197389505Y-72422135D01*
X197362547Y-72339168D01*
X197362545Y-72339165D01*
X197362545Y-72339163D01*
X197291441Y-72199614D01*
X197276760Y-72170801D01*
X197165690Y-72017927D01*
X197032073Y-71884310D01*
X197032072Y-71884309D01*
X196951613Y-71825851D01*
X196908948Y-71770521D01*
X196900500Y-71725534D01*
X196900500Y-59385928D01*
X196900367Y-59385258D01*
X199249500Y-59385258D01*
X199249500Y-59614741D01*
X199268559Y-59759500D01*
X199279452Y-59842238D01*
X199323378Y-60006173D01*
X199338842Y-60063887D01*
X199426650Y-60275876D01*
X199426656Y-60275888D01*
X199520955Y-60439220D01*
X199541392Y-60474617D01*
X199681081Y-60656661D01*
X199681089Y-60656670D01*
X199843330Y-60818911D01*
X199843338Y-60818918D01*
X200025382Y-60958607D01*
X200025385Y-60958608D01*
X200025388Y-60958611D01*
X200224112Y-61073344D01*
X200224117Y-61073346D01*
X200224123Y-61073349D01*
X200315480Y-61111190D01*
X200436113Y-61161158D01*
X200657762Y-61220548D01*
X200885266Y-61250500D01*
X200885273Y-61250500D01*
X201114727Y-61250500D01*
X201114734Y-61250500D01*
X201342238Y-61220548D01*
X201563887Y-61161158D01*
X201775888Y-61073344D01*
X201974612Y-60958611D01*
X202156661Y-60818919D01*
X202156665Y-60818914D01*
X202156670Y-60818911D01*
X202318911Y-60656670D01*
X202318914Y-60656665D01*
X202318919Y-60656661D01*
X202458611Y-60474612D01*
X202573344Y-60275888D01*
X202661158Y-60063887D01*
X202720548Y-59842238D01*
X202750500Y-59614734D01*
X202750500Y-59385266D01*
X202720548Y-59157762D01*
X202661158Y-58936113D01*
X202573344Y-58724112D01*
X202458611Y-58525388D01*
X202458608Y-58525385D01*
X202458607Y-58525382D01*
X202318918Y-58343338D01*
X202318911Y-58343330D01*
X202156670Y-58181089D01*
X202156661Y-58181081D01*
X201974617Y-58041392D01*
X201775890Y-57926657D01*
X201775876Y-57926650D01*
X201563887Y-57838842D01*
X201342238Y-57779452D01*
X201304215Y-57774446D01*
X201114741Y-57749500D01*
X201114734Y-57749500D01*
X200885266Y-57749500D01*
X200885258Y-57749500D01*
X200668715Y-57778009D01*
X200657762Y-57779452D01*
X200564076Y-57804554D01*
X200436112Y-57838842D01*
X200224123Y-57926650D01*
X200224109Y-57926657D01*
X200025382Y-58041392D01*
X199843338Y-58181081D01*
X199681081Y-58343338D01*
X199541392Y-58525382D01*
X199426657Y-58724109D01*
X199426650Y-58724123D01*
X199338842Y-58936112D01*
X199336534Y-58944725D01*
X199283710Y-59141873D01*
X199279453Y-59157759D01*
X199279451Y-59157770D01*
X199249500Y-59385258D01*
X196900367Y-59385258D01*
X196875502Y-59260261D01*
X196875501Y-59260260D01*
X196875501Y-59260256D01*
X196833050Y-59157770D01*
X196826466Y-59141875D01*
X196826461Y-59141866D01*
X196755277Y-59035332D01*
X196755276Y-59035331D01*
X196664669Y-58944724D01*
X196139391Y-58419446D01*
X194514674Y-56794727D01*
X194514673Y-56794726D01*
X194514669Y-56794723D01*
X194408127Y-56723535D01*
X194289744Y-56674499D01*
X194289738Y-56674497D01*
X194164071Y-56649500D01*
X194164069Y-56649500D01*
X167714069Y-56649500D01*
X155564069Y-56649500D01*
X154064069Y-56649500D01*
X132564069Y-56649500D01*
X130664069Y-56649500D01*
X114435931Y-56649500D01*
X114435929Y-56649500D01*
X114310261Y-56674497D01*
X114310255Y-56674499D01*
X114191874Y-56723534D01*
X114085326Y-56794726D01*
X112894724Y-57985328D01*
X112857266Y-58041388D01*
X112857267Y-58041389D01*
X112823534Y-58091874D01*
X112774499Y-58210255D01*
X112774497Y-58210261D01*
X112749500Y-58335928D01*
X112749500Y-62579191D01*
X112729815Y-62646230D01*
X112713181Y-62666872D01*
X108859727Y-66520325D01*
X108859721Y-66520332D01*
X108799637Y-66610254D01*
X108799638Y-66610255D01*
X108788535Y-66626871D01*
X108739499Y-66745255D01*
X108739497Y-66745261D01*
X108714500Y-66870928D01*
X108714500Y-72114636D01*
X108694815Y-72181675D01*
X108663386Y-72214953D01*
X108567933Y-72284305D01*
X108567924Y-72284312D01*
X108434312Y-72417924D01*
X108434312Y-72417925D01*
X108434310Y-72417927D01*
X108389269Y-72479920D01*
X108323238Y-72570803D01*
X108266319Y-72682512D01*
X108218345Y-72733307D01*
X108150524Y-72750102D01*
X108084389Y-72727564D01*
X108045350Y-72682510D01*
X107961861Y-72518652D01*
X107929474Y-72474077D01*
X107929474Y-72474076D01*
X107250000Y-73153551D01*
X107250000Y-73147339D01*
X107222741Y-73045606D01*
X107170080Y-72954394D01*
X107095606Y-72879920D01*
X107004394Y-72827259D01*
X106902661Y-72800000D01*
X106896446Y-72800000D01*
X107575922Y-72120524D01*
X107575921Y-72120523D01*
X107531359Y-72088147D01*
X107531350Y-72088141D01*
X107349031Y-71995244D01*
X107154417Y-71932009D01*
X106952317Y-71900000D01*
X106747683Y-71900000D01*
X106545582Y-71932009D01*
X106350968Y-71995244D01*
X106168644Y-72088143D01*
X106124077Y-72120523D01*
X106124077Y-72120524D01*
X106803554Y-72800000D01*
X106797339Y-72800000D01*
X106695606Y-72827259D01*
X106604394Y-72879920D01*
X106529920Y-72954394D01*
X106477259Y-73045606D01*
X106450000Y-73147339D01*
X106450000Y-73153553D01*
X105770524Y-72474077D01*
X105770523Y-72474077D01*
X105738143Y-72518644D01*
X105645244Y-72700968D01*
X105582009Y-72895582D01*
X105550000Y-73097682D01*
X105550000Y-73302317D01*
X105582009Y-73504417D01*
X105645244Y-73699031D01*
X105738141Y-73881350D01*
X105738147Y-73881359D01*
X105770523Y-73925921D01*
X105770524Y-73925922D01*
X106450000Y-73246446D01*
X106450000Y-73252661D01*
X106477259Y-73354394D01*
X106529920Y-73445606D01*
X106604394Y-73520080D01*
X106695606Y-73572741D01*
X106797339Y-73600000D01*
X106803553Y-73600000D01*
X106124076Y-74279474D01*
X106168650Y-74311859D01*
X106350968Y-74404755D01*
X106545582Y-74467990D01*
X106747683Y-74500000D01*
X106952317Y-74500000D01*
X107154417Y-74467990D01*
X107349031Y-74404755D01*
X107531349Y-74311859D01*
X107575921Y-74279474D01*
X106896447Y-73600000D01*
X106902661Y-73600000D01*
X107004394Y-73572741D01*
X107095606Y-73520080D01*
X107170080Y-73445606D01*
X107222741Y-73354394D01*
X107250000Y-73252661D01*
X107250000Y-73246448D01*
X107929474Y-73925922D01*
X107929474Y-73925921D01*
X107961861Y-73881347D01*
X107961861Y-73881346D01*
X108045350Y-73717489D01*
X108093324Y-73666693D01*
X108161145Y-73649897D01*
X108227280Y-73672434D01*
X108266320Y-73717488D01*
X108282496Y-73749234D01*
X108323240Y-73829199D01*
X108434310Y-73982073D01*
X108567927Y-74115690D01*
X108654193Y-74178366D01*
X108663386Y-74185045D01*
X108706051Y-74240375D01*
X108714500Y-74285363D01*
X108714500Y-75404415D01*
X108694815Y-75471454D01*
X108646795Y-75514899D01*
X108610805Y-75533236D01*
X108537667Y-75586375D01*
X108457927Y-75644310D01*
X108457925Y-75644312D01*
X108457924Y-75644312D01*
X108324312Y-75777924D01*
X108324312Y-75777925D01*
X108324310Y-75777927D01*
X108308977Y-75799031D01*
X108213240Y-75930800D01*
X108127454Y-76099163D01*
X108069059Y-76278881D01*
X108039500Y-76465513D01*
X108039500Y-76654486D01*
X108069059Y-76841118D01*
X108127454Y-77020836D01*
X108198355Y-77159986D01*
X108213240Y-77189199D01*
X108324310Y-77342073D01*
X108457927Y-77475690D01*
X108610801Y-77586760D01*
X108646794Y-77605099D01*
X108697590Y-77653072D01*
X108714500Y-77715584D01*
X108714500Y-85229071D01*
X108733291Y-85323535D01*
X108733291Y-85323536D01*
X108739497Y-85354736D01*
X108739499Y-85354744D01*
X108756060Y-85394727D01*
X108788535Y-85473127D01*
X108852707Y-85569168D01*
X108859726Y-85579673D01*
X108859727Y-85579674D01*
X111313181Y-88033127D01*
X111346666Y-88094450D01*
X111349500Y-88120808D01*
X111349500Y-90596011D01*
X111329815Y-90663050D01*
X111281794Y-90706496D01*
X111150802Y-90773238D01*
X111043855Y-90850941D01*
X110997927Y-90884310D01*
X110997925Y-90884312D01*
X110997924Y-90884312D01*
X110864312Y-91017924D01*
X110864312Y-91017925D01*
X110864310Y-91017927D01*
X110816610Y-91083579D01*
X110753240Y-91170800D01*
X110667454Y-91339163D01*
X110627931Y-91460803D01*
X110588493Y-91518478D01*
X110524134Y-91545676D01*
X110455288Y-91533761D01*
X110403812Y-91486516D01*
X110392069Y-91460803D01*
X110352545Y-91339163D01*
X110283923Y-91204486D01*
X110266760Y-91170801D01*
X110155690Y-91017927D01*
X110022073Y-90884310D01*
X109869199Y-90773240D01*
X109840500Y-90758617D01*
X109700836Y-90687454D01*
X109521118Y-90629059D01*
X109334486Y-90599500D01*
X109334481Y-90599500D01*
X109145519Y-90599500D01*
X109145514Y-90599500D01*
X108958881Y-90629059D01*
X108779163Y-90687454D01*
X108610800Y-90773240D01*
X108559853Y-90810256D01*
X108457927Y-90884310D01*
X108457925Y-90884312D01*
X108457924Y-90884312D01*
X108324312Y-91017924D01*
X108324312Y-91017925D01*
X108324310Y-91017927D01*
X108276610Y-91083579D01*
X108213240Y-91170800D01*
X108127454Y-91339163D01*
X108069059Y-91518881D01*
X108039500Y-91705513D01*
X108039500Y-91894486D01*
X108069059Y-92081118D01*
X108127454Y-92260836D01*
X108213240Y-92429199D01*
X108324310Y-92582073D01*
X108457927Y-92715690D01*
X108610801Y-92826760D01*
X108669499Y-92856668D01*
X108779163Y-92912545D01*
X108779165Y-92912545D01*
X108779168Y-92912547D01*
X108875497Y-92943846D01*
X108958881Y-92970940D01*
X109145514Y-93000500D01*
X109145519Y-93000500D01*
X109334486Y-93000500D01*
X109521118Y-92970940D01*
X109700832Y-92912547D01*
X109869199Y-92826760D01*
X110022073Y-92715690D01*
X110155690Y-92582073D01*
X110266760Y-92429199D01*
X110352547Y-92260832D01*
X110392069Y-92139195D01*
X110431507Y-92081521D01*
X110495866Y-92054323D01*
X110564712Y-92066238D01*
X110616188Y-92113482D01*
X110627931Y-92139196D01*
X110667454Y-92260836D01*
X110753240Y-92429199D01*
X110864310Y-92582073D01*
X110997927Y-92715690D01*
X111150801Y-92826760D01*
X111209499Y-92856668D01*
X111319163Y-92912545D01*
X111319165Y-92912545D01*
X111319168Y-92912547D01*
X111415497Y-92943846D01*
X111498881Y-92970940D01*
X111685514Y-93000500D01*
X111685519Y-93000500D01*
X111874486Y-93000500D01*
X112061118Y-92970940D01*
X112240832Y-92912547D01*
X112409199Y-92826760D01*
X112562073Y-92715690D01*
X112695690Y-92582073D01*
X112806760Y-92429199D01*
X112892547Y-92260832D01*
X112932069Y-92139195D01*
X112971507Y-92081521D01*
X113035866Y-92054323D01*
X113104712Y-92066238D01*
X113156188Y-92113482D01*
X113167931Y-92139196D01*
X113207454Y-92260836D01*
X113293240Y-92429199D01*
X113404310Y-92582073D01*
X113537927Y-92715690D01*
X113690801Y-92826760D01*
X113749499Y-92856668D01*
X113859163Y-92912545D01*
X113859165Y-92912545D01*
X113859168Y-92912547D01*
X113955497Y-92943846D01*
X114038881Y-92970940D01*
X114225514Y-93000500D01*
X114225519Y-93000500D01*
X114414486Y-93000500D01*
X114601118Y-92970940D01*
X114780832Y-92912547D01*
X114949199Y-92826760D01*
X115102073Y-92715690D01*
X115235690Y-92582073D01*
X115346760Y-92429199D01*
X115432547Y-92260832D01*
X115472069Y-92139195D01*
X115511507Y-92081521D01*
X115575866Y-92054323D01*
X115644712Y-92066238D01*
X115696188Y-92113482D01*
X115707931Y-92139196D01*
X115747454Y-92260836D01*
X115833240Y-92429199D01*
X115944310Y-92582073D01*
X116077927Y-92715690D01*
X116230801Y-92826760D01*
X116289499Y-92856668D01*
X116399163Y-92912545D01*
X116399165Y-92912545D01*
X116399168Y-92912547D01*
X116495497Y-92943846D01*
X116578881Y-92970940D01*
X116765514Y-93000500D01*
X116765519Y-93000500D01*
X116954486Y-93000500D01*
X117141118Y-92970940D01*
X117320832Y-92912547D01*
X117489199Y-92826760D01*
X117642073Y-92715690D01*
X117775690Y-92582073D01*
X117886760Y-92429199D01*
X117972547Y-92260832D01*
X118012069Y-92139195D01*
X118051507Y-92081521D01*
X118115866Y-92054323D01*
X118184712Y-92066238D01*
X118236188Y-92113482D01*
X118247931Y-92139196D01*
X118287454Y-92260836D01*
X118373240Y-92429199D01*
X118484310Y-92582073D01*
X118617927Y-92715690D01*
X118770801Y-92826760D01*
X118829499Y-92856668D01*
X118939163Y-92912545D01*
X118939165Y-92912545D01*
X118939168Y-92912547D01*
X119035497Y-92943846D01*
X119118881Y-92970940D01*
X119305514Y-93000500D01*
X119305519Y-93000500D01*
X119494486Y-93000500D01*
X119681118Y-92970940D01*
X119860832Y-92912547D01*
X120029199Y-92826760D01*
X120182073Y-92715690D01*
X120315690Y-92582073D01*
X120426760Y-92429199D01*
X120512547Y-92260832D01*
X120552069Y-92139195D01*
X120591507Y-92081521D01*
X120655866Y-92054323D01*
X120724712Y-92066238D01*
X120776188Y-92113482D01*
X120787931Y-92139196D01*
X120827454Y-92260836D01*
X120913240Y-92429199D01*
X121024310Y-92582073D01*
X121024312Y-92582075D01*
X121157930Y-92715693D01*
X121238384Y-92774145D01*
X121241725Y-92778477D01*
X121246703Y-92780751D01*
X121262833Y-92805850D01*
X121281051Y-92829475D01*
X121282304Y-92836148D01*
X121284477Y-92839529D01*
X121289500Y-92874464D01*
X121289500Y-93039192D01*
X121269815Y-93106231D01*
X121253181Y-93126873D01*
X118594722Y-95785331D01*
X118594720Y-95785333D01*
X118564708Y-95830253D01*
X118564706Y-95830256D01*
X118523538Y-95891867D01*
X118523533Y-95891875D01*
X118474499Y-96010255D01*
X118474497Y-96010261D01*
X118449500Y-96135928D01*
X118449500Y-107275560D01*
X118429815Y-107342599D01*
X118381795Y-107386045D01*
X118294594Y-107430476D01*
X118214553Y-107488630D01*
X118135354Y-107546172D01*
X118135352Y-107546174D01*
X118135351Y-107546174D01*
X117996174Y-107685351D01*
X117996174Y-107685352D01*
X117996172Y-107685354D01*
X117982368Y-107704354D01*
X117880476Y-107844594D01*
X117790485Y-108021213D01*
X117742511Y-108072009D01*
X117674690Y-108088804D01*
X117608555Y-108066267D01*
X117569515Y-108021213D01*
X117542397Y-107967992D01*
X117479524Y-107844595D01*
X117363828Y-107685354D01*
X117224646Y-107546172D01*
X117065405Y-107430476D01*
X117060498Y-107427976D01*
X116890029Y-107341117D01*
X116702826Y-107280290D01*
X116508422Y-107249500D01*
X116508417Y-107249500D01*
X116311583Y-107249500D01*
X116311578Y-107249500D01*
X116117173Y-107280290D01*
X115929970Y-107341117D01*
X115754594Y-107430476D01*
X115674553Y-107488630D01*
X115595354Y-107546172D01*
X115595352Y-107546174D01*
X115595351Y-107546174D01*
X115456174Y-107685351D01*
X115456174Y-107685352D01*
X115456172Y-107685354D01*
X115442368Y-107704354D01*
X115340476Y-107844594D01*
X115250485Y-108021213D01*
X115202511Y-108072009D01*
X115134690Y-108088804D01*
X115068555Y-108066267D01*
X115029515Y-108021213D01*
X115002397Y-107967992D01*
X114939524Y-107844595D01*
X114823828Y-107685354D01*
X114684646Y-107546172D01*
X114525405Y-107430476D01*
X114520498Y-107427976D01*
X114350029Y-107341117D01*
X114162826Y-107280290D01*
X113968422Y-107249500D01*
X113968417Y-107249500D01*
X113771583Y-107249500D01*
X113771578Y-107249500D01*
X113577173Y-107280290D01*
X113389970Y-107341117D01*
X113214594Y-107430476D01*
X113134553Y-107488630D01*
X113055354Y-107546172D01*
X113055352Y-107546174D01*
X113055351Y-107546174D01*
X112916174Y-107685351D01*
X112916174Y-107685352D01*
X112916172Y-107685354D01*
X112902368Y-107704354D01*
X112800476Y-107844594D01*
X112710485Y-108021213D01*
X112662511Y-108072009D01*
X112594690Y-108088804D01*
X112528555Y-108066267D01*
X112489515Y-108021213D01*
X112462397Y-107967992D01*
X112399524Y-107844595D01*
X112283828Y-107685354D01*
X112144646Y-107546172D01*
X111985405Y-107430476D01*
X111980498Y-107427976D01*
X111810029Y-107341117D01*
X111622826Y-107280290D01*
X111428422Y-107249500D01*
X111428417Y-107249500D01*
X111231583Y-107249500D01*
X111231578Y-107249500D01*
X111037173Y-107280290D01*
X110849970Y-107341117D01*
X110674594Y-107430476D01*
X110594553Y-107488630D01*
X110515354Y-107546172D01*
X110515352Y-107546174D01*
X110515351Y-107546174D01*
X110376174Y-107685351D01*
X110376174Y-107685352D01*
X110376172Y-107685354D01*
X110362368Y-107704354D01*
X110260476Y-107844594D01*
X110170485Y-108021213D01*
X110122511Y-108072009D01*
X110054690Y-108088804D01*
X109988555Y-108066267D01*
X109949515Y-108021213D01*
X109922397Y-107967992D01*
X109859524Y-107844595D01*
X109743828Y-107685354D01*
X109604646Y-107546172D01*
X109445405Y-107430476D01*
X109440498Y-107427976D01*
X109270029Y-107341117D01*
X109082826Y-107280290D01*
X108888422Y-107249500D01*
X108888417Y-107249500D01*
X108691583Y-107249500D01*
X108691578Y-107249500D01*
X108497173Y-107280290D01*
X108309970Y-107341117D01*
X108134594Y-107430476D01*
X108054553Y-107488630D01*
X107975354Y-107546172D01*
X107975352Y-107546174D01*
X107975351Y-107546174D01*
X107836174Y-107685351D01*
X107836174Y-107685352D01*
X107836172Y-107685354D01*
X107822368Y-107704354D01*
X107720476Y-107844594D01*
X107630485Y-108021213D01*
X107582511Y-108072009D01*
X107514690Y-108088804D01*
X107448555Y-108066267D01*
X107409515Y-108021213D01*
X107382397Y-107967992D01*
X107319524Y-107844595D01*
X107203828Y-107685354D01*
X107064646Y-107546172D01*
X106905405Y-107430476D01*
X106900498Y-107427976D01*
X106730029Y-107341117D01*
X106542826Y-107280290D01*
X106348422Y-107249500D01*
X106348417Y-107249500D01*
X106151583Y-107249500D01*
X106151578Y-107249500D01*
X105957173Y-107280290D01*
X105769970Y-107341117D01*
X105594594Y-107430476D01*
X105514553Y-107488630D01*
X105435354Y-107546172D01*
X105435352Y-107546174D01*
X105435351Y-107546174D01*
X105296174Y-107685351D01*
X105296174Y-107685352D01*
X105296172Y-107685354D01*
X105249818Y-107749155D01*
X105194488Y-107791820D01*
X105124874Y-107797799D01*
X105063079Y-107765193D01*
X105028722Y-107704354D01*
X105025500Y-107676269D01*
X105025500Y-101885258D01*
X106499500Y-101885258D01*
X106499500Y-102114741D01*
X106522541Y-102289744D01*
X106529452Y-102342238D01*
X106575656Y-102514675D01*
X106588842Y-102563887D01*
X106676650Y-102775876D01*
X106676656Y-102775888D01*
X106781871Y-102958127D01*
X106791392Y-102974617D01*
X106931081Y-103156661D01*
X106931089Y-103156670D01*
X107093330Y-103318911D01*
X107093338Y-103318918D01*
X107275382Y-103458607D01*
X107275385Y-103458608D01*
X107275388Y-103458611D01*
X107474112Y-103573344D01*
X107474117Y-103573346D01*
X107474123Y-103573349D01*
X107565480Y-103611190D01*
X107686113Y-103661158D01*
X107907762Y-103720548D01*
X108135266Y-103750500D01*
X108135273Y-103750500D01*
X108364727Y-103750500D01*
X108364734Y-103750500D01*
X108592238Y-103720548D01*
X108813887Y-103661158D01*
X109025888Y-103573344D01*
X109224612Y-103458611D01*
X109406661Y-103318919D01*
X109406665Y-103318914D01*
X109406670Y-103318911D01*
X109568911Y-103156670D01*
X109568914Y-103156665D01*
X109568919Y-103156661D01*
X109708611Y-102974612D01*
X109823344Y-102775888D01*
X109911158Y-102563887D01*
X109970548Y-102342238D01*
X110000500Y-102114734D01*
X110000500Y-101885266D01*
X109970548Y-101657762D01*
X109911158Y-101436113D01*
X109832854Y-101247070D01*
X109823349Y-101224123D01*
X109823346Y-101224117D01*
X109823344Y-101224112D01*
X109708611Y-101025388D01*
X109708608Y-101025385D01*
X109708607Y-101025382D01*
X109568918Y-100843338D01*
X109568911Y-100843330D01*
X109406670Y-100681089D01*
X109406661Y-100681081D01*
X109224617Y-100541392D01*
X109025890Y-100426657D01*
X109025876Y-100426650D01*
X108813887Y-100338842D01*
X108592238Y-100279452D01*
X108554215Y-100274446D01*
X108364741Y-100249500D01*
X108364734Y-100249500D01*
X108135266Y-100249500D01*
X108135258Y-100249500D01*
X107918715Y-100278009D01*
X107907762Y-100279452D01*
X107877409Y-100287585D01*
X107686112Y-100338842D01*
X107474123Y-100426650D01*
X107474109Y-100426657D01*
X107275382Y-100541392D01*
X107093338Y-100681081D01*
X106931081Y-100843338D01*
X106791392Y-101025382D01*
X106676657Y-101224109D01*
X106676650Y-101224123D01*
X106588842Y-101436112D01*
X106529453Y-101657759D01*
X106529451Y-101657770D01*
X106499500Y-101885258D01*
X105025500Y-101885258D01*
X105025500Y-59385258D01*
X106499500Y-59385258D01*
X106499500Y-59614741D01*
X106518559Y-59759500D01*
X106529452Y-59842238D01*
X106573378Y-60006173D01*
X106588842Y-60063887D01*
X106676650Y-60275876D01*
X106676656Y-60275888D01*
X106770955Y-60439220D01*
X106791392Y-60474617D01*
X106931081Y-60656661D01*
X106931089Y-60656670D01*
X107093330Y-60818911D01*
X107093338Y-60818918D01*
X107275382Y-60958607D01*
X107275385Y-60958608D01*
X107275388Y-60958611D01*
X107474112Y-61073344D01*
X107474117Y-61073346D01*
X107474123Y-61073349D01*
X107565480Y-61111190D01*
X107686113Y-61161158D01*
X107907762Y-61220548D01*
X108135266Y-61250500D01*
X108135273Y-61250500D01*
X108364727Y-61250500D01*
X108364734Y-61250500D01*
X108592238Y-61220548D01*
X108813887Y-61161158D01*
X109025888Y-61073344D01*
X109224612Y-60958611D01*
X109406661Y-60818919D01*
X109406665Y-60818914D01*
X109406670Y-60818911D01*
X109568911Y-60656670D01*
X109568914Y-60656665D01*
X109568919Y-60656661D01*
X109708611Y-60474612D01*
X109823344Y-60275888D01*
X109911158Y-60063887D01*
X109970548Y-59842238D01*
X110000500Y-59614734D01*
X110000500Y-59385266D01*
X109970548Y-59157762D01*
X109911158Y-58936113D01*
X109823344Y-58724112D01*
X109708611Y-58525388D01*
X109708608Y-58525385D01*
X109708607Y-58525382D01*
X109568918Y-58343338D01*
X109568911Y-58343330D01*
X109406670Y-58181089D01*
X109406661Y-58181081D01*
X109224617Y-58041392D01*
X109025890Y-57926657D01*
X109025876Y-57926650D01*
X108813887Y-57838842D01*
X108592238Y-57779452D01*
X108554215Y-57774446D01*
X108364741Y-57749500D01*
X108364734Y-57749500D01*
X108135266Y-57749500D01*
X108135258Y-57749500D01*
X107918715Y-57778009D01*
X107907762Y-57779452D01*
X107814076Y-57804554D01*
X107686112Y-57838842D01*
X107474123Y-57926650D01*
X107474109Y-57926657D01*
X107275382Y-58041392D01*
X107093338Y-58181081D01*
X106931081Y-58343338D01*
X106791392Y-58525382D01*
X106676657Y-58724109D01*
X106676650Y-58724123D01*
X106588842Y-58936112D01*
X106586534Y-58944725D01*
X106533710Y-59141873D01*
X106529453Y-59157759D01*
X106529451Y-59157770D01*
X106499500Y-59385258D01*
X105025500Y-59385258D01*
X105025500Y-55214500D01*
X105045185Y-55147461D01*
X105097989Y-55101706D01*
X105149500Y-55090500D01*
X203900500Y-55090500D01*
X203967539Y-55110185D01*
G37*
%TD.AperFunction*%
%TA.AperFunction,Conductor*%
G36*
X167396231Y-57970185D02*
G01*
X167416873Y-57986819D01*
X167813181Y-58383127D01*
X167846666Y-58444450D01*
X167849500Y-58470808D01*
X167849500Y-80925500D01*
X167829815Y-80992539D01*
X167777011Y-81038294D01*
X167725500Y-81049500D01*
X162535929Y-81049500D01*
X162410261Y-81074497D01*
X162410255Y-81074499D01*
X162291874Y-81123534D01*
X162185326Y-81194726D01*
X160994724Y-82385328D01*
X160928351Y-82484663D01*
X160928352Y-82484664D01*
X160923533Y-82491876D01*
X160874499Y-82610255D01*
X160874497Y-82610261D01*
X160849500Y-82735928D01*
X160849500Y-92679191D01*
X160829815Y-92746230D01*
X160813181Y-92766872D01*
X159312348Y-94267704D01*
X159312345Y-94267707D01*
X159251084Y-94359393D01*
X159241155Y-94374253D01*
X159192120Y-94492634D01*
X159192118Y-94492640D01*
X159167121Y-94618307D01*
X159167121Y-98326320D01*
X159147436Y-98393359D01*
X159094632Y-98439114D01*
X159077716Y-98445396D01*
X159007227Y-98465874D01*
X159007224Y-98465876D01*
X158865758Y-98549538D01*
X158865750Y-98549544D01*
X158749544Y-98665750D01*
X158749538Y-98665758D01*
X158665876Y-98807224D01*
X158665875Y-98807227D01*
X158620023Y-98965047D01*
X158620022Y-98965053D01*
X158617121Y-99001919D01*
X158617121Y-100233322D01*
X158620022Y-100270188D01*
X158620023Y-100270190D01*
X158665875Y-100428014D01*
X158665876Y-100428017D01*
X158749538Y-100569483D01*
X158749544Y-100569491D01*
X158865750Y-100685697D01*
X158865754Y-100685700D01*
X158865756Y-100685702D01*
X158865758Y-100685703D01*
X159007221Y-100769364D01*
X159014385Y-100772464D01*
X159013034Y-100775584D01*
X159058885Y-100804790D01*
X159088166Y-100868229D01*
X159089500Y-100886370D01*
X159089500Y-107275560D01*
X159069815Y-107342599D01*
X159021795Y-107386045D01*
X158934594Y-107430476D01*
X158854553Y-107488630D01*
X158775354Y-107546172D01*
X158775352Y-107546174D01*
X158775351Y-107546174D01*
X158636174Y-107685351D01*
X158636174Y-107685352D01*
X158636172Y-107685354D01*
X158622368Y-107704354D01*
X158520476Y-107844594D01*
X158430485Y-108021213D01*
X158382511Y-108072009D01*
X158314690Y-108088804D01*
X158248555Y-108066267D01*
X158209515Y-108021213D01*
X158182397Y-107967992D01*
X158119524Y-107844595D01*
X158003828Y-107685354D01*
X157864646Y-107546172D01*
X157705405Y-107430476D01*
X157700498Y-107427976D01*
X157530029Y-107341117D01*
X157342826Y-107280290D01*
X157148422Y-107249500D01*
X157148417Y-107249500D01*
X156951583Y-107249500D01*
X156951578Y-107249500D01*
X156757173Y-107280290D01*
X156569970Y-107341117D01*
X156394594Y-107430476D01*
X156314553Y-107488630D01*
X156235354Y-107546172D01*
X156235352Y-107546174D01*
X156235351Y-107546174D01*
X156096174Y-107685351D01*
X156096174Y-107685352D01*
X156096172Y-107685354D01*
X156082368Y-107704354D01*
X155980476Y-107844594D01*
X155890485Y-108021213D01*
X155842511Y-108072009D01*
X155774690Y-108088804D01*
X155708555Y-108066267D01*
X155669515Y-108021213D01*
X155642397Y-107967992D01*
X155579524Y-107844595D01*
X155463828Y-107685354D01*
X155346818Y-107568344D01*
X155313334Y-107507021D01*
X155310500Y-107480663D01*
X155310500Y-104895928D01*
X155285502Y-104770261D01*
X155285501Y-104770260D01*
X155285501Y-104770256D01*
X155236465Y-104651873D01*
X155193200Y-104587122D01*
X155186079Y-104576465D01*
X155165274Y-104545327D01*
X152914673Y-102294726D01*
X152907217Y-102289744D01*
X152808127Y-102223535D01*
X152789769Y-102215931D01*
X152689744Y-102174499D01*
X152689738Y-102174497D01*
X152564071Y-102149500D01*
X152564069Y-102149500D01*
X144320808Y-102149500D01*
X144253769Y-102129815D01*
X144233127Y-102113181D01*
X142886819Y-100766873D01*
X142853334Y-100705550D01*
X142850500Y-100679192D01*
X142850500Y-92918057D01*
X142870185Y-92851018D01*
X142901615Y-92817739D01*
X142903541Y-92816340D01*
X143042073Y-92715690D01*
X143175690Y-92582073D01*
X143286760Y-92429199D01*
X143372547Y-92260832D01*
X143412069Y-92139195D01*
X143451507Y-92081521D01*
X143515866Y-92054323D01*
X143584712Y-92066238D01*
X143636188Y-92113482D01*
X143647931Y-92139196D01*
X143687454Y-92260836D01*
X143773240Y-92429199D01*
X143884310Y-92582073D01*
X144017927Y-92715690D01*
X144170801Y-92826760D01*
X144229499Y-92856668D01*
X144339163Y-92912545D01*
X144339165Y-92912545D01*
X144339168Y-92912547D01*
X144435497Y-92943846D01*
X144518881Y-92970940D01*
X144705514Y-93000500D01*
X144705519Y-93000500D01*
X144894486Y-93000500D01*
X145081118Y-92970940D01*
X145260832Y-92912547D01*
X145429199Y-92826760D01*
X145582073Y-92715690D01*
X145715690Y-92582073D01*
X145826760Y-92429199D01*
X145912547Y-92260832D01*
X145952069Y-92139195D01*
X145991507Y-92081521D01*
X146055866Y-92054323D01*
X146124712Y-92066238D01*
X146176188Y-92113482D01*
X146187931Y-92139196D01*
X146227454Y-92260836D01*
X146313240Y-92429199D01*
X146424310Y-92582073D01*
X146557927Y-92715690D01*
X146710801Y-92826760D01*
X146769499Y-92856668D01*
X146879163Y-92912545D01*
X146879165Y-92912545D01*
X146879168Y-92912547D01*
X146975497Y-92943846D01*
X147058881Y-92970940D01*
X147245514Y-93000500D01*
X147245519Y-93000500D01*
X147434486Y-93000500D01*
X147621118Y-92970940D01*
X147800832Y-92912547D01*
X147969199Y-92826760D01*
X148122073Y-92715690D01*
X148255690Y-92582073D01*
X148366760Y-92429199D01*
X148452547Y-92260832D01*
X148492069Y-92139195D01*
X148531507Y-92081521D01*
X148595866Y-92054323D01*
X148664712Y-92066238D01*
X148716188Y-92113482D01*
X148727931Y-92139196D01*
X148767454Y-92260836D01*
X148853240Y-92429199D01*
X148964310Y-92582073D01*
X149097927Y-92715690D01*
X149250801Y-92826760D01*
X149309499Y-92856668D01*
X149419163Y-92912545D01*
X149419165Y-92912545D01*
X149419168Y-92912547D01*
X149515497Y-92943846D01*
X149598881Y-92970940D01*
X149785514Y-93000500D01*
X149785519Y-93000500D01*
X149974486Y-93000500D01*
X150161118Y-92970940D01*
X150340832Y-92912547D01*
X150509199Y-92826760D01*
X150662073Y-92715690D01*
X150795690Y-92582073D01*
X150906760Y-92429199D01*
X150992547Y-92260832D01*
X151032069Y-92139195D01*
X151071507Y-92081521D01*
X151135866Y-92054323D01*
X151204712Y-92066238D01*
X151256188Y-92113482D01*
X151267931Y-92139196D01*
X151307454Y-92260836D01*
X151393240Y-92429199D01*
X151504310Y-92582073D01*
X151637927Y-92715690D01*
X151790801Y-92826760D01*
X151849499Y-92856668D01*
X151959163Y-92912545D01*
X151959165Y-92912545D01*
X151959168Y-92912547D01*
X152055497Y-92943846D01*
X152138881Y-92970940D01*
X152325514Y-93000500D01*
X152325519Y-93000500D01*
X152514486Y-93000500D01*
X152701118Y-92970940D01*
X152880832Y-92912547D01*
X153049199Y-92826760D01*
X153202073Y-92715690D01*
X153335690Y-92582073D01*
X153446760Y-92429199D01*
X153532547Y-92260832D01*
X153572069Y-92139195D01*
X153611507Y-92081521D01*
X153675866Y-92054323D01*
X153744712Y-92066238D01*
X153796188Y-92113482D01*
X153807931Y-92139196D01*
X153847454Y-92260836D01*
X153933240Y-92429199D01*
X154044310Y-92582073D01*
X154177927Y-92715690D01*
X154330801Y-92826760D01*
X154389499Y-92856668D01*
X154499163Y-92912545D01*
X154499165Y-92912545D01*
X154499168Y-92912547D01*
X154595497Y-92943846D01*
X154678881Y-92970940D01*
X154865514Y-93000500D01*
X154865519Y-93000500D01*
X155054486Y-93000500D01*
X155241118Y-92970940D01*
X155420832Y-92912547D01*
X155589199Y-92826760D01*
X155742073Y-92715690D01*
X155875690Y-92582073D01*
X155986760Y-92429199D01*
X156072547Y-92260832D01*
X156112069Y-92139195D01*
X156151507Y-92081521D01*
X156215866Y-92054323D01*
X156284712Y-92066238D01*
X156336188Y-92113482D01*
X156347931Y-92139196D01*
X156387454Y-92260836D01*
X156473240Y-92429199D01*
X156584310Y-92582073D01*
X156717927Y-92715690D01*
X156870801Y-92826760D01*
X156929499Y-92856668D01*
X157039163Y-92912545D01*
X157039165Y-92912545D01*
X157039168Y-92912547D01*
X157135497Y-92943846D01*
X157218881Y-92970940D01*
X157405514Y-93000500D01*
X157405519Y-93000500D01*
X157594486Y-93000500D01*
X157781118Y-92970940D01*
X157960832Y-92912547D01*
X158129199Y-92826760D01*
X158282073Y-92715690D01*
X158415690Y-92582073D01*
X158526760Y-92429199D01*
X158612547Y-92260832D01*
X158670940Y-92081118D01*
X158679719Y-92025690D01*
X158700500Y-91894486D01*
X158700500Y-91705513D01*
X158670940Y-91518881D01*
X158612545Y-91339163D01*
X158543923Y-91204486D01*
X158526760Y-91170801D01*
X158415690Y-91017927D01*
X158282073Y-90884310D01*
X158129199Y-90773240D01*
X158129195Y-90773237D01*
X158129192Y-90773235D01*
X158118200Y-90767634D01*
X158067406Y-90719657D01*
X158050500Y-90657152D01*
X158050500Y-83599236D01*
X158050500Y-83599234D01*
X158011281Y-83452865D01*
X157935515Y-83321635D01*
X157828365Y-83214485D01*
X154753365Y-80139485D01*
X154687750Y-80101602D01*
X154622136Y-80063719D01*
X154512385Y-80034312D01*
X154475766Y-80024500D01*
X154475765Y-80024500D01*
X142539741Y-80024500D01*
X142510300Y-80015855D01*
X142480314Y-80009332D01*
X142475298Y-80005577D01*
X142472702Y-80004815D01*
X142452060Y-79988181D01*
X142382874Y-79918995D01*
X155549499Y-79918995D01*
X155576418Y-80054322D01*
X155576421Y-80054332D01*
X155629221Y-80181804D01*
X155629228Y-80181817D01*
X155705885Y-80296541D01*
X155705888Y-80296545D01*
X155803454Y-80394111D01*
X155803458Y-80394114D01*
X155918182Y-80470771D01*
X155918195Y-80470778D01*
X156045667Y-80523578D01*
X156045672Y-80523580D01*
X156045676Y-80523580D01*
X156045677Y-80523581D01*
X156181004Y-80550500D01*
X156181007Y-80550500D01*
X156318995Y-80550500D01*
X156410041Y-80532389D01*
X156454328Y-80523580D01*
X156581811Y-80470775D01*
X156696542Y-80394114D01*
X156794114Y-80296542D01*
X156870775Y-80181811D01*
X156884416Y-80148876D01*
X156911293Y-80108651D01*
X157233126Y-79786819D01*
X157294449Y-79753334D01*
X157320807Y-79750500D01*
X163464071Y-79750500D01*
X163548615Y-79733682D01*
X163589744Y-79725501D01*
X163708127Y-79676465D01*
X163723990Y-79665866D01*
X163732385Y-79660257D01*
X163793228Y-79619603D01*
X163814669Y-79605277D01*
X164605276Y-78814670D01*
X164676465Y-78708127D01*
X164725501Y-78589744D01*
X164738671Y-78523535D01*
X164742461Y-78504483D01*
X164742461Y-78504480D01*
X164750500Y-78464069D01*
X164750500Y-69420808D01*
X164759144Y-69391367D01*
X164765668Y-69361381D01*
X164769422Y-69356365D01*
X164770185Y-69353769D01*
X164786819Y-69333127D01*
X164833127Y-69286819D01*
X164894450Y-69253334D01*
X164920808Y-69250500D01*
X165568995Y-69250500D01*
X165660041Y-69232389D01*
X165704328Y-69223580D01*
X165831811Y-69170775D01*
X165946542Y-69094114D01*
X166044114Y-68996542D01*
X166120775Y-68881811D01*
X166173580Y-68754328D01*
X166184287Y-68700500D01*
X166200500Y-68618995D01*
X166200500Y-68481004D01*
X166173581Y-68345677D01*
X166173580Y-68345676D01*
X166173580Y-68345672D01*
X166151296Y-68291873D01*
X166120778Y-68218195D01*
X166120771Y-68218182D01*
X166044114Y-68103458D01*
X166044111Y-68103454D01*
X165946545Y-68005888D01*
X165946541Y-68005885D01*
X165831817Y-67929228D01*
X165831804Y-67929221D01*
X165704332Y-67876421D01*
X165704322Y-67876418D01*
X165568995Y-67849500D01*
X165568993Y-67849500D01*
X165431007Y-67849500D01*
X165431005Y-67849500D01*
X165295677Y-67876418D01*
X165295667Y-67876421D01*
X165168190Y-67929223D01*
X165162819Y-67932095D01*
X165162123Y-67930794D01*
X165102438Y-67949480D01*
X165100230Y-67949500D01*
X164535929Y-67949500D01*
X164410261Y-67974497D01*
X164410255Y-67974499D01*
X164301616Y-68019498D01*
X164301614Y-68019500D01*
X164298016Y-68020990D01*
X164291872Y-68023535D01*
X164185326Y-68094726D01*
X163594724Y-68685328D01*
X163543170Y-68762486D01*
X163523535Y-68791871D01*
X163474499Y-68910255D01*
X163474497Y-68910261D01*
X163449500Y-69035928D01*
X163449500Y-78079192D01*
X163429815Y-78146231D01*
X163413181Y-78166873D01*
X163166873Y-78413181D01*
X163105550Y-78446666D01*
X163079192Y-78449500D01*
X156935929Y-78449500D01*
X156812426Y-78474066D01*
X156812427Y-78474067D01*
X156810264Y-78474497D01*
X156810259Y-78474498D01*
X156810256Y-78474499D01*
X156810253Y-78474499D01*
X156810250Y-78474501D01*
X156691879Y-78523531D01*
X156691866Y-78523538D01*
X156585331Y-78594723D01*
X156585327Y-78594726D01*
X155991349Y-79188703D01*
X155951125Y-79215581D01*
X155918190Y-79229224D01*
X155918186Y-79229226D01*
X155803462Y-79305882D01*
X155803454Y-79305888D01*
X155705888Y-79403454D01*
X155705885Y-79403458D01*
X155629228Y-79518182D01*
X155629221Y-79518195D01*
X155576421Y-79645667D01*
X155576418Y-79645677D01*
X155549500Y-79781004D01*
X155549500Y-79781007D01*
X155549500Y-79918993D01*
X155549500Y-79918995D01*
X155549499Y-79918995D01*
X142382874Y-79918995D01*
X142326475Y-79862596D01*
X142037691Y-79573812D01*
X141636819Y-79172939D01*
X141603334Y-79111616D01*
X141600500Y-79085258D01*
X141600500Y-77773670D01*
X141620185Y-77706631D01*
X141672989Y-77660876D01*
X141742147Y-77650932D01*
X141780794Y-77663185D01*
X141799168Y-77672547D01*
X141904067Y-77706631D01*
X141978881Y-77730940D01*
X142165514Y-77760500D01*
X142165519Y-77760500D01*
X142354486Y-77760500D01*
X142541118Y-77730940D01*
X142543362Y-77730211D01*
X142720832Y-77672547D01*
X142889199Y-77586760D01*
X143042073Y-77475690D01*
X143175690Y-77342073D01*
X143286760Y-77189199D01*
X143372547Y-77020832D01*
X143412069Y-76899195D01*
X143451507Y-76841521D01*
X143515866Y-76814323D01*
X143584712Y-76826238D01*
X143636188Y-76873482D01*
X143647931Y-76899196D01*
X143687454Y-77020836D01*
X143758355Y-77159986D01*
X143773240Y-77189199D01*
X143884310Y-77342073D01*
X144017927Y-77475690D01*
X144170801Y-77586760D01*
X144250347Y-77627290D01*
X144339163Y-77672545D01*
X144339165Y-77672545D01*
X144339168Y-77672547D01*
X144430784Y-77702315D01*
X144518881Y-77730940D01*
X144705514Y-77760500D01*
X144705519Y-77760500D01*
X144894486Y-77760500D01*
X145081118Y-77730940D01*
X145083362Y-77730211D01*
X145260832Y-77672547D01*
X145429199Y-77586760D01*
X145582073Y-77475690D01*
X145715690Y-77342073D01*
X145826760Y-77189199D01*
X145912547Y-77020832D01*
X145952069Y-76899195D01*
X145991507Y-76841521D01*
X146055866Y-76814323D01*
X146124712Y-76826238D01*
X146176188Y-76873482D01*
X146187931Y-76899196D01*
X146227454Y-77020836D01*
X146298355Y-77159986D01*
X146313240Y-77189199D01*
X146424310Y-77342073D01*
X146557927Y-77475690D01*
X146710801Y-77586760D01*
X146790347Y-77627290D01*
X146879163Y-77672545D01*
X146879165Y-77672545D01*
X146879168Y-77672547D01*
X146970784Y-77702315D01*
X147058881Y-77730940D01*
X147245514Y-77760500D01*
X147245519Y-77760500D01*
X147434486Y-77760500D01*
X147621118Y-77730940D01*
X147623362Y-77730211D01*
X147800832Y-77672547D01*
X147969199Y-77586760D01*
X148122073Y-77475690D01*
X148255690Y-77342073D01*
X148366760Y-77189199D01*
X148452547Y-77020832D01*
X148492069Y-76899195D01*
X148531507Y-76841521D01*
X148595866Y-76814323D01*
X148664712Y-76826238D01*
X148716188Y-76873482D01*
X148727931Y-76899196D01*
X148767454Y-77020836D01*
X148838355Y-77159986D01*
X148853240Y-77189199D01*
X148964310Y-77342073D01*
X149097927Y-77475690D01*
X149250801Y-77586760D01*
X149330347Y-77627290D01*
X149419163Y-77672545D01*
X149419165Y-77672545D01*
X149419168Y-77672547D01*
X149510784Y-77702315D01*
X149598881Y-77730940D01*
X149785514Y-77760500D01*
X149785519Y-77760500D01*
X149974486Y-77760500D01*
X150161118Y-77730940D01*
X150163362Y-77730211D01*
X150340832Y-77672547D01*
X150509199Y-77586760D01*
X150662073Y-77475690D01*
X150795690Y-77342073D01*
X150906760Y-77189199D01*
X150992547Y-77020832D01*
X151032069Y-76899195D01*
X151071507Y-76841521D01*
X151135866Y-76814323D01*
X151204712Y-76826238D01*
X151256188Y-76873482D01*
X151267931Y-76899196D01*
X151307454Y-77020836D01*
X151378355Y-77159986D01*
X151393240Y-77189199D01*
X151504310Y-77342073D01*
X151637927Y-77475690D01*
X151790801Y-77586760D01*
X151870347Y-77627290D01*
X151959163Y-77672545D01*
X151959165Y-77672545D01*
X151959168Y-77672547D01*
X152050784Y-77702315D01*
X152138881Y-77730940D01*
X152325514Y-77760500D01*
X152325519Y-77760500D01*
X152514486Y-77760500D01*
X152701118Y-77730940D01*
X152703362Y-77730211D01*
X152880832Y-77672547D01*
X153049199Y-77586760D01*
X153202073Y-77475690D01*
X153335690Y-77342073D01*
X153446760Y-77189199D01*
X153532547Y-77020832D01*
X153572069Y-76899195D01*
X153611507Y-76841521D01*
X153675866Y-76814323D01*
X153744712Y-76826238D01*
X153796188Y-76873482D01*
X153807931Y-76899196D01*
X153847454Y-77020836D01*
X153918355Y-77159986D01*
X153933240Y-77189199D01*
X154044310Y-77342073D01*
X154177927Y-77475690D01*
X154330801Y-77586760D01*
X154410347Y-77627290D01*
X154499163Y-77672545D01*
X154499165Y-77672545D01*
X154499168Y-77672547D01*
X154590784Y-77702315D01*
X154678881Y-77730940D01*
X154865514Y-77760500D01*
X154865519Y-77760500D01*
X155054486Y-77760500D01*
X155241118Y-77730940D01*
X155243362Y-77730211D01*
X155420832Y-77672547D01*
X155589199Y-77586760D01*
X155742073Y-77475690D01*
X155875690Y-77342073D01*
X155985627Y-77190757D01*
X156040957Y-77148092D01*
X156110570Y-77142113D01*
X156172365Y-77174719D01*
X156206722Y-77235557D01*
X156209303Y-77251039D01*
X156210494Y-77262697D01*
X156265641Y-77429119D01*
X156265643Y-77429124D01*
X156357684Y-77578345D01*
X156481654Y-77702315D01*
X156630875Y-77794356D01*
X156630880Y-77794358D01*
X156797302Y-77849505D01*
X156797309Y-77849506D01*
X156900019Y-77859999D01*
X157249999Y-77859999D01*
X157250000Y-77859998D01*
X157250000Y-76875686D01*
X157254394Y-76880080D01*
X157345606Y-76932741D01*
X157447339Y-76960000D01*
X157552661Y-76960000D01*
X157654394Y-76932741D01*
X157745606Y-76880080D01*
X157750000Y-76875686D01*
X157750000Y-77859999D01*
X158099972Y-77859999D01*
X158099986Y-77859998D01*
X158202697Y-77849505D01*
X158369119Y-77794358D01*
X158369124Y-77794356D01*
X158518345Y-77702315D01*
X158642315Y-77578345D01*
X158734356Y-77429124D01*
X158734358Y-77429119D01*
X158789505Y-77262697D01*
X158789506Y-77262690D01*
X158799999Y-77159986D01*
X158800000Y-77159973D01*
X158800000Y-76810000D01*
X157815686Y-76810000D01*
X157820080Y-76805606D01*
X157872741Y-76714394D01*
X157900000Y-76612661D01*
X157900000Y-76507339D01*
X157872741Y-76405606D01*
X157820080Y-76314394D01*
X157815686Y-76310000D01*
X158799999Y-76310000D01*
X158799999Y-75960028D01*
X158799998Y-75960013D01*
X158789505Y-75857302D01*
X158734358Y-75690880D01*
X158734356Y-75690875D01*
X158642315Y-75541654D01*
X158518345Y-75417684D01*
X158369124Y-75325643D01*
X158369119Y-75325641D01*
X158202697Y-75270494D01*
X158202690Y-75270493D01*
X158099986Y-75260000D01*
X157750000Y-75260000D01*
X157750000Y-76244314D01*
X157745606Y-76239920D01*
X157654394Y-76187259D01*
X157552661Y-76160000D01*
X157447339Y-76160000D01*
X157345606Y-76187259D01*
X157254394Y-76239920D01*
X157250000Y-76244314D01*
X157250000Y-75260000D01*
X156900028Y-75260000D01*
X156900012Y-75260001D01*
X156797302Y-75270494D01*
X156630880Y-75325641D01*
X156630875Y-75325643D01*
X156481654Y-75417684D01*
X156357684Y-75541654D01*
X156265643Y-75690875D01*
X156265641Y-75690880D01*
X156210494Y-75857302D01*
X156210493Y-75857308D01*
X156209303Y-75868960D01*
X156182905Y-75933651D01*
X156125724Y-75973801D01*
X156055913Y-75976663D01*
X155995637Y-75941328D01*
X155985627Y-75929241D01*
X155933360Y-75857302D01*
X155875690Y-75777927D01*
X155742073Y-75644310D01*
X155589199Y-75533240D01*
X155573200Y-75525088D01*
X155420836Y-75447454D01*
X155241118Y-75389059D01*
X155054486Y-75359500D01*
X155054481Y-75359500D01*
X154865519Y-75359500D01*
X154865514Y-75359500D01*
X154678881Y-75389059D01*
X154499163Y-75447454D01*
X154330800Y-75533240D01*
X154264903Y-75581118D01*
X154177927Y-75644310D01*
X154177925Y-75644312D01*
X154177924Y-75644312D01*
X154044312Y-75777924D01*
X154044312Y-75777925D01*
X154044310Y-75777927D01*
X154028977Y-75799031D01*
X153933240Y-75930800D01*
X153847454Y-76099163D01*
X153807931Y-76220803D01*
X153768493Y-76278478D01*
X153704134Y-76305676D01*
X153635288Y-76293761D01*
X153583812Y-76246516D01*
X153572069Y-76220803D01*
X153552313Y-76160000D01*
X153532547Y-76099168D01*
X153532545Y-76099165D01*
X153532545Y-76099163D01*
X153484735Y-76005331D01*
X153446760Y-75930801D01*
X153335690Y-75777927D01*
X153202073Y-75644310D01*
X153195274Y-75639370D01*
X153046614Y-75531360D01*
X153003948Y-75476030D01*
X152995500Y-75431043D01*
X152995500Y-67644236D01*
X152995500Y-67644234D01*
X152956281Y-67497865D01*
X152880515Y-67366635D01*
X152773365Y-67259485D01*
X151861819Y-66347939D01*
X151828334Y-66286616D01*
X151825500Y-66260258D01*
X151825500Y-64751953D01*
X151845185Y-64684914D01*
X151897989Y-64639159D01*
X151967147Y-64629215D01*
X152005796Y-64641469D01*
X152039968Y-64658881D01*
X152039971Y-64658881D01*
X152039975Y-64658884D01*
X152169268Y-64700894D01*
X152227173Y-64719709D01*
X152421578Y-64750500D01*
X152421583Y-64750500D01*
X152618422Y-64750500D01*
X152812826Y-64719709D01*
X152839965Y-64710891D01*
X153000025Y-64658884D01*
X153175405Y-64569524D01*
X153334646Y-64453828D01*
X153473828Y-64314646D01*
X153589524Y-64155405D01*
X153678884Y-63980025D01*
X153679515Y-63978787D01*
X153727489Y-63927990D01*
X153795310Y-63911195D01*
X153861445Y-63933732D01*
X153900485Y-63978787D01*
X153990474Y-64155403D01*
X154025234Y-64203246D01*
X154106172Y-64314646D01*
X154245354Y-64453828D01*
X154404595Y-64569524D01*
X154461054Y-64598291D01*
X154579970Y-64658882D01*
X154579972Y-64658882D01*
X154579975Y-64658884D01*
X154680317Y-64691487D01*
X154767173Y-64719709D01*
X154961578Y-64750500D01*
X154961583Y-64750500D01*
X155158422Y-64750500D01*
X155352826Y-64719709D01*
X155379965Y-64710891D01*
X155540025Y-64658884D01*
X155715405Y-64569524D01*
X155874646Y-64453828D01*
X156013828Y-64314646D01*
X156129524Y-64155405D01*
X156218884Y-63980025D01*
X156279709Y-63792826D01*
X156295521Y-63692993D01*
X156310500Y-63598422D01*
X156310500Y-63401577D01*
X156279709Y-63207173D01*
X156218882Y-63019970D01*
X156155000Y-62894595D01*
X156129524Y-62844595D01*
X156013828Y-62685354D01*
X155874646Y-62546172D01*
X155761613Y-62464048D01*
X155718949Y-62408718D01*
X155710500Y-62363731D01*
X155710500Y-62096268D01*
X155730185Y-62029229D01*
X155761615Y-61995950D01*
X155776272Y-61985301D01*
X155874646Y-61913828D01*
X156013828Y-61774646D01*
X156129524Y-61615405D01*
X156218884Y-61440025D01*
X156279709Y-61252826D01*
X156295521Y-61152993D01*
X156310500Y-61058422D01*
X156310500Y-60861577D01*
X156279709Y-60667173D01*
X156218882Y-60479970D01*
X156152955Y-60350581D01*
X156129524Y-60304595D01*
X156013828Y-60145354D01*
X155874646Y-60006172D01*
X155761613Y-59924048D01*
X155718949Y-59868718D01*
X155710500Y-59823731D01*
X155710500Y-58295928D01*
X155685502Y-58170261D01*
X155685501Y-58170260D01*
X155685501Y-58170256D01*
X155665492Y-58121952D01*
X155658024Y-58052483D01*
X155689299Y-57990004D01*
X155749388Y-57954352D01*
X155780054Y-57950500D01*
X167329192Y-57950500D01*
X167396231Y-57970185D01*
G37*
%TD.AperFunction*%
%TA.AperFunction,Conductor*%
G36*
X191642539Y-79080185D02*
G01*
X191688294Y-79132989D01*
X191699500Y-79184500D01*
X191699500Y-102714069D01*
X191719511Y-102814669D01*
X191724499Y-102839744D01*
X191773535Y-102958127D01*
X191818439Y-103025331D01*
X191844726Y-103064673D01*
X191844727Y-103064674D01*
X194613181Y-105833127D01*
X194646666Y-105894450D01*
X194649500Y-105920808D01*
X194649500Y-107275560D01*
X194629815Y-107342599D01*
X194581795Y-107386045D01*
X194494594Y-107430476D01*
X194414553Y-107488630D01*
X194335354Y-107546172D01*
X194335352Y-107546174D01*
X194335351Y-107546174D01*
X194196174Y-107685351D01*
X194196174Y-107685352D01*
X194196172Y-107685354D01*
X194182368Y-107704354D01*
X194080476Y-107844594D01*
X193990485Y-108021213D01*
X193942511Y-108072009D01*
X193874690Y-108088804D01*
X193808555Y-108066267D01*
X193769515Y-108021213D01*
X193742397Y-107967992D01*
X193679524Y-107844595D01*
X193563828Y-107685354D01*
X193424646Y-107546172D01*
X193410500Y-107535894D01*
X193401612Y-107529436D01*
X193358948Y-107474105D01*
X193350500Y-107429120D01*
X193350500Y-106235928D01*
X193325502Y-106110260D01*
X193325500Y-106110254D01*
X193305189Y-106061221D01*
X193305187Y-106061216D01*
X193276468Y-105991878D01*
X193276462Y-105991868D01*
X193205278Y-105885332D01*
X193205272Y-105885325D01*
X187886819Y-100566872D01*
X187853334Y-100505549D01*
X187850500Y-100479191D01*
X187850500Y-89420807D01*
X187859144Y-89391366D01*
X187865668Y-89361380D01*
X187869422Y-89356364D01*
X187870185Y-89353768D01*
X187886819Y-89333126D01*
X187963126Y-89256819D01*
X188024449Y-89223334D01*
X188050807Y-89220500D01*
X188620535Y-89220500D01*
X188687574Y-89240185D01*
X188720852Y-89271613D01*
X188779310Y-89352073D01*
X188912927Y-89485690D01*
X189065801Y-89596760D01*
X189099772Y-89614069D01*
X189234163Y-89682545D01*
X189234165Y-89682545D01*
X189234168Y-89682547D01*
X189316954Y-89709446D01*
X189355803Y-89722069D01*
X189413478Y-89761507D01*
X189440676Y-89825866D01*
X189428761Y-89894712D01*
X189381516Y-89946188D01*
X189355803Y-89957931D01*
X189234163Y-89997454D01*
X189065800Y-90083240D01*
X189009807Y-90123922D01*
X188912927Y-90194310D01*
X188912925Y-90194312D01*
X188912924Y-90194312D01*
X188779312Y-90327924D01*
X188779312Y-90327925D01*
X188779310Y-90327927D01*
X188749599Y-90368821D01*
X188668240Y-90480800D01*
X188582454Y-90649163D01*
X188524059Y-90828881D01*
X188494500Y-91015513D01*
X188494500Y-91204486D01*
X188524059Y-91391118D01*
X188582454Y-91570836D01*
X188641371Y-91686466D01*
X188668240Y-91739199D01*
X188779310Y-91892073D01*
X188912927Y-92025690D01*
X189065801Y-92136760D01*
X189145347Y-92177290D01*
X189234163Y-92222545D01*
X189234165Y-92222545D01*
X189234168Y-92222547D01*
X189323734Y-92251649D01*
X189355803Y-92262069D01*
X189413478Y-92301507D01*
X189440676Y-92365866D01*
X189428761Y-92434712D01*
X189381516Y-92486188D01*
X189355803Y-92497931D01*
X189234163Y-92537454D01*
X189065800Y-92623240D01*
X188999259Y-92671586D01*
X188912927Y-92734310D01*
X188912925Y-92734312D01*
X188912924Y-92734312D01*
X188779312Y-92867924D01*
X188779312Y-92867925D01*
X188779310Y-92867927D01*
X188757875Y-92897430D01*
X188668240Y-93020800D01*
X188582454Y-93189163D01*
X188524059Y-93368881D01*
X188494500Y-93555513D01*
X188494500Y-93744486D01*
X188524059Y-93931118D01*
X188582454Y-94110836D01*
X188662386Y-94267710D01*
X188668240Y-94279199D01*
X188779310Y-94432073D01*
X188912927Y-94565690D01*
X189065801Y-94676760D01*
X189110431Y-94699500D01*
X189219440Y-94755043D01*
X189270236Y-94803018D01*
X189287031Y-94870839D01*
X189264494Y-94936974D01*
X189209778Y-94980425D01*
X189201469Y-94983457D01*
X189195971Y-94985243D01*
X189013644Y-95078143D01*
X188969077Y-95110523D01*
X188969077Y-95110524D01*
X189648554Y-95790000D01*
X189642339Y-95790000D01*
X189540606Y-95817259D01*
X189449394Y-95869920D01*
X189374920Y-95944394D01*
X189322259Y-96035606D01*
X189295000Y-96137339D01*
X189295000Y-96143553D01*
X188615524Y-95464077D01*
X188615523Y-95464077D01*
X188583143Y-95508644D01*
X188490244Y-95690968D01*
X188427009Y-95885582D01*
X188395000Y-96087682D01*
X188395000Y-96292317D01*
X188427009Y-96494417D01*
X188490244Y-96689031D01*
X188583141Y-96871350D01*
X188583147Y-96871359D01*
X188615523Y-96915921D01*
X188615524Y-96915922D01*
X189295000Y-96236446D01*
X189295000Y-96242661D01*
X189322259Y-96344394D01*
X189374920Y-96435606D01*
X189449394Y-96510080D01*
X189540606Y-96562741D01*
X189642339Y-96590000D01*
X189648553Y-96590000D01*
X188969076Y-97269474D01*
X189013650Y-97301859D01*
X189195968Y-97394755D01*
X189390582Y-97457990D01*
X189592683Y-97490000D01*
X189797317Y-97490000D01*
X189999417Y-97457990D01*
X190194031Y-97394755D01*
X190376349Y-97301859D01*
X190420921Y-97269474D01*
X189741447Y-96590000D01*
X189747661Y-96590000D01*
X189849394Y-96562741D01*
X189940606Y-96510080D01*
X190015080Y-96435606D01*
X190067741Y-96344394D01*
X190095000Y-96242661D01*
X190095000Y-96236448D01*
X190774474Y-96915922D01*
X190774474Y-96915921D01*
X190806859Y-96871349D01*
X190899755Y-96689031D01*
X190962990Y-96494417D01*
X190995000Y-96292317D01*
X190995000Y-96087682D01*
X190962990Y-95885582D01*
X190899755Y-95690968D01*
X190806859Y-95508650D01*
X190774474Y-95464077D01*
X190774474Y-95464076D01*
X190095000Y-96143551D01*
X190095000Y-96137339D01*
X190067741Y-96035606D01*
X190015080Y-95944394D01*
X189940606Y-95869920D01*
X189849394Y-95817259D01*
X189747661Y-95790000D01*
X189741446Y-95790000D01*
X190420922Y-95110524D01*
X190420921Y-95110523D01*
X190376359Y-95078147D01*
X190376350Y-95078141D01*
X190194027Y-94985242D01*
X190188534Y-94983458D01*
X190130859Y-94944020D01*
X190103662Y-94879661D01*
X190115578Y-94810815D01*
X190162822Y-94759340D01*
X190170559Y-94755043D01*
X190324199Y-94676760D01*
X190477073Y-94565690D01*
X190610690Y-94432073D01*
X190721760Y-94279199D01*
X190807547Y-94110832D01*
X190865940Y-93931118D01*
X190885082Y-93810261D01*
X190895500Y-93744486D01*
X190895500Y-93555513D01*
X190865940Y-93368881D01*
X190807545Y-93189163D01*
X190757301Y-93090554D01*
X190721760Y-93020801D01*
X190610690Y-92867927D01*
X190477073Y-92734310D01*
X190324199Y-92623240D01*
X190155836Y-92537454D01*
X190081472Y-92513291D01*
X190034195Y-92497930D01*
X189976521Y-92458493D01*
X189949323Y-92394134D01*
X189961238Y-92325288D01*
X190008482Y-92273812D01*
X190034194Y-92262069D01*
X190155832Y-92222547D01*
X190324199Y-92136760D01*
X190477073Y-92025690D01*
X190610690Y-91892073D01*
X190721760Y-91739199D01*
X190807547Y-91570832D01*
X190865940Y-91391118D01*
X190877076Y-91320807D01*
X190895500Y-91204486D01*
X190895500Y-91015513D01*
X190865940Y-90828881D01*
X190821423Y-90691873D01*
X190807547Y-90649168D01*
X190807545Y-90649165D01*
X190807545Y-90649163D01*
X190753445Y-90542986D01*
X190721760Y-90480801D01*
X190610690Y-90327927D01*
X190477073Y-90194310D01*
X190324199Y-90083240D01*
X190300387Y-90071107D01*
X190155836Y-89997454D01*
X190054934Y-89964669D01*
X190034195Y-89957930D01*
X189976521Y-89918493D01*
X189949323Y-89854134D01*
X189961238Y-89785288D01*
X190008482Y-89733812D01*
X190034194Y-89722069D01*
X190155832Y-89682547D01*
X190324199Y-89596760D01*
X190477073Y-89485690D01*
X190610690Y-89352073D01*
X190721760Y-89199199D01*
X190807547Y-89030832D01*
X190865940Y-88851118D01*
X190875156Y-88792930D01*
X190895500Y-88664486D01*
X190895500Y-88475513D01*
X190865940Y-88288881D01*
X190807545Y-88109163D01*
X190762290Y-88020347D01*
X190721760Y-87940801D01*
X190610690Y-87787927D01*
X190477073Y-87654310D01*
X190324199Y-87543240D01*
X190309854Y-87535931D01*
X190155836Y-87457454D01*
X190081472Y-87433291D01*
X190034195Y-87417930D01*
X189976521Y-87378493D01*
X189949323Y-87314134D01*
X189961238Y-87245288D01*
X190008482Y-87193812D01*
X190034194Y-87182069D01*
X190155832Y-87142547D01*
X190324199Y-87056760D01*
X190477073Y-86945690D01*
X190610690Y-86812073D01*
X190721760Y-86659199D01*
X190807547Y-86490832D01*
X190865940Y-86311118D01*
X190895500Y-86124486D01*
X190895500Y-85935513D01*
X190865940Y-85748881D01*
X190815851Y-85594726D01*
X190807547Y-85569168D01*
X190807545Y-85569165D01*
X190807545Y-85569163D01*
X190721759Y-85400800D01*
X190688297Y-85354744D01*
X190610690Y-85247927D01*
X190477073Y-85114310D01*
X190324199Y-85003240D01*
X190155836Y-84917454D01*
X190081472Y-84893291D01*
X190034195Y-84877930D01*
X189976521Y-84838493D01*
X189949323Y-84774134D01*
X189961238Y-84705288D01*
X190008482Y-84653812D01*
X190034194Y-84642069D01*
X190155832Y-84602547D01*
X190324199Y-84516760D01*
X190477073Y-84405690D01*
X190610690Y-84272073D01*
X190721760Y-84119199D01*
X190807547Y-83950832D01*
X190865940Y-83771118D01*
X190873482Y-83723498D01*
X190895500Y-83584486D01*
X190895500Y-83395513D01*
X190865940Y-83208881D01*
X190807545Y-83029163D01*
X190723644Y-82864499D01*
X190721760Y-82860801D01*
X190610690Y-82707927D01*
X190477073Y-82574310D01*
X190324199Y-82463240D01*
X190155836Y-82377454D01*
X190072880Y-82350500D01*
X190034195Y-82337930D01*
X189976521Y-82298493D01*
X189949323Y-82234134D01*
X189961238Y-82165288D01*
X190008482Y-82113812D01*
X190034194Y-82102069D01*
X190155832Y-82062547D01*
X190324199Y-81976760D01*
X190477073Y-81865690D01*
X190610690Y-81732073D01*
X190721760Y-81579199D01*
X190807547Y-81410832D01*
X190865940Y-81231118D01*
X190871704Y-81194723D01*
X190895500Y-81044486D01*
X190895500Y-80855513D01*
X190865940Y-80668881D01*
X190827475Y-80550500D01*
X190807547Y-80489168D01*
X190807545Y-80489165D01*
X190807545Y-80489163D01*
X190759113Y-80394111D01*
X190721760Y-80320801D01*
X190610690Y-80167927D01*
X190477073Y-80034310D01*
X190324199Y-79923240D01*
X190243098Y-79881917D01*
X190170615Y-79844985D01*
X190119819Y-79797010D01*
X190103024Y-79729189D01*
X190125561Y-79663054D01*
X190180277Y-79619603D01*
X190226910Y-79610500D01*
X190310686Y-79610500D01*
X190310694Y-79610500D01*
X190347569Y-79607598D01*
X190347571Y-79607597D01*
X190347573Y-79607597D01*
X190389191Y-79595505D01*
X190505398Y-79561744D01*
X190646865Y-79478081D01*
X190763081Y-79361865D01*
X190846744Y-79220398D01*
X190846745Y-79220394D01*
X190846746Y-79220393D01*
X190867225Y-79149905D01*
X190904831Y-79091019D01*
X190968304Y-79061813D01*
X190986301Y-79060500D01*
X191575500Y-79060500D01*
X191642539Y-79080185D01*
G37*
%TD.AperFunction*%
%TA.AperFunction,Conductor*%
G36*
X172388526Y-89070185D02*
G01*
X172431972Y-89118206D01*
X172473238Y-89199197D01*
X172488716Y-89220500D01*
X172584310Y-89352073D01*
X172717927Y-89485690D01*
X172870801Y-89596760D01*
X172904772Y-89614069D01*
X173039163Y-89682545D01*
X173039165Y-89682545D01*
X173039168Y-89682547D01*
X173121954Y-89709446D01*
X173160803Y-89722069D01*
X173218478Y-89761507D01*
X173245676Y-89825866D01*
X173233761Y-89894712D01*
X173186516Y-89946188D01*
X173160803Y-89957931D01*
X173039163Y-89997454D01*
X172870800Y-90083240D01*
X172814807Y-90123922D01*
X172717927Y-90194310D01*
X172717925Y-90194312D01*
X172717924Y-90194312D01*
X172584312Y-90327924D01*
X172584312Y-90327925D01*
X172584310Y-90327927D01*
X172554599Y-90368821D01*
X172473240Y-90480800D01*
X172387454Y-90649163D01*
X172329059Y-90828881D01*
X172299500Y-91015513D01*
X172299500Y-91204486D01*
X172329059Y-91391118D01*
X172387454Y-91570836D01*
X172446371Y-91686466D01*
X172473240Y-91739199D01*
X172584310Y-91892073D01*
X172717927Y-92025690D01*
X172870801Y-92136760D01*
X172950347Y-92177290D01*
X173039163Y-92222545D01*
X173039165Y-92222545D01*
X173039168Y-92222547D01*
X173128734Y-92251649D01*
X173160803Y-92262069D01*
X173218478Y-92301507D01*
X173245676Y-92365866D01*
X173233761Y-92434712D01*
X173186516Y-92486188D01*
X173160803Y-92497931D01*
X173039163Y-92537454D01*
X172870800Y-92623240D01*
X172804259Y-92671586D01*
X172717927Y-92734310D01*
X172717925Y-92734312D01*
X172717924Y-92734312D01*
X172584312Y-92867924D01*
X172584312Y-92867925D01*
X172584310Y-92867927D01*
X172562875Y-92897430D01*
X172473240Y-93020800D01*
X172387454Y-93189163D01*
X172329059Y-93368881D01*
X172299500Y-93555513D01*
X172299500Y-93744486D01*
X172329059Y-93931118D01*
X172387454Y-94110836D01*
X172467386Y-94267710D01*
X172473240Y-94279199D01*
X172584310Y-94432073D01*
X172717927Y-94565690D01*
X172870801Y-94676760D01*
X172915431Y-94699500D01*
X173024440Y-94755043D01*
X173075236Y-94803018D01*
X173092031Y-94870839D01*
X173069494Y-94936974D01*
X173014778Y-94980425D01*
X173006469Y-94983457D01*
X173000971Y-94985243D01*
X172818644Y-95078143D01*
X172774077Y-95110523D01*
X172774077Y-95110524D01*
X173453554Y-95790000D01*
X173447339Y-95790000D01*
X173345606Y-95817259D01*
X173254394Y-95869920D01*
X173179920Y-95944394D01*
X173127259Y-96035606D01*
X173100000Y-96137339D01*
X173100000Y-96143553D01*
X172420524Y-95464077D01*
X172420523Y-95464077D01*
X172388143Y-95508644D01*
X172295244Y-95690968D01*
X172232009Y-95885582D01*
X172200000Y-96087682D01*
X172200000Y-96292317D01*
X172232009Y-96494417D01*
X172295244Y-96689031D01*
X172388141Y-96871350D01*
X172388147Y-96871359D01*
X172420523Y-96915921D01*
X172420524Y-96915922D01*
X173100000Y-96236446D01*
X173100000Y-96242661D01*
X173127259Y-96344394D01*
X173179920Y-96435606D01*
X173254394Y-96510080D01*
X173345606Y-96562741D01*
X173447339Y-96590000D01*
X173453553Y-96590000D01*
X172774076Y-97269474D01*
X172818650Y-97301859D01*
X173000968Y-97394755D01*
X173195582Y-97457990D01*
X173397683Y-97490000D01*
X173602317Y-97490000D01*
X173804417Y-97457990D01*
X173999031Y-97394755D01*
X174181349Y-97301859D01*
X174225921Y-97269474D01*
X173546447Y-96590000D01*
X173552661Y-96590000D01*
X173654394Y-96562741D01*
X173745606Y-96510080D01*
X173820080Y-96435606D01*
X173872741Y-96344394D01*
X173900000Y-96242661D01*
X173900000Y-96236448D01*
X174579474Y-96915922D01*
X174579474Y-96915921D01*
X174611859Y-96871349D01*
X174704755Y-96689031D01*
X174767990Y-96494417D01*
X174800000Y-96292317D01*
X174800000Y-96087682D01*
X174767990Y-95885582D01*
X174704755Y-95690968D01*
X174611859Y-95508650D01*
X174579474Y-95464077D01*
X174579474Y-95464076D01*
X173900000Y-96143551D01*
X173900000Y-96137339D01*
X173872741Y-96035606D01*
X173820080Y-95944394D01*
X173745606Y-95869920D01*
X173654394Y-95817259D01*
X173552661Y-95790000D01*
X173546446Y-95790000D01*
X174225922Y-95110524D01*
X174225921Y-95110523D01*
X174181359Y-95078147D01*
X174181350Y-95078141D01*
X173999027Y-94985242D01*
X173993534Y-94983458D01*
X173935859Y-94944020D01*
X173908662Y-94879661D01*
X173920578Y-94810815D01*
X173967822Y-94759340D01*
X173975559Y-94755043D01*
X174129199Y-94676760D01*
X174282073Y-94565690D01*
X174415690Y-94432073D01*
X174526760Y-94279199D01*
X174612547Y-94110832D01*
X174670940Y-93931118D01*
X174690082Y-93810261D01*
X174700500Y-93744486D01*
X174700500Y-93555513D01*
X174670940Y-93368881D01*
X174612545Y-93189163D01*
X174562301Y-93090554D01*
X174526760Y-93020801D01*
X174415690Y-92867927D01*
X174282073Y-92734310D01*
X174129199Y-92623240D01*
X173960836Y-92537454D01*
X173886472Y-92513291D01*
X173839195Y-92497930D01*
X173781521Y-92458493D01*
X173754323Y-92394134D01*
X173766238Y-92325288D01*
X173813482Y-92273812D01*
X173839194Y-92262069D01*
X173960832Y-92222547D01*
X174129199Y-92136760D01*
X174282073Y-92025690D01*
X174415690Y-91892073D01*
X174526760Y-91739199D01*
X174537457Y-91718205D01*
X174585432Y-91667409D01*
X174647942Y-91650500D01*
X175679192Y-91650500D01*
X175708632Y-91659144D01*
X175738619Y-91665668D01*
X175743634Y-91669422D01*
X175746231Y-91670185D01*
X175766873Y-91686819D01*
X175813181Y-91733127D01*
X175846666Y-91794450D01*
X175849500Y-91820808D01*
X175849500Y-102058672D01*
X175829815Y-102125711D01*
X175777011Y-102171466D01*
X175707853Y-102181410D01*
X175644297Y-102152385D01*
X175606841Y-102094672D01*
X175605502Y-102090259D01*
X175605501Y-102090256D01*
X175582999Y-102035931D01*
X175574195Y-102014675D01*
X175556469Y-101971881D01*
X175556468Y-101971880D01*
X175556466Y-101971874D01*
X175513873Y-101908129D01*
X175485278Y-101865332D01*
X175485272Y-101865325D01*
X171786819Y-98166872D01*
X171753334Y-98105549D01*
X171750500Y-98079191D01*
X171750500Y-89220808D01*
X171770185Y-89153769D01*
X171786819Y-89133127D01*
X171833127Y-89086819D01*
X171894450Y-89053334D01*
X171920808Y-89050500D01*
X172321487Y-89050500D01*
X172388526Y-89070185D01*
G37*
%TD.AperFunction*%
%TA.AperFunction,Conductor*%
G36*
X130346231Y-57970185D02*
G01*
X130366873Y-57986819D01*
X131013181Y-58633127D01*
X131046666Y-58694450D01*
X131049500Y-58720808D01*
X131049500Y-59852793D01*
X131029815Y-59919832D01*
X130998386Y-59953111D01*
X130925352Y-60006173D01*
X130786174Y-60145351D01*
X130786174Y-60145352D01*
X130786172Y-60145354D01*
X130747717Y-60198282D01*
X130670476Y-60304594D01*
X130580485Y-60481213D01*
X130532511Y-60532009D01*
X130464690Y-60548804D01*
X130398555Y-60526267D01*
X130359515Y-60481213D01*
X130292955Y-60350581D01*
X130269524Y-60304595D01*
X130153828Y-60145354D01*
X130014646Y-60006172D01*
X129855405Y-59890476D01*
X129850498Y-59887976D01*
X129680029Y-59801117D01*
X129492826Y-59740290D01*
X129298422Y-59709500D01*
X129298417Y-59709500D01*
X129101583Y-59709500D01*
X129101578Y-59709500D01*
X128907173Y-59740290D01*
X128719970Y-59801117D01*
X128544594Y-59890476D01*
X128475776Y-59940476D01*
X128385354Y-60006172D01*
X128385352Y-60006174D01*
X128385351Y-60006174D01*
X128246174Y-60145351D01*
X128246174Y-60145352D01*
X128246172Y-60145354D01*
X128207717Y-60198282D01*
X128130476Y-60304594D01*
X128040485Y-60481213D01*
X127992511Y-60532009D01*
X127924690Y-60548804D01*
X127858555Y-60526267D01*
X127819515Y-60481213D01*
X127752955Y-60350581D01*
X127729524Y-60304595D01*
X127613828Y-60145354D01*
X127474646Y-60006172D01*
X127315405Y-59890476D01*
X127310498Y-59887976D01*
X127140029Y-59801117D01*
X126952826Y-59740290D01*
X126758422Y-59709500D01*
X126758417Y-59709500D01*
X126561583Y-59709500D01*
X126561578Y-59709500D01*
X126367173Y-59740290D01*
X126179970Y-59801117D01*
X126004594Y-59890476D01*
X125935776Y-59940476D01*
X125845354Y-60006172D01*
X125845352Y-60006174D01*
X125845351Y-60006174D01*
X125706174Y-60145351D01*
X125706174Y-60145352D01*
X125706172Y-60145354D01*
X125667717Y-60198282D01*
X125590476Y-60304594D01*
X125500485Y-60481213D01*
X125452511Y-60532009D01*
X125384690Y-60548804D01*
X125318555Y-60526267D01*
X125279515Y-60481213D01*
X125212955Y-60350581D01*
X125189524Y-60304595D01*
X125073828Y-60145354D01*
X124934646Y-60006172D01*
X124775405Y-59890476D01*
X124770498Y-59887976D01*
X124600029Y-59801117D01*
X124412826Y-59740290D01*
X124218422Y-59709500D01*
X124218417Y-59709500D01*
X124021583Y-59709500D01*
X124021578Y-59709500D01*
X123827173Y-59740290D01*
X123639970Y-59801117D01*
X123464594Y-59890476D01*
X123395776Y-59940476D01*
X123305354Y-60006172D01*
X123305352Y-60006174D01*
X123305351Y-60006174D01*
X123166174Y-60145351D01*
X123166174Y-60145352D01*
X123166172Y-60145354D01*
X123127717Y-60198282D01*
X123050476Y-60304594D01*
X122960485Y-60481213D01*
X122912511Y-60532009D01*
X122844690Y-60548804D01*
X122778555Y-60526267D01*
X122739515Y-60481213D01*
X122672955Y-60350581D01*
X122649524Y-60304595D01*
X122533828Y-60145354D01*
X122394646Y-60006172D01*
X122235405Y-59890476D01*
X122230498Y-59887976D01*
X122060029Y-59801117D01*
X121872826Y-59740290D01*
X121678422Y-59709500D01*
X121678417Y-59709500D01*
X121481583Y-59709500D01*
X121481578Y-59709500D01*
X121287173Y-59740290D01*
X121099970Y-59801117D01*
X120924594Y-59890476D01*
X120855776Y-59940476D01*
X120765354Y-60006172D01*
X120765352Y-60006174D01*
X120765351Y-60006174D01*
X120626174Y-60145351D01*
X120626174Y-60145352D01*
X120626172Y-60145354D01*
X120587717Y-60198282D01*
X120510476Y-60304594D01*
X120420485Y-60481213D01*
X120372511Y-60532009D01*
X120304690Y-60548804D01*
X120238555Y-60526267D01*
X120199515Y-60481213D01*
X120132955Y-60350581D01*
X120109524Y-60304595D01*
X119993828Y-60145354D01*
X119854646Y-60006172D01*
X119695405Y-59890476D01*
X119690498Y-59887976D01*
X119520029Y-59801117D01*
X119332826Y-59740290D01*
X119138422Y-59709500D01*
X119138417Y-59709500D01*
X118941583Y-59709500D01*
X118941578Y-59709500D01*
X118747173Y-59740290D01*
X118559970Y-59801117D01*
X118384594Y-59890476D01*
X118315776Y-59940476D01*
X118225354Y-60006172D01*
X118225352Y-60006174D01*
X118225351Y-60006174D01*
X118086174Y-60145351D01*
X118086174Y-60145352D01*
X118086172Y-60145354D01*
X118028324Y-60224974D01*
X117970474Y-60304597D01*
X117936319Y-60371630D01*
X117888345Y-60422425D01*
X117820524Y-60439220D01*
X117754389Y-60416682D01*
X117715350Y-60371629D01*
X117654624Y-60252449D01*
X117615270Y-60198282D01*
X117615269Y-60198282D01*
X116982962Y-60830590D01*
X116965925Y-60767007D01*
X116900099Y-60652993D01*
X116807007Y-60559901D01*
X116692993Y-60494075D01*
X116629409Y-60477037D01*
X117261716Y-59844728D01*
X117207550Y-59805375D01*
X117018217Y-59708904D01*
X116816129Y-59643242D01*
X116606246Y-59610000D01*
X116393754Y-59610000D01*
X116183872Y-59643242D01*
X116183869Y-59643242D01*
X115981782Y-59708904D01*
X115792439Y-59805380D01*
X115738282Y-59844727D01*
X115738282Y-59844728D01*
X116370591Y-60477037D01*
X116307007Y-60494075D01*
X116192993Y-60559901D01*
X116099901Y-60652993D01*
X116034075Y-60767007D01*
X116017037Y-60830591D01*
X115384728Y-60198282D01*
X115384727Y-60198282D01*
X115345380Y-60252439D01*
X115248904Y-60441782D01*
X115183242Y-60643869D01*
X115183242Y-60643872D01*
X115150000Y-60853753D01*
X115150000Y-61066246D01*
X115183242Y-61276127D01*
X115183242Y-61276130D01*
X115248904Y-61478217D01*
X115345375Y-61667550D01*
X115384728Y-61721716D01*
X116017037Y-61089408D01*
X116034075Y-61152993D01*
X116099901Y-61267007D01*
X116192993Y-61360099D01*
X116307007Y-61425925D01*
X116370590Y-61442962D01*
X115701195Y-62112356D01*
X115639872Y-62145841D01*
X115625167Y-62144924D01*
X115625444Y-62147497D01*
X115542626Y-62156401D01*
X115542619Y-62156403D01*
X115407913Y-62206645D01*
X115407906Y-62206649D01*
X115292812Y-62292809D01*
X115292809Y-62292812D01*
X115206649Y-62407906D01*
X115206645Y-62407913D01*
X115156403Y-62542620D01*
X115156401Y-62542627D01*
X115150000Y-62602155D01*
X115150000Y-63250000D01*
X116066988Y-63250000D01*
X116034075Y-63307007D01*
X116000000Y-63434174D01*
X116000000Y-63565826D01*
X116034075Y-63692993D01*
X116066988Y-63750000D01*
X115150000Y-63750000D01*
X115150000Y-64397844D01*
X115156401Y-64457372D01*
X115156403Y-64457379D01*
X115206645Y-64592086D01*
X115206649Y-64592093D01*
X115292809Y-64707187D01*
X115292812Y-64707190D01*
X115407906Y-64793350D01*
X115407913Y-64793354D01*
X115542620Y-64843596D01*
X115542627Y-64843598D01*
X115602155Y-64849999D01*
X115602172Y-64850000D01*
X116250000Y-64850000D01*
X116250000Y-63933012D01*
X116307007Y-63965925D01*
X116434174Y-64000000D01*
X116565826Y-64000000D01*
X116692993Y-63965925D01*
X116750000Y-63933012D01*
X116750000Y-64850000D01*
X117397828Y-64850000D01*
X117397844Y-64849999D01*
X117457372Y-64843598D01*
X117457379Y-64843596D01*
X117592086Y-64793354D01*
X117592093Y-64793350D01*
X117707187Y-64707190D01*
X117707190Y-64707187D01*
X117793350Y-64592093D01*
X117793354Y-64592086D01*
X117843596Y-64457379D01*
X117843598Y-64457372D01*
X117849999Y-64397844D01*
X117850000Y-64397827D01*
X117850000Y-64371215D01*
X117869685Y-64304176D01*
X117922489Y-64258421D01*
X117991647Y-64248477D01*
X118055203Y-64277502D01*
X118074316Y-64298327D01*
X118086172Y-64314646D01*
X118225354Y-64453828D01*
X118294169Y-64503825D01*
X118384590Y-64569521D01*
X118384591Y-64569521D01*
X118384595Y-64569524D01*
X118431795Y-64593573D01*
X118482590Y-64641545D01*
X118499500Y-64704057D01*
X118499500Y-66585258D01*
X118479815Y-66652297D01*
X118463181Y-66672939D01*
X113859487Y-71276632D01*
X113859485Y-71276635D01*
X113783719Y-71407863D01*
X113744500Y-71554234D01*
X113744500Y-75431043D01*
X113724815Y-75498082D01*
X113693386Y-75531360D01*
X113537933Y-75644305D01*
X113537924Y-75644312D01*
X113404312Y-75777924D01*
X113404312Y-75777925D01*
X113404310Y-75777927D01*
X113388977Y-75799031D01*
X113293240Y-75930800D01*
X113207454Y-76099163D01*
X113167931Y-76220803D01*
X113128493Y-76278478D01*
X113064134Y-76305676D01*
X112995288Y-76293761D01*
X112943812Y-76246516D01*
X112932069Y-76220803D01*
X112912313Y-76160000D01*
X112892547Y-76099168D01*
X112892545Y-76099165D01*
X112892545Y-76099163D01*
X112844735Y-76005331D01*
X112806760Y-75930801D01*
X112695690Y-75777927D01*
X112562073Y-75644310D01*
X112409199Y-75533240D01*
X112393200Y-75525088D01*
X112240836Y-75447454D01*
X112061118Y-75389059D01*
X111874486Y-75359500D01*
X111874481Y-75359500D01*
X111685519Y-75359500D01*
X111685514Y-75359500D01*
X111498881Y-75389059D01*
X111319163Y-75447454D01*
X111150800Y-75533240D01*
X111084903Y-75581118D01*
X110997927Y-75644310D01*
X110997925Y-75644312D01*
X110997924Y-75644312D01*
X110864312Y-75777924D01*
X110864312Y-75777925D01*
X110864310Y-75777927D01*
X110848977Y-75799031D01*
X110753240Y-75930800D01*
X110667454Y-76099163D01*
X110627931Y-76220803D01*
X110588493Y-76278478D01*
X110524134Y-76305676D01*
X110455288Y-76293761D01*
X110403812Y-76246516D01*
X110392069Y-76220803D01*
X110372313Y-76160000D01*
X110352547Y-76099168D01*
X110352545Y-76099165D01*
X110352545Y-76099163D01*
X110304735Y-76005331D01*
X110266760Y-75930801D01*
X110155690Y-75777927D01*
X110051819Y-75674056D01*
X110018334Y-75612733D01*
X110015500Y-75586375D01*
X110015500Y-74263566D01*
X110035185Y-74196527D01*
X110066616Y-74163247D01*
X110092490Y-74144449D01*
X110132073Y-74115690D01*
X110265690Y-73982073D01*
X110376760Y-73829199D01*
X110462547Y-73660832D01*
X110520940Y-73481118D01*
X110526322Y-73447135D01*
X110550500Y-73294486D01*
X110550500Y-73105513D01*
X110520940Y-72918881D01*
X110481218Y-72796632D01*
X110462547Y-72739168D01*
X110462545Y-72739165D01*
X110462545Y-72739163D01*
X110376759Y-72570800D01*
X110265690Y-72417927D01*
X110132073Y-72284310D01*
X110120311Y-72275764D01*
X110066614Y-72236750D01*
X110023948Y-72181420D01*
X110015500Y-72136433D01*
X110015500Y-67255808D01*
X110035185Y-67188769D01*
X110051819Y-67168127D01*
X113608990Y-63610957D01*
X113905272Y-63314674D01*
X113905273Y-63314673D01*
X113905277Y-63314669D01*
X113976465Y-63208127D01*
X114025501Y-63089743D01*
X114028742Y-63073453D01*
X114029030Y-63072009D01*
X114048608Y-62973580D01*
X114050500Y-62964069D01*
X114050500Y-58720808D01*
X114070185Y-58653769D01*
X114086819Y-58633127D01*
X114733127Y-57986819D01*
X114794450Y-57953334D01*
X114820808Y-57950500D01*
X130279192Y-57950500D01*
X130346231Y-57970185D01*
G37*
%TD.AperFunction*%
%TA.AperFunction,Conductor*%
G36*
X153746231Y-57970185D02*
G01*
X153766873Y-57986819D01*
X154373181Y-58593127D01*
X154406666Y-58654450D01*
X154409500Y-58680808D01*
X154409500Y-59823731D01*
X154389815Y-59890770D01*
X154358386Y-59924049D01*
X154245352Y-60006173D01*
X154106174Y-60145351D01*
X154106174Y-60145352D01*
X154106172Y-60145354D01*
X154067717Y-60198282D01*
X153990476Y-60304594D01*
X153900485Y-60481213D01*
X153852511Y-60532009D01*
X153784690Y-60548804D01*
X153718555Y-60526267D01*
X153679515Y-60481213D01*
X153612955Y-60350581D01*
X153589524Y-60304595D01*
X153473828Y-60145354D01*
X153334646Y-60006172D01*
X153175405Y-59890476D01*
X153170498Y-59887976D01*
X153000029Y-59801117D01*
X152812826Y-59740290D01*
X152618422Y-59709500D01*
X152618417Y-59709500D01*
X152421583Y-59709500D01*
X152421578Y-59709500D01*
X152227173Y-59740290D01*
X152039970Y-59801117D01*
X151864594Y-59890476D01*
X151795776Y-59940476D01*
X151705354Y-60006172D01*
X151705352Y-60006174D01*
X151705351Y-60006174D01*
X151566174Y-60145351D01*
X151566174Y-60145352D01*
X151566172Y-60145354D01*
X151527717Y-60198282D01*
X151450476Y-60304594D01*
X151360485Y-60481213D01*
X151312511Y-60532009D01*
X151244690Y-60548804D01*
X151178555Y-60526267D01*
X151139515Y-60481213D01*
X151072955Y-60350581D01*
X151049524Y-60304595D01*
X150933828Y-60145354D01*
X150794646Y-60006172D01*
X150635405Y-59890476D01*
X150630498Y-59887976D01*
X150460029Y-59801117D01*
X150272826Y-59740290D01*
X150078422Y-59709500D01*
X150078417Y-59709500D01*
X149881583Y-59709500D01*
X149881578Y-59709500D01*
X149687173Y-59740290D01*
X149499970Y-59801117D01*
X149324594Y-59890476D01*
X149255776Y-59940476D01*
X149165354Y-60006172D01*
X149165352Y-60006174D01*
X149165351Y-60006174D01*
X149026174Y-60145351D01*
X149026174Y-60145352D01*
X149026172Y-60145354D01*
X148987717Y-60198282D01*
X148910476Y-60304594D01*
X148820485Y-60481213D01*
X148772511Y-60532009D01*
X148704690Y-60548804D01*
X148638555Y-60526267D01*
X148599515Y-60481213D01*
X148532955Y-60350581D01*
X148509524Y-60304595D01*
X148393828Y-60145354D01*
X148254646Y-60006172D01*
X148095405Y-59890476D01*
X148090498Y-59887976D01*
X147920029Y-59801117D01*
X147732826Y-59740290D01*
X147538422Y-59709500D01*
X147538417Y-59709500D01*
X147341583Y-59709500D01*
X147341578Y-59709500D01*
X147147173Y-59740290D01*
X146959970Y-59801117D01*
X146784594Y-59890476D01*
X146715776Y-59940476D01*
X146625354Y-60006172D01*
X146625352Y-60006174D01*
X146625351Y-60006174D01*
X146486174Y-60145351D01*
X146486174Y-60145352D01*
X146486172Y-60145354D01*
X146447717Y-60198282D01*
X146370476Y-60304594D01*
X146280485Y-60481213D01*
X146232511Y-60532009D01*
X146164690Y-60548804D01*
X146098555Y-60526267D01*
X146059515Y-60481213D01*
X145992955Y-60350581D01*
X145969524Y-60304595D01*
X145853828Y-60145354D01*
X145714646Y-60006172D01*
X145555405Y-59890476D01*
X145550498Y-59887976D01*
X145380029Y-59801117D01*
X145192826Y-59740290D01*
X144998422Y-59709500D01*
X144998417Y-59709500D01*
X144801583Y-59709500D01*
X144801578Y-59709500D01*
X144607173Y-59740290D01*
X144419970Y-59801117D01*
X144244594Y-59890476D01*
X144175776Y-59940476D01*
X144085354Y-60006172D01*
X144085352Y-60006174D01*
X144085351Y-60006174D01*
X143946174Y-60145351D01*
X143946174Y-60145352D01*
X143946172Y-60145354D01*
X143907717Y-60198282D01*
X143830476Y-60304594D01*
X143740485Y-60481213D01*
X143692511Y-60532009D01*
X143624690Y-60548804D01*
X143558555Y-60526267D01*
X143519515Y-60481213D01*
X143452955Y-60350581D01*
X143429524Y-60304595D01*
X143313828Y-60145354D01*
X143174646Y-60006172D01*
X143015405Y-59890476D01*
X143010498Y-59887976D01*
X142840029Y-59801117D01*
X142652826Y-59740290D01*
X142458422Y-59709500D01*
X142458417Y-59709500D01*
X142261583Y-59709500D01*
X142261578Y-59709500D01*
X142067173Y-59740290D01*
X141879970Y-59801117D01*
X141704594Y-59890476D01*
X141635776Y-59940476D01*
X141545354Y-60006172D01*
X141545352Y-60006174D01*
X141545351Y-60006174D01*
X141406174Y-60145351D01*
X141406174Y-60145352D01*
X141406172Y-60145354D01*
X141348324Y-60224974D01*
X141290474Y-60304597D01*
X141256319Y-60371630D01*
X141208345Y-60422425D01*
X141140524Y-60439220D01*
X141074389Y-60416682D01*
X141035350Y-60371629D01*
X140974624Y-60252449D01*
X140935270Y-60198282D01*
X140935269Y-60198282D01*
X140302962Y-60830590D01*
X140285925Y-60767007D01*
X140220099Y-60652993D01*
X140127007Y-60559901D01*
X140012993Y-60494075D01*
X139949409Y-60477037D01*
X140581716Y-59844728D01*
X140527550Y-59805375D01*
X140338217Y-59708904D01*
X140136129Y-59643242D01*
X139926246Y-59610000D01*
X139713754Y-59610000D01*
X139503872Y-59643242D01*
X139503869Y-59643242D01*
X139301782Y-59708904D01*
X139112439Y-59805380D01*
X139058282Y-59844727D01*
X139058282Y-59844728D01*
X139690591Y-60477037D01*
X139627007Y-60494075D01*
X139512993Y-60559901D01*
X139419901Y-60652993D01*
X139354075Y-60767007D01*
X139337037Y-60830591D01*
X138704728Y-60198282D01*
X138704727Y-60198282D01*
X138665380Y-60252439D01*
X138568904Y-60441782D01*
X138503242Y-60643869D01*
X138503242Y-60643872D01*
X138470000Y-60853753D01*
X138470000Y-61066246D01*
X138503242Y-61276127D01*
X138503242Y-61276130D01*
X138568904Y-61478217D01*
X138665375Y-61667550D01*
X138704728Y-61721716D01*
X139337037Y-61089408D01*
X139354075Y-61152993D01*
X139419901Y-61267007D01*
X139512993Y-61360099D01*
X139627007Y-61425925D01*
X139690590Y-61442962D01*
X139021195Y-62112356D01*
X138959872Y-62145841D01*
X138945167Y-62144924D01*
X138945444Y-62147497D01*
X138862626Y-62156401D01*
X138862619Y-62156403D01*
X138727913Y-62206645D01*
X138727906Y-62206649D01*
X138612812Y-62292809D01*
X138612809Y-62292812D01*
X138526649Y-62407906D01*
X138526645Y-62407913D01*
X138476403Y-62542620D01*
X138476401Y-62542627D01*
X138470000Y-62602155D01*
X138470000Y-63250000D01*
X139386988Y-63250000D01*
X139354075Y-63307007D01*
X139320000Y-63434174D01*
X139320000Y-63565826D01*
X139354075Y-63692993D01*
X139386988Y-63750000D01*
X138470000Y-63750000D01*
X138470000Y-64397844D01*
X138476401Y-64457372D01*
X138476403Y-64457379D01*
X138526645Y-64592086D01*
X138526649Y-64592093D01*
X138612809Y-64707187D01*
X138612812Y-64707190D01*
X138727906Y-64793350D01*
X138727913Y-64793354D01*
X138862620Y-64843596D01*
X138862627Y-64843598D01*
X138922155Y-64849999D01*
X138922172Y-64850000D01*
X139570000Y-64850000D01*
X139570000Y-63933012D01*
X139627007Y-63965925D01*
X139754174Y-64000000D01*
X139885826Y-64000000D01*
X140012993Y-63965925D01*
X140070000Y-63933012D01*
X140070000Y-64850000D01*
X140400500Y-64850000D01*
X140467539Y-64869685D01*
X140513294Y-64922489D01*
X140524500Y-64974000D01*
X140524500Y-70160258D01*
X140504815Y-70227297D01*
X140488181Y-70247939D01*
X137939487Y-72796632D01*
X137939485Y-72796635D01*
X137863719Y-72927863D01*
X137824500Y-73074234D01*
X137824500Y-75338686D01*
X137804815Y-75405725D01*
X137752011Y-75451480D01*
X137682853Y-75461424D01*
X137644211Y-75449174D01*
X137640837Y-75447455D01*
X137640834Y-75447454D01*
X137640832Y-75447453D01*
X137586000Y-75429637D01*
X137461118Y-75389059D01*
X137274486Y-75359500D01*
X137274481Y-75359500D01*
X137085519Y-75359500D01*
X137085514Y-75359500D01*
X136898881Y-75389059D01*
X136719163Y-75447454D01*
X136550800Y-75533240D01*
X136484903Y-75581118D01*
X136397927Y-75644310D01*
X136397925Y-75644312D01*
X136397924Y-75644312D01*
X136264312Y-75777924D01*
X136264312Y-75777925D01*
X136264310Y-75777927D01*
X136248977Y-75799031D01*
X136153240Y-75930800D01*
X136067454Y-76099163D01*
X136027931Y-76220803D01*
X135988493Y-76278478D01*
X135924134Y-76305676D01*
X135855288Y-76293761D01*
X135803812Y-76246516D01*
X135792069Y-76220803D01*
X135772313Y-76160000D01*
X135752547Y-76099168D01*
X135752545Y-76099165D01*
X135752545Y-76099163D01*
X135704735Y-76005331D01*
X135666760Y-75930801D01*
X135555690Y-75777927D01*
X135422073Y-75644310D01*
X135269199Y-75533240D01*
X135253200Y-75525088D01*
X135100836Y-75447454D01*
X134921118Y-75389059D01*
X134734486Y-75359500D01*
X134734481Y-75359500D01*
X134545519Y-75359500D01*
X134545514Y-75359500D01*
X134358881Y-75389059D01*
X134179163Y-75447454D01*
X134010800Y-75533240D01*
X133944903Y-75581118D01*
X133857927Y-75644310D01*
X133857925Y-75644312D01*
X133857924Y-75644312D01*
X133724312Y-75777924D01*
X133724312Y-75777925D01*
X133724310Y-75777927D01*
X133708977Y-75799031D01*
X133613240Y-75930800D01*
X133527454Y-76099163D01*
X133487931Y-76220803D01*
X133448493Y-76278478D01*
X133384134Y-76305676D01*
X133315288Y-76293761D01*
X133263812Y-76246516D01*
X133252069Y-76220803D01*
X133232313Y-76160000D01*
X133212547Y-76099168D01*
X133212545Y-76099165D01*
X133212545Y-76099163D01*
X133164735Y-76005331D01*
X133126760Y-75930801D01*
X133015690Y-75777927D01*
X132882073Y-75644310D01*
X132875274Y-75639370D01*
X132726614Y-75531360D01*
X132683948Y-75476030D01*
X132675500Y-75431043D01*
X132675500Y-67824235D01*
X132675499Y-67824231D01*
X132667872Y-67795767D01*
X132667871Y-67795765D01*
X132647086Y-67718189D01*
X132636281Y-67677865D01*
X132582953Y-67585499D01*
X132560515Y-67546635D01*
X132453365Y-67439485D01*
X131061819Y-66047939D01*
X131028334Y-65986616D01*
X131025500Y-65960258D01*
X131025500Y-64741763D01*
X131045185Y-64674724D01*
X131097989Y-64628969D01*
X131167147Y-64619025D01*
X131205795Y-64631278D01*
X131259970Y-64658882D01*
X131259972Y-64658882D01*
X131259975Y-64658884D01*
X131360317Y-64691487D01*
X131447173Y-64719709D01*
X131641578Y-64750500D01*
X131641583Y-64750500D01*
X131838422Y-64750500D01*
X132032826Y-64719709D01*
X132059965Y-64710891D01*
X132220025Y-64658884D01*
X132395405Y-64569524D01*
X132554646Y-64453828D01*
X132693828Y-64314646D01*
X132809524Y-64155405D01*
X132898884Y-63980025D01*
X132959709Y-63792826D01*
X132971076Y-63721059D01*
X132977700Y-63679240D01*
X132990500Y-63598422D01*
X132990500Y-63401577D01*
X132959709Y-63207173D01*
X132898882Y-63019970D01*
X132835000Y-62894595D01*
X132809524Y-62844595D01*
X132693828Y-62685354D01*
X132554646Y-62546172D01*
X132401612Y-62434986D01*
X132398273Y-62430655D01*
X132393297Y-62428383D01*
X132377166Y-62403283D01*
X132358949Y-62379658D01*
X132357696Y-62372986D01*
X132355523Y-62369605D01*
X132350500Y-62334670D01*
X132350500Y-62125330D01*
X132370185Y-62058291D01*
X132401611Y-62025014D01*
X132554646Y-61913828D01*
X132693828Y-61774646D01*
X132809524Y-61615405D01*
X132898884Y-61440025D01*
X132959709Y-61252826D01*
X132975521Y-61152993D01*
X132990500Y-61058422D01*
X132990500Y-60861580D01*
X132990499Y-60861574D01*
X132959709Y-60667173D01*
X132898882Y-60479970D01*
X132832955Y-60350581D01*
X132809524Y-60304595D01*
X132693828Y-60145354D01*
X132554646Y-60006172D01*
X132535559Y-59992304D01*
X132401615Y-59894988D01*
X132358949Y-59839658D01*
X132350500Y-59794670D01*
X132350500Y-58335928D01*
X132325502Y-58210261D01*
X132325501Y-58210260D01*
X132325501Y-58210256D01*
X132313420Y-58181089D01*
X132288925Y-58121952D01*
X132281456Y-58052483D01*
X132312731Y-57990004D01*
X132372821Y-57954352D01*
X132403486Y-57950500D01*
X132435931Y-57950500D01*
X153679192Y-57950500D01*
X153746231Y-57970185D01*
G37*
%TD.AperFunction*%
%TA.AperFunction,Conductor*%
G36*
X117615270Y-61721717D02*
G01*
X117615270Y-61721716D01*
X117654622Y-61667554D01*
X117715350Y-61548370D01*
X117763324Y-61497574D01*
X117831145Y-61480779D01*
X117897280Y-61503316D01*
X117936320Y-61548370D01*
X117970476Y-61615405D01*
X118086172Y-61774646D01*
X118225354Y-61913828D01*
X118384595Y-62029524D01*
X118427294Y-62051280D01*
X118561213Y-62119515D01*
X118612009Y-62167489D01*
X118628804Y-62235310D01*
X118606267Y-62301445D01*
X118561213Y-62340485D01*
X118384594Y-62430476D01*
X118336112Y-62465701D01*
X118225354Y-62546172D01*
X118225352Y-62546174D01*
X118225351Y-62546174D01*
X118086171Y-62685354D01*
X118074317Y-62701671D01*
X118018987Y-62744336D01*
X117949373Y-62750314D01*
X117887579Y-62717707D01*
X117853222Y-62656868D01*
X117850000Y-62628784D01*
X117850000Y-62602172D01*
X117849999Y-62602155D01*
X117843598Y-62542627D01*
X117843596Y-62542620D01*
X117793354Y-62407913D01*
X117793350Y-62407906D01*
X117707190Y-62292812D01*
X117707187Y-62292809D01*
X117592093Y-62206649D01*
X117592086Y-62206645D01*
X117457380Y-62156403D01*
X117457373Y-62156401D01*
X117374555Y-62147497D01*
X117374884Y-62144431D01*
X117357875Y-62145330D01*
X117298803Y-62112356D01*
X116629408Y-61442962D01*
X116692993Y-61425925D01*
X116807007Y-61360099D01*
X116900099Y-61267007D01*
X116965925Y-61152993D01*
X116982962Y-61089408D01*
X117615270Y-61721717D01*
G37*
%TD.AperFunction*%
%TD*%
M02*
